<svg width="385" height="418" viewBox="0 0 385 418" fill="none" xmlns="http://www.w3.org/2000/svg">
<path d="M0.41686 0.331207C0.178654 0.520325 0 93.3816 0 206.669V412.628L7.62258 413.006C11.7912 413.258 22.3318 413.447 31.1454 413.51C40.9118 413.51 46.9265 413.763 46.7479 414.141C46.5097 414.456 47.2243 414.708 48.2367 414.708C49.249 414.708 49.9636 414.456 49.7254 414.141C49.5468 413.763 53.0008 413.51 58.7773 413.573C64.3751 413.573 67.3527 413.826 66.1021 414.078L64.0178 414.519L66.1021 414.645C67.5313 414.708 67.9482 414.897 67.3527 415.276C66.8167 415.654 67.4718 415.906 69.437 416.095C71.0449 416.221 72.4741 416.158 72.7123 415.843C72.891 415.591 73.9629 415.654 75.0348 415.969C77.5955 416.726 77.5955 416.726 77.1191 415.969C76.8809 415.591 77.7742 415.339 79.382 415.339C80.8113 415.339 83.7293 415.15 85.8136 414.897C88.7316 414.582 89.2676 414.393 88.1361 414.015C87.3024 413.763 104.811 413.573 127.023 413.51C153.821 413.447 167.28 413.637 167.042 414.078C166.804 414.456 167.399 414.708 168.471 414.708C169.424 414.708 170.377 415.087 170.496 415.465C170.734 416.095 170.853 416.095 170.853 415.465C170.913 414.897 173.056 414.708 179.428 414.645C184.907 414.582 187.17 414.393 185.8 414.078C184.669 413.826 200.629 413.573 221.353 413.573C242.136 413.637 258.87 413.889 258.691 414.141C258.513 414.456 257.619 414.708 256.607 414.708C255.654 414.708 254.88 414.96 254.88 415.339C254.88 415.654 255.595 415.969 256.428 415.969C257.441 415.969 257.798 416.221 257.5 416.726C257.143 417.356 257.262 417.356 257.917 416.726C258.87 415.843 259.882 415.717 259.346 416.6C258.751 417.608 260.835 418.176 262.086 417.356C262.681 416.915 263.753 416.6 264.408 416.6C265.063 416.6 265.599 416.347 265.599 415.969C265.599 415.654 265.183 415.528 264.706 415.717C264.23 415.969 263.813 415.78 263.813 415.465C263.813 415.087 264.289 414.645 264.885 414.519C265.659 414.267 265.599 414.204 264.647 414.141C263.932 414.141 263.217 414.456 263.039 414.96C262.86 415.465 262.086 416.221 261.312 416.663C260.538 417.041 260.121 417.167 260.359 416.915C260.597 416.663 260.538 415.78 260.24 414.96C259.882 414.015 259.882 413.447 260.24 413.447C260.597 413.447 260.835 413.889 260.835 414.393C260.835 414.897 261.133 415.339 261.431 415.339C261.788 415.339 262.026 414.897 262.026 414.393C262.026 413.573 269.053 413.447 321.875 413.447H381.725V405.693C381.725 401.469 381.725 327.332 381.725 240.901V83.7992L383.333 83.547L385 83.2949L383.392 83.1688L381.725 83.1057L381.606 41.6239L381.427 0.205109L191.101 0.0159912C86.4091 -0.0470581 0.595514 0.0790405 0.41686 0.331207ZM91.7092 26.0524C91.7092 41.813 92.1856 48.6846 94.1508 60.4105C96.4733 74.0907 101.118 92.4991 104.811 102.397C106.776 107.566 110.647 115.888 111.063 115.888C111.242 115.888 110.766 114.375 110.051 112.546C107.073 104.666 101.654 87.0774 99.5104 78.0623C94.9845 59.2127 93.4957 46.0368 93.4957 25.359V11.2375H232.191H370.886L371.184 16.0918C371.541 23.3416 371.363 401.28 370.946 401.722C370.767 401.911 339.92 402.037 302.343 401.974L234.097 401.785L236.062 397.056C237.134 394.472 243.446 380.855 250.056 366.796C262.384 340.76 270.602 321.784 270.185 320.523C270.066 320.145 268.458 322.919 266.612 326.764C264.23 331.808 261.49 336.094 256.607 342.525C252.915 347.379 248.449 353.494 246.662 356.079C239.933 365.787 233.799 374.298 233.561 374.109C233.084 373.542 237.491 357.277 240.588 348.262C246.067 332.249 251.783 316.488 252.855 314.408C253.332 313.336 253.689 312.328 253.51 312.201C253.034 311.634 251.724 313.904 249.52 319.325C247.913 323.297 246.126 326.323 243.208 329.979L239.099 335.086L238.92 332.942C238.682 330.421 239.933 325.693 242.732 318.254C244.34 313.967 245.292 312.328 247.555 310.184C250.354 307.536 250.354 307.536 248.151 308.86C246.96 309.554 245.769 310.436 245.59 310.751C244.28 313.021 243.744 309.049 244.518 302.871C244.875 300.223 244.995 300.034 245.709 301.106C246.126 301.736 247.734 302.808 249.342 303.439C253.094 304.952 264.468 311.697 271.674 316.677C276.319 319.893 278.046 321.595 280.785 325.44C284.179 330.232 289.658 335.086 294.601 337.734C295.971 338.427 297.281 339.057 297.459 339.057C298.234 339.057 297.162 333.51 295.018 326.323C294.78 325.44 294.899 325.188 295.316 325.44C296.447 326.197 306.333 342.273 309.608 348.766C311.93 353.242 312.943 354.755 313.3 354.062C313.955 352.801 312.824 338.049 311.514 331.177C309.965 323.234 307.166 316.047 302.998 309.302C299.305 303.312 288.824 291.398 284.001 287.615C282.155 286.165 280.725 284.4 279.713 282.13C278.939 280.365 278.284 278.789 278.343 278.789C278.343 278.726 280.428 279.23 282.869 279.924C292.338 282.509 300.497 279.293 301.688 272.422C302.521 267.631 299.544 258.489 294.66 250.861C290.254 244.053 282.81 235.416 271.852 224.384L266.016 218.521L267.326 215.684C269.411 211.145 280.249 190.656 285.43 181.578C288.705 175.778 290.611 173.004 291.683 172.563C295.613 170.987 307.047 164.493 312.347 160.774C320.684 155.037 330.153 144.887 333.071 138.772C336.644 131.018 336.585 124.525 332.833 119.985C330.63 117.338 327.771 116.266 323.662 116.644C318.6 117.086 313.598 120.112 307.047 126.668C303.891 129.82 301.33 132.09 301.33 131.711C301.33 130.072 306.69 115.257 308.179 112.736C310.084 109.457 317.409 100.064 330.153 84.4926C339.384 73.2081 342.182 69.3625 341.587 68.7951C340.991 68.1647 339.205 70.1821 326.64 85.6274C310.203 105.738 310.322 105.675 310.263 104.477C310.203 101.136 312.228 97.0381 316.337 92.2469L320.625 87.2035L316.992 90.7969C314.967 92.8142 313.181 94.4533 313.002 94.4533C312.883 94.4533 313.002 93.6968 313.3 92.6881C313.598 91.7425 315.027 87.2035 316.516 82.5384C320.565 69.7408 324.138 62.7431 332.535 51.2694C335.334 47.4238 337.657 44.0826 337.657 43.7673C337.716 41.1826 325.151 59.4018 320.625 68.606C319.672 70.4973 317.647 75.0363 316.159 78.6928C313.241 85.8796 312.288 86.7622 309.608 84.4296L308.179 83.2318L309.608 80.1427C311.573 75.982 315.623 65.2648 315.384 64.9496C315.265 64.8235 314.193 65.643 313.002 66.7148C310.68 68.8582 310.322 68.4169 311.811 65.3909C312.288 64.3192 312.645 63.3104 312.466 63.1844C312.347 63.0583 311.752 64.067 311.156 65.4539C310.561 66.7778 309.608 68.4169 309.072 68.9212C308.06 69.8669 307.762 69.8038 304.665 67.5974C302.819 66.3365 301.33 65.0126 301.33 64.6974C301.33 64.1931 303.712 65.5169 305.499 67.093C306.273 67.7865 306.392 67.3452 306.392 64.0039C306.452 60.4735 308.238 52.9715 308.834 53.665C309.012 53.8541 308.834 55.7454 308.536 57.9518C307.94 61.7974 308.06 63.6887 308.774 61.2931C309.965 57.2584 311.752 54.8628 317.409 49.6303L319.493 47.739L316.992 48.9998C314.253 50.4498 313.598 50.6389 314.074 49.7563C314.432 49.189 320.684 45.2804 321.28 45.2804C321.935 45.2804 321.459 47.676 320.029 51.8998C316.814 61.6083 316.992 61.9865 320.863 53.791C323.96 47.2977 325.568 42.1282 324.674 41.5609C324.258 41.3087 324.198 40.8044 324.555 40.237C324.913 39.7326 325.151 38.9131 325.151 38.4088C325.151 37.7153 324.913 37.7153 324.019 38.5979C323.007 39.5435 322.888 39.5435 322.114 38.5979C321.637 37.9674 318.779 35.3197 315.682 32.5458C311.156 28.5111 309.965 27.7546 309.251 28.385C308.536 28.9524 308.119 28.7632 307.047 27.3763L305.737 25.6111L303.176 26.9981C301.807 27.8176 300.377 29.1415 300.08 30.0241C299.663 31.1588 299.186 31.4741 298.353 31.2219C297.638 31.0328 297.162 31.2219 297.162 31.6632C297.162 32.1045 296.328 33.6806 295.316 35.1936C292.219 39.7326 292.1 41.1196 294.125 49.6303C295.137 53.791 295.971 58.204 295.971 59.4018C295.971 60.9148 294.958 63.7518 293.053 67.7234C290.313 73.2711 284.775 85.5644 281.261 93.8229C278.046 101.262 276.259 104.918 274.83 106.747C272.984 109.142 272.984 109.52 274.532 94.3903C276.021 80.6471 276.259 69.8669 275.187 66.5887C274.056 62.9952 271.495 61.0409 267.922 61.0409C262.622 61.0409 259.049 63.1844 234.633 80.8993C229.571 84.5557 224.092 88.4013 222.425 89.3469C220.817 90.2925 216.648 92.8142 213.194 94.8946C204.381 100.253 198.902 103.09 200.391 101.514C203.666 98.1098 216.648 85.8796 222.603 80.6471C226.236 77.3689 229.273 74.4689 229.273 74.1537C229.273 73.8385 227.189 75.4146 224.688 77.6211C222.127 79.8275 217.125 83.9883 213.492 86.8883C204.857 93.886 202.832 95.5881 194.733 102.712C186.813 109.647 181.691 113.681 181.275 113.177C180.798 112.736 187.587 104.729 190.505 102.334C191.934 101.136 193.006 100.127 192.768 100.127C192.411 100.127 191.458 100.695 180.441 107.692C171.032 113.681 170.972 113.744 174.188 110.592C178.297 106.557 186.158 100.947 193.244 97.0381C198.664 94.0751 215.159 81.5927 226.593 71.8842C239.754 60.7257 260.478 40.4261 262.92 36.2653C265.123 32.6089 263.158 34.1219 256.607 41.2456C249.759 48.6216 239.695 58.3301 229.273 67.7234C219.149 76.7385 199.259 91.8686 198.485 91.049C198.306 90.8599 199.438 89.473 201.046 88.023C207.656 81.9709 211.705 77.558 214.147 73.7124C216.708 69.6147 217.125 68.1647 215.159 69.993C214.564 70.5603 210.753 72.4516 206.703 74.2798C202.594 76.045 196.877 78.8188 193.959 80.3949C191.041 81.9079 188.778 82.8535 188.897 82.4753C189.016 82.097 194.316 76.108 200.688 69.1734C207.06 62.1757 212.658 55.8715 213.135 55.1149C214.385 53.2237 208.787 58.2671 201.165 65.8952C197.651 69.4256 193.304 73.3342 191.637 74.4689C187.17 77.495 171.985 93.4447 169.662 97.6055C167.34 101.577 166.863 100.884 167.935 95.2729C168.769 91.3012 170.019 89.7252 176.451 84.8709C178.416 83.3579 180.739 81.5297 181.572 80.7101C182.882 79.4493 182.942 79.3232 181.811 79.8906C178.952 81.4036 179.131 80.3949 182.406 77.1797C184.252 75.3515 185.8 73.5233 185.8 73.082C185.8 72.0103 184.193 73.019 179.071 77.2428C176.749 79.1341 174.069 81.0884 173.116 81.6558C171.449 82.5384 171.389 82.5384 171.865 81.0884C172.104 80.2688 175.677 72.5146 179.845 63.8778C186.515 49.9455 189.85 42.1282 189.016 42.1282C188.897 42.1282 187.527 44.776 186.039 47.9281C183.657 52.9715 182.525 54.5475 177.88 59.1497C165.791 71.1277 159.657 81.5297 157.156 94.1381C156.442 97.6054 155.548 100.821 155.072 101.325C154.179 102.334 154.298 102.586 152.869 97.2903L151.975 94.1381L151.916 96.6598C151.916 98.0468 152.154 100.442 152.392 101.955C152.869 104.477 152.69 105.234 150.01 111.097C147.211 117.212 145.901 121.688 148.224 117.149C148.819 115.951 150.248 113.303 151.439 111.223L153.524 107.566L154.596 111.16L155.667 114.816L154.179 117.653L152.63 120.553L157.752 129.064C170.436 150.498 171.151 152.011 169.781 154.28C169.305 155.037 168.888 155.1 167.756 154.533C166.684 153.965 165.196 151.444 162.218 144.95C160.015 140.033 158.109 136.187 157.93 136.313C157.811 136.503 158.943 140.033 160.432 144.194C163.171 151.759 163.647 153.713 162.695 153.713C162.099 153.713 160.074 151.444 159.062 149.615C158.347 148.418 158.347 148.418 158.585 149.741C158.943 151.507 158.943 151.507 156.084 149.994C154.596 149.174 152.988 147.409 151.261 144.572C149.891 142.302 148.581 140.537 148.462 140.726C148.343 140.852 149.057 142.555 150.07 144.572C151.082 146.526 151.677 148.039 151.439 147.85C149.653 146.778 142.09 143.374 137.206 141.42C133.931 140.159 131.013 138.772 130.596 138.394C130.06 137.826 122.438 118.094 116.066 100.821C115.768 100.001 115.351 99.4337 115.232 99.6228C115.053 99.7489 116.304 103.973 117.971 109.016C119.639 113.996 121.306 119.229 121.783 120.616C122.2 122.003 123.927 127.109 125.594 131.964C127.321 136.818 129.465 143.879 130.358 147.724C131.311 151.507 132.919 156.613 133.931 159.072C139.112 171.05 145.603 189.647 145.127 191.097C144.77 192.232 136.551 171.113 130.715 154.028C129.643 150.876 127.023 144.383 124.879 139.592C122.676 134.8 119.817 127.109 118.448 122.444C117.078 117.779 115.828 114.123 115.708 114.249C115.589 114.375 116.006 117.086 116.721 120.301C117.376 123.579 117.793 126.29 117.674 126.416C117.078 127.046 112.433 123.264 111.063 121.057C107.788 115.762 91.1137 73.5864 91.1137 70.4973C91.1137 69.4256 90.8755 69.2364 89.9227 69.5516C89.0294 69.8669 88.553 69.4256 87.6597 67.5343C85.6945 63.4996 85.4563 60.1583 86.8855 57.2584C88.553 53.9171 88.4339 53.5389 86.5878 55.4301L84.9799 56.9432L85.3372 52.4672C85.5159 50.0085 86.0518 46.3521 86.5282 44.2717C87.6597 39.5435 88.1361 33.9327 87.4215 33.9327C86.6473 33.9327 84.6226 31.2849 84.563 30.2763C84.563 29.898 84.3248 29.5197 84.0271 29.5197C83.7293 29.5197 83.372 29.898 83.1933 30.2763C82.836 31.411 80.454 29.0785 79.5012 26.6829C78.7865 24.9177 78.5483 24.7916 75.4517 24.8546C71.9977 24.9177 71.8786 24.9807 65.6257 30.4023C63.1245 32.5458 60.266 35.9501 57.4076 40.1109C56.5143 41.3717 56.5143 41.6239 57.348 42.6326C58.3008 43.7673 64.4346 58.0779 66.5785 64.3191C67.6504 67.3452 67.71 67.9756 66.9954 68.606C66.3403 69.2365 65.9234 68.9212 64.9111 67.2191L63.6605 65.1387L64.0773 67.03C64.256 68.0386 65.2684 72.1364 66.2212 76.045C67.174 80.0167 67.8886 83.2949 67.7695 83.4209C67.6504 83.547 65.983 84.934 64.0178 86.51C62.0526 88.0861 59.611 90.1034 58.5986 90.986L56.693 92.6251L54.3705 88.9687C51.9288 85.1861 50.0232 83.9253 50.0232 86.1317C50.0232 86.8252 50.4996 87.7708 51.0356 88.2122C51.5715 88.7165 52.7626 90.3556 53.7154 91.8686L55.3828 94.7055L53.9536 96.2816C49.785 101.136 45.4377 110.214 43.3534 118.409C42.222 122.948 41.9838 125.344 41.9838 133.855C41.9838 144.572 42.5793 147.976 45.4973 155.73C49.785 166.889 59.1346 177.48 71.2831 184.793C80.7517 190.53 93.4362 195.321 105.763 197.843C111.897 199.104 122.676 200.238 122.08 199.545C121.902 199.356 117.495 198.347 112.314 197.212C82.5383 190.971 62.1717 179.497 51.8693 163.106C42.3411 148.039 41.4478 125.344 49.6659 107.629C51.512 103.721 55.5019 97.4794 56.3357 97.2272C56.6334 97.1011 60.3256 103.153 64.6133 110.718C73.01 125.533 79.2629 134.485 85.2181 139.97C87.3024 141.924 89.8631 144.32 90.935 145.328C91.9474 146.274 94.4486 150.498 96.4733 154.659C98.4981 158.82 101.118 163.737 102.309 165.565C103.441 167.33 104.275 169.032 104.096 169.222C103.619 169.726 91.4114 155.478 84.8608 146.778C81.8832 142.807 76.5831 135.242 73.0696 130.072C67.0549 121.12 61.8739 114.186 63.8391 117.779C64.9111 119.607 75.5112 135.872 79.2034 141.294C81.0495 143.942 81.5855 145.328 81.3473 146.337C81.109 147.535 81.645 148.291 84.2653 150.498C90.1609 155.478 96.4733 163.8 99.5104 170.608C101.059 173.95 102.012 176.85 101.714 176.913C101.118 177.165 96.3542 173.445 92.4834 169.663C88.8507 166.132 83.908 160.017 77.8933 151.633C73.1887 145.013 71.4617 143.185 71.4617 144.761C71.4617 145.013 73.7842 148.355 76.6427 152.137C83.4315 161.278 94.5081 173.193 99.5104 176.787C103.024 179.371 103.679 180.128 105.108 183.721C106.895 188.197 107.907 188.954 107.371 185.486L107.014 183.28L113.207 187.441C116.602 189.773 120.949 192.799 122.855 194.186L126.309 196.645L123.748 192.988C117.495 184.1 111.778 176.282 109.039 172.941C105.763 168.969 105.406 167.456 108.443 170.482C113.386 175.4 120.949 185.045 125.713 192.673C128.631 197.275 131.013 201.373 131.013 201.814C131.013 202.256 129.941 205.219 128.631 208.434C126.07 214.738 125.713 216.125 127.083 214.864C127.559 214.486 128.691 212.09 129.643 209.632C130.775 206.606 131.37 205.534 131.49 206.416C131.728 207.993 129.703 216.692 128.036 221.358L126.845 224.636L110.944 235.668C71.2235 263.218 57.1694 275.952 48.1771 292.658C43.413 301.421 40.6141 312.643 41.3287 319.514C42.6388 331.303 52.3457 336.725 63.7796 332.123C65.3875 331.492 66.6976 331.114 66.6976 331.303C66.6976 331.429 65.7448 334.581 64.6133 338.301C62.2908 345.74 59.4919 357.277 59.4323 360.051C59.3728 362.446 60.5638 363.707 60.9807 361.69C61.1593 360.87 61.993 356.835 62.8863 352.738C64.0773 346.686 67.0549 336.41 69.3774 330.169C69.8538 328.845 86.9451 315.858 86.9451 316.804C86.9451 317.623 79.263 329.349 76.8213 332.312C75.5112 333.888 74.4393 335.338 74.4393 335.527C74.4393 336.473 75.6899 335.59 79.5012 331.997C91.5305 320.712 123.748 298.206 122.319 302.052C121.783 303.565 114.22 309.238 108.384 312.58C102.548 315.858 103.024 316.047 110.944 313.399C113.505 312.58 115.828 311.949 116.066 312.075C116.363 312.201 113.922 315.669 110.647 319.83C103.322 329.286 95.4609 340.066 96.3542 339.436C97.0093 338.994 100.106 335.212 113.207 318.569C117.316 313.336 122.2 307.915 124.046 306.402C125.892 304.952 127.44 303.88 127.44 304.069C127.44 305.834 122.2 313.399 115.47 321.406C113.326 323.99 109.277 328.845 106.538 332.186C103.798 335.527 99.6891 340.444 97.4261 343.092C95.1632 345.74 93.4362 348.073 93.6148 348.262C94.2104 348.829 102.012 345.362 107.431 342.084C114.458 337.797 121.366 332.942 129.524 326.449C133.157 323.612 136.79 320.901 137.742 320.397C139.231 319.577 139.35 319.577 139.35 320.712C139.35 321.406 137.742 323.486 135.658 325.503C132.145 328.845 132.978 328.782 137.445 325.314C138.457 324.432 139.35 324.053 139.35 324.369C139.35 324.747 138.278 330.232 136.968 336.599C134.288 349.523 132.561 363.896 133.157 367.679L133.514 370.2L134.348 368.561C134.824 367.616 135.539 365.409 136.015 363.518C137.445 357.781 142.09 346.623 143.043 346.623C143.34 346.623 143.459 349.649 143.4 353.368C143.221 359.861 143.162 360.177 141.911 360.366C140.125 360.618 140.125 361.753 141.911 361.753C143.281 361.753 143.34 362.068 144.293 369.444C144.829 373.731 145.425 378.774 145.603 380.665L145.961 384.133L143.519 379.531C142.149 376.946 140.899 374.992 140.78 375.181C140.66 375.307 141.196 377.072 142.09 379.152C143.459 382.431 149.474 400.839 149.474 401.722C149.474 401.911 118.21 402.1 79.9776 402.1H10.4215L10.5406 374.235C10.6002 358.853 10.7193 270.909 10.7193 178.741V11.2375H51.2142H91.7092V26.0524ZM78.0124 27.9437C78.4292 28.5111 78.6674 29.0785 78.4888 29.2046C77.8933 29.835 74.4393 28.7002 74.4393 27.8806C74.4393 26.6829 77.0595 26.7459 78.0124 27.9437ZM306.094 28.7632C306.094 29.5197 303.474 32.0414 302.7 32.0414C301.449 32.0414 301.807 29.7089 303.176 28.6372C304.308 27.8176 306.094 27.8806 306.094 28.7632ZM72.8314 33.4284C75.3326 42.1913 74.5584 43.9565 71.4617 36.6436C69.3774 31.7893 69.1988 30.1502 70.8066 30.1502C71.5808 30.1502 72.1168 31.0328 72.8314 33.4284ZM81.5259 31.9784C82.181 32.4197 83.1933 33.4284 83.7889 34.311C84.6821 35.824 84.6821 35.9501 83.7293 36.9588C82.7169 37.9674 82.5978 37.9674 81.7046 36.4544C81.109 35.5718 80.0371 34.1849 79.2034 33.4284L77.7146 31.9154L77.4169 33.6806C77.1786 35.0675 77 35.1936 76.464 34.5001C75.0944 32.735 74.9157 30.9067 76.0472 30.6545C77.2978 30.3393 79.6203 30.9697 81.5259 31.9784ZM311.514 30.7806C312.169 31.1588 312.645 32.1045 312.645 33.0501C312.645 34.3741 312.883 34.5632 313.836 34.248C315.384 33.7436 318.064 35.5088 317.647 36.7066C317.469 37.2109 317.826 37.7783 318.481 37.9674C319.136 38.2196 320.089 38.9131 320.625 39.5435C321.518 40.5522 321.518 40.9304 320.863 42.0652C319.97 43.5782 319.196 43.7673 319.196 42.5695C319.196 42.1282 318.838 41.1826 318.362 40.4891C317.528 39.2914 317.469 39.3544 315.742 41.0565C314.67 42.1913 313.657 42.6326 313.062 42.3804C311.573 41.813 311.811 40.4891 313.598 39.0392C315.563 37.4001 314.134 37.2109 311.394 38.724C310.382 39.2283 309.429 39.5435 309.251 39.3544C308.655 38.724 308.595 35.1936 309.131 34.8153C309.429 34.6262 309.667 34.1849 309.667 33.8067C309.667 33.4284 309.131 33.6175 308.476 34.248C307.404 35.2566 307.285 35.2566 307.285 34.3741C307.285 33.7436 306.868 33.3023 306.392 33.3023C305.261 33.3023 305.261 32.7349 306.511 31.2849C307.583 30.0241 309.727 29.835 311.514 30.7806ZM64.6133 33.3023C64.4346 33.6175 64.0178 33.9327 63.6605 33.9327C63.3627 33.9327 63.1245 33.6175 63.1245 33.3023C63.1245 32.9241 63.5414 32.6719 64.0773 32.6719C64.5537 32.6719 64.792 32.9241 64.6133 33.3023ZM70.0325 37.337C72.7718 43.5782 71.5213 44.6499 67.9482 39.0392C65.8043 35.6979 65.6852 35.3197 66.519 34.3741C67.8291 33.0501 68.365 33.4915 70.0325 37.337ZM303.057 34.8784C304.07 35.5088 303.831 36.2023 302.104 37.4001C300.675 38.4088 300.497 38.4088 299.841 37.4631C298.829 36.0132 298.472 36.2023 297.459 38.787C296.626 40.8674 296.387 41.0565 295.911 40.1109C295.494 39.2914 295.673 38.3457 296.685 36.4544C297.936 34.1219 298.234 33.9327 300.258 34.1849C301.449 34.311 302.759 34.6262 303.057 34.8784ZM65.3279 38.4718C67.3527 40.8044 69.8538 45.2804 69.437 45.7216C69.2583 45.9108 67.71 44.5869 66.1021 42.6956C63.3627 39.6065 63.0054 39.3544 62.2908 40.3631C61.2784 41.813 60.7425 41.813 60.7425 40.3C60.7425 39.2283 62.7672 37.0849 63.72 37.0849C63.9582 37.0849 64.6729 37.7153 65.3279 38.4718ZM85.8136 40.0479C85.8732 41.3717 85.8732 42.6956 85.8732 43.0739C85.8732 43.3891 85.2776 46.7934 84.563 50.6389C83.4315 56.4388 82.8956 57.8257 81.4664 59.2757C80.5731 60.2844 79.5012 61.0409 79.2034 61.0409C78.3697 61.0409 78.4888 54.4845 79.5012 49.6933C80.2158 45.9738 80.2753 43.8304 79.5012 45.9738C77.8337 50.9542 77.4169 53.0345 77.4169 57.1953C77.4169 60.5366 77.2382 61.6713 76.8213 61.0409C75.5112 58.8344 76.464 50.0085 78.6674 44.1456C80.0967 40.4891 81.2877 39.7326 80.7517 42.8847C80.454 44.6499 80.454 44.713 80.9899 43.5152C81.7046 41.75 84.6821 37.7153 85.3372 37.7153C85.5754 37.7153 85.8136 38.787 85.8136 40.0479ZM323.662 42.7587C323.483 43.0739 323.007 43.3891 322.709 43.3891C322.352 43.3891 322.292 43.0739 322.471 42.7587C322.65 42.3804 323.126 42.1282 323.424 42.1282C323.781 42.1282 323.841 42.3804 323.662 42.7587ZM296.804 50.2607C297.995 53.4759 298.889 56.628 298.829 57.1953C298.591 58.2671 294.899 48.7477 294.363 45.5956C293.827 42.6956 294.422 43.8304 296.804 50.2607ZM71.2235 58.7083C71.7595 59.7801 72.4145 61.4822 72.7123 62.5539C73.546 65.7061 71.7595 63.2474 70.3302 59.2757C69.0201 55.7454 69.6156 55.3671 71.2235 58.7083ZM75.3921 60.7888C76.3449 63.3735 76.2258 65.4539 75.1539 65.4539C74.9157 65.4539 74.3202 63.7517 73.9629 61.6713C73.546 59.5279 73.0696 57.3214 72.891 56.754C72.2359 54.5475 74.3797 58.0149 75.3921 60.7888ZM298.591 60.9779C299.067 61.7974 297.936 64.8235 297.162 64.8235C296.507 64.8235 296.387 62.9322 296.923 61.4192C297.34 60.2844 298.114 60.0953 298.591 60.9779ZM83.9675 62.617C83.9675 63.4996 83.7293 64.193 83.372 64.193C83.0742 64.193 82.7765 64.4452 82.7765 64.8235C82.7765 65.1387 83.1338 65.4539 83.6102 65.4539C84.6226 65.4539 85.4563 67.5973 84.8608 68.606C84.6226 68.9843 84.8012 69.1734 85.2776 69.1104C85.7541 68.9843 86.0518 69.5516 86.0518 70.8125C86.0518 72.4516 85.7541 72.7668 83.1933 73.7755C78.8461 75.4776 76.5236 75.6667 75.3326 74.2798C74.737 73.5863 74.4393 72.6407 74.6179 72.0733C74.8561 71.506 74.6775 71.1277 74.1415 71.1277C72.355 71.1277 73.3078 68.7951 76.0472 66.3995C82.3596 60.7888 83.9675 59.9692 83.9675 62.617ZM177.463 63.6256C177.463 64.0039 175.141 69.0473 172.342 74.8472C167.28 85.0601 163.111 91.9316 159.896 95.0837L158.288 96.6598L158.705 94.7686C159.896 89.2208 160.372 87.5187 161.503 84.3666C164.064 77.4319 168.769 70.119 173.652 65.5169C176.51 62.8692 177.463 62.3648 177.463 63.6256ZM271.435 65.0757C274.532 68.2278 274.532 77.7471 271.495 103.594C270.304 113.555 270.244 113.744 267.565 118.409C263.039 126.227 257.798 134.359 256.131 136.25C254.046 138.646 246.9 143.185 236.419 148.67C231.655 151.128 227.427 153.524 227.01 153.839C226.593 154.217 226.117 154.344 225.938 154.154C224.271 152.389 232.012 144.824 234.454 145.77C234.99 146.022 236.836 144.635 239.456 141.924C241.719 139.655 243.446 137.637 243.327 137.448C243.029 137.196 239.159 139.466 233.442 143.374C228.856 146.463 213.015 155.037 212.658 154.596C212.479 154.47 213.671 152.831 215.338 151.065C217.125 149.048 217.601 148.355 216.469 149.237C210.514 153.839 207.834 155.037 206.346 153.713C205.512 153.02 205.512 152.767 206.405 151.759C206.941 151.128 208.728 149.678 210.276 148.607C211.884 147.535 213.194 146.526 213.194 146.4C213.194 146.274 211.348 147.094 209.085 148.355C205.393 150.309 204.916 150.435 204.619 149.426C204.44 148.859 204.5 147.472 204.738 146.463C205.155 144.824 206.107 144.068 211.884 141.042C215.517 139.15 218.732 137.322 218.971 137.07C219.387 136.692 215.398 138.205 208.49 141.105C206.703 141.798 204.916 142.302 204.44 142.113C203.964 141.924 203.011 142.176 202.296 142.681C200.986 143.563 195.924 145.644 195.924 145.265C195.924 145.139 198.485 143.437 201.582 141.483C204.678 139.466 208.906 136.061 211.05 133.855C213.73 131.144 216.469 129.127 219.685 127.487C222.305 126.164 224.33 124.966 224.211 124.84C223.913 124.525 212.539 128.496 204.321 131.774C200.927 133.098 197.711 134.17 197.234 134.044C195.924 133.792 205.572 128.244 227.784 116.518C238.265 110.97 247.496 105.864 248.329 105.171L249.818 103.847L247.436 104.918C246.126 105.486 243.446 106.684 241.481 107.503C239.516 108.386 236.181 109.836 234.037 110.655L230.166 112.231L231.655 110.529C232.489 109.583 235.049 107.251 237.312 105.297C242.732 100.758 246.543 96.912 246.543 95.9033C246.543 94.6425 244.697 95.6512 241.779 98.5511C237.729 102.586 223.675 114.249 218.256 118.094C212.599 122.066 191.637 134.233 191.16 133.792C190.743 133.287 192.589 131.9 210.514 119.229C226.891 107.692 237.015 100.253 237.015 99.7489C237.015 99.5598 235.466 100.505 233.62 101.766C228.439 105.297 223.913 108.197 214.385 114.123C199.795 123.201 188.54 130.324 187.17 131.396C186.396 131.964 185.8 132.279 185.8 132.09C185.8 131.964 188.54 129.442 191.934 126.605C200.033 119.607 200.569 119.04 195.626 122.381C191.16 125.407 182.823 130.009 182.466 129.631C181.691 128.748 213.73 108.701 219.328 106.557C222.127 105.486 222.722 104.351 220.578 104.036C219.983 103.973 215.993 105.675 211.765 107.944C203.249 112.483 203.249 111.916 211.705 104.855C216.589 100.821 221.055 96.0924 223.02 93.0034C223.556 92.0577 226.534 89.473 229.511 87.2035C232.489 84.997 238.92 80.0167 243.863 76.2341C259.882 63.8148 267.207 60.8518 271.435 65.0757ZM304.308 70.2451C309.906 72.4516 310.322 73.3972 308.417 79.1341C307.107 82.9166 306.809 83.4209 305.558 83.2318C303.534 83.0427 294.125 78.0623 293.767 76.9906C293.172 75.3515 294.184 75.2885 297.043 76.6754L299.841 78.1254L298.353 76.6754C296.03 74.4059 294.899 72.4516 295.196 71.0647C295.375 70.4342 295.554 69.8669 295.613 69.8669C295.613 69.8669 297.162 70.3082 298.948 70.8125C303.117 72.0103 303.295 71.9473 300.616 70.4342C296.268 68.0386 298.353 67.9125 304.308 70.2451ZM72.6527 75.4146C72.6527 75.8559 72.1763 77.1167 71.6404 78.2515L70.628 80.2688L69.9134 77.7471C69.4965 76.3602 69.1392 74.0907 69.1392 72.7038V70.1821L70.8662 72.3885C71.819 73.5864 72.6527 74.9733 72.6527 75.4146ZM85.2181 76.9906C84.7417 77.6211 85.2776 79.4493 87.3024 84.4296C90.3395 91.7425 93.7339 101.955 93.3171 102.397C93.0193 102.712 88.3148 91.6795 86.0518 85.3122C83.6102 78.4406 83.5507 78.4406 81.7046 79.6384C80.6326 80.3319 80.8708 79.8906 82.4192 78.4406C84.6821 76.2341 86.5878 75.2885 85.2181 76.9906ZM208.668 76.9276C207.715 78.6297 201.403 82.7275 189.076 89.7252C186.158 91.3643 183.478 93.0034 183.18 93.2555C182.823 93.5707 182.168 93.8229 181.691 93.8229C180.262 93.8229 183.776 90.2925 188.718 86.6991C193.066 83.6101 206.763 76.2341 208.311 76.1711C208.787 76.1711 208.906 76.4863 208.668 76.9276ZM288.765 83.547C286.561 90.2925 284.656 94.5794 284.656 92.6881C284.656 90.5447 290.075 76.1711 290.909 76.1711C291.028 76.1711 290.075 79.5123 288.765 83.547ZM188.242 79.1341C187.944 79.7645 183.716 84.4926 178.952 89.7252C173.533 95.5881 170.913 98.1098 172.044 96.3446C173.95 93.3186 187.587 78.0623 188.361 78.0623C188.599 78.0623 188.54 78.5667 188.242 79.1341ZM97.2475 94.1381C99.5104 101.073 100.404 104.855 99.5104 103.279C98.8554 102.081 92.3047 83.2949 92.3047 82.6014C92.4238 81.4666 95.4014 88.4643 97.2475 94.1381ZM290.254 86.0687C288.408 94.7055 278.462 118.031 275.425 120.931L273.817 122.507L274.234 120.931C275.425 116.959 289.837 84.3666 290.432 84.3666C290.551 84.3666 290.492 85.1231 290.254 86.0687ZM69.0797 87.4557C69.0797 88.0861 68.6628 88.7795 68.1864 89.0317C67.71 89.2208 67.2931 89.7252 67.2931 90.1665C67.2931 90.7338 67.4718 90.7338 68.0077 90.1665C68.4246 89.7252 69.0201 89.4099 69.3774 89.4099C70.092 89.4099 74.2011 101.262 73.6651 101.766C73.4865 101.955 72.0572 100.001 70.4493 97.3533C67.4122 92.2469 65.6852 90.7338 68.0673 95.2098C73.4865 105.423 76.9405 113.303 80.5135 124.02C82.7169 130.766 84.4439 136.376 84.3248 136.503C83.8484 137.07 77.0596 128.37 73.4269 122.507C68.6032 114.753 58.3604 96.2816 58.3604 95.399C58.3604 93.949 66.5785 86.447 68.365 86.3209C68.7224 86.2578 69.0797 86.8252 69.0797 87.4557ZM198.961 87.3296C197.949 89.3469 193.959 93.0034 189.612 95.9033C187.349 97.4163 183.954 99.875 182.168 101.325C180.381 102.712 178.714 103.91 178.357 103.847C178.059 103.847 178.416 103.342 179.25 102.775C180.024 102.208 182.346 100.253 184.312 98.4881C187.944 95.2729 199.021 86.2578 199.378 86.2578C199.438 86.2578 199.259 86.7622 198.961 87.3296ZM219.745 94.3903C219.745 94.7055 218.375 96.5968 216.708 98.5511C213.492 102.271 208.847 105.36 190.267 116.203C185.026 119.229 180.143 122.192 179.428 122.696C178.654 123.201 178.059 123.327 178.059 123.075C178.118 122.507 189.314 113.051 193.84 109.773C195.746 108.323 219.09 93.949 219.626 93.886C219.685 93.8229 219.745 94.0751 219.745 94.3903ZM97.6643 102.964C100.344 109.457 104.453 122.192 103.977 122.633C103.56 123.138 94.0317 96.2816 94.1508 94.8316C94.1508 94.4533 94.3295 94.5794 94.5081 95.0837C94.6868 95.5881 96.116 99.1185 97.6643 102.964ZM161.027 103.594C159.002 108.575 157.394 111.79 157.156 111.349C156.918 110.907 157.097 108.323 157.514 105.612C158.228 100.947 158.407 100.442 161.146 97.5424C162.695 95.8403 164.124 94.5794 164.243 94.7686C164.362 94.8946 162.933 98.8663 161.027 103.594ZM306.69 108.512C305.975 110.529 305.201 111.979 304.903 111.79C304.367 111.412 305.32 107.503 306.749 104.225C308.179 101.01 308.119 104.477 306.69 108.512ZM156.322 106.557C156.501 109.268 156.501 109.268 155.727 107.44C155.31 106.431 155.131 105.044 155.31 104.414C155.727 102.649 156.144 103.531 156.322 106.557ZM301.926 110.655C300.973 114.438 298.948 118.22 296.864 120.301L295.256 121.877L295.673 120.301C296.685 116.833 301.926 106.81 302.462 107.377C302.581 107.566 302.343 109.016 301.926 110.655ZM203.666 112.357C203.666 112.483 203.189 112.988 202.654 113.429C201.701 114.249 201.641 114.186 202.415 113.177C203.189 112.168 203.666 111.853 203.666 112.357ZM84.8608 123.327C87.0642 127.929 88.7316 131.9 88.553 132.027C87.8979 132.72 83.9675 126.164 82.3001 121.562C78.3101 110.907 79.2629 111.538 84.8608 123.327ZM199.795 115.257C199.616 115.573 198.842 116.203 198.128 116.581C196.996 117.149 196.996 117.086 198.306 115.951C199.974 114.501 200.331 114.312 199.795 115.257ZM172.104 118.725C171.329 119.607 170.436 120.301 170.079 120.301C169.722 120.301 170.258 119.607 171.21 118.725C173.533 116.77 173.89 116.707 172.104 118.725ZM196.52 117.464C196.52 117.59 195.924 118.031 195.21 118.409C193.899 119.103 193.899 119.04 194.971 118.157C196.222 117.086 196.52 116.959 196.52 117.464ZM281.023 123.579C277.152 131.837 270.84 143.752 270.542 143.437C269.411 142.176 282.095 117.149 283.822 117.149C283.941 117.149 282.691 120.049 281.023 123.579ZM330.272 119.607C331.523 120.427 332.535 121.877 333.25 123.768C334.203 126.416 334.203 127.172 333.548 130.64C333.131 132.72 331.94 136.187 330.927 138.268C328.188 143.689 319.196 153.02 311.216 158.693C304.606 163.296 292.993 169.915 292.993 168.969C292.993 168.717 294.184 167.204 295.673 165.691C297.519 163.8 298.114 162.791 297.638 162.476C296.745 161.909 298.293 158.82 302.819 151.822C310.918 139.466 315.087 132.72 314.789 132.468C314.551 132.153 303.295 148.733 296.685 159.198C291.683 167.078 287.157 171.68 281.976 174.265C271.912 179.119 269.589 180.191 269.292 179.939C269.053 179.624 273.281 174.139 280.547 165.376C284.656 160.396 298.889 140.979 303.295 134.17C307.821 127.361 313.836 121.814 319.077 119.607C322.828 118.094 327.89 118.094 330.272 119.607ZM268.339 124.335C267.624 126.794 266.79 128.244 265.421 129.379C264.408 130.261 263.396 130.703 263.336 130.324C263.217 130.009 264.408 127.424 266.016 124.714C267.565 121.94 268.934 119.922 269.053 120.301C269.172 120.616 268.815 122.444 268.339 124.335ZM190.565 121.814C190.565 121.94 189.85 122.507 188.957 123.075L187.289 124.146L188.718 122.885C190.088 121.562 190.565 121.309 190.565 121.814ZM164.362 133.224C164.302 133.981 161.92 130.009 159.836 125.848C157.394 120.805 158.288 121.625 161.384 127.235C163.052 130.198 164.362 132.846 164.362 133.224ZM274.592 127.424C273.937 128.559 272.448 130.451 271.257 131.522C270.125 132.657 269.172 133.855 269.172 134.17C269.172 134.548 268.934 134.8 268.696 134.8C267.803 134.8 268.696 130.324 269.708 129.883C270.244 129.694 271.733 128.244 273.043 126.731C275.604 123.642 276.557 124.083 274.592 127.424ZM296.268 128.874C295.077 130.829 294.005 132.279 293.827 132.09C293.41 131.711 295.792 126.668 297.043 125.155C298.948 122.885 298.412 125.344 296.268 128.874ZM299.782 128.811C298.948 132.027 296.268 135.935 295.554 135.179C295.375 134.99 296.387 132.594 297.757 129.757C299.186 126.983 300.437 124.777 300.556 124.966C300.675 125.092 300.377 126.857 299.782 128.811ZM118.865 130.892C119.043 131.837 119.579 133.855 120.056 135.431C121.187 139.403 123.093 147.409 122.855 147.409C122.438 147.409 114.994 131.144 114.458 129.001L113.862 126.605L116.185 127.866C117.733 128.748 118.626 129.694 118.865 130.892ZM94.5081 131.144C97.6643 136.44 101.892 144.446 101.654 144.698C101.297 145.013 94.2104 133.35 93.1384 130.703C92.007 127.74 92.5429 127.929 94.5081 131.144ZM272.626 133.035C271.852 135.305 268.22 142.302 267.326 143.311C266.433 144.257 267.267 140.726 268.696 137.448C269.768 134.99 272.507 131.018 273.043 131.018C273.162 131.018 272.984 131.9 272.626 133.035ZM265.063 135.62C263.456 138.394 260.835 140.979 260.835 139.781C260.835 138.709 262.92 134.99 264.647 133.035C265.659 131.774 265.957 131.711 266.076 132.531C266.195 133.098 265.718 134.485 265.063 135.62ZM208.728 134.485C207.775 134.99 206.584 135.368 206.227 135.431C205.81 135.431 202.773 136.692 199.438 138.268C196.103 139.844 193.244 140.979 193.066 140.852C192.708 140.474 200.807 136.187 204.559 134.737C206.227 134.107 208.192 133.603 209.026 133.603C210.455 133.666 210.455 133.666 208.728 134.485ZM89.8631 139.213C90.5182 140.726 90.5182 140.726 89.6845 139.592C89.1485 138.898 88.7316 138.079 88.7316 137.7C88.7316 136.944 89.0294 137.259 89.8631 139.213ZM293.886 140.537C291.147 143.5 285.728 147.409 284.358 147.409C284.06 147.409 284.834 146.463 286.145 145.328C289.122 142.744 296.149 137.322 296.507 137.322C296.685 137.322 295.494 138.772 293.886 140.537ZM258.632 140.285C258.155 141.609 257.024 143.689 256.131 145.013C246.305 159.513 241.362 166.069 240.766 165.439C240.29 164.935 244.875 155.92 248.21 150.939C251.605 145.833 258.215 137.953 259.108 137.953C259.346 137.953 259.168 139.024 258.632 140.285ZM265.54 140.6C265.183 141.42 263.336 144.32 261.431 147.094C259.585 149.868 256.071 155.604 253.63 159.828C251.188 164.052 249.163 167.267 249.044 166.952C248.925 166.637 250.771 162.413 253.094 157.496C256.131 151.191 258.632 146.968 261.609 143.185C265.54 138.268 267.326 137.07 265.54 140.6ZM134.944 141.798C135.837 142.113 136.671 143.626 137.742 146.905C142.268 160.648 143.578 165.187 143.4 165.754C143.102 166.763 138.1 157.054 134.348 148.165C130.834 139.844 130.775 140.159 134.944 141.798ZM293.053 144.698C291.802 146.715 289.36 149.994 287.693 152.011C286.085 153.965 283.882 156.928 282.81 158.504C281.083 161.152 275.902 165.439 275.247 164.746C275.068 164.556 277.093 161.972 279.713 158.946C282.274 155.857 286.204 151.065 288.408 148.291C291.683 144.068 294.303 141.294 295.256 141.168C295.316 141.105 294.363 142.744 293.053 144.698ZM250.116 144.005C249.64 144.509 248.746 145.265 248.091 145.581C247.317 145.959 247.496 145.581 248.627 144.635C250.652 142.807 251.188 142.555 250.116 144.005ZM142.268 147.22C142.983 148.102 143.698 149.615 143.876 150.498C144.293 152.263 145.186 155.163 148.581 165.376C150.665 171.743 151.558 177.102 149.772 172.815C149.355 171.743 148.045 167.835 146.854 164.178C145.663 160.522 143.638 154.848 142.387 151.507C140.005 145.455 140.005 144.131 142.268 147.22ZM203.07 148.291C203.07 151.065 203.07 151.065 197.592 155.415C194.555 157.811 190.684 160.648 189.016 161.719C186.277 163.485 185.92 163.548 184.431 162.728C182.585 161.719 182.346 160.648 183.895 160.585C184.788 160.585 184.788 160.522 183.776 160.08C182.823 159.702 183.299 159.198 186.575 157.243C188.778 155.983 190.565 154.785 190.565 154.659C190.565 154.344 188.063 155.289 186.277 156.298C185.503 156.739 185.205 156.739 185.443 156.361C185.681 155.983 188.838 153.965 192.53 151.885C196.162 149.804 200.033 147.535 200.986 146.841C201.998 146.148 202.832 145.581 202.951 145.581C203.011 145.518 203.07 146.778 203.07 148.291ZM151.797 150.183C152.213 150.687 153.107 152.263 153.702 153.713C154.774 156.172 154.774 156.298 153.821 155.541C153.226 155.037 152.511 154.344 152.154 153.965C151.856 153.587 150.367 151.948 148.879 150.309L146.199 147.283L148.581 148.355C149.891 148.922 151.32 149.741 151.797 150.183ZM248.329 148.039C248.329 148.355 245.947 151.507 242.97 154.974C240.052 158.441 237.61 161.152 237.61 160.963C237.61 160.017 240.409 155.037 242.136 152.894C243.744 150.813 247.555 147.409 248.151 147.409C248.27 147.409 248.329 147.661 248.329 148.039ZM285.847 148.922C285.847 149.363 276.855 161.089 274.413 163.863C268.696 170.356 269.113 168.024 275.068 160.206C280.428 153.146 285.847 147.472 285.847 148.922ZM238.206 150.813C237.312 151.696 225.224 158.756 224.628 158.756C223.616 158.756 226.295 156.928 232.072 153.65C239.039 149.678 239.516 149.489 238.206 150.813ZM112.076 166.511C113.088 167.835 113.803 169.032 113.624 169.158C112.85 169.978 97.0688 152.704 97.0688 150.939C97.0688 150.183 109.277 162.791 112.076 166.511ZM149.117 157.622C150.248 162.035 150.903 166.952 150.129 165.691C149.236 164.115 144.71 152.011 144.71 151.065C144.77 149.237 148.283 154.533 149.117 157.622ZM159.598 154.028C161.265 154.911 162.575 155.793 162.575 155.983C162.575 156.802 156.858 155.478 156.203 154.47C154.357 152.011 155.548 151.885 159.598 154.028ZM203.07 157.117C203.07 160.837 202.892 161.467 200.569 165.124C196.996 170.671 196.639 170.798 193.363 167.898C191.22 166.006 190.743 165.25 191.279 164.619C191.637 164.178 192.292 163.8 192.768 163.8C193.244 163.8 193.423 163.485 193.185 163.043C192.887 162.602 194.495 160.585 197.473 157.685C200.033 155.163 202.356 153.083 202.654 153.083C202.892 153.083 203.07 154.911 203.07 157.117ZM217.958 154.344C215.993 155.983 214.862 155.92 216.708 154.344C217.482 153.65 218.375 153.083 218.792 153.083C219.149 153.083 218.792 153.65 217.958 154.344ZM181.334 163.043C185.741 165.754 185.622 165.628 184.609 166.322C184.014 166.7 182.704 166.069 180.322 164.304C173.95 159.576 174.486 158.883 181.334 163.043ZM205.274 163.674C204.857 167.456 200.748 180.821 200.033 180.821C199.021 180.821 199.438 170.608 200.569 168.213C201.582 165.943 204.976 160.711 205.393 160.648C205.512 160.648 205.452 162.035 205.274 163.674ZM208.251 169.978C207.775 179.56 205.869 192.925 203.547 202.886C202.534 207.236 201.462 212.595 201.224 214.801C200.927 217.008 200.629 218.899 200.51 219.025C200.391 219.151 199.735 214.36 199.021 208.371C198.247 202.445 197.175 193.997 196.52 189.647C195.924 185.297 195.388 180.632 195.329 179.182C195.329 176.787 196.639 173.761 197.353 174.58C197.532 174.769 198.008 177.354 198.366 180.254C199.14 186.117 199.974 189.332 200.033 186.495C200.093 185.613 201.046 182.334 202.177 179.245C204.083 174.202 204.261 173.887 203.964 176.408C203.725 179.182 203.725 179.182 204.261 177.039C204.619 175.841 205.572 172.058 206.405 168.654C207.299 165.313 208.132 162.539 208.311 162.539C208.49 162.539 208.43 165.88 208.251 169.978ZM112.314 171.176C118.031 177.039 119.162 179.624 113.743 174.265C111.718 172.311 109.039 169.852 107.788 168.78C106.478 167.645 104.989 166.069 104.453 165.187L103.5 163.674L105.406 164.809C106.478 165.502 109.575 168.339 112.314 171.176ZM142.447 168.969C144.948 174.391 149.831 191.349 149.355 192.925C149.117 193.556 143.162 176.471 140.541 168.024C139.231 163.611 140.244 164.115 142.447 168.969ZM163.052 186.18C163.052 191.034 162.873 196.582 162.635 198.473L162.218 201.94L161.801 198.725C161.206 194.438 161.206 170.671 161.801 168.402C162.456 165.943 163.052 174.643 163.052 186.18ZM210.217 175.778C209.561 180.38 208.906 184.289 208.728 184.478C208.073 185.171 208.49 180.821 209.621 174.202C210.276 170.419 210.812 167.204 210.812 167.015C210.812 166.889 210.931 166.889 211.11 167.015C211.229 167.204 210.872 171.113 210.217 175.778ZM187.647 169.978C188.659 170.924 189.433 172.185 189.314 172.689C189.135 173.319 188.302 172.815 186.396 170.924C184.49 169.032 184.014 168.213 184.729 168.213C185.324 168.213 186.634 169.032 187.647 169.978ZM275.128 168.717C275.128 169.537 269.351 174.706 266.314 176.534C260.418 180.191 261.907 177.921 269.172 172.248C274.175 168.276 275.128 167.708 275.128 168.717ZM179.845 171.113C181.155 172.058 182.763 173.634 183.418 174.769C184.55 176.661 184.609 176.661 184.967 175.274C185.384 173.634 186.217 174.076 188.242 177.102L189.433 178.867L187.944 181.893C186.694 184.478 186.396 186.432 185.8 195.006C184.967 206.606 183.776 216.251 183.24 214.864C182.704 213.351 179.428 200.554 177.821 193.43C176.987 189.773 175.855 185.234 175.379 183.343C174.903 181.452 174.486 179.056 174.486 178.047C174.486 176.408 174.605 176.282 175.319 177.039C175.796 177.543 177.523 180.065 179.19 182.65C180.858 185.234 182.227 187.126 182.227 186.81C182.227 186.495 180.739 182.902 178.893 178.741C177.046 174.643 175.736 171.113 175.915 170.924C176.034 170.735 176.63 171.68 177.166 172.941C177.642 174.265 178.237 175.211 178.357 175.021C178.535 174.832 178.237 173.698 177.761 172.437C176.332 168.843 176.451 168.78 179.845 171.113ZM108.562 175.4C111.242 177.795 117.614 186.999 117.019 187.63C116.84 187.819 114.398 186.243 111.54 184.163C106.895 180.821 106.061 179.876 104.096 176.03C102.845 173.634 101.833 171.302 101.833 170.861C101.833 169.915 103.977 171.365 108.562 175.4ZM289.122 170.735C288.944 171.05 288.408 171.365 288.05 171.365C287.633 171.365 287.693 171.113 288.229 170.735C289.36 169.978 289.599 169.978 289.122 170.735ZM169.126 181.515C168.471 185.36 167.399 189.773 166.744 191.412C165.374 194.943 165.196 193.745 166.446 189.395C166.923 187.693 167.34 185.676 167.28 184.982C167.22 184.226 166.923 184.919 166.565 186.495C166.148 188.449 165.851 188.891 165.732 188.008C165.493 186.558 167.697 176.724 168.59 175.147C169.186 174.076 168.828 176.724 167.875 179.813C167.578 180.821 167.34 182.082 167.399 182.65C167.459 184.036 169.722 175.841 169.781 173.887C169.841 172.815 169.96 172.689 170.138 173.445C170.258 174.013 169.841 177.669 169.126 181.515ZM286.264 176.534C284.299 179.497 274.175 198.284 267.088 212.027C265.838 214.423 264.766 216.566 264.647 216.629C264.468 216.882 254.88 208.56 254.88 208.182C254.88 206.543 264.766 185.928 266.493 184.036C267.326 183.154 284.834 175.4 286.383 175.211C287.038 175.147 286.978 175.463 286.264 176.534ZM265.778 180.254C265.063 181.515 263.336 182.965 260.716 184.352C258.572 185.486 256.607 186.747 256.369 187.126C255.833 188.071 256.428 187.882 259.704 186.117C261.371 185.234 262.86 184.604 262.92 184.73C263.039 184.856 260.954 189.584 258.334 195.258C252.855 206.795 252.915 206.795 251.903 197.338C251.188 190.719 251.486 189.332 254.225 186.306C255.833 184.478 265.004 178.615 266.671 178.363C266.79 178.3 266.374 179.182 265.778 180.254ZM212.122 189.773C211.527 196.141 211.646 198.473 212.301 194.943C212.956 191.286 216.35 181.137 217.244 180.191C218.018 179.371 218.077 179.56 217.78 181.767L217.482 184.289L218.613 181.767C219.447 179.939 219.685 179.687 219.566 180.821C219.09 183.973 215.457 204.021 213.73 212.847C211.288 225.203 208.609 242.225 207.834 250.168C207.477 253.824 207.06 258.237 206.882 259.939C206.703 261.705 206.107 263.974 205.452 264.92L204.38 266.748L204.023 263.344C202.773 251.744 201.224 227.22 201.582 224.32C202.475 216.314 206.346 197.528 208.847 189.017C210.336 183.973 211.705 179.56 211.944 179.245C212.599 178.11 212.658 183.091 212.122 189.773ZM174.605 188.891C174.605 191.16 174.128 193.745 173.354 195.825C172.699 197.654 172.104 199.482 172.163 199.923C172.163 200.364 172.759 199.041 173.473 197.086C174.247 195.132 174.962 193.367 175.141 193.178C175.319 192.988 175.974 195.006 176.51 197.717C177.106 200.364 179.428 209.821 181.691 218.71C185.86 235.227 187.825 245.818 188.48 255.211L188.838 260.57L186.336 256.472C181.93 249.222 176.153 238.127 173.176 231.003L170.198 224.005L171.21 219.088C171.746 216.377 172.104 214.045 171.985 213.855C171.806 213.729 171.27 215.242 170.674 217.197C169.722 220.349 169.483 220.664 168.828 219.718C167.161 217.26 166.565 211.586 167.34 204.399C168.114 196.834 168.531 195.384 168.59 200.112L168.65 203.201L169.424 199.734C170.258 196.267 171.091 190.782 171.865 183.658L172.282 179.876L173.414 182.586C174.069 184.163 174.545 186.747 174.605 188.891ZM208.251 187.252C208.073 187.756 207.894 187.567 207.894 186.873C207.834 186.18 208.013 185.802 208.192 186.054C208.37 186.243 208.43 186.81 208.251 187.252ZM224.866 193.871C224.271 204.84 222.067 218.016 219.209 227.473C216.767 235.416 214.683 240.018 215.278 235.983C215.457 234.912 215.993 229.112 216.469 223.06C217.005 217.008 217.78 210.199 218.196 207.929L219.03 203.832L219.149 210.136L219.268 216.44L220.102 209.19C220.876 202.445 224.33 185.865 224.985 185.865C225.164 185.865 225.104 189.458 224.866 193.871ZM207.656 190.404C207.477 190.908 207.299 190.719 207.299 190.025C207.239 189.332 207.418 188.954 207.596 189.206C207.775 189.395 207.834 189.962 207.656 190.404ZM250.056 201.625V203.201L249.223 201.625C248.27 199.86 248.091 197.338 248.746 195.51C249.104 194.691 249.282 195.132 249.64 197.212C249.818 198.788 250.056 200.743 250.056 201.625ZM189.135 210.892C188.897 219.529 188.48 228.481 188.302 230.94L187.885 235.353L186.575 228.86C185.8 225.329 185.205 220.916 185.205 219.088C185.205 214.549 188.242 195.321 188.957 195.321C189.374 195.321 189.374 200.869 189.135 210.892ZM245.709 211.775C247.079 215.432 248.627 221.042 249.163 224.194C249.699 227.41 251.009 232.012 251.962 234.47C252.974 236.929 253.689 239.072 253.57 239.198C253.213 239.577 246.543 223.312 245.233 218.71C243.148 211.712 241.779 204.651 242.553 204.967C242.97 205.093 244.34 208.182 245.709 211.775ZM249.044 207.11C250.533 208.623 250.712 209.253 250.712 212.784C250.712 214.99 250.473 216.755 250.176 216.755C249.878 216.755 248.806 214.171 247.853 211.082C245.947 205.03 246.186 204.21 249.044 207.11ZM133.931 215.873C132.919 218.647 132.561 216.566 133.514 212.784C134.288 209.569 134.288 209.569 134.467 211.775C134.586 212.973 134.348 214.801 133.931 215.873ZM227.308 215.053C226.772 221.736 225.521 226.968 219.745 245.44C214.385 262.587 213.73 265.298 211.765 276.583C210.336 284.463 208.847 288.813 207.001 290.452C206.167 291.208 206.048 290.956 205.988 288.561C205.869 285.85 205.869 285.913 205.452 289.38C205.214 291.524 204.321 294.171 203.309 296L201.582 299.026L201.403 296.819C201.343 295.621 202.058 291.776 203.07 288.308C207.239 273.998 207.775 271.539 208.192 265.865C208.668 259.12 209.621 256.031 214.981 243.927C216.946 239.388 219.804 231.633 221.353 226.716C224.271 216.945 226.831 209.821 227.367 209.821C227.546 209.821 227.486 212.153 227.308 215.053ZM259.466 215.368L263.158 218.962L262.086 221.358L261.014 223.816L259.525 221.042C256.964 216.377 254.821 211.712 255.297 211.712C255.595 211.775 257.441 213.414 259.466 215.368ZM256.964 220.223C259.287 224.825 259.763 226.275 259.406 227.725C259.168 228.733 258.81 229.364 258.632 229.175C257.858 228.292 253.808 217.89 253.391 215.684C252.855 212.469 253.51 213.288 256.964 220.223ZM214.385 228.733C214.028 233.083 213.313 238.883 212.837 241.594C211.884 246.827 210.217 251.113 209.74 249.663C209.085 247.583 211.229 231.318 213.671 219.908L214.683 215.179L214.862 218.016C214.981 219.592 214.802 224.384 214.385 228.733ZM241.183 225.644C243.089 233.399 243.148 233.525 242.672 233.02C242.255 232.579 238.801 219.844 238.801 218.71C238.801 216.818 239.456 218.71 241.183 225.644ZM248.091 232.516C250.592 238.946 253.391 245.755 254.285 247.646C256.19 251.681 258.096 257.67 257.679 258.111C257.5 258.3 256.667 256.787 255.773 254.77C254.88 252.753 253.094 248.844 251.783 246.07C247.436 236.866 242.255 221.988 242.434 218.962C242.434 218.142 242.553 218.395 248.091 232.516ZM167.935 223.69C169.781 227.599 170.496 230.877 168.947 228.418C167.697 226.401 164.898 219.151 165.553 219.592C165.91 219.844 166.982 221.673 167.935 223.69ZM255.237 226.716C257.203 231.949 257.322 232.705 256.667 234.47C256.25 235.479 255.714 236.109 255.476 235.857C254.404 234.659 251.247 222.24 251.605 220.664C252.081 218.521 252.438 219.151 255.237 226.716ZM135.48 221.294C135.301 221.736 134.11 226.905 132.8 232.768C130.12 244.62 129.405 246.574 127.023 249.979C125.713 251.933 125.654 252.122 126.725 251.177C127.44 250.483 128.036 250.294 128.036 250.609C128.036 251.807 113.505 269.081 112.493 269.081C112.254 269.081 113.445 265.298 115.172 260.696C118.15 252.563 118.21 252.437 118.388 255.148L118.567 257.922L120.294 254.77C121.247 253.005 124.046 246.259 126.606 239.703C131.49 226.905 132.323 224.951 134.11 222.24C135.36 220.412 135.896 220.034 135.48 221.294ZM279.356 235.479C292.576 249.853 298.948 260.885 298.948 269.459C298.948 272.737 298.77 273.178 296.566 275.511C294.899 277.339 293.827 277.969 292.993 277.717C292.338 277.528 291.921 277.654 292.159 277.969C292.695 278.852 286.442 278.6 282.572 277.591C280.606 277.024 278.343 276.078 277.51 275.448C276.021 274.313 272.746 266.811 264.885 246.701C259.585 233.146 259.406 232.579 260.418 230.057L261.252 227.977L266.552 236.866C278.224 256.472 289.42 273.935 289.42 272.611C289.42 272.359 288.11 270.152 286.561 267.631C282.393 261.074 273.222 245.629 267.207 234.975L262.026 225.834L263.336 223.249L264.647 220.664L269.172 224.951C271.614 227.283 276.2 232.012 279.356 235.479ZM166.446 227.914C169.602 233.462 170.913 235.668 173.176 239.198C173.533 239.892 173.056 238.568 172.044 236.362C169.245 230.246 170.377 231.192 173.592 237.749C177.344 245.377 180.798 251.366 186.396 260.255C191.517 268.45 195.269 274.88 198.544 281.374L200.748 285.787L198.664 283.265C197.532 281.878 194.912 277.843 192.828 274.25C181.632 254.833 178.237 249.6 182.942 258.994C184.431 261.957 187.468 268.009 189.671 272.548C191.875 277.024 194.733 282.824 196.043 285.282C197.353 287.804 198.306 290.2 198.187 290.578C198.068 290.956 196.877 289.758 195.567 287.867C180.739 267.252 181.096 267.757 175.081 254.896C168.709 241.153 161.503 221.799 162.754 221.799C162.873 221.799 164.6 224.573 166.446 227.914ZM230.702 226.779C230.226 228.607 229.928 230.499 230.107 231.003C230.404 231.823 228.618 241.657 225.283 257.102C224.33 261.705 222.663 266.874 220.817 271.287C219.149 275.07 217.482 279.293 217.005 280.68C215.457 285.282 212.718 290.2 207.894 297.387C201.641 306.591 200.927 307.536 200.212 307.536C199.438 307.536 189.493 295.684 188.361 293.415C187.527 291.713 180.441 270.089 180.441 269.27C180.441 269.017 181.751 270.909 183.418 273.43C187.051 278.978 190.803 284.211 195.865 290.704C199.378 295.243 199.676 295.937 199.735 298.773C199.795 300.476 199.974 301.863 200.212 301.863C201.105 301.863 214.385 283.076 214.385 281.815C214.385 281.626 213.611 282.382 212.599 283.58C211.646 284.778 210.872 285.598 210.812 285.345C210.812 285.156 211.467 281.374 212.301 277.087C213.909 268.45 215.814 262.587 221.71 247.646C223.854 242.288 226.831 234.533 228.38 230.436C231.357 222.681 232.31 221.231 230.702 226.779ZM163.111 231.633C165.851 238.946 173.354 256.283 175.081 259.309C177.404 263.344 185.205 286.858 185.205 289.758L185.145 291.461L183.835 289.821C183.121 288.939 180.917 286.228 178.893 283.769C175.617 279.798 175.081 278.726 172.818 271.539C170.555 264.289 160.193 226.464 160.193 225.455C160.193 224.068 160.908 225.518 163.111 231.633ZM124.701 230.751C124.165 231.886 120.532 237.938 116.721 244.179C109.217 256.409 101.892 269.081 95.9969 280.113C93.3766 284.904 91.6497 287.489 90.2204 288.498C89.0889 289.254 88.1361 289.695 88.1361 289.506C88.1361 289.002 97.0093 270.846 99.2722 266.685C101.714 262.209 100.344 263.722 96.9497 269.207C93.8531 274.25 92.007 277.528 84.0866 292.721C80.454 299.593 74.082 313.525 70.2707 322.793C68.365 327.521 68.2459 327.647 64.792 329.286C55.7401 333.573 47.1052 330.862 44.6636 322.919C43.5916 319.577 44.2467 309.554 45.8546 304.384C49.4277 292.911 57.9435 280.68 69.9729 269.774C79.7394 260.885 97.2475 247.457 115.53 234.786C118.984 232.39 122.319 230.12 122.974 229.616C125.177 228.103 125.773 228.544 124.701 230.751ZM160.968 237.37C161.503 239.072 162.754 243.359 163.766 247.016C164.838 250.672 167.042 257.985 168.65 263.281C170.258 268.639 171.508 273.115 171.329 273.241C170.972 273.62 166.744 266.559 164.541 261.831C163.111 258.805 162.516 256.031 161.444 247.961C160.729 242.414 159.955 237.118 159.836 236.109C159.3 233.399 160.015 234.155 160.968 237.37ZM258.751 239.766C258.989 242.035 259.049 244.053 258.87 244.242C258.334 244.872 256.667 238.631 257.024 237.181C257.679 234.533 258.334 235.542 258.751 239.766ZM234.99 243.044C234.454 248.15 228.975 272.485 226.593 280.554C224.807 286.543 221.412 293.541 218.673 297.008C217.958 297.828 217.66 297.954 217.244 297.323C216.946 296.756 216.767 296.882 216.767 297.765C216.767 299.278 214.623 303.123 213.79 303.123C212.777 303.123 213.135 300.602 215.338 291.776C217.66 282.319 220.043 274.628 221.353 272.233C222.127 270.72 222.186 270.783 221.889 273.62C221.71 275.322 220.578 280.932 219.387 286.165C218.196 291.398 217.363 295.81 217.541 295.937C217.899 296.315 217.958 296 224.449 270.657C229.154 252.059 230.94 245.755 231 247.646C231 248.15 230.524 250.861 229.869 253.635C229.273 256.346 228.797 258.742 228.916 258.868C229.035 258.994 229.333 258.552 229.452 257.922C231.06 252.059 234.871 239.451 235.109 239.451C235.288 239.451 235.228 241.09 234.99 243.044ZM268.22 258.237C271.674 267.063 274.532 274.376 274.532 274.502C274.532 274.691 274.056 274.502 273.46 274.187C272.329 273.557 268.279 266.685 265.302 260.255C262.086 253.446 260.835 249.096 260.835 244.62C260.835 241.909 261.073 240.711 261.371 241.342C261.669 241.846 264.766 249.474 268.22 258.237ZM250.473 250.609C251.009 253.698 250.235 253.131 248.508 249.222C247.496 246.764 247.138 245.188 247.436 243.99C247.793 242.351 247.913 242.414 248.985 245.44C249.58 247.142 250.295 249.537 250.473 250.609ZM256.667 246.322C257.322 248.15 257.739 249.853 257.619 250.042C257.203 250.42 254.88 244.746 254.88 243.422C254.88 241.909 255.237 242.54 256.667 246.322ZM118.21 246.511C117.971 247.331 115.768 253.383 113.326 260.002L108.86 272.044L102.964 277.465C99.7486 280.491 97.0688 282.698 97.0688 282.382C97.0688 280.932 117.435 245.124 118.269 245.124C118.448 245.124 118.388 245.755 118.21 246.511ZM234.573 258.742C233.263 262.839 231.893 266.685 231.596 267.189C230.464 269.27 231.179 266.307 233.382 259.813C236.36 251.113 236.538 250.672 236.776 250.987C236.955 251.113 235.943 254.644 234.573 258.742ZM261.133 257.607C262.145 260.759 263.872 269.837 263.456 270.278C262.86 270.909 260.657 263.848 260.121 259.687C259.823 257.102 259.406 254.707 259.227 254.392C259.049 254.013 259.168 253.95 259.525 254.14C259.823 254.392 260.597 255.905 261.133 257.607ZM158.466 262.083C159.479 265.235 161.384 275.385 161.384 277.906C161.384 278.411 160.312 276.583 158.943 273.809C157.633 271.035 156.263 268.513 155.965 268.135C155.667 267.82 155.429 264.731 155.429 261.2C155.489 255.148 155.489 254.959 156.382 256.724C156.918 257.733 157.871 260.129 158.466 262.083ZM153.226 270.278C153.524 276.646 152.988 276.772 151.856 270.657C151.261 267.694 151.261 266.496 151.856 264.983C152.809 262.587 152.869 263.028 153.226 270.278ZM166.744 271.602C168.709 274.565 171.508 278.663 172.937 280.743C175.558 284.589 184.312 301.863 183.657 301.863C183.478 301.863 181.394 300.476 179.012 298.71C174.307 295.243 167.399 288.308 165.196 284.841C163.886 282.761 162.695 277.024 161.682 267.82C161.265 263.659 161.325 263.722 166.744 271.602ZM123.748 271.413C120.711 274.061 115.172 279.356 111.54 283.202C104.691 290.263 103.084 291.082 107.014 285.661C111.778 279.041 118.686 272.233 123.569 269.396C126.189 267.883 128.572 266.622 128.81 266.622C129.048 266.559 126.785 268.765 123.748 271.413ZM158.347 283.139C158.943 288.056 159.36 292.217 159.241 292.343C159.121 292.469 158.407 292.28 157.633 291.965C156.322 291.334 156.203 290.767 155.846 285.03C155.608 281.626 155.429 276.835 155.489 274.439C155.548 270.026 155.548 270.026 156.382 272.107C156.858 273.241 157.752 278.222 158.347 283.139ZM236.955 277.339C236.3 280.932 235.228 285.03 234.573 286.417L233.442 288.939L233.739 284.904C233.918 282.698 234.037 279.861 234.037 278.537C234.037 276.393 237.253 269.774 237.968 270.467C238.087 270.657 237.67 273.746 236.955 277.339ZM120.294 279.609C118.15 281.941 117.078 283.265 117.912 282.572C123.867 277.465 122.021 279.546 110.766 290.389C102.667 298.269 100.642 299.971 100.642 298.773C100.642 297.891 108.92 288.435 113.148 284.4C116.661 281.059 123.391 275.385 123.867 275.385C123.986 275.385 122.378 277.276 120.294 279.609ZM276.021 279.23C277.391 282.004 276.736 282.193 275.247 279.482C274.532 278.285 274.234 277.276 274.532 277.276C274.83 277.276 275.544 278.159 276.021 279.23ZM105.466 281.248C105.168 282.13 103.798 283.454 102.488 284.274C99.6891 285.913 99.6295 286.669 102.369 285.156C103.441 284.589 104.215 284.463 104.215 284.841C104.215 285.219 103.084 287.804 101.773 290.704C99.9273 294.55 97.9621 297.323 94.1508 301.547C91.3519 304.636 90.1609 306.086 91.5305 304.762C92.9598 303.376 94.2104 302.367 94.3295 302.556C94.925 303.186 90.0418 309.743 86.0518 313.714C81.5855 318.127 73.4269 324.306 72.8314 323.738C72.1763 323.045 77.5955 313.651 84.0866 304.132C85.5754 301.863 85.7541 301.799 85.7541 303.186C85.7541 304.384 86.0518 304.069 87.0046 301.863C87.6597 300.286 89.5653 296.63 91.2328 293.667C93.9126 288.939 94.8654 287.804 99.9868 283.769C103.084 281.311 105.763 279.356 105.882 279.419C105.942 279.546 105.763 280.365 105.466 281.248ZM162.695 285.787C164.064 288.624 168.709 301.926 168.352 302.241C168.054 302.556 162.337 297.45 161.742 296.315C161.325 295.558 161.503 295.432 162.635 295.747C164.005 296.126 164.005 296.063 162.397 294.676C160.908 293.352 160.61 292.532 159.836 286.985C159.419 283.58 159.002 280.428 159.002 280.113C159.002 279.293 161.027 282.446 162.695 285.787ZM242.851 296.315C243.208 303.376 243.387 309.869 243.148 310.815C242.791 312.706 241.421 314.282 240.707 313.588C239.814 312.58 240.766 283.58 241.719 283.58C241.957 283.58 242.493 289.317 242.851 296.315ZM230.821 286.228C230.464 288.245 226.951 294.55 226.474 294.108C226.236 293.793 230.583 284.211 230.94 284.211C231.119 284.211 231.06 285.093 230.821 286.228ZM279.118 286.858C280.487 288.498 282.452 293.037 281.738 293.037C280.845 293.037 275.723 285.976 275.723 284.652C275.723 283.895 277.629 285.156 279.118 286.858ZM293.35 300.034C301.449 309.049 306.213 317.812 308.774 328.592C310.263 334.834 311.335 345.488 310.382 344.416C310.084 344.038 307.94 340.823 305.737 337.166C303.474 333.51 299.127 326.764 296.149 322.162C291.623 315.291 283.465 299.341 283.465 297.45C283.465 297.197 285.251 297.954 287.395 299.152C289.539 300.35 291.445 301.232 291.564 301.106C291.683 300.98 290.015 299.593 287.872 298.08C283.286 294.802 283.107 294.613 282.572 291.839L282.155 289.695L285.609 292.532C287.574 294.108 291.028 297.513 293.35 300.034ZM187.587 297.197C192.649 302.304 196.817 306.149 198.842 307.536L200.152 308.482L198.068 311.004C196.222 313.21 195.865 313.399 195.21 312.517C194.793 312.012 192.113 308.608 189.314 304.952C184.729 299.089 180.441 292.28 180.441 290.83C180.441 290.2 181.93 291.524 187.587 297.197ZM171.508 298.71C173.712 302.997 175.974 307.095 177.344 309.302C178.118 310.688 177.701 310.436 175.2 308.23C171.687 305.141 171.032 304.069 168.531 296.693L166.744 291.461L168.233 293.352C169.067 294.36 170.496 296.819 171.508 298.71ZM87.6597 294.739C87.3024 295.369 86.1709 296.693 85.099 297.765C82.9551 299.845 83.2529 298.963 85.9327 295.369C87.7193 292.974 88.7316 292.532 87.6597 294.739ZM257.143 295.874C258.453 297.008 260.002 299.341 259.466 299.341C259.406 299.341 257.977 297.891 256.369 296.063C253.57 292.974 253.987 292.911 257.143 295.874ZM175.855 300.665C177.404 302.871 180.084 306.591 181.811 308.923C186.932 315.921 187.647 317.938 183.121 312.895C177.999 307.158 176.987 305.708 173.354 299.467C168.709 291.461 169.662 291.902 175.855 300.665ZM159.836 301.863C160.432 302.997 160.67 303.754 160.253 303.502C159.062 302.682 153.643 295.495 153.643 294.739C153.702 293.793 158.347 299.152 159.836 301.863ZM211.765 299.656C211.348 301.295 205.095 308.797 204.142 308.797C203.428 308.797 204.619 306.78 208.668 301.043C211.586 296.945 212.479 296.504 211.765 299.656ZM236.776 306.717C236.3 307.662 235.169 309.302 234.335 310.373L232.787 312.265L233.084 309.049C233.203 307.284 234.275 303.754 235.347 301.169L237.312 296.504L237.491 300.728C237.61 303.565 237.372 305.519 236.776 306.717ZM183.716 304.699C185.205 306.843 185.979 308.797 185.324 308.797C185.086 308.797 182.525 306.212 179.548 303.06L174.188 297.387L178.297 300.097C180.56 301.61 183.002 303.628 183.716 304.699ZM262.979 303.817C267.505 307.725 274.175 315.038 273.698 315.606C273.222 316.047 269.351 312.454 261.431 304.384C254.582 297.323 255.118 297.134 262.979 303.817ZM230.464 300.034C230.464 301.673 229.63 302.934 225.64 307.158C220.162 312.958 220.162 312.58 225.581 305.015C227.665 302.115 229.511 299.341 229.69 298.9C230.166 297.576 230.464 297.954 230.464 300.034ZM276.914 307.347C280.309 312.201 284.179 316.993 285.728 318.254C287.217 319.451 288.884 320.964 289.479 321.595C290.492 322.73 292.338 327.71 293.469 332.249C294.303 335.401 293.41 335.401 288.944 332.186C284.894 329.286 284.239 328.529 281.678 323.612C280.606 321.532 278.879 318.695 277.807 317.308C276.735 315.921 275.425 313.904 274.83 312.895C273.877 311.256 274.175 311.445 276.557 313.841L279.415 316.677L277.629 312.832C275.902 309.175 273.639 304.952 270.78 300.034C268.279 295.684 270.959 298.9 276.914 307.347ZM280.785 303.186C282.691 305.96 284.06 308.419 283.882 308.608C283.643 308.797 284.12 309.869 284.894 310.941C286.681 313.462 288.408 316.993 287.991 317.434C286.561 318.947 277.927 308.545 276.616 303.754C276.259 302.43 276.735 302.745 279.415 305.456C282.869 309.112 284.834 310.058 281.916 306.717C278.879 303.376 276.021 298.08 277.152 298.08C277.271 298.08 278.939 300.35 280.785 303.186ZM133.395 310.184C127.916 318.632 122.795 325.503 122.259 324.999C121.604 324.306 126.13 316.299 130.001 311.382C139.469 299.215 140.78 298.773 133.395 310.184ZM131.49 306.717C127.619 310.751 125.832 311.823 127.797 308.86C128.75 307.41 134.408 302.493 135.063 302.493C135.301 302.493 133.693 304.384 131.49 306.717ZM105.406 306.654C102.071 310.247 89.208 320.838 88.7912 320.397C88.1957 319.83 91.7688 315.543 95.3418 312.454C98.7958 309.554 107.669 303.186 108.384 303.123C108.503 303.123 107.193 304.699 105.406 306.654ZM167.637 305.015C167.816 305.393 169.841 307.221 172.104 309.112C175.558 312.012 180.084 317.686 181.93 321.406C182.585 322.73 168.888 308.419 166.565 305.393C165.077 303.439 164.957 303.06 166.029 303.691C166.684 304.069 167.459 304.699 167.637 305.015ZM214.445 309.932C212.063 314.912 210.217 317.56 211.408 314.219C212.777 310.31 216.112 304.132 216.589 304.636C216.708 304.762 215.755 307.158 214.445 309.932ZM144.234 309.869C141.613 313.399 138.695 316.11 130.715 322.793C122.319 329.727 119.698 331.745 119.401 331.366C118.507 330.421 122.319 325.377 127.678 320.523C132.978 315.669 144.055 307.599 145.484 307.536C145.782 307.536 145.186 308.608 144.234 309.869ZM229.63 313.462C229.392 315.417 228.916 317.182 228.558 317.371C228.082 317.686 228.022 316.867 228.32 314.723C228.677 311.697 228.677 311.697 227.725 313.21C225.402 316.867 215.1 326.638 209.383 330.547C207.656 331.745 207.656 331.745 208.311 330.484C209.859 327.395 228.975 308.923 229.809 309.743C229.928 309.869 229.809 311.571 229.63 313.462ZM236.062 318.317C234.811 319.703 233.62 320.775 233.382 320.775C233.144 320.775 232.787 319.956 232.548 318.884C232.191 317.245 232.548 316.551 235.049 313.525L237.908 310.121L238.087 313.021C238.265 315.669 238.087 316.173 236.062 318.317ZM146.199 316.173L145.841 319.199L147.032 316.993L148.224 314.786L148.283 317.308C148.283 322.477 145.484 336.725 143.519 341.264C141.196 346.623 137.087 356.898 136.254 359.672C135.36 362.509 134.527 362.32 134.884 359.357C136.432 347.001 137.266 342.21 139.053 334.771C140.184 330.042 141.732 324.116 142.566 321.595C143.34 319.136 143.876 316.93 143.638 316.741C143.34 316.425 145.782 313.21 146.318 313.21C146.437 313.21 146.437 314.534 146.199 316.173ZM122.438 318.695C120.889 323.171 119.043 327.332 116.959 330.925C115.232 333.951 113.981 335.149 109.336 338.301C102.964 342.651 98.8554 344.983 98.8554 344.29C98.8554 343.47 122.08 316.362 122.795 316.362C123.033 316.362 122.855 317.434 122.438 318.695ZM230.524 323.486C229.392 324.684 229.154 323.423 229.928 320.964L230.762 318.569L230.94 320.712C231.06 321.847 230.881 323.108 230.524 323.486ZM237.074 324.306C235.824 327.962 233.203 333.005 230.94 335.905L229.749 337.481L230.107 334.203C230.285 332.375 230.881 329.979 231.417 328.845C232.727 326.134 237.848 319.388 238.087 320.082C238.206 320.397 237.729 322.288 237.074 324.306ZM151.797 324.369C152.094 325.693 152.511 327.773 152.69 328.971L153.047 331.177L152.213 328.971C151.32 326.386 150.486 322.036 150.903 322.036C151.082 322.036 151.499 323.108 151.797 324.369ZM225.343 327.458L223.199 329.916L225.164 325.819C226.951 322.288 227.189 321.973 227.367 323.423C227.486 324.558 226.951 325.693 225.343 327.458ZM228.38 332.564C228.142 333.888 226.951 337.229 225.64 340.003C224.33 342.777 223.377 344.479 223.556 343.786C224.092 340.886 226.415 332.501 226.951 331.366C227.963 329.412 228.737 330.042 228.38 332.564ZM238.742 347.001C234.692 358.916 233.025 363.077 227.784 373.731C226.534 376.315 225.104 379.594 224.688 380.981L223.913 383.502L224.211 380.224C224.39 378.459 225.343 374.172 226.295 370.768C227.308 367.363 228.38 362.761 228.677 360.492C229.035 358.222 230.047 354.944 230.881 353.242C233.144 348.577 242.613 333.258 242.851 333.888C242.91 334.203 241.124 340.066 238.742 347.001ZM149.117 345.173C149.295 347.82 149.474 350.846 149.415 351.918C149.415 353.557 149.295 353.683 148.938 352.612C148.224 350.72 147.628 340.318 148.164 340.318C148.462 340.318 148.879 342.462 149.117 345.173ZM248.687 364.716C239.814 383.502 236.419 389.933 236.419 387.978C236.419 387.789 236.955 384.952 237.67 381.737C239.456 373.163 241.541 366.229 243.387 362.887C245.709 358.79 258.691 341.39 258.93 342.147C259.049 342.462 254.404 352.612 248.687 364.716ZM227.844 350.846C225.879 355.764 223.318 360.429 223.318 359.105C223.318 356.52 228.618 344.857 229.094 346.433C229.213 346.812 228.677 348.766 227.844 350.846ZM227.784 361.438C226.355 367.931 223.318 376.315 219.923 383.061C218.077 386.654 216.529 389.428 216.35 389.239C216.053 388.924 223.08 366.67 224.39 363.959C225.819 360.996 228.142 357.214 228.38 357.466C228.499 357.592 228.261 359.42 227.784 361.438ZM153.464 372.029C156.322 384.07 157.097 388.294 156.382 387.537C155.846 386.97 151.856 371.65 151.022 366.985C149.593 359.042 149.415 357.718 149.891 358.222C150.129 358.411 151.737 364.653 153.464 372.029ZM148.104 370.705C151.618 391.32 152.928 402.1 151.916 402.1C150.784 402.1 149.057 393.337 147.152 378.081C145.901 368.372 145.544 361.185 146.258 361.942C146.497 362.131 147.271 366.103 148.104 370.705ZM217.958 374.172C214.326 385.709 208.728 400.587 209.859 395.48C211.288 389.176 214.862 377.072 216.529 372.974C219.03 366.796 219.268 366.292 219.626 367.3C219.745 367.742 218.971 370.831 217.958 374.172ZM186.694 377.261C185.92 381.359 184.133 388.23 182.823 392.454C181.513 396.741 180.441 400.65 180.441 401.154C180.441 401.658 180.203 402.1 179.905 402.1C179.607 402.1 179.19 397.246 178.952 391.32C178.535 380.539 178.833 376.694 179.548 383.628C179.726 385.646 180.143 388.861 180.381 390.752L180.798 394.22L181.572 390.437C182.585 385.583 187.587 369.129 187.944 369.507C188.063 369.633 187.527 373.163 186.694 377.261ZM229.869 376.946C228.082 383.881 227.07 386.717 226.534 386.213C226.415 386.024 226.593 384.259 226.951 382.178C227.606 378.396 230.94 369.003 231.476 369.57C231.596 369.696 230.881 373.037 229.869 376.946ZM153.107 381.989C155.072 388.924 156.561 396.678 156.62 400.019C156.62 401.595 156.382 402.1 155.548 402.1C154.655 402.1 154.357 401.091 153.762 395.417C153.047 388.987 151.618 379.657 150.844 376.252C150.665 375.37 150.665 374.866 150.844 375.055C151.082 375.244 152.094 378.333 153.107 381.989ZM234.335 388.798C233.501 393.967 232.548 399.074 232.191 400.145C231.536 402.037 231.417 402.1 227.963 402.1C225.343 402.1 224.449 401.911 224.688 401.28C231.238 385.267 235.228 377.135 235.705 378.648C235.824 379.089 235.228 383.628 234.335 388.798ZM223.735 385.835C223.556 386.276 223.437 385.961 223.437 385.078C223.437 384.196 223.556 383.881 223.735 384.259C223.854 384.7 223.854 385.457 223.735 385.835ZM194.376 390.563C193.899 397.876 192.947 399.893 192.947 393.526C192.947 388.294 193.483 384.448 194.257 384.448C194.555 384.448 194.614 387.096 194.376 390.563ZM185.622 395.291C185.026 401.848 184.967 402.1 183.597 402.1C182.466 402.1 182.287 401.911 182.704 400.965C183.002 400.398 183.597 398.317 183.954 396.426C184.907 391.635 185.86 388.041 186.039 388.294C186.158 388.42 185.979 391.572 185.622 395.291ZM190.743 397.498L191.16 402.1H189.314C187.647 402.1 187.468 401.911 187.825 400.65C188.004 399.893 188.48 397.182 188.897 394.598C189.731 389.365 190.088 389.996 190.743 397.498ZM221.889 401.217C221.174 403.108 220.4 402.037 221.114 400.019C221.591 398.569 221.829 398.317 222.008 399.137C222.127 399.767 222.067 400.713 221.889 401.217ZM71.6999 414.393C71.4617 414.897 70.9853 415.339 70.5089 415.339C70.0325 415.339 69.6752 414.897 69.6752 414.393C69.6752 413.889 70.2111 413.447 70.8662 413.447C71.6404 413.447 71.9381 413.763 71.6999 414.393ZM78.191 413.889C77.4169 414.015 76.1067 414.015 75.2135 413.889C74.2606 413.763 74.9157 413.637 76.5236 413.637C78.191 413.637 78.9056 413.763 78.191 413.889ZM85.5754 413.826C85.3967 414.015 84.8608 414.078 84.4439 413.889C83.9675 413.7 84.1462 413.51 84.8012 413.51C85.4563 413.447 85.8136 413.637 85.5754 413.826Z" fill="#0B405A"/>
</svg>
