<svg width="1024" height="1024" viewBox="0 0 1024 1024" fill="none" xmlns="http://www.w3.org/2000/svg">
<g clip-path="url(#clip0_266_4179)">
<rect width="1024" height="1024" fill="#0B405A"/>
<path d="M0 0H1024V1024H0V0Z" fill="white"/>
<path d="M401 89L416 90L490 101L497 103L499 105L498 109L486 115L463 126L447 134V137L456 154L464 173V179L470 193L474 212L475 220V250L472 273L467 294L462 307L458 313L448 317L439 318L442 323L444 327L458 330L479 338L493 346L502 353L503 355L504 364L512 372L526 391L534 403L550 426L563 444L570 453L575 458L579 457L585 452L593 442L600 435L609 424L620 412L627 404L636 393L640 391H645L646 386L652 374L658 359L665 347L674 337L683 330L693 319L699 320L702 322L708 312L724 279L737 252L746 233L753 222L757 217L762 216L767 219L768 225L764 238L736 294L721 327L730 328L735 333V340L732 345L728 347V349H730V360L727 364H725L729 370V379L724 383L711 387L706 400L701 405L692 409L676 412L677 417L678 436L684 480L685 490V526L681 552L675 580L671 592L668 611L665 620L661 623L647 622L627 618L603 610L583 600L564 588L550 576L544 571L539 565V580L545 656L547 676V691L544 689L542 680V678L541 679V690V694L540 697L537 700L541 698L539 710L537 714L534 697L531 661L528 620L532 693L535 728V739H534L530 713L526 669L525 654L524 604L521 541L519 525L520 537L523 612L524 667L529 726V734H528L525 717L520 668V708H519L517 690V695L518 710H517L515 699L514 684L512 556L510 510L506 465L504 450L503 445V440L501 439L503 450L504 461L507 492L510 536L511 563V676L510 692L508 691L507 682L505 624L504 560L502 511L499 468L494 424L488 387L486 378L487 389L494 438L499 492L501 539V645L500 664L499 669L498 685L497 693H495V616L493 586V548H491L492 551V624L489 668L488 674H487L486 665L487 633V623L485 653V675H483L482 669V564L481 545L480 541L479 521L481 520L480 513V514V516L478 517L480 518L479 520L478 521L480 546H481V630L479 653L478 671L477 676H476L475 669V582L474 521L472 478L470 458L468 432L464 401L465 416L471 469L472 482L473 568V614L471 649L470 664H468V588L465 523L461 472L456 432L449 393L448 388L450 402V408L452 415V417L451 418L452 421V423L453 424L454 437L456 443V450H455V444H453L452 449H454L453 453H451L450 456H448L447 460L444 463V466H441L440 476L438 477V474H435L440 464L441 459H439L441 453V451H444V447H446L447 439L445 443L444 446L439 451L437 454L433 458L431 457L438 447H440L441 441L438 438V441L433 444L435 439L440 433L439 430H442L439 427L437 435L433 437L429 441L430 437L433 434L434 431H436L433 428L431 432L428 434L430 430L433 425L435 424V422L433 421L431 425L428 427L430 422L432 418L434 413L438 412V408L434 412H432L431 415L427 417L429 412H427L426 406L427 405H425L421 394L423 407L428 439L431 465L434 497L438 532L440 556L441 564V581L443 655V664L442 675H441L440 670L437 591L434 539L428 485L424 455V449L422 448V442L420 443L422 460V464L421 466H423L424 478L425 480V493V497L427 496L426 500L423 504L428 503L427 506L425 507L428 509L425 510L424 514L429 511L427 516H425L424 521L422 518L421 500L422 496H420L421 491V488L422 486L420 485V482L419 469L418 465L416 464L417 473V480L418 482L417 489L419 490V492H417L416 495H412L411 497V494L414 492V490L409 493L411 515L412 520L416 517L417 519L415 520L414 523H416L417 520L418 524H415V528L417 529H415V531L413 530L414 528H412L413 535L414 554L421 550V553L416 556H414L413 559H415L414 562L419 576L420 579L419 587L425 596L427 601L426 605L432 617L431 622L426 625H415V634L412 654L409 666L405 676L404 674L409 651L411 634V622L407 657L405 665H404V648L405 625H403L404 637L403 659V669L401 678H400L401 641L402 626H400V639L398 663L396 677L394 673L397 628L398 626L395 625L394 623L393 626H395L394 643L391 673L389 677L388 676L389 659L384 684L382 690L380 691L385 660L386 649L387 647H384L385 651L382 666L380 667L381 656L382 647L381 646V653L377 677H374L377 661H374L373 673L371 677H369L371 660L372 656L369 655L372 654L373 649L370 648L369 650H372V652L369 653L366 662L360 683L356 693L354 692L359 673L364 652L362 653L360 665H358V669H356L357 663L355 662L354 667L351 675L353 676L352 678H350L345 692H344L345 680L349 669L347 668H350L349 662H351L353 650L355 640H353L352 649L349 657H347L345 666L340 680L336 685L337 679L339 671H337L336 675L333 674L335 667H333V672L326 686H325L326 677L333 648L329 656L327 658L320 676L313 690H311L323 654L319 664L316 673L312 678L305 692L303 693L304 688H306L307 681L310 675L307 679L303 687H301L299 693L293 703L292 706H290L289 709L286 707H288L287 703H289L317 647L329 618L333 606L323 629L314 648L305 664L302 671L298 676L297 680L293 684L287 694L279 706H276L278 700L292 678L300 662L303 655H301L299 660L297 659L292 667L290 668L289 672L283 671L281 678V681L279 680L277 689L274 688V683L277 680L271 678L270 680L273 681L272 683L266 684L263 693H261L260 698L257 701L256 704H254L253 708L250 709V706H252L254 701L258 693H260L261 689L267 678L270 671L263 682L256 692L248 704L239 717H237L235 721L233 723V720L240 709L253 688L279 642L291 619L302 594L310 576L319 559L327 549L331 546L318 542L316 546H314L312 551L310 554H308L306 560L299 571L290 587L282 599L285 598L287 594L303 569L312 556L321 547V550L315 557L306 572L302 578L294 589L281 611L251 663L241 679L231 694L225 701H223L225 695L226 693H228L230 688L239 673L247 658V656L239 670L230 683L220 696V693L224 685L230 675H232L234 670L247 647L260 627L261 623L251 639L239 658L232 669L219 688L218 690H216L217 685L223 675L229 666L233 659L239 650L252 628L264 609L270 600L264 608L242 642L235 652L226 665L222 671L219 672V674H217L216 676L213 673L214 671H216L218 666L228 650L237 636L248 619L242 627L233 640L215 667L211 670L213 664L229 636V635L222 647L212 664L207 668L208 663L216 649L221 640L213 652H211L209 657L206 663H204L205 655L207 654L213 640L207 651L205 649L214 629L215 625L207 641L205 639L206 634L208 630H206V615L216 505L222 457L229 418L234 398L240 382L242 378L243 369L249 357L253 354L249 356L244 363L242 369L239 368V359L245 352L259 344L271 338L288 329L307 322L324 319L330 318L342 313L350 303L357 293L367 291V278L363 277L357 273L351 265L347 254L342 239L341 228L336 226L334 222L333 214L332 192V180L314 176L313 175L314 211L318 215L323 251L325 283L323 284L320 271L318 257L317 259V277L315 274L313 254V279L312 285H311L310 279L309 244V272L308 284L306 280L304 267L302 283H299V256L302 226L303 221V215L307 211L308 175H265L260 176L257 173L259 169L284 154L310 139L333 126L357 113L383 99L401 89Z" fill="#293E53"/>
<path d="M901 659H910L918 663L922 668L923 671V683L919 691L915 696L919 701V703L935 707L941 710L946 720L951 742L953 756L954 798H957L963 797L966 798L968 803L972 830L971 836L965 841L945 854L939 855L934 856L931 848L928 826L927 823L926 826L928 845L931 855L934 857L942 855L940 858L942 880L946 917L947 937L955 936L984 937V939H947L946 942L953 941L955 943L947 944L944 946L930 948H926L922 947L921 948L918 947L917 944H911L907 946L906 944L905 948H896L887 949L873 948L860 949H793L786 950L769 951H766H755V950L723 951H681L680 952H592L421 955H396L354 956L331 957H311L293 958L281 959L277 960L259 961L258 958L285 956L309 955L322 954L342 953L350 952L372 951H348L323 953L277 955H248L249 953L260 952L291 951L301 950L334 949H309L300 950L243 951H195L138 953L123 954H114L94 956H75L77 954L97 953L106 952L154 950L196 948L269 947H198L159 948L141 949L69 951L70 948L100 946H116L115 945L58 946L59 943L73 942H90V940H42V938L55 937L89 936L87 914L85 840L84 838L83 821L80 815L71 803L68 796V768L71 747L75 737L79 732L95 727L97 723L96 717L92 709L91 706V696L94 690L99 686L102 685H109L116 689L121 697L122 703L120 717L115 723L117 729L126 732L132 736L135 744L142 816L143 832L144 833H152L155 835L157 848V869L154 872L135 880L138 931V936L182 937L180 924L178 896L176 843L175 841L174 808L166 792L161 776L160 771V753L163 745L168 740L177 737L182 735L185 730L184 725L178 716L177 713V701L180 696L185 692L190 690H198L205 696L208 704V722L205 728L202 732L206 738V740L216 742L222 745L225 749L228 762L234 811L237 825V834L238 838V845L234 851L232 853L227 854V844L226 846V899L227 936L288 937V881L289 857V837L287 832V804L281 788L276 770L275 763V752L278 745L284 740L296 737L298 732L299 730H301L294 715V706L299 696L307 694L315 695L320 700L324 708L322 724L318 730L319 735L323 738L335 742L339 749L342 764L349 814V817L356 816L361 820L364 839V860L360 864L343 872V893L345 935H352L354 936L381 937L384 856V844L383 826L376 818L372 813L370 809V773L373 755L377 747L387 742L394 739L396 733L390 720L389 712L391 704L395 699L400 697H410L415 701L419 709L420 713L418 730L414 735L418 743L431 748L434 754L439 787L444 834L443 843L448 842L454 845L455 867L454 877L444 884L436 889V935H443L446 936L477 937L473 919L469 902L468 886L467 885L466 846L465 831L464 827V812L468 799L467 795L462 790L458 781L455 764V751L458 744L461 741H463L462 735L464 718L469 703L473 697L480 692H492L500 697L503 702V717L498 731L497 738L502 740L507 744L510 750L511 757L512 792L516 807L520 820H529L532 822L533 826L534 842V853L532 858L516 866L512 869V890L514 908L516 930L530 934V937L554 936L557 850V840L555 848L553 855L546 854L544 848V833L549 808L552 782L553 757L555 743L559 737L569 732L574 731L576 723L571 718L569 710L570 696L575 687L581 684H589L595 687L599 692L601 698L600 707L594 717L593 719L599 727L614 732L619 737L623 752L626 782V800L622 810L615 823L612 838L614 935H658L665 936L663 903L662 896L633 889L630 887L629 884V864L630 852L633 849L642 848V830L645 792L646 757L648 744L651 738L657 734L667 730L669 723L664 718L663 714V698L666 690L673 684H684L689 687L693 692L694 694V706L690 714L688 716L689 720L691 727L702 730L710 734L714 739L717 748L720 772L722 805L723 836L732 839L734 841V876L729 879L709 877L711 915V936H762L758 902L756 876V852L757 841H754L755 850L754 853L750 854L745 849L744 845V833L749 798L750 763L752 750L756 744L765 740L770 738L773 730L768 728L765 721V708L769 698L774 693L778 691H787L793 694L798 700L799 703V711L795 721L791 727L796 735L812 740L817 745L820 753L823 771L825 801L824 815L820 823L815 829H813L811 842L810 844V936H869L874 937V938L810 939V941L867 940L874 939L877 936L885 935L881 892L879 853L878 818L877 817V792L876 777L871 780H864L858 775L848 760L835 736L821 716L819 712V707L836 694L848 685L856 680L861 681L871 697L878 709L879 714L878 716L886 712L893 708L895 700L890 698L887 694L886 690V674L891 664L898 660L901 659Z" fill="#2A3F55"/>
<path d="M447 386L449 388L456 426L460 454L464 495L467 542L469 588V637L468 664H470V649L472 614V568L471 482L467 442L463 406V394H464L469 432L472 467L474 494L475 530L476 582V669L477 671L479 640L480 630V554H479L477 520L480 518L477 517L480 516L477 514L480 512L482 519L481 523V521H479L480 525L481 544H482L483 564V675L484 674V653L486 623V555L487 547H488V633L487 665L488 668L491 624V548H493L494 586L496 616V694L492 693H480L472 699L467 711L464 723L463 741L458 745L456 751V764L460 784L464 792L469 796L467 805L465 812V827L466 831L467 846L468 885L469 886L470 902L474 919L477 932V937H446L436 935L435 889L445 882L453 877L454 865L453 845L448 843H443V834L438 787L433 754L431 748L421 745L416 742L413 734L416 733L418 725L419 712L415 703L410 698H400L394 701L391 706L390 715L393 725L397 733L395 739L391 742L380 746L376 750L373 760L371 773V809L376 817L383 824L384 826L385 844L384 885L382 938L354 937L345 935L344 931L342 893V872L357 864L363 862V839L360 820L356 817H349L346 801L340 758L337 746L333 742L321 738L317 734L318 729L321 724L323 708L318 698L312 695L302 696L297 697L298 693L301 687H303L305 681L309 674L311 675L307 683L306 688H304V692L311 678L313 675L316 671L323 650L324 654L313 687L311 690H313L315 685L325 661L328 653L330 652L333 643H334L333 652L327 677L326 685L332 671L333 667H335L334 674L336 675V670L339 671L337 683L341 675L344 665L346 659L348 655H350L351 649L353 640H355L354 650L351 662L350 663V668L347 677L345 690L349 678L353 676L350 675L355 662L358 663L356 669H358L360 655H362L361 652H364L362 664L356 689V692L361 677L367 654L368 651L372 652V650H369L370 647L373 649V654L370 655L372 656V664L370 676L372 673L374 661H377L375 675L374 677L376 675L378 666L381 646L383 647L381 665L384 649V647H387L385 666L381 690L383 684L389 655H390L389 676L391 666L394 631L395 626H393L392 628L393 622L398 626L395 673L396 669L398 650L400 626H402V641L401 674L402 669V652L403 635V625H405V662L408 642L410 621L412 622V634L409 657L405 675L409 664L412 650L415 625L426 624L430 622L431 617L425 605L426 600L424 596L418 587L419 577L415 568L413 561H415V559H413L414 555L419 553L421 551L416 554H414L413 552L412 528H414L415 529V524H418L417 522L414 523L415 519L411 521L408 493L415 489L414 493L412 495L416 494L417 492H419V490L416 489L417 481L416 479V464L419 465L421 479L420 482L422 483V486L421 490V494L420 496H422L423 518L424 520L425 516L428 513L424 514L425 509V506H427L426 504H423L425 500V498L423 499L424 488V479L423 475V466H421L423 461L421 460L420 450L419 443L423 441V448L425 455L429 485L435 539L438 591L441 670L442 658L441 618L440 567V560L438 544L434 503L428 449L425 426L420 397V392L422 394L425 402V405H427L428 403V406H426V409L428 410L427 412H429V415L434 411L436 408H438V412L434 413L433 420L429 425L433 421L436 422L435 425H433L431 430L430 432L433 428L436 429V431H434L433 435L431 438L436 434L439 427L442 428V430H439L441 434L438 435L436 439L435 442L438 441V438L441 439L442 443L440 447L436 451L432 457L437 453L444 443L446 438L448 439L446 447H444V451H441L442 455L439 459H441L440 466L435 474H438H439L440 469L441 466L443 465L444 462H446L448 456L451 453H453L454 449H452L453 444L455 443L453 436L452 424H450L451 419L450 417H452L451 415V409L449 408L448 395L447 386Z" fill="#F4F8F8"/>
<path d="M130 257H139L178 266L199 272L205 276L208 289L209 304L206 312L202 314V316L210 317L222 321L225 323L224 328L219 331L198 340L170 353L151 363L144 367L143 370V399L153 395L169 385L196 370L209 362L221 355L226 353L228 362L219 367H217V369L222 371L221 373L214 369V371L218 373L221 376L216 374L210 371V373L214 375L216 379L208 374L206 376L211 382L207 380L205 378L198 379V381L189 386H187V388L191 389L194 394L190 392L186 389H182L185 393L184 396L181 392L176 393L181 399V401H179L174 395L160 403H157L162 410L158 408L155 406L150 409L134 413L131 416H128L129 413L134 410H128V412L124 411V409L103 405L59 397L47 393L42 389L39 380L38 365L40 354L45 346L48 344H58L50 342L43 338L39 332L37 324V315L40 304L45 299L61 291L90 276L123 261L130 257Z" fill="#283D53"/>
<path d="M578 160H588L603 163L619 171L629 180L637 191L642 201L646 216V237L641 253L635 264L623 277L610 288L604 298L598 315L594 321L592 334L590 339V347L587 351L586 359L582 363L569 369H558L550 365L546 357L539 349L533 340L534 316L537 310L535 300L534 278L530 268L521 254L516 239L515 223L518 207L522 197L531 184L541 174L555 166L566 162L578 160Z" fill="white"/>
<path d="M939 178L944 180L947 215L951 276L950 284L942 283L919 274L929 279L928 281L922 282L924 281L918 279V281L914 280L911 289L898 316L885 344L876 364L868 380L856 405L852 407L848 402L834 377L822 355L820 352L811 382L795 434L784 469L778 485L774 484L760 462L748 442L734 485L724 512L712 540L701 560L697 561L698 551L707 521L715 496L727 460L737 432L743 416L746 411L750 413L760 429L772 449L773 451L780 425L790 393L801 362L812 329L818 314L822 313L827 321L844 353L848 359V362H850L851 354L863 324L874 298L890 261L895 250L890 251L889 249L886 251V249L882 247H878L873 249L869 248L867 246V241L881 228L892 219L899 212L910 203L921 193L932 184L939 178Z" fill="#263B51"/>
<path d="M140 461H159L161 464L164 463L171 467L181 507L188 528V530L176 534L175 546L178 552L176 556L171 562L164 564L163 568L165 571L159 569H157V573L159 577L153 573L147 577L151 582L146 580H142L146 587L143 586L139 582L132 587L125 589L127 594L121 592L114 597L109 600L106 603L103 602L110 596L116 592H113L111 591L112 594L106 595L101 600H98L105 593L100 595L97 598L95 597L96 595H98L102 587L98 586L94 589L92 588L96 585L90 587L91 584L93 583L77 575L61 566L55 559L51 548L50 543V530L54 522L60 518L69 515L58 482L62 478L66 477V473L76 469L84 466L96 464H106L116 467L120 471L129 465L140 461Z" fill="#2C4156"/>
<path d="M697 55H713L714 57L723 58L734 64L744 73L750 83L753 94V112L749 125L743 136L740 141L739 145V155L740 166L735 171L719 174L700 177L714 176L724 174H730L731 176L716 181H713V183L723 181H730V183L706 189L700 188V183L696 181L695 176L689 175L685 171L683 158L680 149L668 138L660 127L657 120L655 108V96L659 83L665 74L674 66L686 60L690 59L689 57L697 55Z" fill="#273D53"/>
<path d="M578 160H588L603 163L619 171L629 180L637 191L642 201L646 216V237L641 253L635 264L623 277L610 288L604 298L598 315L594 321L592 334L590 339V347L587 351L586 359L582 363L569 369H558L550 365L546 357L539 349L533 340L534 316L537 310L535 300L534 278L530 268L521 254L516 239L515 223L518 207L522 197L531 184L541 174L555 166L566 162L578 160ZM580 166L567 168L554 173L544 180L541 182V184H539L530 196L525 210L523 218V234L525 244H526L525 226L528 210L532 198L539 189L540 186L544 184L552 178L563 173L575 170H591L603 173L617 181L625 188L626 191L621 186L613 179L598 172L589 170H580L564 174L554 179L547 187L540 196V199L538 200V204H540L539 207V205H537L535 213H538L535 214L534 223L537 222L538 233L535 234L538 243L537 245L539 246L541 250L545 257L550 267L554 282L552 283H554L555 287L553 288L558 289L554 290V292L556 293V295H558V292L563 293L559 295L565 296L566 285L564 284L568 282L569 276L561 273L556 272L555 270L556 274H558V276L555 274L554 267L568 272H570L575 255L576 253V245L572 244L570 250L567 247L568 242L571 239H577L581 244L585 241L590 242L593 245V250L585 258L589 250L588 246L584 248L577 262L575 273L584 274L585 276L592 274L591 275L592 279L574 277V281L573 282L568 305V311L571 312V308L572 313H570L571 317V314H573V312L577 314L578 311L580 312V308L583 307L580 304H585L583 300L586 299L581 297L585 296L588 295V293L587 292H589L588 288H591L599 274L603 271L604 273L606 270H604L611 261L613 256H615L620 248L615 258L610 263V266H608L607 269L611 267L618 258L623 249L627 238L628 234V222L626 210L629 221L631 238L633 241V230H635L634 235V242H632L627 257L628 259H626L623 263L624 266L629 261L633 250L637 234L635 250L637 248L640 234V215L636 200L629 188L619 178L605 170L595 167L580 166Z" fill="#273C52"/>
<path d="M452 178L455 179L454 182L449 183L442 185L448 184L453 185V183L456 184L463 207L465 219L466 235L463 259L457 286L452 302L450 304L452 293L457 274V273L454 282L452 287V289L449 291L442 292L440 291L439 293V291L435 292L434 294H442L451 292L447 296L439 297H431V294L433 293L424 292L407 283L402 277L406 279L415 284L423 288L433 290H436L431 289L418 284L406 275L402 270L406 272L420 281L426 283V281L420 280V278L415 276L406 269L400 259V254L402 252L400 250L397 241L398 248V255L394 265L389 270L387 269L393 261L395 254V247L393 260L391 262L392 254V239L386 227L384 224L390 227L387 223V215L390 205V201H392L394 197L400 191L398 189L412 185L431 183L440 182L450 179L452 178Z" fill="white"/>
<path d="M857 535H871L882 539L890 545L897 553L900 558L899 562L887 550L880 544L870 540H859L849 545L840 555L829 568L820 578L814 585H827L839 587L849 591L857 598L861 604L868 596L878 586L883 580H885L887 576L900 563L910 555L912 556L910 559L917 557H926L936 560L942 564L945 567V569L931 562L921 560L911 561L906 564L895 575L888 583L873 599L867 606L879 603H888L899 605L908 609L913 611L934 590L943 579L957 564L963 556L964 554H959L946 548L938 546L924 545L927 543L932 542L946 543L961 549L967 550L968 557L969 558L977 557L979 563L984 566L983 572L960 595L955 601H953L951 605L939 618L932 627H930L928 632L925 635L918 634L894 625L876 621L868 620V618L866 621H859L852 618L850 616V612L837 610L801 604L794 602L795 597L806 586L815 575L826 563L833 555L842 545L846 539L851 538L853 536L857 535Z" fill="#293E54"/>
<path d="M936 187L937 190L936 192H938L937 196V199L938 203L939 206L937 208L939 209L938 213L940 215L938 217L940 219L938 221L940 222V225L938 226L940 227L938 231L941 232L939 237H941L940 241L938 242L942 243L941 245L942 246L940 251L938 252H942V257V260L941 265L945 264V267H942L941 269H945V277H944L943 271V273V276L933 273L918 267L920 265L918 263H920L919 259H923V257L920 258L919 256L920 252H919L915 266L904 290L888 324L873 357L859 386L857 388L856 387L854 392L852 391V386H850V391H849V385L852 383H849V381L853 379L848 380L846 374L842 367L841 360L844 364L847 371L848 374H850L852 369L857 357L860 356V353L859 350L864 352L861 348L862 344L866 345V343H864L865 336L868 329L869 333L870 334L871 329H874L872 328L873 323H876L874 321L876 318L881 319L877 317L876 315H882L878 314V311H881L878 308L883 309L886 310L880 306L883 305L886 306L882 303L885 302L889 303L883 300V298L888 299L892 301L889 298L884 296L888 295L893 297V295L886 294V292L893 293L885 290L887 283L890 278L891 280L890 282L898 284L892 281L895 280L901 281L896 277L893 274L899 276L897 273H900V271L894 270V268L905 269L895 266L896 263L899 265L906 267V265L898 264V263L907 264L903 262L899 261V259L908 260L904 258L905 255L911 256V255L906 254L908 249L909 247H904L903 244H905V241L904 243L901 242V237H899L900 240L898 245H896V242L895 244H893L895 240L896 237L888 242H885V240L888 239L893 230L896 229L898 224L902 220L903 218H905L906 215L908 217L913 209H915L916 207L921 202H923L924 199H926V197H928V195L935 189L936 187Z" fill="#DDE3E6"/>
<path d="M701 68H706L705 71H707V68L709 69L710 68L716 69L726 74L731 78L737 87L740 94L741 99V110L739 118L734 128L729 137L727 143L725 144L727 146L725 147L726 159H724L723 145L719 146L720 144H723V139L725 140V138H723L722 140H718V142L721 141L722 143L719 144L717 146L712 114L710 110H705L703 115V143L704 151H701V145L696 146L693 140L696 141V144L701 142L697 141V138L692 135H689L688 133H690V131L686 129L682 124L677 110L676 99L678 90L682 83L681 81L694 73L684 78L677 84L671 95L670 91L675 83L684 75L696 69L701 68Z" fill="#EFF3F4"/>
<path d="M133 262L142 263L150 265L149 268L155 266L156 267H161L160 269L158 270L168 269L174 271L169 275L173 274L180 273H184L189 274L184 279L163 292L150 300L130 312L124 313L123 315L119 313L110 312L106 311L74 304L58 301V299L81 287L96 279L124 266L133 262Z" fill="#E9EDEF"/>
<path d="M92 468H107L114 470L118 475L130 511L136 527L137 530L131 529H115L102 534L99 536H96L86 511L74 477L75 474L87 469L92 468Z" fill="#D9DEE2"/>
<path d="M145 464H153L160 469L166 490L170 503V505H172L168 489L163 470V467H166L171 485L179 519V525H161L143 530L139 518L140 515L143 510L153 503L162 500L156 501L146 506L141 511H138L137 506L145 500L157 494L147 498L138 504H137V499L147 492L152 490L158 489L151 490L141 495L135 500H133V495L146 486L154 483L146 485L134 492H132L133 486L140 480L146 477L156 476H149L140 479L132 485L129 486L130 482L139 474L146 471L138 474L130 480L128 481L129 475H131L130 473L126 476L127 471L139 465L145 464Z" fill="#F5F8F8"/>
<path d="M889 386L893 387L897 394V396H894V449H912L911 440L908 438L909 433L915 423L919 422L926 432V434H928L927 447L924 446L921 432V449H942L941 410L938 413H936L937 407L943 399L946 400L951 411H948H947V448L966 449V413H964L963 419L959 421L961 415L966 407L970 408L977 419L975 423L972 421L971 424V449H994V444L1002 448L1004 452L998 457H995V454L891 455L889 454L888 405L887 397L884 398L883 395L889 386Z" fill="#1E344B"/>
<path d="M784 951L787 953L813 952L869 951H927L937 952V953L887 954H851L849 955H816L780 956L728 957H703L553 959H543H539L383 961L374 962L370 961L352 962L350 961H331V959L369 957H383L407 956L620 954H642L692 953H783L784 951Z" fill="#1E344B"/>
<path d="M420 392L422 394L425 402V405H427L428 403V406H426V409L428 410L427 412H429V415L434 411L436 408H438V412L434 413L433 420L429 425L433 421L436 422L435 425H433L431 430L430 432L433 428L436 429V431H434L433 435L431 438L436 434L439 427L442 428V430H439L441 434L438 435L436 439L435 442L438 441V438L441 439L442 443L440 447L436 451L432 457L437 453L444 443L446 438L448 439L446 447H444V451H441L442 455L439 459H441L440 466L435 474H438H439L440 469L441 466L446 467L447 462L450 457H452V455L457 451V459L455 461L456 467H458L457 483L453 491L451 492L454 482V480L450 490L448 498L439 515L437 516L435 512L432 486L430 463L425 426L420 397V392Z" fill="#E7ECED"/>
<path d="M909 838H910L918 874L924 900L929 928V935L921 937H907L906 936L905 890L907 854L909 838Z" fill="#F8FBFB"/>
<path d="M358 301H359L362 310L370 319L384 327L401 335L410 339L403 353L396 362L391 363L383 359L374 352L372 349L376 351L384 356L385 355L374 347L371 345V343L367 341L357 330H360L369 340L371 341V338L367 337L361 329L355 323L353 318V313L351 312L352 310H354L356 305L358 301Z" fill="#F2F6F6"/>
<path d="M315 845L317 849L323 899L329 936V937H313L303 936V926L308 884L314 846L315 845Z" fill="#F8FBFB"/>
<path d="M321 547V550L315 557L306 572L302 578L294 589L281 611L251 663L241 679L231 694L225 701H223L225 695L226 693H228L230 688L239 673L247 658V656L239 670L230 683L220 696V693L224 685L230 675H232L234 670L247 647L260 627L268 613L276 601L283 590L296 570L304 559L307 554L308 556L299 571L290 587L282 599L285 598L287 594L303 569L312 556L321 547Z" fill="#36495E"/>
<path d="M864 958H934V960L887 961H858L802 962L764 963H744L586 967L539 968L502 967V964L514 963L516 964L528 963H556L624 961H644L784 959L787 960L791 959L864 958Z" fill="#1E344B"/>
<path d="M248 74H251L250 78L234 83L227 85L231 91L236 101V103L257 99L255 87V81L259 82L261 93V97H269L274 101L275 103L274 112L269 116H261L256 111L255 104L246 107H241V116L236 121L234 122H227L222 118L221 116V109L226 103L230 102L224 90L220 94H211L207 90L206 84L209 79L213 76H220L225 80L241 76L248 74Z" fill="#1E344B"/>
<path d="M298 331L308 333L324 340L338 349L347 356L351 359V361L354 362V364H357L358 370L363 369H367L364 365L361 363L366 364L369 367V370L380 369L383 371L386 370L390 371H392L393 373L395 372V375H398L396 379L412 378V381L394 385L370 388H351L345 384L334 370L323 359L310 350L294 342L283 338V337H291L304 342L317 349L328 357L338 366V368H340L350 381L353 383H371L387 382V380L384 379L387 377L380 381L378 380L374 382L366 383L368 380H373L376 377H378V375L371 377L365 381L363 380V379L358 382H352L353 380L358 379V378H355V376L358 374L348 377L349 374L353 371L350 369L346 367L351 365V363L344 365V362L347 359H344L342 357H339V355L333 351L332 349L328 350L329 347L323 345L315 340L298 332V331Z" fill="#EBEFF0"/>
<path d="M217 174L222 176L221 180L219 181L222 190L233 214L239 226L241 227V232H224L225 227L227 226L224 216L223 213L204 214L201 226L204 229L203 232H188L187 227L193 223L209 186L208 176L209 175L217 174Z" fill="#1E344B"/>
<path d="M585 848H586L591 888L596 922V935L592 936H573L574 922L580 876L585 848Z" fill="#F8FBFB"/>
<path d="M169 536H171L169 543L158 550L155 553L167 545H170L168 550L162 554L168 551L171 552L166 557L150 568L134 578L125 584L123 582L120 564L119 559L137 549L157 540H163L169 536Z" fill="#F2F6F6"/>
<path d="M311 567L312 569L303 586L291 614L276 643L262 667L251 684L243 695L233 708L231 711H228L230 705L245 679L262 647L273 628L279 617L292 594L299 583L303 578L304 579L311 567Z" fill="#1E344B"/>
<path d="M635 402H636L642 441L649 484L656 528L663 584V605L661 607L652 537L647 500L645 491L649 516V524H648L644 499L639 468L633 432L631 421V412L635 402Z" fill="#EFF2F3"/>
<path d="M408 853H410L414 893L419 931V937H407L403 935L397 934L398 918L407 858L408 853Z" fill="#F8FBFB"/>
<path d="M748 949H758L759 950H767H768H785L783 954H690L626 955L499 956H431L432 954L474 953L603 951H651L680 952L681 950H734L748 949Z" fill="#F7FAFA"/>
<path d="M460 503H461L462 520L461 526L460 528H462V533L461 535L460 540L463 539L462 550L458 561L457 564L455 565L452 577L448 585L447 583L451 573V571L447 580V596L454 576L457 565H458V572L454 585L448 600L447 606L453 594L459 577L460 567H462L461 575H463V560H464L465 565V577H463L455 597L447 611L446 616H445L444 593V578L447 574L453 562L454 559H452L451 563L447 570L445 575L443 576V564L444 556L442 554H444V543H446L448 537L454 527L458 519L459 516L460 503Z" fill="#4F6072"/>
<path d="M697 60H712L724 63L734 69L742 78L746 86L749 98V108L747 118L743 127L736 138L734 144V156L735 165L729 167L724 166L725 162L726 165L729 164L730 145L733 135L742 119L744 111V97L740 84L734 76L726 70L714 65H695L685 69L676 75L669 83L664 95V110L668 123L674 131L686 143L690 152L694 170H691L689 162L687 152L683 144L668 129L662 117L660 108V95L664 84L670 75L679 67L689 62L697 60Z" fill="#F8FBFB"/>
<path d="M109 848H110L116 900L121 932V938L114 937L113 935L103 933V912L107 872L109 848Z" fill="#F8FBFB"/>
<path d="M734 627L745 628L747 629V636L754 635L760 636L761 635L760 630H768L773 633L769 638L766 641L761 643V640L752 638H741L740 632H736L733 641H721L720 646L722 648L721 655L714 657L713 662H721L722 663V671L721 676L728 681L733 674H748L749 676V684L748 682H746L745 678H737L734 687L728 686L719 681L715 678L716 670L718 667H709L707 659L708 654L713 652H717L711 644L718 636L720 634L724 635L728 637H730L731 631L734 627Z" fill="#1E344B"/>
<path d="M54 307H61L102 315L125 321L126 322L129 323V335L124 334V336L126 337L124 345L111 343L112 340L113 342H115V334L110 333V342L105 341V335L104 341L102 340L103 330H99L98 340H97L96 329L95 337H94L93 328L92 338H91V326L89 327V334L87 331V326H84V330L86 331L83 334L82 326L79 325L78 327V325L75 326V324L72 325V321L84 322L93 324H97L101 325L102 327L104 325V328H106L107 326L108 329L109 322L111 323V330L112 321L105 320L100 319L93 317V322L91 323V321L88 322L79 319L72 318V316H80L92 320V317L73 313L60 310L54 309V307Z" fill="#CFD6DA"/>
<path d="M434 130H438L452 157L457 170V172L441 176L413 179L399 181L402 178L411 176L413 175L415 176V172H418V174L421 175V173H419V169H416V166L413 165L417 164L418 166L421 168V170L424 172V174H427V172L424 171L425 168H429L430 172H432L430 168L431 164L440 163L439 160L437 159V161H432L433 158L439 156L440 159H442L444 165V169L446 170L445 167L446 164L447 167H449L448 171L452 169L450 168V165H448L443 153H439L438 150L436 149V151L433 150L431 143L420 146H417L416 148L412 150H409V152L406 153V150L416 144L421 142H429V139L424 141L423 138L425 137L428 138V136H430V140H432V143L439 140V138H436V140L433 139V137L431 136H436L435 133L423 134L424 132L434 130Z" fill="#EDF1F2"/>
<path d="M784 853H785L791 896L794 915L795 926V936L779 937V921L782 867L784 853Z" fill="#F8FBFB"/>
<path d="M903 111L909 112L919 118L920 122L917 127L913 132L907 135L905 132L909 127L912 125L893 129L868 133L803 141L797 142L795 139L797 136L825 132L881 125L909 120L912 119L904 115L903 111Z" fill="#1E344B"/>
<path d="M103 74H107L108 88V105L141 104L148 105V109L76 112H41V110L43 109L102 105L101 93L94 96L90 95L91 90L100 77L103 74Z" fill="#23384F"/>
<path d="M201 851L203 854L208 907L212 931V937H205L195 935V917L199 877L201 851Z" fill="#F8FBFB"/>
<path d="M59 355L69 356L123 367L134 370V376L135 370H137V398L110 394L70 388V387H78L109 391L123 394L131 395V393L128 394L118 392L119 390L125 392V389H121V387H117L118 385L124 386L129 385V387L135 388V385L125 383L63 368L60 366L68 367L102 373H106V375H109L111 373V376H114L116 373H119L118 377L120 375L121 373L123 374V376L126 371L118 370L62 357L59 355Z" fill="#EFF2F3"/>
<path d="M256 246L261 247L263 249L262 254L252 266L248 270L258 268H270V272L261 281L254 287L253 290L260 287L267 286L266 291L256 296L251 297L243 294L242 290L247 284L257 276H259V274L245 277H236V272L249 259L252 254L254 247L256 246Z" fill="#1E344B"/>
<path d="M397 433H400L399 437H402L400 443L398 448H401L402 444L405 447L400 452L399 454H402L403 450L407 449L406 453L402 455L400 461H402L404 457L406 459L405 464H403L402 468H404L406 464L412 459L413 463L412 465L414 466L415 474L407 480H405L406 470L404 471L406 489L409 519L411 547V564L408 562L407 558L405 524L400 478L394 441V435H396L397 433Z" fill="#EEF1F3"/>
<path d="M416 464L419 465L421 479L420 482L422 483V486L421 490V494L420 496H422L423 514L422 523L428 519L430 520L427 523L425 527L424 525V536L423 547L419 548L416 551H414L416 547L419 544L414 546L415 543L420 541V544H422V537H419V539L415 542H413L412 528H414L415 529V524H418L417 522L414 523L415 519L411 521L408 493L415 489L414 493L412 495L416 494L417 492H419V490L416 489L417 481L416 479V464Z" fill="#D9DFE2"/>
<path d="M910 707L914 708L918 707L924 708L928 710L927 714H929V711H931L930 716V718L931 725L929 726L928 720H922V717L920 716L921 726L918 727V717L916 719L917 727V732L914 731V718H912L913 726V729L909 728V730L905 731L904 726V719H906L907 727H911V720H909L910 725L908 726L905 715V718H903V715H901L903 722V731L901 732L900 729L901 725H899V727L891 730V728H893L891 721V726H889L888 724V726H886L885 721L882 724L879 722L884 718L903 709L910 707Z" fill="#C9D0D5"/>
<path d="M484 891H495L498 908L503 926V936H495L487 930L486 927L484 891Z" fill="#F8FBFB"/>
<path d="M283 337H291L304 342L317 349L328 357L338 366V368H340L350 381L353 383H371L407 378H412V381L394 385L370 388H351L345 384L334 370L323 359L310 350L294 342L283 338V337Z" fill="#F8FBFB"/>
<path d="M824 445H835L841 449L845 455L846 465L842 476L834 486H829L828 482L835 470V459L832 453L830 451L824 452L821 456L824 459L823 464L821 466L815 465L812 460L815 451L821 446L824 445Z" fill="#1E344B"/>
<path d="M198 282L201 283L196 288L160 309L147 317L139 323L141 324V322L153 316L168 307L175 302L187 296L199 289L201 288L200 293L186 302L172 310L159 318L149 324L138 331L135 335L134 333V325L140 318L158 306L180 292L191 286L198 282Z" fill="#F8FBFB"/>
<path d="M685 872H686L693 909L695 924V935L681 936V925L684 875L685 872Z" fill="#F8FBFB"/>
<path d="M784 739H787L789 740L790 742V740H797V743L798 741L807 744L808 745L812 746L814 752L809 754V750L804 751V748L803 751H797V753L804 752V760H802L801 756L802 754H800L801 760H799L798 755L796 754L798 760H795V751L793 753V757H791L790 751L791 749H788L789 756L787 757L786 752L787 750L784 749L785 746L775 749L774 748L773 756H772L771 750L772 748H770V756H768L767 752L765 753V765H763L762 753L759 761L758 762L757 778H756V754L759 748L763 746L771 743V745L772 746L773 742L782 741H784V739Z" fill="#D3D9DD"/>
<path d="M148 192L153 193L156 196L157 202L154 208L147 214H145L146 209L147 208L135 210L104 213L56 217H52V213L54 212L104 208L126 206L148 202H152L150 197L147 195L148 192Z" fill="#1F354C"/>
<path d="M594 276L595 279L593 284L591 288H588L589 292H586L588 293L587 296H581L585 298L586 300H583L585 304H580L583 307L580 308L579 312L578 311L576 314L573 312V314H571L570 317V313H572L571 308L570 312L568 311L569 301L573 282L574 281V277L592 279V277L594 276Z" fill="#D8DEE1"/>
<path d="M307 554L308 556L299 571L290 587L280 602L272 615L261 634L253 646L239 670L230 683L220 696V693L224 685L230 675H232L234 670L247 647L260 627L268 613L276 601L283 590L296 570L304 559L307 554Z" fill="#1E344B"/>
<path d="M686 730H689L690 731L699 734L703 737V739L705 740V742H703L702 746H699L697 742L696 739L694 740V735L693 739L691 741L690 736V737L689 743L693 742L692 746H689L683 745L682 740L677 742L675 738V743H673L671 739L672 743L669 744V740L667 741L668 744L666 745L665 743L663 745L662 748L659 745V743H657L661 749L660 752L655 761L653 776H652V756L654 743L655 741H657V739L670 734L679 731H684V733H686V730Z" fill="#D5DBDF"/>
<path d="M456 177H459L465 193L468 206L469 214L470 238L468 262L464 284L459 300L455 308L448 311L442 312H433L414 308L398 300L388 293L387 291L391 293L410 303L422 307L428 308H447L453 306L457 296L462 277L466 248V219L462 197L456 179V177Z" fill="#F8FBFB"/>
<path d="M258 947H284L304 948L300 950L243 951H195L138 953L123 954H114L94 956H75L77 954L97 953L106 952L154 950L196 948L258 947Z" fill="#1E344B"/>
<path d="M390 962L391 964L413 963H495L501 964V967H475L342 968L340 967L341 965L347 964L352 965L356 964H367L369 963L390 964V962Z" fill="#1E344B"/>
<path d="M535 72L541 74L544 77L543 81L538 89L544 88L547 92L551 104L553 107L551 110H548V108L536 107L528 106L524 105L525 100L536 90L532 88L534 84L537 80H539L535 75V72Z" fill="#1E344B"/>
<path d="M420 392L422 394L425 402V405H427L428 403V406H426V409L428 410L427 412H429V415L434 411L436 408H438V412L434 413L433 420L429 425L433 421L436 422L435 425H433L431 430L430 432L433 428L436 429V431H434L433 435L431 438L436 434L439 427L442 428V430H439L441 434L438 435L436 439L435 442L438 441V438L441 439L442 443L440 447L436 451L431 458L429 457L425 426L420 397V392Z" fill="#F0F4F5"/>
<path d="M664 278L667 279V305L665 314H660L659 307L660 304L650 307L645 306L644 302L650 295L658 284L662 279L664 278Z" fill="#1E344B"/>
<path d="M763 548H766L767 551L763 557L754 567L753 570H760L765 567L771 562H775V564L772 566L773 570L764 576L761 577H752L744 574L742 572L743 567L751 558L754 555L755 551L763 548Z" fill="#1E344B"/>
<path d="M743 646L748 647L752 651L753 659L749 665L745 668H736L731 663L730 655L732 651L739 647L743 646Z" fill="#1E344B"/>
<path d="M774 319L777 320L775 325L772 327L763 328L758 336L757 340V349L760 356L765 358L775 357L774 362L772 363H760L754 359L751 352V337L755 327L761 322L766 320L774 319Z" fill="#1E344B"/>
<path d="M290 404L293 405V407L297 408L305 416L311 426L315 434L322 457L325 474L326 490L325 498H324L322 474L318 457L309 433L305 426H302L299 422V419H297L295 416L294 408L293 411H291L290 404Z" fill="#EEF2F3"/>
<path d="M402 95L422 97L471 104L487 107V108H478L429 101L412 99H402L372 115L350 127L331 137L319 144V141L333 133L345 127L361 118L390 102L402 95Z" fill="#F8FBFB"/>
<path d="M810 189L815 191L817 199L823 201L825 203L824 205L832 206L834 209L833 214L828 216L824 214V207L823 208L818 209L813 207V213L811 216L804 215L803 214V208L806 206H811V199L806 197L805 193L807 190L810 189Z" fill="#1E344B"/>
<path d="M667 391H669V393H667L670 398L673 400L676 399H681L683 398V400L685 401L682 403L698 398L701 395L700 400L692 404L671 410L668 413L672 411V417L667 416L658 410L655 406L660 408L658 406V402H660L662 396H664L666 392L667 391Z" fill="#E9EEEF"/>
<path d="M200 297H202L200 302L192 308L170 322L160 328H158L157 330L148 336L138 343L136 345L135 336L139 333L156 325L166 319L179 311L198 299L200 297Z" fill="#F8FBFB"/>
<path d="M476 383L478 386L485 418L490 453L495 490L497 529V550L495 549L494 522L492 489L491 484L486 441L481 416L476 387V383Z" fill="#F8FBFB"/>
<path d="M258 60H265L270 65L271 72L268 77L264 80H258L253 77L251 74L252 65L256 61L258 60Z" fill="#1E344B"/>
<path d="M430 149H432L431 153L424 157L423 158H426L427 156H431V154L437 152L438 155L436 158H433V160L437 161V159L440 160V163L431 165L432 172H438V173H430L428 171L429 168H425V171L427 172V174H424L420 170V168L417 166V164H412L411 161L416 157L424 153L425 151L430 149Z" fill="#B4BDC4"/>
<path d="M463 560H464L465 565V577H463L455 597L447 611L446 616H445L444 593V578L447 574L451 567L454 565L453 575L448 585L447 583L451 573V571L447 580V596L454 576L457 565H458V572L454 585L448 600L447 606L453 594L459 577L460 567H462L461 575H463V560Z" fill="#1E344B"/>
<path d="M430 544H432V548L427 551H425V555L429 554L432 551L431 557L432 562L431 564H433L434 586L428 587L427 590H425V587L429 584H431L432 579L425 581L424 586L423 583V573L421 572L424 567L417 569L419 566L423 564V554L425 549L430 544Z" fill="#CDD3D8"/>
<path d="M460 503H461L462 520L461 526L460 528H462V533L459 535L457 530H455L452 537H450L449 543H451L452 541V543H454V549H451V551H447L448 555L447 557L452 559L451 563L447 570L445 575L443 576V564L444 556L442 554H444V543H446L448 537L454 527L458 519L459 516L460 503Z" fill="#3C4F63"/>
<path d="M895 468L898 469L899 494L898 496L893 494L892 491L893 488L885 490H880L879 486L888 475L893 470L895 468Z" fill="#1E344B"/>
<path d="M674 343H675L678 356H675H673L672 360L670 364L668 369L666 370L665 375L670 377L666 378H663L664 380L662 382L664 386H661L663 391L660 390L659 388L656 387V385H654L656 379L664 359L674 343Z" fill="#EFF2F3"/>
<path d="M855 144L859 146L867 166L866 170L862 169L860 163L852 165L850 170L846 168V162L853 146L855 144Z" fill="#2E4358"/>
<path d="M459 559L460 563L463 560V575H461L462 567H460V577L452 599L447 607H446L447 600L453 585L457 572V567L453 582L447 598H446V580L451 570L452 573L450 579L452 575L454 565L457 564L458 560L459 559Z" fill="#F8FBFB"/>
<path d="M286 441L293 445L300 455L308 471L313 489L314 495V505H313L307 483L301 468L293 457V455H291L287 449V445L285 444L286 441Z" fill="#EFF3F4"/>
<path d="M50 588L55 589L58 593V595L63 596L66 595L68 591L72 593V596L67 600V602L73 607V609L77 611L78 614L77 615H72L63 605H61L58 608L52 611L50 607L57 601L54 596L49 592L50 588Z" fill="#1E344B"/>
<path d="M618 73H624L630 77V85L625 90L620 92L614 91L611 87L612 80L615 75L618 73Z" fill="#1E344B"/>
<path d="M452 431H454V437L456 443V450H455V444H453L452 449H454L453 453H451L450 456H448L447 460L444 463V466H441L440 476L438 477V474H435L440 464L441 459H439L441 453V451H444V447H446L447 442L448 436H450L451 432L452 431Z" fill="#6B7A89"/>
<path d="M795 409L796 411L789 435L777 474L775 476L770 466L768 461L774 466L775 459H777L779 451L784 435L788 425L789 421L792 411L795 409Z" fill="#E4E8EB"/>
<path d="M111 224L114 225V227L119 224L123 225L124 227V246L121 249L120 248V239H112L109 248L105 246L108 236L112 230L113 229L110 228L111 224Z" fill="#2E4358"/>
<path d="M329 562L334 564L341 567L352 570V572H350L347 581L344 579V577L339 578H338L345 582V584L338 583L328 581L327 579L334 568L329 565V562Z" fill="#DEE3E6"/>
<path d="M201 320L218 324L216 326L200 333L185 340L152 356L138 364L136 362L154 352L177 340L204 327L210 325L199 322L198 324H194L190 325L193 322L201 320Z" fill="#F8FBFB"/>
<path d="M626 416L628 417V423H627L626 435L629 447L630 455L628 456L626 448L627 464L629 488V499H628L622 447L621 424V421L626 416Z" fill="#E8ECEE"/>
<path d="M120 131L129 132L132 136V141L126 148L125 152V158L126 162L125 164H120V157L123 152L119 151L120 145L123 140L126 139L127 137H118L119 140L117 142H113L114 136L117 132L120 131Z" fill="#1E344B"/>
<path d="M413 121H432L437 124V126L429 125H414L397 128L381 133L363 141L347 151L343 155L341 154L349 147L362 139L378 131L394 125L406 122L413 121Z" fill="#F8FBFB"/>
<path d="M976 567L979 568L974 573L963 582L955 590L951 592L945 597L937 607L925 620L921 626H919L918 629L909 626L893 620L880 617L870 616V615H882L896 618L918 627L919 623L935 606L946 593L953 586L957 584L973 569L976 567Z" fill="#F8FBFB"/>
<path d="M359 222L362 223H371L380 226L386 233L388 238V252L383 260L378 263L368 264L363 261L365 260H373L379 256L381 254V257V258L384 254L385 251V238L381 230L378 228L382 234L381 236L375 229V227L363 226L357 229L353 234L350 241H349L350 233L356 224L359 222Z" fill="#F3F6F7"/>
<path d="M810 238H815L819 242L818 244H807L805 249L806 256L811 257L809 249L817 250V257L815 261H807L802 259L799 255V248L803 241L810 238Z" fill="#1E344B"/>
<path d="M968 665L973 666L974 668V676L971 681H969L971 686L967 689L969 694L962 697L958 696V694L962 691L963 688L959 686L967 680L968 671H965L966 674L964 677L960 676L962 670L968 665Z" fill="#1E344B"/>
<path d="M54 307H61L102 315L118 319L119 321L118 326H116V321H114L113 324L111 321L93 317V322L91 323V321L88 322L79 319L72 318V316H80L92 320V317L73 313L60 310L54 309V307Z" fill="#F8FBFB"/>
<path d="M541 46H549L555 50L556 52V60L554 64L548 68L538 71L537 64L538 63L547 62L550 57V52H540V54H536L538 48L541 46Z" fill="#1E344B"/>
<path d="M428 359H435L443 364L446 370V379L442 385L438 387L430 386L427 383L429 382L438 383L442 378L443 373L440 366L435 363L426 364L421 368L420 371V380L424 388L420 386L416 380V370L421 362L428 359Z" fill="#F8FBFB"/>
<path d="M966 605L972 606L977 611L978 613V620L973 624L967 625L966 631L965 633L968 634V637L960 639L958 632L960 628L964 627L966 623L963 622L972 619V612L968 611L966 615L962 613L963 609L966 605Z" fill="#1E344B"/>
<path d="M328 949L339 950V952L279 955H248L249 953L260 952L291 951L301 950L328 949Z" fill="#1E344B"/>
<path d="M876 716L878 717L873 724L867 746L866 752L861 747L855 738L860 734L868 724L876 716Z" fill="#F8FBFB"/>
<path d="M347 371H351V374L349 376L358 373L360 374L358 376H355V378L360 377L356 381L360 380L364 377L366 378V379L372 375H378V377L373 381L369 382L375 380L380 378V380L387 376L389 377L386 379L387 382L371 384H353L347 379L345 376L346 372L347 371Z" fill="#2F4459"/>
<path d="M759 526L763 527L759 531V533L757 534L758 537L767 534H772L771 538L766 542L763 543H752L748 540L749 533L754 528L759 526Z" fill="#1F344B"/>
<path d="M434 322L438 326L449 352L448 354L437 341L430 335L426 336L428 330L434 322Z" fill="#F8FBFB"/>
<path d="M470 343L475 348L484 362L485 364L490 362L488 366L482 371L475 374L464 376L451 377L449 373L466 371L481 368L478 359L470 345V343Z" fill="#F8FBFB"/>
<path d="M410 443H413V450H415L414 456L416 457L415 463L417 464V480L418 482L417 489L419 490V492H417L416 495H412L411 497V494L414 492V490L409 492L412 488H415V485L410 488L408 487L412 483L414 482V478L411 476L414 473V466L411 465L412 460L405 466L404 468H402V463L405 464L406 460L412 458V454L410 453V443Z" fill="#1E344B"/>
<path d="M953 317H966L971 319L970 323L966 324V322H956L932 324H926V320L937 318L953 317Z" fill="#1E344B"/>
<path d="M899 223L903 224L905 223L903 229L906 228L905 234V237L904 243L901 242V237H899L900 240L898 245H896V242L895 244H893L895 240L896 237L888 242H885V240L888 239L893 230L896 229L898 224L899 223Z" fill="#BBC3C9"/>
<path d="M485 740L495 743L503 747L506 752L505 756L500 757L503 751H501L499 756L497 757V751H494L491 754L489 758L490 751L491 749L489 750L487 753L486 748V746L483 750V748L481 747L484 744L478 747V745L485 740Z" fill="#DEE4E6"/>
<path d="M642 968H701L702 970L680 971H629L623 970L622 972L619 969L642 968Z" fill="#1E344B"/>
<path d="M587 731H592V735L589 734L590 732H588L589 737L588 742L593 740L600 739L599 738L595 739L594 735V731L597 732L596 736L600 735L602 732L603 741L599 742H596L597 746L595 747V742L593 743V749L591 748V743L587 745L586 737L587 735L582 737L585 738L586 744L583 745L581 739L578 740H575V742L572 741V739L569 738L573 736L583 732L587 731Z" fill="#E7EBED"/>
<path d="M748 641H753L756 646L757 650H760L761 648L770 652L771 655V664L770 667H761L759 669L758 668V663L764 662V655H758L754 649V647H752L751 645L748 644V641Z" fill="#1E344B"/>
<path d="M313 56H318L321 60L325 59L328 56H332L331 60L327 65L332 71L331 75H327L323 69L318 74L313 75L315 70L319 64L314 60L313 56Z" fill="#1E344B"/>
<path d="M439 427L442 428V430H439L441 434L438 435L436 439L435 442L438 441V438L441 439L442 443L440 447L436 451L431 458L429 457L428 441H430L432 437L436 434L439 427Z" fill="#E7EBED"/>
<path d="M194 276H196V278L182 287L169 295L150 307L131 318L128 317V315L140 309L165 294L179 285L192 277L194 276Z" fill="#F8FBFB"/>
<path d="M936 372H967L970 374L969 377L931 378L930 373L936 372Z" fill="#1E344B"/>
<path d="M146 838H150V840L127 847L126 848V868L127 878L122 877L121 869V849L126 844L134 841L146 838Z" fill="#F8FBFB"/>
<path d="M933 767L935 770L938 786V813L933 814V767Z" fill="#F8FBFB"/>
<path d="M366 555L371 556L387 564L385 566H390V568L384 570L383 573L382 571H379V569L370 566V564L366 563V561H364L366 555Z" fill="#E6EBEC"/>
<path d="M310 536L315 537V539L306 545L302 547V549L297 554L294 555L292 559L289 563L287 567H285L276 581L275 578L287 559H289L291 554L300 543L308 537L310 536Z" fill="#F8FBFB"/>
<path d="M856 685L860 686L870 703L874 712V714H872L869 709L867 708L866 706H868L864 699L861 698V694L860 690L853 695L851 697V694L857 689L853 691L843 699L827 709L829 715L832 719L831 721L824 711L826 707L843 695L856 685Z" fill="#F6F9F9"/>
<path d="M650 407L655 412L663 418L662 420L658 418L656 423L651 430L650 427L651 425H649V433L647 436L646 429V417L649 408L650 407Z" fill="#BEC6CC"/>
<path d="M356 571L361 573L381 584V586L374 589V587L370 588L367 587V585L361 584V581L359 582V579L357 580L358 576H356L354 580L355 573L356 571Z" fill="#F4F7F8"/>
<path d="M671 434H672L676 455L680 486V521H679L677 492L671 444V434Z" fill="#F8FBFB"/>
<path d="M447 847H450V849L426 860L425 862L426 890L424 891L422 890L421 886V861L424 858L430 854H432V849L433 853L443 849L447 847Z" fill="#F8FBFB"/>
<path d="M412 435L413 437L411 441V453L412 458L409 460L405 459H403L402 461H400L401 457L406 452L407 449L403 451L402 454H399L401 449L404 446L402 445L401 448L397 449L399 443L401 441L405 442L408 437L412 435Z" fill="#1F354C"/>
<path d="M614 269H616L615 272L612 275V279L606 283V281L604 283L605 286H603L601 291L596 303L592 314L590 315L592 305L594 298L592 300L593 294L600 283L603 278L606 275H608L609 273L614 269Z" fill="#F2F5F6"/>
<path d="M836 221L842 222L843 223V228L841 229V233L837 234L833 233L832 237L826 238L823 235L825 229L830 226L835 228L837 227L832 225L833 222L836 221Z" fill="#1E344B"/>
<path d="M198 946H291L305 947V948H258L196 949L193 947L198 946Z" fill="#F8FBFB"/>
<path d="M315 326L328 330L346 341L357 350L365 359L367 363L363 362L356 354L345 345L326 333L314 328L315 326Z" fill="#F8FBFB"/>
<path d="M428 143H431L434 150L436 151V149L439 150L440 152L444 153L448 162V165H450V168L454 170L448 171L449 167H447V168V171L445 170L442 162V159H440L437 155V153L431 154V156H427L426 159L422 158L428 153L431 152L432 149L429 151L425 150L429 146L427 144L428 143Z" fill="#1E344B"/>
<path d="M899 584H910L916 586L924 592V594L914 589L910 588H891L890 589H902L911 591L917 595L919 598L904 593L898 592H884L888 587L899 584Z" fill="#1E344B"/>
<path d="M455 179H457L463 197L467 219V235L465 234L463 213L459 196L455 184L453 188V185H448L446 186H437L441 184L452 181L454 182L455 179Z" fill="#1E344B"/>
<path d="M696 71L699 72L689 77H687L686 79L683 82L678 93L677 104L680 117L685 127L690 131V133L686 131L681 128L679 123L675 111L674 103L675 94L678 86L673 94L672 92L676 84L685 76L696 71Z" fill="#1F354C"/>
<path d="M922 713L924 714L925 717L930 718L931 725L929 726L928 720H922V717L920 716L921 726L918 727V717L916 719L917 727V732L914 731V718H912L913 726V729L909 728V730L905 731L904 726V719H906L907 727H911V720H909L910 725L908 726L907 717L921 714L922 713Z" fill="#F4F8F8"/>
<path d="M829 494H835L839 498L838 505L835 508H828L824 505V499L829 494Z" fill="#1E344B"/>
<path d="M823 331L826 343L828 341V344L830 345L828 346V350L832 347L835 353L836 354L837 359L839 360V362L840 363L842 368L844 374L846 379L847 383H845L837 368L832 359L831 355H829L823 344L822 334L823 331Z" fill="#EEF2F3"/>
<path d="M746 244L747 247L730 283L712 321L708 330L707 327L716 306L731 275L743 249L746 244Z" fill="#F8FBFB"/>
<path d="M797 222L802 224L804 228L805 224L809 226V231L805 235L803 236H797L792 231L793 225L797 222Z" fill="#31455A"/>
<path d="M463 394H464L469 432L472 467L473 478V494H472L469 462L463 406V394Z" fill="#F8FBFB"/>
<path d="M455 338L460 343L470 360L468 362L466 361V363L470 364L474 366L473 368L463 369L464 364L465 361L460 362H453L452 358H455L460 357L463 355L455 340V338Z" fill="#F2F6F6"/>
<path d="M280 471L283 472L286 476L289 475V478L293 480L302 490L308 501L307 504L303 498L293 488L289 486V484L284 482L282 473H280V471Z" fill="#F1F4F5"/>
<path d="M829 636H840L842 638V641L837 642L830 643L826 648L822 651L817 650L823 639L829 636Z" fill="#1E344B"/>
<path d="M482 696L492 697L497 701L499 705L498 709L499 710V712H497L495 716L494 713H492V709H490V705L485 706L484 701L482 703V699L484 698L486 699V697L482 696Z" fill="#E1E6E9"/>
<path d="M392 569L397 571L408 580V582H405L404 584L397 585L393 580L390 579L389 576L387 575L392 569Z" fill="#EFF3F4"/>
<path d="M562 274L568 275L569 277L568 282L564 284L566 285L565 296L559 295L563 293L556 286V279L555 277L561 278L562 274Z" fill="#B6BFC6"/>
<path d="M832 579L845 580L855 584L862 590L864 593V596L860 595L855 590L844 585L834 583L824 582L826 580L832 579Z" fill="#1E344B"/>
<path d="M385 370L392 371L393 373L395 372V375H398L395 381H387L384 379L387 377L380 381L378 380L374 382L366 383L368 380H373L376 377H378L379 373L384 371L385 370Z" fill="#BBC3C9"/>
<path d="M274 517H289L298 520L301 523H290L283 524H281L276 525L281 521L275 523H271L269 525L268 521H266V519L274 517Z" fill="#E8ECEE"/>
<path d="M955 343H958L956 347L955 351L962 357L961 360L956 359L952 356L948 357L943 363L940 362L946 353L947 350L944 349L945 346L950 348L955 343Z" fill="#1E344B"/>
<path d="M770 743L771 745H769L770 747V756H768L767 752L765 753V765H763L762 753L759 761L758 762L757 778H756V754L759 748L763 746L770 743Z" fill="#ECF0F1"/>
<path d="M515 391H517L522 417L526 451V464H525L519 419L515 397V391Z" fill="#F8FBFB"/>
<path d="M309 549V552L302 563L295 573L282 593L275 604L264 621L263 619L275 599L287 581L302 557L305 552L309 549Z" fill="#F8FBFB"/>
<path d="M344 831L346 832V839L345 837L340 842V870H336V841L344 831Z" fill="#F8FBFB"/>
<path d="M81 181H86L89 185L90 192L87 198V203H80L79 199L83 198L81 193L80 190L85 189V185L80 186L78 185L79 182L81 181Z" fill="#1E344B"/>
<path d="M478 448H479L481 464L483 469L485 497L486 512V548H485L484 518L483 504L482 481L480 480H482L480 471L478 457V448Z" fill="#F8FBFB"/>
<path d="M667 391H669V393H667L670 398L673 400L676 399H681L683 398V400L685 401L681 403H677V405L669 407L670 404H668L667 401L664 404L666 405L664 409L662 406L661 398L662 396H664L666 392L667 391Z" fill="#C3CBD0"/>
<path d="M273 505H284L296 508L306 514L316 524L315 526L306 518L294 512L287 510L274 509V507L271 508V506L273 505Z" fill="#F8FBFB"/>
<path d="M562 77H571L573 78V81L567 82L568 89L564 92H556V88L563 87L559 82V78L562 77Z" fill="#1E344B"/>
<path d="M723 187H727V190L713 193H709L712 196L722 195L728 191L726 196L718 199H710L704 194V190L723 187Z" fill="#1E344B"/>
<path d="M710 944L749 945L748 948H679L681 945L692 946H710V944Z" fill="#F8FBFB"/>
<path d="M456 451H457V459L455 461L456 467L452 475H450L449 480L444 490L441 502H440V495L443 486L447 477L451 469L452 465L450 460V457H452V455L456 451Z" fill="#1E344B"/>
<path d="M865 64L869 65V70H875V64H878L879 70H881L879 78L876 77L875 74L870 73V79L867 78L865 76V64Z" fill="#1E344B"/>
<path d="M348 950H386V951L350 953L342 954L318 955L316 953L324 952L348 950Z" fill="#F8FBFB"/>
<path d="M422 548L424 550V564L416 569L413 562L415 561V559H413L414 555L419 553L421 552L422 548Z" fill="#C7CED3"/>
<path d="M707 113H709L714 142L715 151L714 152H709L712 149H709V147V146V144V143L708 139H711L708 138L707 126V113Z" fill="#F8FBFB"/>
<path d="M340 543L346 548L350 550L340 553L341 548H339L338 554V555L355 553H363L360 558L359 556L345 557H333L338 545L340 543Z" fill="#F8FBFB"/>
<path d="M581 297L586 299L583 300L585 304H580L583 307L580 308L579 312L578 311L576 314L573 312V314H571L570 317V313H572L571 308L570 312L568 311L569 302L571 304L573 303V305H576L577 303H578L579 298L581 297Z" fill="#F3F6F7"/>
<path d="M128 86H179L177 88L172 89H140L128 87V86Z" fill="#1E344B"/>
<path d="M301 532L303 533L283 544L273 552H271V554L263 561L261 560L269 552L274 546H276V544L290 535L301 532Z" fill="#F8FBFB"/>
<path d="M782 97L786 98L789 109V112L786 113L783 108L776 109L774 108L775 103L780 98L782 97Z" fill="#32465B"/>
<path d="M197 414L204 415L207 418L208 421L206 426L204 428L203 433L197 430L199 426L202 421L199 420H194L195 415L197 414Z" fill="#1E344B"/>
<path d="M48 302L50 303L48 308L47 322L49 332L50 335L59 338V339L52 338L45 332L42 322L43 310L47 303L48 302Z" fill="#EEF1F3"/>
<path d="M846 205H852L856 210L854 216L853 217H846L843 214V208L846 205Z" fill="#2F4358"/>
<path d="M638 854H648L664 857L665 858V889L663 891L662 859L651 858L638 855V854Z" fill="#F8FBFB"/>
<path d="M383 588H385L396 602L397 607L394 610L392 605L390 604V601L387 600L385 599V597H383V594L379 596V593L383 588Z" fill="#F4F7F8"/>
<path d="M824 650H830L835 655L834 662L830 666L828 667V670H826L821 664L829 662L830 657L829 656H818L819 654H821L822 651L824 650Z" fill="#1F354C"/>
<path d="M831 56L835 58L840 67L841 70V82L838 88L836 90H831L829 87L836 85L837 82V71L834 63L831 59V56Z" fill="#1E344B"/>
<path d="M904 663L911 664L917 669L918 678H915L913 677L914 673H912L911 676L910 671L908 674L907 671L905 670L901 669V667L903 666L904 663Z" fill="#E4E9EB"/>
<path d="M714 347L722 348L725 350L726 357L723 360V355L719 359L717 360L716 355L714 353L712 354L709 351L705 352L706 349L714 347Z" fill="#F8FBFB"/>
<path d="M714 330L728 331L730 333V340L729 342L725 341V339L719 338L715 334H713L714 330Z" fill="#E9EDEF"/>
<path d="M548 260L551 263L552 267H554L555 274L558 276V274L555 273L556 270V272L562 274L561 278H556L557 283L558 287L561 289L562 290V293L558 292V295H556V293L554 292V290L558 289L553 288L555 287L554 283L552 282H554L549 264L548 260Z" fill="#F8FBFB"/>
<path d="M402 277L406 279L415 284L423 288L435 290L434 294H442L451 292L447 296L439 297H431V294L433 293L424 292L407 283L402 277Z" fill="#F8FBFB"/>
<path d="M316 954L321 955L319 957L293 958L281 959L277 960L259 961L258 958L285 956L309 955L316 954Z" fill="#1E344B"/>
<path d="M927 822L929 826L932 848L934 856L940 854V856L933 858L929 853L926 838L925 824L927 822Z" fill="#F8FBFB"/>
<path d="M457 467H458L457 483L453 491L451 492L454 482V480L450 490L448 498L441 511L440 509L445 498L450 482L455 471L457 467Z" fill="#1E344B"/>
<path d="M455 529L459 531L460 537L459 544H457L455 549H454V543H449L450 537H452L453 532L455 529Z" fill="#ADB6BE"/>
<path d="M780 71H784L788 84L787 88L784 85L780 80L778 82H773L774 77L778 72L780 71Z" fill="#253A50"/>
<path d="M912 718H914L915 731L917 732V730H921L926 729L924 733L922 732L923 737L921 739L917 740L916 737L920 735L921 733H919V735L915 734L914 737V735H911L910 737L908 730L909 728L913 729L912 722V718Z" fill="#1E344B"/>
<path d="M835 570H842L855 574L863 580L870 587L871 590H868L863 585L856 579L848 575L831 572L835 570Z" fill="#1E344B"/>
<path d="M70 387H78L109 391L123 394H134L135 392H137V398L110 394L70 388V387Z" fill="#F8FBFB"/>
<path d="M499 756L502 757V759H500V763L505 762V771L506 776L504 778L503 777L502 767L501 766L504 783L506 792L503 791L500 779L498 767V757L499 756Z" fill="#1E344B"/>
<path d="M93 317L105 318V320L108 319L113 321L112 331L110 330V323L108 330L104 328V325H102V323H97L94 322L93 317Z" fill="#495B6E"/>
<path d="M430 544H432V548L427 551H425V555L429 554L432 551L431 555L428 557H425L426 561L425 564L428 565H425V573L424 575L428 574V576L426 577V579L429 580L425 581L424 586L423 583V573L421 572L424 567L417 569L419 566L423 564V554L425 549L430 544Z" fill="#1E344B"/>
<path d="M419 516H421L422 523L428 519L430 520L427 523L425 527L424 525V536L423 547L419 548L416 551H414L416 547L419 544L414 546L415 543L420 541V544H422V537H419V539L414 542L415 538L421 534L420 525L419 516Z" fill="#1E344B"/>
<path d="M575 469L577 470L572 486L569 502L567 520H566V499L569 483L574 471L575 469Z" fill="#F8FBFB"/>
<path d="M146 609L151 610L153 612V620L149 624L144 626L142 622L147 617L148 614L143 613L144 610L146 609Z" fill="#1E344B"/>
<path d="M713 367H721L724 372V377L721 379L717 378L712 373L714 372L710 370L709 368L713 367Z" fill="#DAE0E3"/>
<path d="M363 231L369 232L374 237L375 240V248L371 253L367 254L362 252L364 251L369 250L370 248V239L366 235L358 236L359 233L363 231Z" fill="#F8FBFB"/>
<path d="M100 149H102L101 156L104 157L103 160L100 161L99 163L103 164V166L98 168H95L94 163H96L95 161H92V158L97 153L100 149Z" fill="#1E344B"/>
<path d="M450 47H453L452 52L451 54L454 55L453 57H450L451 61L454 63V67H449L447 60L442 58L443 55H446L448 48L450 47Z" fill="#1E344B"/>
<path d="M66 544L72 546L87 554L109 564L110 562V564H115L117 570L113 569L90 558L67 546L66 544Z" fill="#F8FBFB"/>
<path d="M278 357L279 359L288 362L295 364L300 369L303 370L304 367H306V369H304V372L308 371L311 370L308 376H311V379L306 377L296 370L278 360V357Z" fill="#F8FBFB"/>
<path d="M679 83V86L676 94L675 103L677 115L681 124L684 133L680 129L673 114L672 110V96L678 84L679 83Z" fill="#F8FBFB"/>
<path d="M671 517H673L674 527V550L672 565L670 564V529H672L671 524V517Z" fill="#F8FBFB"/>
<path d="M575 169H591L603 172L617 180L626 188L628 193L621 187L613 180L598 173L589 171H580L570 173L566 172L569 170L575 169Z" fill="#1E344B"/>
<path d="M191 431L196 433L200 436V438L194 437L196 442L198 445L196 447L191 446L188 443L189 434L191 431Z" fill="#1E344B"/>
<path d="M187 375H189L187 379L176 385L160 394L151 399L149 398L159 391L173 383L187 375Z" fill="#1E344B"/>
<path d="M714 214H720L722 217L715 220L712 226L716 227L707 229L706 228V223L708 221L710 216L714 214Z" fill="#1E344B"/>
<path d="M694 747H703V750L705 753L697 755V758H695L694 760L693 756L692 771L690 768V758L692 751L694 747Z" fill="#B5BEC5"/>
<path d="M117 735L125 736L129 740L130 745V753L126 754V752H129L127 744L128 742L122 744L118 746L122 738L121 739L118 740L116 751L114 749L116 739L114 738L117 735Z" fill="#F4F7F8"/>
<path d="M878 598H891L902 600L910 604L911 606L902 604L892 602H879L872 603L875 599L878 598Z" fill="#1E344B"/>
<path d="M841 98H846L849 110L844 109L840 107V104L836 109L833 108L834 104L839 99L841 98Z" fill="#1E344B"/>
<path d="M800 94L803 95L805 107H802L800 104L792 105L791 104V96H795V98H799L800 94Z" fill="#1E344B"/>
<path d="M301 578L302 580L293 594L279 619L275 625H273L275 619L290 594L297 583L301 578Z" fill="#F8FBFB"/>
<path d="M694 323L698 325V327L693 332L690 337H688L686 341V339L684 340L683 343H681V348L679 347L678 341L682 337H684L686 333L693 325L694 323Z" fill="#F8FBFB"/>
<path d="M213 192L216 195L220 204V207H208L209 202L213 192Z" fill="#F8FBFB"/>
<path d="M350 313H353L354 320L357 325L359 324V326L361 327L362 328L366 334L368 336L371 338V341L367 339L359 330L354 327L348 318L349 314L350 313Z" fill="#516374"/>
<path d="M428 136H430V140H432V143H435L436 147L439 148L438 150L436 149V151L433 150L431 143L420 146H417L416 148L412 150H409V152L406 153V150L416 144L421 142H429V139L424 141L423 138L425 137L428 138V136Z" fill="#F8FBFB"/>
<path d="M465 450H466L469 476L470 491L471 496L470 525H469L468 492L467 487L465 459V450Z" fill="#F8FBFB"/>
<path d="M362 526H364V531L361 533V538L362 540L359 539L358 535H356V533H354L355 540H353L355 544L350 539L349 534L354 530L362 526Z" fill="#F5F9F9"/>
<path d="M615 427H616L618 455L619 482H618L614 443V428L615 427Z" fill="#F8FBFB"/>
<path d="M429 597L433 598L431 603L434 604L433 607L432 608H433L434 620H432L428 610L425 605L426 601L429 597Z" fill="#F8FBFB"/>
<path d="M845 559H854L864 562L872 568L879 577V579H877L870 571L862 565L852 562L843 561L845 559Z" fill="#1E344B"/>
<path d="M72 321L84 322L93 324L94 327L93 328L92 338H91V326L89 327V334L87 331V326H84V330L86 331L83 334L82 326L79 325L78 327V325L75 326V324L72 325V321Z" fill="#F8FBFB"/>
<path d="M539 186V189L532 198L527 213L525 227L526 244L524 240L523 234V218L527 203L532 193L539 186Z" fill="#F8FBFB"/>
<path d="M857 92H862L863 96L860 97L856 96V103L857 105L863 106V109H855L852 107L851 100L854 94L857 92Z" fill="#1E344B"/>
<path d="M117 385L124 386L129 385V387L135 388L136 386V392L135 395L122 393L118 392L119 390L125 392V389H121V387H117V385Z" fill="#D7DDE0"/>
<path d="M80 738L81 741L78 758L76 779L75 796H74V766L77 745L80 738Z" fill="#F8FBFB"/>
<path d="M353 640H355L354 650L351 662L350 663V668L345 667L344 663L348 655H350L351 649L353 640Z" fill="#EDF1F2"/>
<path d="M838 566H854L862 569L872 578L875 584L871 582L864 575L852 569L847 568H837L838 566Z" fill="#1E344B"/>
<path d="M427 366H434L437 369L433 370V373L434 376L432 379H428V373V372L427 378L423 377V371L427 366Z" fill="#F4F8F8"/>
<path d="M914 563H923L934 566L939 570L941 574L936 572L931 569L923 567H909L905 568L907 565L914 563Z" fill="#1E344B"/>
<path d="M727 938H755L752 940L744 941L742 942L732 941H719L711 942V939L727 938Z" fill="#F8FBFB"/>
<path d="M961 802H963L964 806V819H963L961 806L939 819L934 822L932 821L942 814L959 803L961 802Z" fill="#F8FBFB"/>
<path d="M154 97L159 98L164 104V110L160 116L151 118V115L158 114L160 109L159 105L154 100V97Z" fill="#20364C"/>
<path d="M579 345H584L582 349L576 351H566L554 348V347H565L579 345Z" fill="#F8FBFB"/>
<path d="M380 751L381 754L379 765L377 801L375 800V778L377 760L380 751Z" fill="#F8FBFB"/>
<path d="M857 553L867 555L875 561L883 570V574L879 572L872 563L863 557L857 555V553Z" fill="#1E344B"/>
<path d="M460 503H461L462 520L461 526L460 528H462V533L459 535L457 530L453 529L456 523L459 516L460 503Z" fill="#4F6072"/>
<path d="M793 68L800 69L804 68L806 79L801 78L800 76L795 78L792 79L793 75L796 74L793 70V68Z" fill="#1E344B"/>
<path d="M510 834H512V836L506 839L505 840V866H502L501 858V848L502 839L510 834Z" fill="#F8FBFB"/>
<path d="M217 753H221L223 766L224 773V781L222 779V775L218 774L221 772V766L216 769L218 764L221 763H216V760H218L220 755H218L216 759L214 761L215 756L217 753Z" fill="#F8FBFB"/>
<path d="M479 512L481 513L482 523L481 521H479L480 525L481 544H482V564H481L480 554H479L477 520L480 518L477 517L480 516L477 514L479 512Z" fill="#F8FBFB"/>
<path d="M650 407L655 412L663 418L662 420L658 418L656 423L651 430L650 427L655 420V417L651 414L649 419L647 417L648 410L650 407Z" fill="#C0C8CE"/>
<path d="M464 579L465 583L460 598L451 615L447 624L446 621L451 609L459 592L463 580L464 579Z" fill="#1E344B"/>
<path d="M923 547H933L946 550L956 556L955 559L951 557L939 552L932 550L921 549L923 547Z" fill="#1E344B"/>
<path d="M529 245L532 246L535 255L543 268L545 274V291L543 305H542V294L543 288V277L540 268L530 250L529 245Z" fill="#F8FBFB"/>
<path d="M90 224L94 225V227H91V233L95 234L91 238L90 240H88L85 236V228L87 225L90 224Z" fill="#1E344B"/>
<path d="M149 160H161L162 167L157 170H152L150 166H156V163H149V160Z" fill="#1E344B"/>
<path d="M553 324L565 326H578L588 324L587 327L578 330H566L555 326L553 324Z" fill="#F8FBFB"/>
<path d="M594 731L597 732L596 736L600 735L602 732L603 741L599 742H596L597 746L595 747V742L593 743V749L591 748V743L587 745L586 737H589L588 742L593 740L600 739L599 738L595 739L594 735V731Z" fill="#F8FBFB"/>
<path d="M540 93L543 94L545 99V104L531 101L535 96L540 93Z" fill="#F8FBFB"/>
<path d="M911 570L924 571L933 575L936 578L934 580L933 577L919 574H908L901 575L904 572L911 570Z" fill="#1E344B"/>
<path d="M575 355H581V358L574 361H562L560 360L561 357L575 355Z" fill="#F8FBFB"/>
<path d="M688 255H703L706 256L705 260H686V256L688 255Z" fill="#1E344B"/>
<path d="M432 587H434V594L433 595L435 599V628H434V623L432 622L433 620L432 609L431 607L433 606V604L431 603L433 598L427 599L428 595H431L433 589L431 588L432 587Z" fill="#1E344B"/>
<path d="M902 578H918L932 583V585L912 581H904L895 582L899 579L902 578Z" fill="#1E344B"/>
<path d="M917 557H926L936 560L942 564L945 567V569L931 562L921 560H911L912 558L917 557Z" fill="#1E344B"/>
<path d="M717 230L720 231L719 234L714 236L717 239L716 243L710 241L707 238L708 234L717 230Z" fill="#1E344B"/>
<path d="M410 621L412 622V634L409 657L408 662H406L407 650L410 621Z" fill="#F8FBFB"/>
<path d="M705 791H706V838H703L704 806L705 791Z" fill="#F8FBFB"/>
<path d="M563 740L566 741L568 747L564 749L562 758L561 765H559V752L561 743L563 740Z" fill="#E3E8EA"/>
<path d="M464 608H465V616H463L460 627L455 639L450 649L448 650L449 645L454 634L460 618L464 608Z" fill="#1E344B"/>
<path d="M329 562L334 564L341 567L352 570V572H350L347 581H346L347 573L338 570L329 565V562Z" fill="#F8FBFB"/>
<path d="M347 371H351V374L349 376L358 373L360 374L358 376H355V378L360 377L356 381L353 382H350L345 376L346 372L347 371Z" fill="#445669"/>
<path d="M827 180L833 181L835 186L833 190L829 191L825 189L824 184L827 180Z" fill="#1E344B"/>
<path d="M445 557L452 559L451 563L447 570L445 575L443 576V564L445 557Z" fill="#47596C"/>
<path d="M583 334H586L584 338L580 340H563L556 337L559 336H577L583 334Z" fill="#F8FBFB"/>
<path d="M464 618H465L464 628L461 638L452 658L448 663L449 658L456 641L461 629L464 618Z" fill="#1E344B"/>
<path d="M109 278L111 279L97 286L82 292L78 296L73 297L67 298L70 295L92 285L109 278Z" fill="#1E344B"/>
<path d="M849 68H854L858 76V81L855 80L852 75L846 76V70H849V68Z" fill="#20364D"/>
<path d="M300 537L302 538L301 543L291 552H289L288 548L295 540L300 537Z" fill="#8E9BA6"/>
<path d="M61 375L74 377L84 379L100 381L107 382L110 383V385L97 384L65 378L61 377V375Z" fill="#F8FBFB"/>
<path d="M635 231L637 232L635 243L630 259L625 266L623 265L626 259H628L627 255L630 248L632 242H634V232L635 231Z" fill="#F8FBFB"/>
<path d="M286 70H303V74L294 75H285V71L286 70Z" fill="#1E344B"/>
<path d="M456 497H458L457 504H455L453 513L447 523L442 533L441 530L444 523L452 507L456 497Z" fill="#1E344B"/>
<path d="M960 300H963L964 310L968 311L964 314L958 313V302L960 300Z" fill="#1E344B"/>
<path d="M84 290H87L86 293L81 296V300L79 299L80 297L75 299L68 301L64 302L58 301V299L62 298V300L76 295L78 296L79 293L84 290Z" fill="#F8FBFB"/>
<path d="M930 814L932 815L927 818L921 820L911 821H902L890 819V818H909L924 816L930 814Z" fill="#F8FBFB"/>
<path d="M402 627H403L404 637L403 659V669L401 678H400L401 641L402 627Z" fill="#1E344B"/>
<path d="M381 550L387 551L396 558L398 561L390 560L383 555L379 553L381 550Z" fill="#EDF1F2"/>
<path d="M426 496L427 499L423 504L428 503L427 506L425 507L428 509L425 510L424 514L429 511L427 516H425L424 521L422 518L421 500L423 497H425L426 496Z" fill="#1E344B"/>
<path d="M581 133H584V144L583 151L579 150L578 143L580 134L581 133Z" fill="#1E344B"/>
<path d="M920 716L923 717V720L924 721V730L919 732V730L916 729V722L915 718L918 717L919 725L918 727L920 726V716Z" fill="#5D6D7E"/>
<path d="M248 617L249 619L238 636L229 650L226 651L228 646L244 622L248 617Z" fill="#F8FBFB"/>
<path d="M462 603L464 605L460 615L452 634L447 643L446 639L454 623L461 605L462 603Z" fill="#1E344B"/>
<path d="M452 431H454V437L456 443V450H455V444L453 443V439L452 442H450L449 448L447 449L446 443L448 436H450L451 432L452 431Z" fill="#607080"/>
<path d="M572 295H578L580 298L579 305H576L572 304L570 305L569 301L571 296L572 295Z" fill="#9FAAB3"/>
<path d="M794 647H807L810 649V651L805 652H792L793 648L794 647Z" fill="#1E344B"/>
<path d="M620 77L625 78L626 84L622 88L617 87V81L620 77Z" fill="#F8FBFB"/>
<path d="M456 489H458L456 495L448 511L442 522L440 521L442 516L452 496L456 489Z" fill="#1E344B"/>
<path d="M179 382H181V384L155 399L145 404V401L168 389L179 382Z" fill="#F8FBFB"/>
<path d="M876 143H879L880 148V156L879 158H877L874 149H870V146L876 143Z" fill="#1E344B"/>
<path d="M415 607L421 608L427 616L426 620H419L417 617L422 618L423 616L418 615V612H415V607Z" fill="#F5F8F8"/>
<path d="M529 205L530 208L527 222V232L529 244L530 247H527L524 232V224L528 206L529 205Z" fill="#1E344B"/>
<path d="M498 745L503 747L506 752L505 756L500 757L503 751H501L499 756L497 757V751H494L498 745Z" fill="#F5F8F8"/>
<path d="M518 662H519L520 687V708H519L517 690V672L518 662Z" fill="#1E344B"/>
<path d="M375 520H377L376 529L369 533L367 531L366 525L369 523L368 527L370 526L371 522L375 520Z" fill="#DAE0E3"/>
<path d="M449 460L450 462V468H448L446 476L443 479H441V484L438 483V479L442 476L443 472H441V470L443 469L445 466L446 467L447 462L449 460Z" fill="#46586B"/>
<path d="M342 55L346 56V69L345 76L342 75V55Z" fill="#1E344B"/>
<path d="M832 246L839 247L840 251L838 255L834 256L830 253V248L832 246Z" fill="#1E344B"/>
<path d="M160 519H175L173 521L159 523L144 527L145 524L155 520L160 519Z" fill="#1E344B"/>
<path d="M481 437L482 441L483 444V439H484V445L485 440L487 441V449L484 446L485 451V464L483 463L481 446H480L481 437Z" fill="#1E344B"/>
<path d="M815 64H823V70L822 72L813 73L818 69L819 68L812 69L809 70L810 66L815 64Z" fill="#1E344B"/>
<path d="M863 548L870 549L877 553L885 561L888 566L887 569L878 558L869 552L863 549V548Z" fill="#1E344B"/>
<path d="M156 511H171L173 513L158 514L145 519L142 522L141 519L146 515L156 511Z" fill="#1E344B"/>
<path d="M601 445L602 448L599 458L596 486H595V465L598 451L601 445Z" fill="#F8FBFB"/>
<path d="M653 385L658 389V391L661 392L658 395V392H654L655 396H657L655 400L653 397V403L650 400V393L652 386L653 385Z" fill="#F2F5F6"/>
<path d="M733 126V129L728 139L727 143L725 144L727 146L725 147L726 159H724L723 145L719 146L720 144H723V139L725 140L728 132L733 126Z" fill="#F8FBFB"/>
<path d="M270 598L271 600L258 620L248 636H246L248 631L270 598Z" fill="#F8FBFB"/>
<path d="M397 433H400L399 437H402L400 443L397 449L395 448L394 435H396L397 433Z" fill="#D9DEE2"/>
<path d="M857 943H873L871 947L867 946L861 947L844 946V944L857 943Z" fill="#F8FBFB"/>
<path d="M808 944H843V946L835 947H821L809 946L808 944Z" fill="#F8FBFB"/>
<path d="M976 567L979 568L974 573L963 582L955 590L954 587H956L958 583L973 569L976 567Z" fill="#F2F5F6"/>
<path d="M930 327L935 328L936 335L937 337L936 339L931 338L930 333H928L927 329L930 327Z" fill="#1E344B"/>
<path d="M760 220L764 222L763 228L761 234H759V232L755 230L757 225L760 220Z" fill="#E2E7E9"/>
<path d="M628 91H632L631 95L623 101L618 100L620 96L628 91Z" fill="#1E344B"/>
<path d="M380 608H382L388 619L387 623L384 620L385 618H382L381 620L380 615L376 612L380 608Z" fill="#EEF2F3"/>
<path d="M614 269H616L615 272L612 275V279L606 283V281L602 282L603 278L606 275H608L609 273L614 269Z" fill="#D8DEE1"/>
<path d="M585 75H602V78L600 79H584L585 75Z" fill="#1E344B"/>
<path d="M457 504L458 508L456 517L455 519H453L452 524L445 537L444 542H443V535L449 525L452 517H454L456 505L457 504Z" fill="#1E344B"/>
<path d="M693 734L695 735L694 740H696V746L693 745V742L689 743V738V735H691L692 738L693 734ZM690 745L693 747L692 751L691 749H689V751H687V747L690 745Z" fill="#758491"/>
<path d="M316 664H318L317 671L314 676L311 680L305 692L303 693L304 688H306L307 681L311 673L314 674L315 666L316 664Z" fill="#1E344B"/>
<path d="M118 333L120 334V336L124 335L126 337L124 345L118 344L117 339V334L118 333Z" fill="#A3ADB6"/>
<path d="M161 70H165V72H167V77L169 79V82L165 81L164 78L158 79L159 75L161 73V70Z" fill="#1E344B"/>
<path d="M497 758L499 759V767L503 789L506 792L505 794L502 795L500 788L497 771V758Z" fill="#F8FBFB"/>
<path d="M878 607L890 608L911 615L915 619L914 622L908 617L892 611L878 608V607Z" fill="#F8FBFB"/>
<path d="M918 552H933L942 556L950 563L949 565L944 561L932 555L918 553V552Z" fill="#1E344B"/>
<path d="M383 195L385 196L379 206L376 216L372 211L374 203L377 200V204L382 196L383 195Z" fill="#D2D8DC"/>
<path d="M399 609L402 612L403 619L404 622L401 623L396 618L395 615L399 609Z" fill="#F8FBFB"/>
<path d="M873 544L879 546L884 550L892 560L894 565L891 564L882 553L873 545V544Z" fill="#1E344B"/>
<path d="M411 466H414L415 474L407 480H405L406 470L409 471L408 475L410 474V467L411 466Z" fill="#F8FBFB"/>
<path d="M693 70H696V72L684 78L677 84L671 95L670 91L675 83L684 75L693 70Z" fill="#F8FBFB"/>
<path d="M412 590H415L420 598V600L417 601L414 600L409 594L412 590Z" fill="#F1F4F5"/>
<path d="M87 564L92 565L111 574L118 577V580L112 578L96 570L87 565V564Z" fill="#F8FBFB"/>
<path d="M487 482L489 486L491 505V516L489 512L487 496L486 483L487 482Z" fill="#F8FBFB"/>
<path d="M904 373H923V375L912 377H905L903 376L904 373Z" fill="#1E344B"/>
<path d="M107 288L108 290L97 295H94V297L83 301H81V303H79V300L87 296L107 288Z" fill="#1E344B"/>
<path d="M430 149H432L431 153L419 159L417 161H414L413 164L411 161L416 157L424 153L425 151L430 149Z" fill="#F8FBFB"/>
<path d="M260 65L265 66L266 70L263 75H259L258 73V67L260 65Z" fill="#F8FBFB"/>
<path d="M214 768H215L218 786L220 787L217 788L220 803L219 807L216 795L213 769L214 768Z" fill="#F8FBFB"/>
<path d="M108 497H121V499L109 500L99 504L95 507L92 506L102 499L108 497Z" fill="#1E344B"/>
<path d="M44 313H45L46 324L48 327L50 335L59 338V339L52 338L45 332L43 327L44 313Z" fill="#BEC6CC"/>
<path d="M804 832L806 836L804 841L797 844L791 845H775L776 843H786L800 840L804 839V832Z" fill="#F8FBFB"/>
<path d="M904 713L907 717L909 723V720H911V727L907 728L906 723V719H904L905 728H902V720L901 715H903V718H905L904 713Z" fill="#1E344B"/>
<path d="M737 652H743L745 655V660L740 663L736 662L740 660L741 657L737 656L736 653L737 652Z" fill="#F8FBFB"/>
<path d="M667 391H669V393H667L668 401L664 404L666 405L664 409L662 406L661 398L662 396H664L666 392L667 391Z" fill="#808D9A"/>
<path d="M615 142L617 143L616 148L612 156H608L611 147L615 142Z" fill="#1E344B"/>
<path d="M230 107L234 108L235 109V115L230 117L227 114L228 109L230 107Z" fill="#F8FBFB"/>
<path d="M262 621L263 623L256 635L248 647H246L248 642L261 622L262 621Z" fill="#F8FBFB"/>
<path d="M392 191L395 192L387 199L382 209L380 217H378L379 209L384 199L389 193L392 191Z" fill="#F8FBFB"/>
<path d="M811 95H819L821 96L820 100L816 103H810L815 99L809 98V96L811 95Z" fill="#1E344B"/>
<path d="M105 489H116L119 492H106L97 495L92 499L90 498L93 495H95V493L101 490L105 489Z" fill="#1E344B"/>
<path d="M543 428L546 431L545 433H543L541 438L533 450L532 448L538 435H540L542 430L543 428Z" fill="#F8FBFB"/>
<path d="M667 421H670L667 430L659 448L658 444L666 424L667 421Z" fill="#F8FBFB"/>
<path d="M218 357H220V359L206 367L198 372L196 371L202 366L218 357Z" fill="#1E344B"/>
<path d="M623 243L624 246L620 255L612 266L609 269L607 268L608 266H610V263L615 258L623 243Z" fill="#F8FBFB"/>
<path d="M428 164H430L432 169V172H438V173H430L428 171L429 168H425V171L427 172V174H424L420 170L421 167H426V165L428 164Z" fill="#1E344B"/>
<path d="M264 102L269 103L270 108L267 111L262 110V104L264 102Z" fill="#F8FBFB"/>
<path d="M509 69H516L520 70V73H503V70L509 69Z" fill="#1E344B"/>
<path d="M761 751L763 753L764 765L763 769L760 766L761 762L759 764V769H757V762L760 757L761 751Z" fill="#21374E"/>
<path d="M408 442L410 443L411 453L412 458L407 460L406 455L409 451L408 446H406V443L408 442Z" fill="#E8EDEE"/>
<path d="M394 372V375L398 374L395 381H387L384 379L388 377L391 374L394 372Z" fill="#909CA7"/>
<path d="M712 156H715L716 162V169L712 170L711 159L710 157L712 156Z" fill="#ECF0F1"/>
<path d="M550 142H553L555 150V156H552L549 147L550 142Z" fill="#1E344B"/>
<path d="M582 735H587V744L584 741V738L582 737V735ZM581 738L583 740V745L585 746L582 747L581 742L575 744L574 742L575 740L581 738Z" fill="#1E344B"/>
<path d="M422 645H423L422 662L420 672H419V654L420 646L422 645Z" fill="#1E344B"/>
<path d="M137 626H144L145 632L143 634L139 633L136 631L137 626Z" fill="#1E344B"/>
<path d="M294 561L295 564L285 580L279 588L278 586L288 570L294 561Z" fill="#F8FBFB"/>
<path d="M384 516H386L387 523L386 524V527L382 528L381 526V518L384 516Z" fill="#F8FBFB"/>
<path d="M977 372H995V375H977V372Z" fill="#1E344B"/>
<path d="M276 285L281 286L283 289L278 294L275 293L274 287L276 285Z" fill="#1E344B"/>
<path d="M620 246L621 249L615 259L612 263H610V266H608L606 270H604L606 266L612 258L613 256H615L617 251L620 246Z" fill="#1E344B"/>
<path d="M719 173H726L724 175L707 178H699L700 176L719 173Z" fill="#F8FBFB"/>
<path d="M721 843H728L730 847V861H729L728 848L726 846L725 858H724L723 847L720 848L721 843Z" fill="#F8FBFB"/>
<path d="M607 819H608V831L600 835L596 836H587L589 834L603 831L606 828L607 823L605 822L607 819Z" fill="#F8FBFB"/>
<path d="M159 499L163 500L151 505L142 512L141 517L138 513V511H141L143 507L151 502L159 499Z" fill="#1E344B"/>
<path d="M49 348L51 349L48 353L47 357V380L45 376L43 375V370H45L43 366H45L44 357L48 349L49 348Z" fill="#F0F3F4"/>
<path d="M406 291L415 294L422 297L437 300L436 302L431 303V301L420 299L406 292V291Z" fill="#F8FBFB"/>
<path d="M729 967H752L749 970H728L729 967Z" fill="#1E344B"/>
<path d="M446 438L448 439L446 447H444V451H441L442 455L439 457L438 451L444 443L446 438Z" fill="#F3F7F7"/>
<path d="M445 158L447 159L448 165H450V168L454 170L448 171L449 167H447V168V171L445 170L442 162V160H444L445 158Z" fill="#1E344B"/>
<path d="M436 149L439 150L440 152L444 153L445 155V161L440 159L437 155V153L435 151L436 149Z" fill="#4E6072"/>
<path d="M427 145L430 146L429 148L422 151L421 153L413 156L411 158V156H409V154L412 153L414 151L418 150L423 149V147H427V145Z" fill="#F8FBFB"/>
<path d="M419 537H422V544H420V541L416 544H419L418 547L413 551V542L417 539H419V537Z" fill="#F8FBFB"/>
<path d="M157 493L160 495L150 498L140 505L138 507L135 502L136 499L138 503L149 496L157 493Z" fill="#1E344B"/>
<path d="M414 489L415 492L412 495L415 494L416 498L412 499L410 503H409L408 493L414 489Z" fill="#F8FBFB"/>
<path d="M725 486L727 487L726 492L719 511L718 507L722 493L725 486Z" fill="#F8FBFB"/>
<path d="M387 376L389 377L386 379L387 382L367 384L370 382L380 378V380L387 376Z" fill="#2A3F54"/>
<path d="M107 319L113 321L112 331L110 330V323L108 330L104 328L103 324L105 323V325L107 323V319Z" fill="#1E344B"/>
<path d="M429 645H431L430 661L428 670L426 669L428 646L429 645Z" fill="#1E344B"/>
<path d="M333 643H334L333 652L331 661H329L328 657V663L325 664L326 658L328 653L330 652L333 643Z" fill="#F8FBFB"/>
<path d="M432 569H433L434 586L428 587L427 590H425V587L429 584H431L432 579L429 578L432 577L429 573L432 569Z" fill="#1E344B"/>
<path d="M149 475H156L157 477L146 478L137 483L133 488L130 487L135 482L140 478L149 475Z" fill="#1E344B"/>
<path d="M435 424L436 428L439 427L437 435L433 437L429 441L430 437L433 434L434 431H436L433 428L431 432L428 434L430 430L433 425L435 424Z" fill="#1E344B"/>
<path d="M699 372H701L707 381L703 382V380L698 379L695 377L699 372Z" fill="#F8FBFB"/>
<path d="M358 363L365 365L368 370H358L356 366L358 363Z" fill="#3F5266"/>
<path d="M698 356L703 358V360L705 361L701 363L694 362L695 357L698 356Z" fill="#F8FBFB"/>
<path d="M859 350L864 352L866 356L863 363L858 360V357L860 356V353L859 350Z" fill="#B0B9C1"/>
<path d="M500 181L507 182L513 187V190L507 188L500 183V181Z" fill="#1E344B"/>
<path d="M814 108H819V113L824 114V115H815L812 114L813 109L814 108Z" fill="#1E344B"/>
<path d="M214 81H219L220 86L217 90L213 89V82L214 81Z" fill="#F8FBFB"/>
<path d="M817 78L821 80L819 85L812 84L811 80L817 78Z" fill="#1E344B"/>
<path d="M886 717H889L891 726H889L888 724V726H886L885 721L882 724L879 722L884 718L886 717Z" fill="#F8FBFB"/>
<path d="M228 632L230 633L229 638L219 656L217 659H215L217 654L224 642L228 634V632Z" fill="#F8FBFB"/>
<path d="M427 625L429 626L426 628L424 644L420 645L421 637L422 634L420 633H423L424 626L427 625Z" fill="#1E344B"/>
<path d="M550 440L551 442L550 445L553 443L552 447V450L550 452H548V449L546 453H544L546 444L550 440Z" fill="#1E344B"/>
<path d="M838 364L841 365L844 374L846 379L847 383H845L837 368L836 366H838V364Z" fill="#EBEFF0"/>
<path d="M359 222L361 223L360 227L354 232L350 241H349L350 233L356 224L359 222Z" fill="#EFF3F4"/>
<path d="M642 161L644 162L642 167L637 172H633L635 167L642 161Z" fill="#1E344B"/>
<path d="M874 87H877V105H875L873 89L874 87Z" fill="#1E344B"/>
<path d="M446 71H460L458 73L445 75H440V72L446 71Z" fill="#1E344B"/>
<path d="M759 675L762 677V679L755 684L751 683L752 679L759 675Z" fill="#1E344B"/>
<path d="M889 594H898L911 598L914 601L913 603L905 599L889 595V594Z" fill="#1E344B"/>
<path d="M561 456H564L562 461L559 466H557L556 472L553 480H551L554 470L558 462L561 456Z" fill="#F8FBFB"/>
<path d="M546 433H548L547 437L538 455H536L538 449L546 433Z" fill="#F8FBFB"/>
<path d="M933 382H939V385L936 391L932 389L931 384L933 382Z" fill="#1E344B"/>
<path d="M836 700H838L837 703L827 709L829 715L832 719L831 721L824 711L826 707L836 700Z" fill="#F8FBFB"/>
<path d="M322 566L329 570L326 571H322L323 572H325L326 575L321 576V579L317 578L320 569L322 566Z" fill="#F3F6F7"/>
<path d="M400 563L405 565L411 570V572L412 574L407 573V571L402 569V567L398 566V564L400 563Z" fill="#F8FBFB"/>
<path d="M966 382L967 386L963 390H959L958 384L959 383L966 382Z" fill="#1E344B"/>
<path d="M153 145H157L155 149L150 151H145V147L153 145Z" fill="#1E344B"/>
<path d="M785 747H794V750L793 757H791L790 751L791 749H788L789 756L787 757L786 752L787 750L784 749L785 747Z" fill="#F8FBFB"/>
<path d="M117 735L124 736L121 737L120 740H118L116 751L114 749L116 739L114 738L117 735Z" fill="#D8DDE1"/>
<path d="M630 241L632 242L630 252L628 257V259L624 258L625 254L629 245L630 241Z" fill="#1E344B"/>
<path d="M311 389L316 394L321 402L324 411L323 415L318 403L312 392L311 389Z" fill="#F8FBFB"/>
<path d="M114 329H115L116 340L115 342L110 341V333L114 334V329Z" fill="#304459"/>
<path d="M603 733H605L606 743H610V745H608V751L606 752V749L602 751L601 748L605 747L603 734V733Z" fill="#F8FBFB"/>
<path d="M422 559H424V564L416 569L414 565L419 561H422V559Z" fill="#F8FBFB"/>
<path d="M975 434H978L979 437V446L975 447V434Z" fill="#1E344B"/>
<path d="M396 248H398V255L394 265L389 270L387 269L393 261L396 248Z" fill="#F8FBFB"/>
<path d="M661 187L662 191L654 197H650L652 193L658 189L661 187Z" fill="#1E344B"/>
<path d="M706 967H722L721 970H703L706 967Z" fill="#1E344B"/>
<path d="M808 745L812 746L814 752L809 754V750L804 751V749L808 745Z" fill="#EEF2F3"/>
<path d="M674 735L676 738L677 741L682 739L684 743L682 746L677 744L674 743V735Z" fill="#4E6072"/>
<path d="M661 287H662V295L661 299H655L657 294L661 287Z" fill="#F8FBFB"/>
<path d="M904 719H906L907 727H911V721L913 722V729L909 728V730L905 731L904 726V719Z" fill="#F8FBFB"/>
<path d="M282 671L283 673L281 678V681L279 680L277 689L274 688V683L276 682L281 672L282 671Z" fill="#1E344B"/>
<path d="M156 624H160L161 632L157 633L155 632V625L156 624Z" fill="#1E344B"/>
<path d="M834 351L837 352L842 363L843 369L839 366L837 362H839V360L836 359L835 355L833 354L834 351Z" fill="#1E344B"/>
<path d="M520 162L524 164L530 171L526 172L519 165L520 162Z" fill="#1E344B"/>
<path d="M886 143L889 144V158H887L885 145L886 143Z" fill="#1E344B"/>
<path d="M774 908H776V915L775 924L773 926L772 923L771 918L773 917L772 915L773 911L772 909L774 908Z" fill="#F2F6F6"/>
<path d="M286 670L288 673V675H286L284 682H282L280 677H282L283 671L286 670Z" fill="#97A3AD"/>
<path d="M972 563V566L957 581V578L968 566H970V564L972 563Z" fill="#F8FBFB"/>
<path d="M433 428L436 429V431H434L433 435L430 438L428 441L427 434L432 430L433 428Z" fill="#F8FBFB"/>
<path d="M476 420L478 422L481 435L480 447H479L477 429L476 420Z" fill="#F8FBFB"/>
<path d="M913 378L917 379V382L912 384L907 383V380L913 378Z" fill="#1E344B"/>
<path d="M93 319L95 320L94 322H96L97 320V323H102L103 328L99 327V324H97L96 327L95 325L93 326V324H89L90 321L92 322L93 319Z" fill="#1E344B"/>
<path d="M974 297L979 298L978 304L975 307L973 304L974 297Z" fill="#1E344B"/>
<path d="M599 753L600 756L599 757L598 779H596V755L599 753Z" fill="#F8FBFB"/>
<path d="M214 747L219 748L220 752L216 753L215 755H213L212 757L211 751L214 747Z" fill="#E3E8EA"/>
<path d="M539 698L541 699L538 714L536 711L535 702L539 698Z" fill="#2D4257"/>
<path d="M682 688H684L688 692V695L682 696L678 691L680 689L682 688Z" fill="#D8DEE1"/>
<path d="M980 683L984 684L985 688L980 692L978 690L979 685L980 683Z" fill="#1E344B"/>
<path d="M330 553L331 556L330 561H328L326 566L323 565L324 561L326 558H328L329 554L330 553Z" fill="#F8FBFB"/>
<path d="M457 530L459 531L460 537L459 544H457L455 549H454V543L456 542L457 536V530Z" fill="#F8FBFB"/>
<path d="M411 477L415 478L414 483L410 485L407 488V483L411 477Z" fill="#F8FBFB"/>
<path d="M456 451H457V459L455 461L450 460V457H452V455L456 451Z" fill="#5C6C7D"/>
<path d="M442 442L444 444V446L439 451L437 454L433 458L431 457L438 447H440L441 443L442 442Z" fill="#1E344B"/>
<path d="M823 331L826 343L828 341V344L830 345L828 346L829 353L826 349L823 344L822 334L823 331Z" fill="#F8FBFB"/>
<path d="M150 154H162V157H147V155L150 154Z" fill="#1E344B"/>
<path d="M941 678H955L954 681H941V678Z" fill="#1E344B"/>
<path d="M559 452H561L560 457L553 466L551 471L550 467L555 458L559 452Z" fill="#F8FBFB"/>
<path d="M434 291H449V293L440 295L434 294V291Z" fill="#1E344B"/>
<path d="M800 754H802V760H804L803 755H806L805 760L807 761L804 763H801L797 762L800 759V754Z" fill="#1E344B"/>
<path d="M125 754L127 756L130 755L131 763L127 764L125 760V754Z" fill="#D1D8DC"/>
<path d="M781 748L784 749L785 757L783 756V753L781 756V751H779V753L775 754V750L781 748Z" fill="#F8FBFB"/>
<path d="M369 647L373 649V654L370 655L372 656L371 659L369 658L366 662L367 654L368 651L372 652V650H369V647Z" fill="#F8FBFB"/>
<path d="M360 596L369 597L373 600L363 602V599L364 597L359 599L360 596Z" fill="#F8FBFB"/>
<path d="M701 341H708L710 344L707 346L699 347V345L701 344L699 342L701 341Z" fill="#EDF1F2"/>
<path d="M110 180H113L112 185L110 189H106L107 183L110 180Z" fill="#1E344B"/>
<path d="M353 65L356 66V71L354 74H351L350 69L351 66L353 65Z" fill="#1E344B"/>
<path d="M678 745H688L689 747H687L686 749V747H683L684 750H681L682 747H680V752L678 751L677 746L678 745Z" fill="#1E344B"/>
<path d="M588 732H590V739L594 737L596 738L600 737V740L591 741L588 742V732Z" fill="#1E344B"/>
<path d="M383 647L385 651L382 666L380 667L381 656L382 648L383 647Z" fill="#1E344B"/>
<path d="M306 643L307 645L304 652H302L303 655H301L299 660L298 657L304 645L306 643Z" fill="#1E344B"/>
<path d="M42 610L46 611L47 615L45 617L40 616L41 611L42 610Z" fill="#1E344B"/>
<path d="M334 601L335 604L328 623H326L327 618L334 601Z" fill="#F8FBFB"/>
<path d="M416 502L419 503V510L420 514L414 516L412 517L413 513L416 512V502Z" fill="#1E344B"/>
<path d="M573 308H580L579 312L578 311L576 314L573 312V314H571L570 317V313H572L573 308Z" fill="#9EA9B2"/>
<path d="M667 214H672V218L663 219V216L667 214Z" fill="#1E344B"/>
<path d="M491 207H499L503 209V212L493 210L491 209V207Z" fill="#1E344B"/>
<path d="M420 138L422 140L417 141L416 143L411 144L405 146V148L402 147L406 145V143L420 138Z" fill="#F8FBFB"/>
<path d="M421 750L426 751L428 754H426L424 758L421 761L422 757L423 755L420 757L421 750Z" fill="#F8FBFB"/>
<path d="M432 626L433 628L431 633L435 634L432 635V643L428 644L429 635L430 627L432 626Z" fill="#1E344B"/>
<path d="M429 579H432L431 584L427 587H424L425 581L429 579Z" fill="#ECF0F1"/>
<path d="M914 434H916V449H914L913 444V436L914 434Z" fill="#F8FBFB"/>
<path d="M99 296L101 297L96 301L93 303L82 304L84 302L93 299L99 296Z" fill="#1E344B"/>
<path d="M217 753H221L220 757V755H218L216 759L214 761L215 756L217 753ZM219 757L221 760V762L216 763V760H218L219 757Z" fill="#CED5D9"/>
<path d="M443 469L446 472V476L443 479H441V484L438 483V479L442 476L443 472H441V470L443 469Z" fill="#1E344B"/>
<path d="M381 470H383L382 474L374 481L372 480L374 476L377 473H380L381 470Z" fill="#F8FBFB"/>
<path d="M553 443L556 445V447H554L553 452L547 458V455L549 451L551 449V446L553 443Z" fill="#F8FBFB"/>
<path d="M980 436H983L984 439V446H980V436Z" fill="#1E344B"/>
<path d="M775 286L779 287L780 292H774L772 288L775 286Z" fill="#1E344B"/>
<path d="M109 194H112V200L107 201L106 200V195L109 194Z" fill="#1E344B"/>
<path d="M417 160L418 164L422 162H425V164L421 167L417 166V164L413 163L414 161L417 160Z" fill="#1E344B"/>
<path d="M687 737L690 738L689 743L693 742L692 746H689L683 745L685 741L687 743V737Z" fill="#F8FBFB"/>
<path d="M281 669L282 672L278 679L274 677V675L272 674L277 675L275 672L278 671L280 672L281 669Z" fill="#F1F5F6"/>
<path d="M437 369L439 370L440 376L435 383L432 381L435 378L436 372L437 369Z" fill="#F8FBFB"/>
<path d="M907 938H919V941H906L907 938Z" fill="#F8FBFB"/>
<path d="M653 755L655 759L653 776H652V756L653 755Z" fill="#F8FBFB"/>
<path d="M301 734H309L314 737V738L303 737L301 736V734Z" fill="#F8FBFB"/>
<path d="M901 723H903V731L901 732L900 729L901 725H899V727L891 730V728H893L894 726L901 723Z" fill="#F8FBFB"/>
<path d="M564 460L567 461L559 476L557 474L564 460Z" fill="#F8FBFB"/>
<path d="M949 434L952 435V447H950L949 445V434Z" fill="#1E344B"/>
<path d="M855 379L859 380L858 385H856L854 392L852 391L855 379Z" fill="#8794A0"/>
<path d="M390 371H392L391 375L383 379L378 381L383 376L387 373L390 371Z" fill="#F8FBFB"/>
<path d="M467 363L472 365L474 366L473 368L463 369V365L467 363Z" fill="#D2D8DC"/>
<path d="M893 270L900 271V275V278L892 274L893 270Z" fill="#4F6173"/>
<path d="M802 761L804 762V773L803 785H801V762L802 761Z" fill="#F8FBFB"/>
<path d="M935 713L939 717L937 722H933V717L935 713Z" fill="#DEE3E6"/>
<path d="M788 696L792 698L793 703H790V705H788V703L786 702L788 696Z" fill="#EBEFF0"/>
<path d="M446 446L449 448L448 452L445 451V456L442 455L441 451H444V447L446 446Z" fill="#1E344B"/>
<path d="M658 415L663 418L662 420L658 418L656 423L651 430L650 427L658 415Z" fill="#F8FBFB"/>
<path d="M987 363H991L990 366L982 369H980L982 365L987 363Z" fill="#1E344B"/>
<path d="M555 292L557 293L556 295H558V292H563L564 294L562 295L563 297L559 298L562 299L558 300V296H555V292Z" fill="#1E344B"/>
<path d="M399 737L410 739L411 742L400 741L399 737Z" fill="#F8FBFB"/>
<path d="M925 709L928 710L927 714H929V711H931L930 716L928 718L924 717L925 709Z" fill="#C9D0D5"/>
<path d="M345 536L347 540V544L350 548L346 546L341 541L345 536Z" fill="#F8FBFB"/>
<path d="M795 409L796 411L793 419H790L792 411L795 409Z" fill="#D0D6DB"/>
<path d="M653 385L658 389V391L661 392L658 395V392H654L653 390L651 391L652 386L653 385Z" fill="#F8FBFB"/>
<path d="M451 181L454 184L453 188V185H448L446 186H437L441 184L451 181Z" fill="#243A50"/>
<path d="M435 144H441L440 147L444 148V150L440 151L439 148L435 147V144Z" fill="#1E344B"/>
<path d="M430 137H433L436 140V138H439L440 141L435 143H432V140H430V137Z" fill="#1E344B"/>
<path d="M607 734L610 735V737L614 739L613 741H609H607V734Z" fill="#CFD5DA"/>
<path d="M846 727L848 728L849 732V739H847L846 741V727Z" fill="#F8FBFB"/>
<path d="M982 606L988 607L986 613L982 612V606Z" fill="#1E344B"/>
<path d="M460 503H461L462 516L460 522H458L460 503Z" fill="#1E344B"/>
<path d="M383 486L385 487L384 491L382 493H379L378 496H376L377 492L380 491L383 486Z" fill="#F8FBFB"/>
<path d="M455 477L456 480L450 494L449 490L454 478L455 477Z" fill="#F8FBFB"/>
<path d="M370 453H372L370 457L360 466L359 463L369 455L370 453Z" fill="#F8FBFB"/>
<path d="M527 405H529L531 410H529L528 416L526 418V413L525 412L527 405Z" fill="#F8FBFB"/>
<path d="M251 353L255 354L249 358L245 366H243L244 361L251 353Z" fill="#F8FBFB"/>
<path d="M693 140L696 141V144L703 143L704 151H701V145L696 146L693 140Z" fill="#F8FBFB"/>
<path d="M186 736L198 738L201 741L190 740L186 738V736Z" fill="#F8FBFB"/>
<path d="M912 718H914L915 730L912 734L911 730L912 726V718Z" fill="#4F6072"/>
<path d="M878 724L882 726L884 729H881H878L879 734L876 733L878 724Z" fill="#F8FBFB"/>
<path d="M922 714H924L925 717L930 718L931 725L929 726L928 720H922L921 715L922 714Z" fill="#F8FBFB"/>
<path d="M588 688L593 691L594 695L590 696L589 693H586L588 688Z" fill="#F8FBFB"/>
<path d="M760 618H767L768 622H760V618Z" fill="#1E344B"/>
<path d="M760 602L765 603L767 604L766 607H760L759 603L760 602Z" fill="#1E344B"/>
<path d="M976 567L979 568L974 573L967 579L965 578L976 567Z" fill="#F8FBFB"/>
<path d="M166 544V547L154 555L151 554L164 545L166 544Z" fill="#1E344B"/>
<path d="M372 495H375L374 498L363 504L364 500L372 495Z" fill="#F8FBFB"/>
<path d="M376 483L378 486L375 489L370 490L369 493L368 489L376 483Z" fill="#F8FBFB"/>
<path d="M893 475H894V484H888L893 475Z" fill="#F8FBFB"/>
<path d="M548 436L550 437L549 441L547 444L544 453L542 454L543 449L548 436Z" fill="#F8FBFB"/>
<path d="M987 378L992 380L989 383H984V379L987 378Z" fill="#1E344B"/>
<path d="M773 310H779L782 313L781 314H773V310Z" fill="#1E344B"/>
<path d="M376 200L377 203L375 210L377 209L376 216L372 211L374 203L376 200Z" fill="#F8FBFB"/>
<path d="M799 752H804V760H802L801 756L802 754H800L801 760H799L798 753L799 752Z" fill="#F8FBFB"/>
<path d="M603 741H605L606 747L600 749L598 748L597 750L596 747L601 745H603L604 743L602 742L603 741Z" fill="#1E344B"/>
<path d="M128 336L130 337L132 346H129V340H127L128 345H125L126 339H128V336Z" fill="#F8FBFB"/>
<path d="M892 277L898 280L894 281L900 284L897 285L890 282L892 277Z" fill="#1E344B"/>
<path d="M893 233L895 234L893 239L888 242H885V240L888 239L893 233Z" fill="#8B97A3"/>
<path d="M759 749L761 751V757L757 760V751L759 749Z" fill="#CAD1D6"/>
<path d="M773 746L776 748L781 746H785L784 749L781 748L780 750L773 752V746Z" fill="#1E344B"/>
<path d="M770 743L771 745H769L770 747V756H768L767 748L766 745L770 743Z" fill="#F8FBFB"/>
<path d="M359 655L361 656L360 665H358V669H356L358 656L359 655Z" fill="#1E344B"/>
<path d="M541 424L543 428L535 436V432H537L539 427L541 424Z" fill="#F8FBFB"/>
<path d="M831 347L834 350L835 353L829 355V350L831 347Z" fill="#C3CAD0"/>
<path d="M457 269H458L457 279L455 284L453 281L456 272L457 269Z" fill="#1E344B"/>
<path d="M354 821L357 822L354 827L350 831L351 824L354 821Z" fill="#F8FBFB"/>
<path d="M696 738L698 739L699 747L694 748L692 746L695 745V739L696 738Z" fill="#1E344B"/>
<path d="M913 711H915V714L919 713V715L911 717H907V712L908 715L913 714V711Z" fill="#1E344B"/>
<path d="M927 605V608L917 619L916 616L927 605Z" fill="#F8FBFB"/>
<path d="M430 372L433 373L434 376L432 379H428V373L430 372Z" fill="#F8FBFB"/>
<path d="M121 196H123L124 201L123 203H119V198L121 196Z" fill="#1E344B"/>
<path d="M437 159L440 160V163L431 165L430 163H432V161H437V159Z" fill="#1E344B"/>
<path d="M207 745H209L208 749H210V746L214 747H212L210 752L208 754V751H206L207 745Z" fill="#F8FBFB"/>
<path d="M783 731H789L790 734L785 733L779 735L777 734L779 732L783 731Z" fill="#F8FBFB"/>
<path d="M914 719H916L917 727V732L914 731V719Z" fill="#F8FBFB"/>
<path d="M750 667L754 669V674L751 675L749 668L750 667Z" fill="#1E344B"/>
<path d="M337 663L339 667H337L336 675L333 674L336 664L337 663Z" fill="#1E344B"/>
<path d="M247 655L248 658L243 667H241L243 662L247 655Z" fill="#F8FBFB"/>
<path d="M374 602L378 604V607L375 609H372L374 602Z" fill="#F8FBFB"/>
<path d="M387 566H390V568L384 570L383 573L382 571H379L380 569L382 570V568L387 566Z" fill="#F8FBFB"/>
<path d="M263 520L267 522V524L262 525V523L258 524L259 521L263 520Z" fill="#DFE4E7"/>
<path d="M413 436H415L416 442L411 444L410 441L413 436Z" fill="#E7ECED"/>
<path d="M535 418L537 419L534 428L531 427L532 422H534L535 418Z" fill="#1E344B"/>
<path d="M918 365L921 366L920 369H912L913 366L918 365Z" fill="#1E344B"/>
<path d="M841 360L844 364L847 371L849 375L846 374L842 367L841 360Z" fill="#F8FBFB"/>
<path d="M97 320L106 321L108 324L103 325L102 323H97V320Z" fill="#F8FBFB"/>
<path d="M920 275L929 279L928 281L922 282L924 281V279L920 278V275Z" fill="#3E5165"/>
<path d="M906 215L907 218L904 224L902 225V223H900L901 220L905 218L906 215Z" fill="#F8FBFB"/>
<path d="M772 898L777 900L776 907L773 906L772 903H774L772 898Z" fill="#E7EBED"/>
<path d="M502 757L506 758V763H500V759H502V757Z" fill="#D6DCDF"/>
<path d="M451 549L454 550L453 556H451L449 554H447V551H451V549Z" fill="#F8FBFB"/>
<path d="M486 468L487 472L489 481L486 482L485 476V469L486 468Z" fill="#F8FBFB"/>
<path d="M440 466L441 469L440 474L439 477L438 474H435L437 470L440 466Z" fill="#1E344B"/>
<path d="M419 432H421L420 438H422V441L418 440L417 434L419 432Z" fill="#F8FBFB"/>
<path d="M537 419L540 421L538 425L536 428H534L535 423L537 419Z" fill="#F8FBFB"/>
<path d="M787 272L791 273L790 277H786L785 273L787 272Z" fill="#1E344B"/>
<path d="M363 238L367 240L368 246L366 249L363 238Z" fill="#F8FBFB"/>
</g>
<defs>
<clipPath id="clip0_266_4179">
<rect width="1024" height="1024" fill="white"/>
</clipPath>
</defs>
</svg>
