<svg width="244" height="350" viewBox="0 0 244 350" fill="none" xmlns="http://www.w3.org/2000/svg">
<circle cx="118" cy="8" r="8" fill="#0B405A"/>
<circle cx="201.5" cy="25.5" r="21.5" fill="#6D3C2E"/>
<circle cx="17.5" cy="73.5" r="16.5" fill="#0B405A"/>
<path d="M160.779 81.7703C165.086 82.411 178.264 85.2297 181.286 86.1906C182.507 86.575 185.207 87.6641 187.264 88.6891C189.321 89.65 192.021 90.8031 193.243 91.1875C194.464 91.5719 195.814 92.2766 196.264 92.725C197.357 93.8141 202.114 96.6328 202.564 96.5047C202.757 96.4406 205.457 98.811 208.671 101.822C211.821 104.769 214.521 107.203 214.714 107.203C214.907 107.203 216 109.253 217.221 111.816C218.957 115.339 219.471 117.453 219.729 121.233C219.921 124.052 220.436 126.422 220.886 126.934C221.4 127.383 221.786 128.152 221.786 128.6C221.786 129.048 222.814 130.202 224.036 131.163C225.257 132.188 226.286 133.213 226.286 133.597C226.286 133.917 226.993 134.878 227.829 135.775C228.664 136.736 229.693 138.594 230.143 139.939C230.721 141.733 231.364 142.438 232.264 142.438C233.293 142.438 233.421 142.694 233.036 143.847C232.2 146.473 232.007 151.406 232.714 151.47C233.036 151.534 233.614 151.598 234 151.663C234.321 151.663 234.643 151.919 234.643 152.175C234.643 152.495 234.643 153.136 234.643 153.648C234.643 154.161 234.064 154.609 233.357 154.609C231.814 154.609 230.721 158.902 232.136 159.734C232.843 160.183 232.843 160.567 232.071 161.977C231.107 163.706 228.15 164.923 227.7 163.706C227.379 162.681 223.071 166.205 223.071 167.55C223.071 168.127 223.779 169.472 224.679 170.497C226.671 172.867 226.671 173.059 224.55 175.238C223.586 176.198 223.136 177.031 223.457 177.031C224.55 177.031 232.586 168.703 233.486 166.717C233.936 165.692 234.514 164.859 234.771 164.859C235.929 164.859 238.436 160.055 238.114 158.645C237.6 156.788 238.821 155.314 240.429 155.698C242.164 156.147 242.229 159.478 240.557 159.991C239.143 160.439 237.857 162.681 237.6 164.988C237.343 166.973 236.636 168.191 235.929 167.742C235.671 167.55 234.836 168.383 234.064 169.472C233.357 170.625 231.171 173.188 229.243 175.109C227.25 177.031 225.643 178.825 225.643 179.081C225.643 179.402 226.414 180.234 227.314 181.067C230.143 183.502 230.786 185.488 230.786 191.766C230.786 194.905 231.043 197.531 231.364 197.531C232.2 197.531 232.65 199.773 232.007 200.863C231.75 201.375 231.814 202.72 232.264 204.002C233.036 206.116 233.55 207.141 237.343 214.123C240.107 219.12 238.629 219.633 235.543 214.7C234.193 212.458 232.714 209.703 232.264 208.486C231.879 207.269 231.3 206.116 230.979 205.923C230.721 205.731 229.95 204.45 229.371 203.105C228.729 201.823 227.764 200.734 227.25 200.734C225.643 200.734 222.429 198.877 220.821 197.019C219.279 195.225 217.607 195.545 218.25 197.531C218.507 198.428 217.8 199.389 215.229 201.439C213.364 202.913 210.6 204.706 209.121 205.411C206.1 206.884 205.907 207.205 207.321 208.422C207.836 208.87 208.286 209.639 208.286 210.088C208.286 210.6 208.671 210.984 209.186 210.984C210.343 210.984 218.571 203.425 218.571 202.272C218.571 201.759 219.021 201.375 219.536 201.375C220.05 201.375 220.5 201.952 220.5 202.656C220.5 203.361 220.179 203.938 219.857 203.938C219.471 203.938 219.214 204.386 219.214 204.898C219.214 205.411 218.957 205.859 218.7 205.859C218.379 205.859 217.607 206.948 216.9 208.294C216.257 209.575 215.164 211.048 214.521 211.497C213.493 212.33 212.914 213.931 213.943 213.291C214.2 213.163 214.843 213.227 215.357 213.547C216.129 214.059 216.193 214.38 215.486 215.469C215.1 216.173 214.714 217.134 214.714 217.583C214.714 218.864 221.014 224.886 224.293 226.68C227.057 228.281 231.043 228.794 231.75 227.641C232.329 226.68 234 227.641 234 228.986C234 230.075 233.614 230.139 229.95 229.755C225 229.306 221.593 227.769 218.121 224.438L215.486 221.875L215.614 225.591C215.871 230.139 217.157 233.278 220.243 236.609C222.814 239.364 225.579 240.453 229.95 240.453C233.357 240.453 235.929 239.492 237.343 237.698C238.307 236.417 238.436 236.417 238.821 237.442C239.336 238.659 237.407 240.645 234.643 241.798C231.621 243.08 226.479 242.567 222.879 240.709C217.221 237.827 216.193 236.866 215.807 234.239C215.614 232.894 215.1 230.908 214.714 229.883C214.264 228.794 213.814 227.384 213.75 226.68C213.236 221.683 212.4 218.928 210.986 217.263C210.086 216.302 209.121 215.469 208.864 215.469C207.771 215.469 207.579 218.159 208.543 220.017C209.636 222.195 209.314 223.477 207.9 222.9C207.193 222.644 207 223.669 207 228.602C207 232.253 207.257 234.688 207.643 234.688C207.964 234.688 208.286 235.264 208.286 235.969C208.286 236.673 207.964 237.25 207.643 237.25C207.257 237.25 207 242.888 206.936 252.753C206.936 261.338 206.679 268.897 206.357 269.602C205.843 270.819 205.393 246.667 205.65 230.523C205.714 226.616 205.521 222.58 205.136 221.555L204.557 219.633L204.493 221.363C204.429 222.323 204.107 223.284 203.786 223.477C203.4 223.733 203.143 232.317 203.143 247.116C203.143 268.897 203.207 270.434 204.364 271.716C205.007 272.484 205.843 273.125 206.229 273.125C206.807 273.125 207.9 275.047 207.514 275.367C207.386 275.495 204.557 276.456 201.214 277.609C187.521 282.286 179.036 288.372 171.579 298.942C169.843 301.441 168.429 303.106 168.429 302.658C168.429 302.209 168.107 302.081 167.786 302.273C167.4 302.466 167.143 302.338 167.143 301.953C167.143 300.544 165.921 302.017 165.536 303.875C165.279 304.964 164.893 305.797 164.571 305.797C164.25 305.797 163.543 307.078 162.9 308.68C162.321 310.281 161.55 311.755 161.293 311.947C160.65 312.331 161.1 311.05 163.607 305.541C164.507 303.491 165.15 301.505 165.021 301.12C164.893 300.736 164.186 301.953 163.35 303.811C162.579 305.669 161.807 307.078 161.614 306.886C161.486 306.758 161.871 305.284 162.579 303.619C164.957 298.173 163.029 300.672 160.136 306.822C158.529 310.153 156.921 313.164 156.471 313.548C156.021 313.869 156.921 311.627 158.464 308.552C162.707 299.775 162.45 298.814 158.143 307.334C155.957 311.498 154.093 314.766 153.9 314.638C153.771 314.445 154.929 311.755 156.471 308.616C158.014 305.477 159.493 302.209 159.686 301.313C159.943 300.416 158.336 303.17 156.15 307.398C151.714 316.047 151.457 316.495 152.036 313.805L152.421 311.883L151.393 313.677C150.814 314.638 150.557 315.791 150.814 316.239C151.136 316.816 151.071 316.816 150.493 316.303C149.914 315.727 150.429 314.061 152.743 308.936C155.893 302.145 156.857 300.416 156.857 301.825C156.857 302.273 155.829 304.644 154.543 307.142C153.321 309.641 152.421 311.819 152.614 312.011C152.871 312.267 158.143 301.761 158.143 300.928C158.143 300.736 157.886 300.736 157.564 300.928C157.243 301.184 156.857 300.928 156.664 300.544C156.471 300.095 155.571 301.377 154.607 303.491C153.321 306.245 152.679 307.014 152.229 306.373C151.779 305.733 151.779 305.861 152.036 306.886C152.293 307.783 151.843 309.448 150.75 311.498C149.85 313.292 149.143 315.15 149.143 315.598C149.143 316.111 148.693 316.944 148.114 317.392C147.15 318.161 147.086 318.097 147.471 316.816C148.179 314.702 147.343 315.086 146.25 317.52C145.543 318.994 145.35 319.122 145.543 318.033C145.8 316.688 145.671 316.752 143.936 318.673C141.75 321.108 141.557 320.788 143.357 317.328C144.064 315.919 144.45 314.766 144.193 314.766C143.936 314.766 144.257 314.381 144.964 313.933C145.607 313.42 145.929 312.716 145.671 312.331C145.414 311.883 145.543 311.563 145.929 311.563C146.314 311.563 146.507 311.306 146.25 310.986C146.057 310.602 146.25 310.153 146.7 309.833C147.536 309.32 149.143 306.822 149.143 306.117C149.143 305.861 148.821 305.925 148.371 306.181C147.921 306.438 147.857 306.373 148.114 305.861C148.371 305.477 148.821 305.284 149.079 305.477C150.107 306.053 155.186 293.177 156.857 285.617C157.179 284.208 157.821 281.197 158.336 278.891C158.85 276.584 159.879 271.972 160.65 268.641C161.421 265.309 162.9 258.07 163.993 252.625C165.086 247.18 166.371 240.645 166.886 238.211C168.043 232.83 169.907 218.031 169.521 217.583C169.329 217.455 169.007 218.416 168.814 219.761C168.557 221.106 167.85 224.63 167.143 227.641C166.5 230.652 165.729 234.495 165.536 236.161C165.279 237.891 164.957 239.108 164.764 238.916C164.571 238.723 164.764 236.353 165.15 233.663C165.986 228.602 165.857 227.641 164.379 228.794C163.864 229.242 163.35 229.37 163.093 229.178C162.9 228.986 162.643 229.37 162.45 230.011C161.293 234.047 158.657 245.706 157.5 251.984C155.829 260.953 154.221 267.488 153.836 267.103C153.643 266.975 154.029 264.477 154.607 261.594C155.186 258.647 155.571 255.636 155.379 254.803C155.25 253.97 155.379 253.266 155.764 253.266C156.793 253.266 155.636 252.369 154.35 252.177C153.45 252.048 153.064 252.497 152.807 253.778C152.614 254.739 152.1 256.661 151.714 258.07C151.329 259.48 150.686 261.914 150.3 263.516C149.914 265.117 149.464 266.078 149.336 265.63C149.207 265.245 149.529 263.131 150.107 260.889C151.457 255.764 154.929 237.955 154.864 236.609C154.8 235.584 154.029 237.763 153.321 240.709C153.129 241.67 152.807 242.375 152.614 242.247C152.486 242.055 152.679 240.389 153.064 238.595C154.029 234.111 153.386 233.727 152.1 238.019C151.2 241.286 150.364 244.873 145.993 265.117C141.686 284.72 138.857 294.65 134.614 304.708C133.457 307.463 132.686 310.217 132.879 310.73C133.136 311.37 133.007 311.627 132.621 311.37C132.171 311.114 131.593 311.755 131.207 313.036C130.757 314.253 129.6 316.559 128.571 318.225C126.514 321.364 126.257 322.133 127.286 321.492C127.607 321.3 127.929 321.428 127.929 321.748C127.929 322.133 127.479 322.453 126.964 322.453C126.45 322.453 126 322.709 126 323.03C126 323.35 125.55 323.798 124.971 323.991C124.136 324.311 124.007 324.055 124.329 322.773C124.65 321.556 124.521 321.3 123.75 321.556C123.236 321.748 122.914 322.197 123.107 322.453C123.3 322.773 123.171 323.158 122.786 323.414C122.464 323.606 122.143 323.478 122.143 323.094C122.143 322.645 121.693 322.773 121.114 323.35C119.829 324.631 119.186 324.695 120.214 323.414C120.857 322.645 120.407 322.709 118.221 323.67C116.614 324.311 115.393 325.272 115.457 325.784C115.521 326.297 115.2 326.745 114.75 326.745C114.3 326.745 114.043 326.361 114.236 325.848C114.686 324.759 114.75 324.759 110.636 326.297C108.707 327.002 107.036 327.514 106.971 327.386C106.843 327.322 107.807 325.656 108.964 323.734C110.186 321.813 111.214 319.698 111.214 319.122C111.214 318.545 111.729 317.648 112.371 317.2C113.014 316.752 114.236 315.086 115.136 313.484C117.964 308.423 118.607 307.398 119.057 307.078C119.314 306.886 119.636 306.117 119.764 305.477C119.893 304.772 120.214 303.747 120.471 303.17C120.729 302.594 120.857 301.889 120.729 301.569C120.664 301.248 120.986 299.903 121.436 298.558C122.014 296.892 122.271 291.895 122.336 283.183C122.464 266.527 122.4 265.822 120.086 256.789C118.736 251.664 117.129 249.294 113.657 247.564C112.114 246.795 111.15 246.859 105.3 248.333C101.636 249.23 96.9429 250.191 94.8214 250.383C92.7 250.575 89.8714 250.895 88.5214 251.088C87.1714 251.28 84.2786 251.152 82.0929 250.703C78.4929 249.998 77.9143 249.678 75.9857 247.116C73.4786 243.72 72.7714 240.325 73.4143 234.816C73.8643 231.1 73.7357 230.588 72 227.577C70.0071 224.245 69.3643 219.633 70.7786 218.223C71.2929 217.711 71.1 217.391 70.1357 217.07C69.3643 216.878 68.7857 216.302 68.7857 215.853C68.7857 215.341 68.4 214.7 67.95 214.316C66.4714 213.034 66.7286 209.959 68.5286 207.845C70.7786 205.155 70.2643 203.553 65.8929 199.773C62.1 196.57 59.7857 192.919 59.7857 190.164C59.7857 188.306 60.9429 185.936 62.2929 185.103C63.8357 184.142 66.8571 181.067 66.8571 180.491C66.8571 180.17 67.4357 179.402 68.0786 178.825C68.7857 178.248 70.1357 176.391 71.1 174.661C72.1286 172.995 73.5429 170.625 74.3786 169.472C75.4071 167.87 75.7286 166.717 75.4714 164.667C74.5714 156.083 74.3143 149.869 74.7643 148.331C75.3429 146.217 76.05 143.142 77.4 136.416C77.9786 133.661 79.5857 128.984 80.9357 126.038C82.35 123.091 83.3786 120.656 83.1857 120.656C83.0571 120.656 84.2143 118.606 85.8214 116.172C87.4286 113.673 88.7143 111.367 88.7143 111.047C88.7143 110.727 90 109.189 91.6071 107.716C93.2143 106.242 94.5 104.769 94.5 104.448C94.5 103.744 96.1714 102.078 96.9429 102.078C97.2643 102.078 98.55 100.925 99.7714 99.5156C101.057 98.1063 102.793 96.6969 103.757 96.3766C104.657 95.9922 105.429 95.4797 105.429 95.1594C105.429 94.8391 106.65 94.0063 108.129 93.1735C109.671 92.4047 111.343 91.5719 111.857 91.2516C116.55 88.6891 124.2 85.4219 126 85.1656C127.221 84.9735 130.693 84.2688 133.714 83.5C141.75 81.5781 154.093 80.8094 160.779 81.7703ZM151.971 85.0375C151.586 87.2156 151.457 87.2797 147.921 87.6641C145.929 87.9203 141.621 88.8172 138.279 89.7141C125.293 93.1094 114.621 99.0672 103.371 109.253C96.8786 115.147 95.9786 115.531 91.9286 114.122C90 113.481 89.6786 113.545 88.5214 114.955C82.2857 122.642 75.0857 146.473 76.05 156.275C76.3071 158.325 76.6286 161.656 76.8857 163.642C77.2071 166.781 77.0786 167.742 75.5357 170.689C73.4786 174.853 68.0143 182.028 63.9643 186C62.3571 187.538 61.0714 189.267 61.0714 189.844C61.0714 190.42 61.8429 192.15 62.8714 193.688C64.4786 196.314 64.8 196.442 67.7571 196.634C71.1 196.763 73.8 198.3 74.8929 200.606C75.7286 202.528 76.8857 202.784 78.9429 201.631L80.6786 200.606L79.1357 201.952C77.5286 203.425 74.8929 203.745 74.1857 202.528C73.8643 202.08 73.4143 202.208 72.7714 203.041C71.8714 204.194 71.8714 204.194 72.2571 202.913C72.5786 201.888 72.2571 201.247 71.0357 200.478C69.2357 199.325 68.9143 199.645 70.3929 201.119C71.8071 202.528 71.55 206.18 69.9429 208.998L68.5286 211.497L70.2643 214.123L72 216.75H76.3714C79.3929 216.75 80.4214 216.558 79.7143 216.109C78.0429 215.02 80.2286 215.341 82.4786 216.494C83.5714 217.134 85.3071 217.583 86.2714 217.519C87.3643 217.519 88.0714 217.839 88.0714 218.352C88.0714 218.992 87.1071 219.12 84.2143 218.928C82.0929 218.8 78.6857 218.544 76.6286 218.416C73.4786 218.223 72.7714 218.352 72.1286 219.377C71.0357 221.106 71.1643 223.413 72.5786 225.142C75.3429 228.73 75.9857 230.844 75.2786 233.791C73.8643 239.428 74.7643 243.72 78.2357 246.988C80.8714 249.486 85.2429 250.255 91.5429 249.23L96.6857 248.461L100.543 243.08C105.879 235.52 108.321 233.278 112.564 231.933L116.164 230.844L116.936 222.964C118.35 207.781 118.479 207.333 121.886 203.873C123.557 202.144 126.514 200.03 128.379 199.133C132.3 197.211 138.729 192.598 142.2 189.331C144.386 187.281 144.643 186.641 144.643 183.95C144.643 182.22 144.321 180.298 143.871 179.658C143.486 179.017 143.357 177.992 143.679 177.288C144.386 175.366 144.45 163.514 143.679 163.77C143.293 163.898 143.1 165.628 143.229 167.806C143.486 171.778 142.071 180.106 140.529 183.694C139.821 185.423 136.479 188.434 136.029 187.794C135.9 187.666 136.221 186.897 136.736 186C137.186 185.039 137.571 184.783 137.571 185.359C137.636 187.602 139.5 183.694 139.564 181.259C139.564 179.466 139.757 179.017 140.079 179.85C140.786 181.58 142.071 175.302 142.007 170.753C141.943 167.486 141.879 167.358 141.429 169.344C140.979 171.394 140.979 171.458 140.85 169.792C140.786 168.319 140.529 167.998 139.307 168.191C137.957 168.383 137.893 168.703 137.571 176.391L137.186 184.398L137.057 175.558L136.929 166.717L134.293 168.191C132.814 169.023 130.95 170.305 130.114 171.073C129.279 171.842 128.571 172.163 128.571 171.842C128.571 170.945 123.686 173.7 121.757 175.686C120.536 176.903 120.343 177.352 120.986 177.8C121.5 178.12 121.114 178.184 120.021 177.928C118.607 177.608 117.193 178.12 113.143 180.619C108.771 183.245 108.064 183.886 107.871 185.616C107.743 187.153 107.357 187.666 106.136 187.794C104.079 188.114 102.664 186.32 103.564 184.655C103.886 183.95 104.786 183.438 105.493 183.438C107.229 183.438 116.293 177.928 117.836 175.942C118.479 175.109 119.314 174.661 119.636 174.853C119.957 175.045 121.757 174.277 123.557 173.123L126.836 171.009L122.4 167.038C119.957 164.859 117.771 163.194 117.45 163.386C117.193 163.514 117 163.002 117 162.233C117 160.888 117 160.888 118.221 162.425C120.021 164.667 126.45 169.536 127.157 169.152C127.414 168.959 128.057 169.023 128.571 169.344C129.086 169.664 130.307 169.28 131.914 168.255C134.614 166.461 134.871 165.82 133.2 165.244C130.821 164.347 126.707 161.848 127.029 161.464C127.221 161.272 126.964 160.183 126.386 159.03C125.807 157.877 125.357 156.916 125.357 156.852C125.357 156.723 126.129 156.531 127.093 156.339C128.507 156.083 129.214 156.467 130.821 158.261C131.979 159.606 133.586 160.631 135 160.888C138.021 161.528 140.143 161.144 140.143 159.991C140.143 159.286 139.821 159.222 138.986 159.606C137.443 160.439 134.421 159.991 133.007 158.709C130.307 156.275 130.179 150.381 132.814 147.498C133.457 146.794 133.714 146.089 133.457 145.769C133.2 145.513 132.107 146.281 131.079 147.434C129.793 148.908 129.214 150.189 129.214 151.727C129.214 153.584 128.893 154.097 127.479 154.673C126.257 155.122 125.679 155.122 125.293 154.545C124.65 153.456 125.229 148.78 126.193 147.627C126.643 147.114 126.964 146.538 126.9 146.345C126.9 146.153 126.964 145.448 127.157 144.872C127.35 143.975 127.671 143.911 128.571 144.359C130.436 145.32 130.821 145.128 129.6 143.847C128.636 142.694 128.636 142.566 130.564 140.964C131.721 140.003 132.814 139.427 133.136 139.555C133.393 139.747 133.779 141.028 134.036 142.438C134.55 145.577 137.571 150.189 140.657 152.559C144.579 155.506 149.786 157.492 149.786 156.019C149.786 155.698 148.693 155.122 147.343 154.738C141.107 152.88 136.35 147.178 135 140.195C133.393 131.675 137.25 123.539 144.643 119.695C152.164 115.852 162.836 118.542 167.914 125.589C170.164 128.728 171.643 132.636 171.643 135.647C171.643 136.544 171.9 137.313 172.286 137.313C172.607 137.313 172.929 136.352 172.929 135.198C172.993 133.341 173.057 133.277 173.7 134.43C174.729 136.352 174.729 136.352 176.014 134.878C176.721 134.109 177.364 133.597 177.493 133.725C177.621 133.917 177.814 133.341 177.814 132.508C177.879 131.611 178.393 130.522 178.907 129.945C180.193 128.728 180.707 128.728 180.257 129.945C180 130.522 180.257 130.906 180.707 130.97C181.221 130.97 182.829 131.098 184.307 131.227C186.943 131.419 187.136 131.291 189.321 128.216C191.379 125.397 191.571 124.884 190.736 123.988C190.221 123.347 189.964 122.514 190.093 122.066C190.286 121.681 189.964 121.297 189.386 121.297C188.807 121.297 188.229 122.066 187.971 123.027C187.393 125.909 186.493 127.831 185.85 127.447C185.529 127.191 185.4 126.486 185.593 125.781C186.043 124.052 184.114 124.052 183.536 125.781C183.343 126.486 182.893 127.063 182.571 127.063C182.25 127.063 181.8 126.486 181.607 125.781C181.093 124.244 180.193 124.18 178.586 125.589C177.493 126.55 177.429 126.55 177.429 124.884C177.429 123.155 175.5 121.681 174.986 123.091C174.857 123.539 174.343 123.859 173.829 123.859C173.057 123.859 173.057 123.603 173.957 122.258C174.921 120.784 174.921 120.656 173.957 120.272C173.379 120.08 172.479 120.016 171.964 120.272C171.386 120.464 171 120.272 171 119.759C171 119.247 171.45 118.734 171.964 118.478C173.186 118.03 173.25 116.172 172.029 116.172C170.293 116.172 170.229 114.891 171.9 114.25C173.957 113.481 174.021 112.777 172.093 111.431L170.679 110.342L172.479 110.727C174.471 111.111 175.5 109.702 174.279 108.228C173.314 107.075 174.15 106.498 175.629 107.267C177.107 108.036 178.071 107.523 178.071 105.858C178.071 104.384 178.65 104.32 179.679 105.73C180.514 106.883 181.929 106.37 181.929 104.897C181.929 103.552 183.279 103.808 183.664 105.281C184.05 106.627 185.464 107.011 186.107 105.922C186.75 104.833 187.907 105.217 187.457 106.37C187.2 107.011 187.586 107.908 188.357 108.677C189.129 109.317 189.771 109.766 189.9 109.702C190.414 108.805 191.571 105.73 191.571 105.025C191.571 102.975 175.179 97.3375 168.107 96.8891C161.357 96.4406 150.171 96.9531 145.864 97.85C125.293 102.078 106.586 116.236 97.3929 134.43C94.5 140.131 91.2214 148.78 91.6714 149.548C91.8 149.805 93.9214 150.125 96.3643 150.253C99.9 150.509 101.7 151.086 105.043 152.944C107.421 154.225 109.414 155.25 109.543 155.25C109.671 155.25 109.993 153.905 110.25 152.175C111.407 144.359 117.321 134.045 123.686 128.792C127.093 125.973 134.229 121.617 134.743 122.066C134.871 122.258 132.943 123.603 130.436 125.141C124.843 128.408 121.5 131.355 118.157 135.903C114.107 141.348 110.571 150.061 110.571 154.609C110.571 156.275 114.043 159.094 116.036 159.094C116.55 159.094 117 159.35 117 159.67C117 160.375 113.464 159.478 112.243 158.517C110.829 157.364 103.114 154.673 102.471 155.122C101.893 155.506 101.829 156.403 102.086 159.158C102.214 160.247 104.4 163.066 105.043 163.002C106.329 162.809 106.714 163.066 106.714 163.898C106.714 165.116 109.35 165.756 112.371 165.18C114.75 164.795 114.75 164.795 113.207 165.884C112.371 166.461 110.379 167.294 108.707 167.742C107.1 168.191 105.814 168.831 105.879 169.28C106.007 169.664 105.879 169.92 105.557 169.856C105.3 169.792 104.079 170.113 102.857 170.561C101.636 171.073 100.414 171.458 100.157 171.522C99.9643 171.586 99.5143 171.778 99.2571 172.034C99 172.355 97.0071 172.547 94.8857 172.547C91.7357 172.547 90.45 172.867 88.3929 174.213L85.8214 175.814L87.5571 174.277C88.5214 173.38 89.9357 172.227 90.7071 171.65C92.1214 170.689 92.1214 170.625 91.0286 167.742C90.3857 166.141 89.6143 164.988 89.2929 165.244C88.9714 165.436 88.7143 165.18 88.65 164.731C88.5857 164.283 88.3286 164.603 88.0714 165.5C87.6214 166.845 87.5571 166.653 87.4286 164.219C87.3643 160.823 86.3357 155.506 86.2071 157.684C86.2071 158.517 85.8214 158.966 85.5 158.773C85.1143 158.517 84.8571 159.158 84.7929 160.183C84.7929 161.72 84.7286 161.784 84.2143 160.695C83.8286 159.67 83.6357 159.927 83.4429 161.977L83.1214 164.539L83.0571 161.784C82.9929 159.863 82.6071 158.902 81.8357 158.645C81.2571 158.389 80.6786 158.517 80.4857 158.966C80.3571 159.478 79.8429 159.478 78.6857 158.966C76.8214 158.133 76.6286 155.891 78.3 154.417C79.9071 152.944 84.6643 150.958 87.75 150.445C90.3214 150.061 90.3857 149.997 91.5429 146.089C93.4071 139.683 98.4857 129.689 102.729 124.052C114.943 107.972 133.971 97.4016 153.257 95.9281L158.464 95.4797V93.5578C158.464 91.1875 160.2 89.9063 161.807 90.9313C162.514 91.3797 162.9 92.4047 162.9 93.6219C162.771 95.4797 162.836 95.4797 167.207 95.9281C177.557 96.8891 188.614 100.669 197.486 106.37C198.45 106.947 199.35 107.331 199.543 107.139C200.186 106.498 198.129 96.825 197.1 95.736C196.521 95.0953 193.243 93.2375 189.707 91.5719C179.486 86.7031 166.5 83.5 154.479 82.9235C152.614 82.8594 152.357 83.0516 151.971 85.0375ZM146.7 86.511C147.343 86.6391 148.5 86.6391 149.271 86.511C150.107 86.3828 149.593 86.2547 148.179 86.2547C146.764 86.1906 146.121 86.3188 146.7 86.511ZM120.086 89.9063C118.286 91.5719 119.314 91.5719 121.821 89.9063C123.236 88.9453 123.429 88.625 122.593 88.625C121.95 88.625 120.857 89.2016 120.086 89.9063ZM117.514 92.8531C115.65 93.8141 113.336 95.0953 112.371 95.736C110.379 97.1453 109.479 97.3375 110.507 96.1203C110.893 95.6078 112.371 94.711 113.786 94.0703C116.421 92.9172 117.129 91.8281 115.393 91.8281C114.043 91.8281 109.286 94.2625 109.286 94.9672C109.286 95.2235 107.614 96.6969 105.557 98.1063C103.564 99.5797 99.45 103.039 96.4286 105.858L91.0286 110.983L92.8286 111.623C93.7929 112.008 95.0143 112.328 95.5929 112.328C96.1071 112.328 99.0643 110.022 102.086 107.139C105.171 104.32 110.314 100.22 113.593 98.1063C117 95.9281 119.379 93.9422 119.121 93.5578C118.929 93.1735 119.121 93.0453 119.636 93.1735C120.15 93.3656 121.371 92.661 122.4 91.636L124.264 89.8422L122.593 90.4828C121.693 90.8672 119.379 91.8922 117.514 92.8531ZM121.179 94.3906C120.986 94.711 121.05 95.0313 121.436 95.0313C121.757 95.0313 122.271 94.711 122.464 94.3906C122.657 94.0063 122.593 93.75 122.207 93.75C121.886 93.75 121.371 94.0063 121.179 94.3906ZM117.643 96.6969C117.643 96.825 118.221 96.6969 118.929 96.3125C119.636 95.9281 120.214 95.4797 120.214 95.2875C120.214 95.1594 119.636 95.2875 118.929 95.6719C118.221 96.0563 117.643 96.5047 117.643 96.6969ZM200.121 102.847C200.764 107.652 201.15 108.548 202.693 109.766C204.364 111.111 204.621 111.111 208.157 110.278C211.05 109.573 211.821 109.125 211.821 108.164C211.821 107.459 211.436 106.947 211.05 107.011C210.6 107.139 210.279 107.011 210.407 106.691C210.471 106.434 210.343 106.242 210.021 106.242C209.764 106.242 209.057 105.409 208.414 104.448C207.514 102.911 199.993 96.8891 199.479 97.2735C199.35 97.3375 199.671 99.836 200.121 102.847ZM109.479 101.886C107.421 103.488 103.629 106.819 101.057 109.317C96.1714 113.994 96.6214 113.866 91.6071 112.584C90.6429 112.328 90.7071 112.52 91.9286 113.225C95.0143 115.083 96.4286 114.506 102.214 109.061C105.236 106.242 109.543 102.655 111.857 100.989C117.064 97.3375 117.9 96.5047 115.264 97.85C114.107 98.4266 111.471 100.22 109.479 101.886ZM198.643 111.816C198.707 112.328 199.029 112.2 199.607 111.431C200.893 109.766 200.829 108.741 199.607 110.022C199.093 110.534 198.643 111.367 198.643 111.816ZM209.764 110.791C208.093 111.367 206.55 111.944 206.486 112.008C205.907 112.584 212.593 118.734 213.75 118.734C214.521 118.734 214.779 118.927 214.264 119.247C213.3 119.823 216 124.756 217.479 125.013C218.314 125.205 218.443 124.756 218.25 122.77C217.671 117.197 216.321 112.713 214.65 110.598C213.75 109.509 213.493 109.573 209.764 110.791ZM190.671 113.417C191.057 114.763 191.057 114.763 192.343 113.481C193.371 112.456 193.436 112.072 192.793 111.303C191.7 109.958 190.157 111.495 190.671 113.417ZM180.129 112.713C177.493 114.506 178.714 118.734 181.929 118.734C185.4 118.734 186.686 114.698 183.921 112.52C182.571 111.495 181.864 111.495 180.129 112.713ZM198.643 114.57C198.643 115.083 198.9 115.531 199.221 115.531C199.543 115.531 199.929 115.083 200.186 114.57C200.379 113.994 200.186 113.609 199.607 113.609C199.093 113.609 198.643 114.058 198.643 114.57ZM190.479 118.478C189.836 120.208 191.25 120.913 192.793 119.631C193.5 118.991 194.143 118.222 194.143 117.966C194.143 117.005 190.864 117.453 190.479 118.478ZM204.879 119.183C205.714 119.311 207 119.311 207.771 119.183C208.607 119.055 207.964 118.927 206.357 118.927C204.75 118.927 204.107 119.055 204.879 119.183ZM203.979 121.297C204.043 122.45 204.493 122.578 208.286 122.578C211.243 122.578 212.207 122.386 211.5 121.938C210.986 121.617 210.793 121.297 211.179 121.297C211.5 121.297 211.371 120.977 210.857 120.656C210.343 120.336 208.543 120.016 206.871 120.016C204.236 120.016 203.85 120.208 203.979 121.297ZM154.8 124.82C154.671 126.038 154.8 127.063 155.057 127.063C155.314 127.063 155.571 126.038 155.571 124.82C155.571 123.603 155.443 122.578 155.314 122.578C155.186 122.578 154.929 123.603 154.8 124.82ZM149.4 125.717C150.75 128.28 151.264 128.28 150.75 125.589C150.107 122.898 149.786 122.322 149.014 123.091C148.629 123.475 148.757 124.436 149.4 125.717ZM205.2 123.667C206.55 123.795 208.864 123.795 210.343 123.667C211.886 123.539 210.793 123.411 207.964 123.411C205.136 123.411 203.914 123.539 205.2 123.667ZM145.929 124.372C145.929 124.628 146.379 125.525 146.957 126.294C147.536 127.127 147.857 127.959 147.664 128.152C147.471 128.28 146.829 127.703 146.25 126.806C145.607 125.909 144.707 125.141 144.257 125.141C142.971 125.141 143.164 125.781 145.029 127.767C146.443 129.241 146.893 129.369 148.114 128.792C149.593 128.088 149.593 128.023 148.629 125.973C147.729 124.116 145.929 123.027 145.929 124.372ZM205.2 124.948C206.55 125.077 208.864 125.077 210.343 124.948C211.886 124.82 210.793 124.692 207.964 124.692C205.136 124.692 203.914 124.82 205.2 124.948ZM194.786 130.842C194.786 131.547 195.3 131.227 196.393 129.945C198.45 127.447 198.45 126.422 196.393 128.344C195.493 129.177 194.786 130.33 194.786 130.842ZM141.429 127.703C141.429 128.408 145.157 130.906 146.186 130.906C146.571 130.906 145.993 130.009 144.964 128.984C143.1 127.063 141.429 126.486 141.429 127.703ZM205.329 128.92C205.521 129.241 204.429 129.945 202.95 130.522C200.057 131.611 194.593 136.48 193.114 139.363C192.343 140.836 192.343 141.092 193.307 141.413C194.207 141.797 195.364 140.9 195.429 139.875C195.429 138.914 200.186 134.622 202.629 133.341C206.743 131.163 215.1 131.227 219.471 133.469C231.3 139.491 232.007 157.3 220.629 164.731C219.857 165.244 219.021 165.5 218.829 165.308C218.636 165.116 219.343 164.475 220.5 163.898C221.657 163.322 222.364 162.681 222.236 162.489C221.593 161.913 218.121 164.731 218.121 165.756C218.121 167.038 218.121 167.038 221.207 165.5C224.743 163.642 228.536 159.542 229.886 156.211C231.043 153.136 230.914 145.577 229.693 145.192C229.307 145.064 229.114 144.423 229.307 143.783C229.693 142.373 228.986 140.836 225.836 136.288C222.429 131.227 216.514 128.472 209.057 128.408C206.807 128.344 205.136 128.6 205.329 128.92ZM149.207 130.65C148.371 131.227 147.343 132.636 146.829 133.853C144.9 138.402 148.114 143.27 153.064 143.27C155.379 143.27 156.15 142.886 158.014 140.9C160.65 137.953 160.329 137.12 157.629 139.875C156.536 140.9 155.186 141.861 154.671 141.861C154.093 141.925 153.257 141.989 152.807 142.053C150.043 142.438 147.021 138.53 147.664 135.198C148.114 132.892 150.75 130.906 153.386 130.906C156.6 130.906 157.564 131.483 158.85 134.366C159.814 136.416 160.071 136.672 160.071 135.455C160.071 134.622 159.171 133.084 157.886 131.803C156.15 130.073 155.186 129.625 153.193 129.625C151.843 129.625 150.043 130.073 149.207 130.65ZM140.143 130.266C140.143 130.586 140.207 130.906 140.336 130.906C140.4 130.906 141.429 131.163 142.586 131.483C144.964 132.188 145.35 131.419 143.164 130.394C141.364 129.497 140.143 129.433 140.143 130.266ZM138.921 133.661C139.564 134.238 144.643 134.75 144.643 134.238C144.643 133.469 139.95 132.316 139.243 132.956C138.921 133.213 138.729 133.533 138.921 133.661ZM204.429 133.469C203.914 133.789 203.721 134.109 204.107 134.109C204.429 134.109 205.2 133.789 205.714 133.469C206.229 133.148 206.357 132.828 206.036 132.828C205.65 132.828 204.943 133.148 204.429 133.469ZM179.357 133.789C179.357 133.917 179.936 133.981 180.579 133.917C181.286 133.917 181.736 133.597 181.543 133.341C181.286 132.956 179.357 133.341 179.357 133.789ZM150.429 133.789C149.979 134.302 149.593 135.455 149.593 136.352C149.593 138.594 150.879 139.875 153.193 139.875C156.407 139.875 157.95 136.416 155.764 133.981C154.479 132.572 151.521 132.444 150.429 133.789ZM203.979 135.711C199.993 137.697 198 140.259 196.457 145.256C195.043 149.805 195.429 154.93 197.55 158.709C198.9 161.144 207.064 168.063 208.607 168.063C209.057 168.063 209.314 166.781 209.379 164.859L209.443 161.656L206.743 161.208L204.107 160.695L206.679 160.375L209.25 160.055L209.314 153.584L209.443 147.178L205.971 147.434L202.5 147.691L203.207 145.705C204.107 143.206 204.814 142.758 206.229 143.847C207.193 144.552 207.193 144.552 206.55 143.719C206.164 143.142 205.971 142.373 206.229 141.989C207.064 140.772 211.629 137.953 212.914 137.953C215.614 137.953 218.507 139.939 219.857 142.758C221.464 146.025 221.014 147.563 218.507 147.563C217.479 147.563 216.643 147.883 216.643 148.331C216.643 148.972 216.514 148.972 216.064 148.331C215.164 146.922 214.843 149.292 214.779 158.133C214.779 164.283 214.907 166.205 215.55 165.948C216.129 165.756 216.321 163.45 216.321 157.62C216.321 152.816 216.579 149.548 216.9 149.677C217.286 149.805 217.479 152.688 217.35 156.339C217.286 159.927 217.479 162.938 217.8 163.13C218.636 163.706 223.2 159.734 222.879 158.773C222.686 158.389 222.814 157.62 223.2 157.108C223.714 156.403 223.779 156.467 223.457 157.364C223.264 158.069 223.329 158.389 223.779 158.133C224.1 157.877 224.229 157.172 224.036 156.531C223.843 155.827 224.036 155.25 224.679 154.994C225.193 154.802 225.643 154.353 225.643 153.969C225.643 153.584 225.321 153.456 224.936 153.713C224.357 154.033 224.293 153.648 224.743 152.303C225.064 151.278 225.257 148.908 225.129 146.986C224.743 136.864 213.621 130.97 203.979 135.711ZM138.857 135.967C138.857 136.864 143.421 137.505 144.193 136.736C144.643 136.288 144.129 136.095 142.521 136.159C141.171 136.223 139.95 136.031 139.693 135.839C139.114 135.263 138.857 135.263 138.857 135.967ZM179.357 137.377C179.357 138.145 181.221 138.914 181.736 138.402C181.929 138.145 181.929 137.569 181.736 137.056C181.35 136.031 179.357 136.352 179.357 137.377ZM162 137.825C162 138.338 165.729 139.875 167.014 139.875C167.464 139.875 167.786 139.555 167.786 139.17C167.786 138.85 167.529 138.658 167.207 138.914C166.821 139.106 165.6 138.85 164.443 138.338C163.286 137.825 162.257 137.377 162.129 137.377C162.064 137.313 162 137.569 162 137.825ZM140.85 138.338C138.536 138.786 138.15 139.875 140.271 139.875C142.007 139.811 145.543 138.017 143.936 137.953C143.357 137.953 141.943 138.145 140.85 138.338ZM142.2 141.284C140.914 142.053 140.207 142.758 140.657 142.95C141.557 143.206 145.286 141.284 145.286 140.516C145.286 139.555 144.707 139.747 142.2 141.284ZM182.121 142.245C181.736 143.206 181.671 143.206 181.221 142.053C180.836 141.028 180.707 141.092 180.707 142.502C180.643 144.039 180.9 144.231 183.664 144.552C185.4 144.744 187.393 145.128 188.164 145.32C189.386 145.705 189.643 145.577 189.643 144.359C189.643 143.398 189.321 143.078 188.743 143.27C188.229 143.463 187.65 143.334 187.457 142.886C187.264 142.309 186.943 142.373 186.493 143.078C185.914 143.911 185.786 143.911 185.786 142.886C185.786 141.605 184.757 141.413 184.307 142.566C184.114 143.078 183.921 142.95 183.921 142.245C183.857 140.836 182.636 140.836 182.121 142.245ZM178.071 143.142C178.071 143.783 178.329 144.359 178.714 144.359C179.036 144.359 179.357 143.591 179.357 142.694C179.357 141.797 179.1 141.22 178.714 141.477C178.329 141.669 178.071 142.438 178.071 143.142ZM176.079 142.566C176.079 143.206 175.95 143.206 175.693 142.566C175.243 141.413 174.214 141.605 174.15 142.886C174.15 143.591 173.957 143.719 173.764 143.206C173.314 142.053 172.286 142.245 172.286 143.527C172.286 144.488 172.157 144.552 171.643 143.719C171.129 142.95 171 143.078 171 144.231C171 145.32 171.257 145.641 172.093 145.384C172.736 145.256 174.214 144.936 175.307 144.68C176.85 144.359 177.429 143.911 177.429 143.014C177.429 141.669 176.207 141.284 176.079 142.566ZM143.486 143.911C142.2 146.538 142.843 146.538 144.9 143.975C146.443 142.053 146.507 141.733 145.543 141.925C144.9 142.053 143.936 142.95 143.486 143.911ZM226.286 144.616C227.957 148.972 226.414 157.044 223.264 160.503C222.686 161.144 222.364 161.848 222.557 162.041C223.071 162.553 225.257 159.222 226.479 156.019C227.7 152.88 227.893 147.434 226.864 144.423C226.479 143.27 226.029 142.502 225.9 142.63C225.707 142.758 225.9 143.655 226.286 144.616ZM192.471 145.32C192.086 148.075 191.314 149.036 190.8 147.498C190.671 147.114 189.836 146.666 189 146.538C188.1 146.473 186.364 146.025 185.143 145.705C180.579 144.295 174.214 145.256 168.429 148.203C163.479 150.702 156.214 159.35 157.757 160.888C158.014 161.144 158.657 160.759 159.107 160.055C164.379 152.431 168.3 149.484 175.821 147.563C179.036 146.73 181.029 146.473 181.157 146.922C181.286 147.242 182.186 147.563 183.15 147.563C186.621 147.563 191.7 149.484 192.15 150.958C192.407 151.919 192.664 151.086 192.921 148.523C193.114 146.409 193.5 144.167 193.757 143.527C194.079 142.886 194.014 142.438 193.629 142.438C193.243 142.438 192.729 143.719 192.471 145.32ZM163.093 143.142C159.943 144.808 155.893 148.652 153.579 152.239C150.879 156.403 150.557 157.492 152.036 158.005C152.614 158.261 153.386 157.428 154.414 155.442C156.279 151.663 160.457 147.05 163.864 145C165.279 144.103 166.5 143.206 166.5 142.886C166.5 142.181 164.7 142.309 163.093 143.142ZM145.414 145.641C144.514 148.075 145.414 148.203 146.379 145.769C147.021 144.167 147.021 144.231 146.829 146.602C146.571 148.844 146.636 148.972 147.279 147.755C148.05 146.281 147.536 142.822 146.636 143.398C146.314 143.591 145.736 144.552 145.414 145.641ZM162.257 147.178C158.271 150.317 154.736 155.25 154.543 157.877C154.35 160.888 155.636 160.247 158.657 155.763C160.971 152.367 165.214 148.523 168.236 147.05C170.229 146.089 170.293 145.961 169.264 144.872C167.914 143.334 166.371 143.847 162.257 147.178ZM194.143 148.139C194.143 150.189 194.529 149.677 195.043 146.922C195.3 145.32 195.236 144.936 194.786 145.641C194.464 146.153 194.143 147.306 194.143 148.139ZM152.357 147.563C152.357 148.972 152.614 150.125 153 150.125C153.707 150.125 153.9 146.089 153.193 145.448C152.486 144.68 152.357 144.936 152.357 147.563ZM149.143 147.627C149.143 149.164 149.4 150.061 149.786 149.805C150.107 149.613 150.429 148.395 150.429 147.178C150.429 145.961 150.107 145 149.786 145C149.4 145 149.143 146.153 149.143 147.627ZM212.143 156.788C212.143 161.913 212.4 166.205 212.721 166.397C213.686 167.038 214.071 164.155 214.071 155.698C214.071 148.908 213.943 147.563 213.107 147.563C212.271 147.563 212.143 149.036 212.143 156.788ZM210.214 157.172C210.214 163.13 210.471 166.781 210.857 166.781C211.243 166.781 211.5 163.13 211.5 157.172C211.5 151.214 211.243 147.563 210.857 147.563C210.471 147.563 210.214 151.214 210.214 157.172ZM176.143 148.203C175.307 148.78 175.307 148.844 176.143 148.844C176.657 148.844 177.557 148.523 178.071 148.203C178.907 147.627 178.907 147.563 178.071 147.563C177.557 147.563 176.657 147.883 176.143 148.203ZM170.421 150.125C166.693 151.983 161.871 157.044 159.943 161.016C158.979 162.938 158.207 164.027 158.207 163.386C158.143 162.169 156.857 161.848 156.793 163.066C156.793 163.642 156.664 163.642 156.471 163.194C156.279 162.745 155.571 162.553 154.929 162.745C152.679 163.322 152.164 173.572 154.35 173.444C155.121 173.38 155.571 174.084 155.829 175.942C156.471 179.786 158.4 183.758 161.421 187.345C164.507 191.061 171.257 194.584 177.107 195.673C187.329 197.531 198.579 191.445 202.886 181.772C204.171 178.825 204.364 177.672 204.043 174.917L203.593 171.586L202.371 176.391C200.443 184.142 196.779 188.627 189.707 191.894C186.3 193.495 184.757 193.816 180.707 193.752C175.05 193.752 171.386 192.663 166.757 189.523C160.65 185.359 158.079 180.427 157.629 171.97C157.436 168.447 157.564 165.82 157.95 165.564C158.271 165.372 159.493 163.45 160.65 161.272C163.157 156.531 166.243 153.392 171 150.83C174.857 148.652 174.343 148.075 170.421 150.125ZM194.336 153.777C194.529 154.417 194.657 154.033 194.657 153.008C194.657 151.919 194.529 151.47 194.336 151.855C194.207 152.303 194.207 153.2 194.336 153.777ZM179.1 152.367C178.907 152.944 177.943 153.328 176.786 153.328C172.671 153.328 165.986 158.325 163.671 163.194C160.843 169.216 161.357 176.903 165.021 181.323C168.107 185.167 168.75 185.295 171.129 182.989C172.993 181.067 173.121 180.811 172.157 179.786C170.164 177.544 169.071 174.469 169.071 171.266C169.071 159.798 183.6 155.442 189.386 165.244C193.436 172.163 188.871 180.619 181.221 180.491C178.329 180.491 177.75 180.17 175.307 177.8C172.736 175.238 172.607 174.917 172.607 171.33C172.607 169.216 172.8 167.358 172.993 167.166C173.186 166.909 174.214 167.038 175.243 167.422C176.271 167.806 176.914 167.934 176.657 167.742C175.95 167.038 177.621 165.628 178.714 166.013C179.486 166.269 179.55 166.141 178.843 165.436C177.621 164.091 177.943 162.938 179.486 163.002C180.643 163.066 180.707 163.13 179.807 163.386C178.136 163.834 178.907 165.18 180.836 165.18C181.736 165.116 182.379 165.308 182.186 165.564C182.057 165.82 182.636 166.461 183.536 167.038C186.686 169.088 184.757 175.109 180.964 175.109C178.779 175.109 177.429 174.469 177.429 173.444C177.429 172.419 178.457 172.227 179.036 173.188C179.614 174.148 182.314 173.956 183.15 172.931C184.436 171.394 183.729 168.511 181.8 167.486C180.193 166.589 179.936 166.589 178.521 167.934C177.364 169.023 176.85 170.305 176.593 173.059C176.143 177.223 176.657 178.12 179.807 178.697C186.171 179.914 190.993 172.739 187.971 166.461C185.336 160.888 176.979 159.863 173.057 164.667C169.393 169.152 169.779 174.661 174.086 179.145C177.879 182.989 183.279 183.566 188.229 180.555C189.386 179.85 189.129 180.234 187.457 181.708C185.529 183.438 184.371 183.886 182.057 184.014C180.45 184.078 178.971 184.27 178.779 184.463C178.586 184.719 179.614 184.783 181.093 184.591C182.571 184.463 183.6 184.591 183.279 184.911C182.507 185.68 177.75 185.167 177.879 184.334C177.943 183.95 177.686 183.63 177.236 183.566C176.786 183.566 175.821 183.309 175.114 183.117C174.086 182.797 173.121 183.181 171.643 184.591C169.329 186.577 169.457 187.922 171.964 187.922C172.8 187.922 173.636 188.178 173.829 188.498C174.021 188.819 175.629 189.395 177.429 189.844C179.936 190.42 181.35 190.42 183.986 189.844C193.436 187.538 199.029 179.85 198.514 169.792C198.321 165.5 198.257 165.436 194.143 166.397C192.857 166.653 192.407 166.397 191.764 165.18C191.379 164.283 191.314 163.578 191.636 163.578C191.893 163.578 192.021 163.13 191.829 162.617C191.571 162.041 190.993 161.72 190.479 161.784C189.964 161.913 189.064 161.272 188.486 160.375L187.457 158.773L188.871 159.991C190.157 161.08 190.414 161.144 191.186 160.311C192.214 159.222 192.986 153.328 192.086 153.328C191.764 153.328 190.929 153.969 190.221 154.738C189.579 155.57 189.064 155.891 189 155.442C189 153.905 182.057 152.111 181.221 153.456C180.836 154.033 180.643 153.841 180.643 152.816C180.643 151.214 179.679 150.894 179.1 152.367ZM98.4857 157.62C98.3571 159.478 98.55 160.311 99.2571 160.567C100.093 160.888 100.286 160.375 100.286 157.748C100.286 153.777 98.8071 153.648 98.4857 157.62ZM95.9786 157.62C96.1714 158.261 96.3 157.748 96.3 156.531C96.3 155.314 96.1714 154.802 95.9786 155.378C95.85 156.019 95.85 157.044 95.9786 157.62ZM93.4071 158.581C93.5357 159.414 93.6643 158.773 93.6643 157.172C93.6643 155.57 93.5357 154.93 93.4071 155.698C93.2786 156.531 93.2786 157.813 93.4071 158.581ZM88.9071 159.542C89.0357 160.567 89.1643 159.863 89.1643 158.133C89.1643 156.339 89.0357 155.57 88.9071 156.339C88.7786 157.172 88.7786 158.581 88.9071 159.542ZM193.436 158.261C194.207 159.542 194.336 159.158 193.757 157.492C193.5 156.916 193.179 156.595 193.05 156.788C192.857 156.916 193.05 157.62 193.436 158.261ZM148.886 170.945C148.95 177.288 149.143 178.441 150.814 182.156C153.064 187.153 154.993 190.484 155.7 190.484C156.021 190.484 155.507 189.331 154.607 187.922C153.643 186.448 153.193 184.975 153.45 184.334C153.707 183.566 153.643 183.373 153.064 183.694C152.036 184.334 150.557 180.619 149.657 174.789C148.95 170.241 149.336 165.692 150.75 161.336C150.943 160.631 150.621 160.888 149.979 161.977C149.079 163.514 148.886 165.244 148.886 170.945ZM228.857 161.656C228.857 161.977 229.114 162.297 229.5 162.297C229.821 162.297 230.143 161.977 230.143 161.656C230.143 161.272 229.821 161.016 229.5 161.016C229.114 161.016 228.857 161.272 228.857 161.656ZM136.286 164.283C136.286 164.988 136.543 165.372 136.929 165.18C137.25 164.988 137.571 164.219 137.571 163.514C137.571 162.809 137.25 162.425 136.929 162.617C136.543 162.809 136.286 163.578 136.286 164.283ZM96.8143 165.244C96.2357 165.756 95.7857 166.909 95.7857 167.678C95.7857 170.305 94.8214 170.113 94.1143 167.294L93.4071 164.539L92.8929 166.909C92.1214 170.881 93.7286 172.611 95.9786 170.305C96.4929 169.792 97.0714 169.6 97.3286 169.792C97.9071 170.369 104.207 167.294 103.95 166.525C103.757 165.948 100.093 164.347 98.55 164.283C98.1643 164.219 97.3286 164.667 96.8143 165.244ZM138.857 166.525C138.857 167.102 139.179 167.422 139.629 167.294C140.786 166.909 140.979 165.5 139.886 165.5C139.307 165.5 138.857 165.948 138.857 166.525ZM219.857 167.806C219.857 168.383 220.179 168.703 220.629 168.575C221.786 168.191 221.979 166.781 220.886 166.781C220.307 166.781 219.857 167.23 219.857 167.806ZM217.093 176.263C215.229 177.544 214.071 178.953 214.071 180.106C214.071 180.811 214.264 180.875 214.971 180.298C215.743 179.658 215.807 179.786 215.486 181.003C215.164 182.348 215.229 182.413 216.386 181.58C219.086 179.53 221.914 176.583 223.2 174.597C224.486 172.547 224.486 172.419 223.329 171.65C222.3 170.881 221.979 171.009 220.371 173.059C219.343 174.341 217.864 175.75 217.093 176.263ZM212.143 175.302C212.143 177.416 209.893 184.142 207.964 187.922C206.357 191.061 201.343 196.122 197.486 198.62C193.436 201.183 193.114 201.952 196.843 200.03C200.314 198.236 206.679 192.214 208.736 188.691C211.95 183.245 214.586 173.188 212.786 173.188C212.4 173.188 212.143 174.148 212.143 175.302ZM215.743 174.213C214.65 174.597 214.329 175.75 215.229 175.75C215.55 175.75 216.321 175.302 217.029 174.789C218.25 173.828 217.543 173.508 215.743 174.213ZM220.95 181.388C221.143 182.028 221.979 183.309 222.75 184.398C225.193 187.794 225.193 188.434 222.686 188.947C220.757 189.267 220.5 189.523 220.886 190.741C221.143 191.445 221.336 192.727 221.271 193.559C221.207 194.648 221.914 195.481 224.1 196.891C227.829 199.197 228.857 198.556 228.857 193.816C228.857 188.178 227.7 183.886 225.9 182.541C224.936 181.836 223.907 180.939 223.521 180.555C222.493 179.466 220.5 180.106 220.95 181.388ZM216.643 182.925L214.779 184.27L216 185.872C218.379 188.883 217.221 194.136 213.686 196.698C212.721 197.403 212.079 198.3 212.207 198.748C212.593 199.902 217.286 195.673 218.314 193.303C218.829 192.086 219.214 190.292 219.214 189.203C219.214 188.178 219.407 187.281 219.664 187.281C219.986 187.281 220.564 187.025 221.079 186.705C221.786 186.256 221.721 185.744 220.564 183.822C219.729 182.541 218.957 181.516 218.829 181.516C218.636 181.516 217.671 182.156 216.643 182.925ZM155.829 183.758C156.407 184.334 156.857 184.591 156.857 184.27C156.857 183.502 155.443 182.092 155.057 182.477C154.929 182.605 155.25 183.181 155.829 183.758ZM104.593 185.68C104.529 186 104.979 186.384 105.557 186.513C106.264 186.641 106.714 186.32 106.714 185.68C106.714 184.591 104.786 184.527 104.593 185.68ZM201.214 188.114C201.214 188.37 201.6 188.242 202.114 187.794C202.629 187.345 202.886 186.705 202.693 186.384C202.371 185.872 201.214 187.153 201.214 188.114ZM135.064 197.339C134.936 197.467 134.936 197.723 135.193 197.916C135.643 198.428 146.571 189.395 146.571 188.498C146.571 188.178 144.064 189.972 140.914 192.47C137.829 195.033 135.193 197.211 135.064 197.339ZM198.643 189.844C198.643 190.164 199.157 190.484 199.736 190.484C200.7 190.484 200.764 190.356 199.929 189.844C198.707 189.075 198.643 189.075 198.643 189.844ZM157.564 192.791C159.493 194.841 162.643 197.147 163.029 196.763C163.286 196.442 156.921 191.189 156.279 191.125C156.086 191.125 156.664 191.894 157.564 192.791ZM150.557 194.264C150.686 194.969 149.336 196.57 146.7 198.748L142.714 202.08V206.116C142.714 208.358 142.264 211.241 141.75 212.458C141.236 213.739 140.786 216.238 140.786 218.031C140.786 220.658 140.464 221.555 138.986 223.028C138.021 223.989 137.636 224.309 138.15 223.669C139.564 221.811 138.407 222.323 135.836 224.694C134.036 226.295 131.657 227.384 126.643 228.858C122.914 230.011 117.579 231.677 114.75 232.638C109.607 234.303 105.814 236.866 106.329 238.275C106.521 238.723 106.007 239.172 105.3 239.364C104.593 239.556 104.207 240.005 104.464 240.389C104.657 240.773 104.464 241.094 103.95 241.094C102.536 241.094 102.021 243.016 103.371 243.016C103.95 243.08 103.5 243.464 102.279 244.041C101.057 244.553 100.286 245.13 100.479 245.386C100.929 245.834 104.593 244.873 125.679 238.788L139.821 234.688L147.536 226.808C156.6 217.583 161.036 212.778 158.786 214.508C157.886 215.213 157.05 215.917 156.857 216.109C156.664 216.302 154.157 218.608 151.393 221.234L146.25 226.039L150.75 221.298C153.257 218.736 156.343 215.533 157.693 214.316C160.264 211.945 162.386 208.55 161.743 207.909C161.55 207.717 160.65 208.23 159.814 208.998C157.436 211.241 158.079 208.998 160.586 206.116C161.871 204.706 162.643 203.105 162.643 202.016C162.643 199.133 161.421 199.133 160.971 201.952C160.714 203.681 160.071 204.898 159.043 205.539C157.179 206.756 157.114 206.308 158.85 203.873C159.557 202.848 159.879 202.016 159.493 202.016C159.171 202.016 158.593 202.528 158.207 203.105C157.757 203.938 157.693 203.169 157.95 200.542C158.207 198.108 158.079 196.891 157.629 196.891C156.407 196.891 155.957 198.428 155.507 203.938L155.121 209.383L155.057 204.322C154.929 199.773 154.8 199.389 153.9 200.158C153.321 200.606 153.129 201.119 153.514 201.247C153.9 201.375 154.029 202.784 153.836 204.898C153.643 206.948 153.771 208.742 154.157 209.191C154.607 209.767 154.543 210.28 153.964 210.792C153.064 211.561 152.743 210.6 151.907 205.027C151.457 202.016 150.236 202.272 149.721 205.475C149.079 209.447 147.857 209.831 147.857 206.116C147.857 203.297 148.05 202.784 149.4 202.144C151.779 201.055 153.321 198.364 153.064 195.673C152.871 193.367 151.971 192.15 150.879 192.855C150.621 192.983 150.429 193.688 150.557 194.264ZM154.479 196.378C154.671 196.827 154.8 196.506 154.8 195.609C154.8 194.713 154.671 194.392 154.479 194.777C154.35 195.225 154.35 195.994 154.479 196.378ZM213.943 199.261C213.107 200.286 210.793 201.888 208.864 202.913C204.621 205.155 203.786 205.859 205.329 205.859C206.743 205.859 212.786 202.656 212.786 201.888C212.786 201.631 213.107 201.375 213.557 201.375C214.586 201.375 216.643 199.389 216.643 198.364C216.643 197.019 215.614 197.403 213.943 199.261ZM167.786 198.492C167.786 199.581 174.407 201.503 178.714 201.695L183.536 201.952L179.229 201.375C174.6 200.798 170.421 199.645 169.393 198.748C168.75 198.108 167.786 197.98 167.786 198.492ZM206.679 200.734C204.557 201.759 203.336 202.656 203.914 202.656C205.329 202.656 210.857 200.03 210.857 199.325C210.857 198.62 211.05 198.556 206.679 200.734ZM131.207 199.005C131.336 199.133 132.621 199.902 134.036 200.67L136.607 202.144L134.679 200.478C133.586 199.581 132.364 198.813 131.85 198.813C131.336 198.813 131.079 198.877 131.207 199.005ZM130.629 201.247C130.05 201.631 130.693 202.4 132.75 203.873C134.357 205.027 135.643 206.18 135.643 206.5C135.643 206.756 136.35 206.948 137.186 206.884C138.471 206.82 138.6 206.628 138.021 205.859C136.8 204.322 134.164 202.336 133.264 202.336C132.879 202.336 132.3 202.08 131.979 201.759C131.657 201.439 131.85 201.375 132.364 201.695C132.943 202.016 133.136 201.952 132.814 201.503C132.3 200.606 131.786 200.542 130.629 201.247ZM166.179 205.347C164.571 207.269 164.507 207.461 165.6 207.845C166.693 208.294 166.693 208.358 165.471 208.358C164.7 208.422 163.736 208.87 163.286 209.383C162.45 210.408 162.643 210.536 165.214 210.472L166.821 210.408L165.021 211.113C162.964 212.009 162.771 212.906 164.636 212.906C165.343 212.906 165.729 212.586 165.536 212.266C165.343 211.881 165.729 211.625 166.5 211.625C168.171 211.625 170.421 210.472 171.386 209.191C171.836 208.614 172.414 208.422 172.929 208.742C173.443 209.063 173.636 208.998 173.379 208.678C173.186 208.358 174.021 207.333 175.307 206.5C178.457 204.322 176.786 204.13 172.35 206.116C170.293 207.013 168.171 207.781 167.721 207.717C167.207 207.717 168.043 207.205 169.586 206.564C172.671 205.347 173.121 204.45 170.871 203.809C168.3 203.105 167.914 203.233 166.179 205.347ZM175.5 207.589C175.5 208.038 179.421 205.603 180.193 204.642C180.643 204.13 179.743 204.514 178.2 205.539C176.721 206.5 175.5 207.461 175.5 207.589ZM185.014 209.127C184.307 210.664 184.179 211.561 184.693 212.138C185.143 212.714 184.886 213.419 183.6 214.764L181.864 216.622L183.793 217.967L185.786 219.377L186.493 217.903C187.007 216.622 187.521 216.43 189.321 216.622C192.086 216.942 195.236 215.597 195.814 213.867C196.971 210.472 196.714 208.998 194.786 207.013C193.693 205.923 192.407 205.219 191.893 205.475C191.379 205.667 190.8 205.539 190.607 205.219C189.964 204.194 186.171 206.82 185.014 209.127ZM159.75 207.781C159.107 208.486 158.721 209.063 158.914 209.063C159.107 209.063 159.75 208.486 160.393 207.781C161.036 207.077 161.421 206.5 161.229 206.5C161.036 206.5 160.393 207.077 159.75 207.781ZM122.979 208.166C121.821 209.063 120.857 210.216 120.857 210.792C120.857 211.625 121.179 211.561 122.464 210.344C123.429 209.447 124.779 208.87 126 208.934C128.443 208.998 129.021 209.383 130.243 211.753C131.079 213.291 131.079 213.995 130.5 215.533C129.664 217.519 127.286 219.313 125.486 219.313C123.236 219.313 120.921 216.878 120.664 214.316C120.471 212.073 120.407 212.138 120.343 214.892C120.214 217.903 121.05 219.12 124.521 221.042C126.514 222.131 130.05 220.978 132.107 218.544C133.586 216.75 133.843 216.045 133.521 213.355C132.943 207.205 127.736 204.578 122.979 208.166ZM138.021 211.945C138.6 215.469 137.7 218.416 135.321 220.85C132.814 223.477 131.014 224.438 125.1 226.359C121.886 227.384 120.921 227.961 121.629 228.345C122.85 228.986 131.85 226.68 132.75 225.463C133.136 224.95 133.971 224.502 134.614 224.373C135.836 224.117 136.479 223.22 137.186 220.978C137.507 220.017 137.764 219.953 138.536 220.594C139.05 221.042 139.5 221.17 139.564 220.85C140.336 210.408 140.143 207.717 138.6 208.998C137.957 209.511 137.764 210.472 138.021 211.945ZM174.6 217.455C172.671 229.563 172.157 232.445 171.836 232.766C171.643 232.958 171.643 231.036 171.836 228.602L172.221 224.117L171.321 228.922C170.293 234.367 170.164 237.314 171 234.688C171.45 233.278 171.514 233.214 171.579 234.431C171.643 235.2 171.45 236.802 171.193 237.955L170.743 240.133L170.357 238.211C170.036 236.738 169.65 238.083 168.493 243.977C167.721 248.205 166.629 253.65 166.114 256.148C163.414 269.153 162.514 275.175 163.157 275.816C164.25 276.905 165.664 275.367 166.05 272.613C166.243 271.331 167.464 264.605 168.75 257.75C171.579 242.567 171.643 242.183 174.15 225.27C176.271 210.664 176.271 210.6 175.821 211.048C175.693 211.241 175.114 214.123 174.6 217.455ZM122.786 213.483C122.786 215.02 124.457 216.366 125.743 215.853C127.157 215.341 126.707 212.522 125.164 212.778C124.586 212.906 124.071 212.65 124.071 212.266C124.071 211.881 123.75 211.753 123.429 211.945C123.043 212.138 122.786 212.842 122.786 213.483ZM137.121 214.316C137.314 214.764 137.443 214.444 137.443 213.547C137.443 212.65 137.314 212.33 137.121 212.714C136.993 213.163 136.993 213.931 137.121 214.316ZM210.857 214.123C211.5 215.469 212.786 216.494 212.786 215.789C212.786 214.892 211.436 212.906 210.793 212.906C210.407 212.906 210.407 213.355 210.857 214.123ZM204.429 218.544C204.429 218.864 204.879 219.12 205.393 219.12C205.907 219.12 206.357 218.864 206.357 218.544C206.357 218.288 205.907 218.031 205.393 218.031C204.879 218.031 204.429 218.288 204.429 218.544ZM132.75 221.234C132.107 221.939 131.721 222.516 131.914 222.516C132.107 222.516 132.75 221.939 133.393 221.234C134.036 220.53 134.421 219.953 134.229 219.953C134.036 219.953 133.393 220.53 132.75 221.234ZM180.643 222.388C180.643 223.156 182.507 225.527 182.571 224.758C182.571 224.373 182.829 224.502 183.15 224.95C183.536 225.591 183.793 225.463 184.05 224.438C184.307 223.413 184.05 222.9 183.021 222.516C181.157 221.811 180.643 221.747 180.643 222.388ZM119.571 224.758C119.571 225.847 122.271 226.68 123.879 226.039C124.843 225.719 124.586 225.463 122.786 224.758C119.764 223.669 119.571 223.669 119.571 224.758ZM199.414 247.372C199.543 262.811 199.8 267.616 200.379 267.872C201.021 268.064 201.214 263.58 201.214 246.859C201.214 227.897 201.086 225.655 200.25 226.359C199.414 227.064 199.286 229.947 199.414 247.372ZM195.429 228.602C195.429 229.114 195.043 229.563 194.529 229.563C194.014 229.563 193.371 229.883 193.114 230.331C192.793 230.844 193.114 230.908 194.014 230.716C195.364 230.331 195.429 230.523 195.429 234.752C195.429 238.98 195.364 239.236 192.986 241.478C190.736 243.656 190.736 243.72 192.664 242.439C193.757 241.67 194.85 241.094 195.043 241.094C195.236 241.094 195.429 243.592 195.429 246.667L195.364 252.305L192.664 254.227C191.186 255.252 189.771 256.02 189.45 255.956C189.193 255.892 189 256.405 189 257.173C189 258.391 189.193 258.391 191.7 256.533C193.179 255.444 194.657 254.547 194.914 254.547C195.171 254.547 195.429 256.405 195.429 258.647C195.429 261.402 195.75 262.939 196.329 263.516C197.164 264.156 197.293 261.85 197.357 245.963C197.357 229.947 197.293 227.641 196.393 227.641C195.879 227.641 195.429 228.089 195.429 228.602ZM179.807 229.883C178.521 230.78 176.979 232.381 176.464 233.406C175.371 235.52 175.757 238.852 177.3 240.581C177.814 241.222 178.007 241.734 177.686 241.734C177.3 241.734 176.336 240.902 175.5 239.813C173.314 237.25 172.8 237.442 173.057 240.581C173.186 242.823 173.636 243.528 175.436 244.745C184.629 250.895 195.429 236.994 187.007 229.947C184.564 227.833 182.893 227.833 179.807 229.883ZM155.121 234.816C155.314 235.264 155.443 234.944 155.443 234.047C155.443 233.15 155.314 232.83 155.121 233.214C154.993 233.663 154.993 234.431 155.121 234.816ZM155.379 239.364C155.057 241.478 155.186 241.863 156.6 242.503C158.593 243.4 158.721 243.208 159.236 239.3C159.557 236.481 159.429 236.033 158.4 235.841C156.729 235.456 155.764 236.481 155.379 239.364ZM179.743 249.102C177.879 248.909 176.786 249.038 176.786 249.486C176.786 249.934 177.557 249.998 178.843 249.742C180.45 249.422 180.707 249.486 180 249.998C179.486 250.383 178.521 250.703 177.879 250.703C177.3 250.703 176.786 250.895 176.721 251.152C176.721 251.472 176.593 252.305 176.4 253.073C176.207 254.227 176.464 254.547 177.621 254.611L179.036 254.739L177.557 254.995C175.179 255.444 175.757 257.109 178.2 256.789L180.321 256.469L178.2 257.109C175.821 257.878 175.5 258.967 177.557 259.095L179.036 259.223L177.557 259.48C175.243 259.928 175.95 260.953 178.521 261.017C181.029 261.081 180.964 261.209 177.879 261.85C175.371 262.427 175.757 263.516 178.521 263.644L180.964 263.708L178.521 263.964C177.236 264.092 176.143 264.541 176.143 264.925C176.143 265.886 181.414 265.117 184.886 263.58C187.843 262.234 188.871 260.377 188.036 257.75C187.714 256.725 187.393 256.533 186.879 257.045C185.657 258.263 184.757 257.814 184.821 256.148C184.886 255.252 185.143 254.355 185.336 254.098C186.107 253.394 185.85 252.497 184.95 253.009C184.5 253.33 184.5 253.073 185.079 252.369C185.85 251.472 185.85 251.152 185.207 250.703C184.629 250.383 184.564 250.127 185.079 249.806C186.3 249.038 185.207 248.077 183.857 248.781C183.214 249.102 181.35 249.23 179.743 249.102ZM142.007 256.405C141.75 258.903 141.879 261.594 142.2 261.594C142.521 261.594 142.714 260.633 142.779 259.48C142.779 257.75 142.907 257.622 143.357 258.711C143.807 259.736 143.936 259.544 143.936 257.622C144 255.764 143.807 255.316 143.036 255.572C142.521 255.828 142.071 256.148 142.007 256.405ZM193.179 262.234C193.436 263.003 193.757 263.452 193.95 263.323C194.143 263.131 194.079 262.363 193.821 261.594C193.564 260.825 193.243 260.377 193.05 260.505C192.857 260.697 192.921 261.466 193.179 262.234ZM128.957 260.697C128.379 260.889 127.929 261.594 127.993 262.17C127.993 262.811 128.121 262.875 128.379 262.363C128.507 261.978 128.893 261.722 129.15 261.914C129.471 262.042 130.243 261.786 130.886 261.273C131.979 260.441 131.979 260.377 131.014 260.313C130.436 260.313 129.536 260.505 128.957 260.697ZM133.971 261.978C134.164 262.555 134.357 263.259 134.357 263.58C134.357 263.9 134.936 263.836 135.579 263.388C137.057 262.491 136.607 260.953 134.871 260.953C133.971 260.953 133.714 261.273 133.971 261.978ZM124.071 263.644C124.071 264.284 124.521 264.797 125.036 264.797C125.55 264.797 126 264.284 126 263.644C126 262.747 126.129 262.683 126.643 263.516C127.157 264.284 127.286 264.092 127.286 262.747C127.286 261.081 127.157 261.017 125.679 261.722C124.779 262.106 124.071 262.939 124.071 263.644ZM130.886 264.22C131.079 264.541 131.529 264.669 131.85 264.413C132.171 264.22 132.3 263.772 132.043 263.452C131.85 263.131 131.4 263.003 131.079 263.259C130.757 263.452 130.629 263.9 130.886 264.22ZM194.014 265.758C193.821 266.655 193.886 267.488 194.079 267.68C194.336 267.808 194.593 267.039 194.657 266.014C194.85 263.708 194.4 263.58 194.014 265.758ZM185.464 266.398C183.729 267.231 181.414 267.616 178.264 267.68C175.179 267.68 173.829 267.872 174.279 268.32C174.664 268.641 176.979 268.961 179.55 268.961C184.307 268.961 188.229 267.488 188.871 265.502C189 265.053 188.936 264.733 188.614 264.925C188.293 265.053 186.879 265.758 185.464 266.398ZM127.607 267.488C124.393 268.32 124.329 268.641 125.1 274.663C125.679 278.634 126.386 278.442 126.129 274.406C125.936 271.652 126.064 271.203 127.093 271.139C127.736 271.139 127.929 270.947 127.414 270.755C126 270.178 126.643 268.897 128.764 268.128C131.657 267.103 131.979 267.167 131.593 268.641C131.4 269.345 131.529 269.922 131.85 269.922C132.171 269.922 132.429 269.217 132.429 268.32C132.429 266.463 131.786 266.398 127.607 267.488ZM167.271 270.05C167.464 270.498 169.393 271.203 171.707 271.652C176.4 272.613 176.593 272.805 179.486 277.866C180.643 279.98 181.993 281.773 182.443 281.966C183.471 282.286 178.457 272.164 177.3 271.459C176.4 270.883 170.1 269.409 168.236 269.345C167.529 269.281 167.143 269.602 167.271 270.05ZM165.6 278.955C165.407 280.108 165.343 281.197 165.536 281.389C166.179 281.966 167.207 279.916 166.886 278.763C166.757 278.186 167.079 277.545 167.593 277.353C168.686 276.905 168.236 278.891 166.693 281.325C165.793 282.798 165.793 282.863 167.271 282.414C169.264 281.773 170.871 280.877 169.971 280.813C169.521 280.813 169.007 280.364 168.814 279.788C168.621 279.275 168.686 278.955 169.007 279.211C170.1 279.852 170.164 278.058 169.136 276.969C167.721 275.495 166.114 276.392 165.6 278.955ZM135.964 278.827C136.221 279.916 136.671 280.813 136.993 280.813C137.636 280.813 137.764 278.25 137.186 276.648C136.479 274.855 135.45 276.648 135.964 278.827ZM186.75 277.994L184.821 279.659L187.071 278.186C189.964 276.328 189.964 276.328 189.257 276.328C188.936 276.328 187.779 277.097 186.75 277.994ZM130.95 277.353C129.343 277.673 128.571 278.122 128.571 278.827C128.571 279.531 128.379 279.595 128.057 279.083C127.8 278.634 126.964 278.442 126.129 278.698C124.971 278.955 124.714 279.467 124.714 281.838C124.714 284.08 124.971 284.656 125.807 284.72C126.707 284.72 126.643 284.848 125.486 285.297C124.007 285.938 123.621 286.898 124.65 287.475C125.357 287.923 131.657 286.386 133.65 285.297C135.321 284.464 135.386 283.375 133.843 283.375C132.814 283.311 132.814 283.311 133.843 282.67C134.614 282.222 135 281.261 135 279.531C135 276.777 134.936 276.713 130.95 277.353ZM174.214 279.531C173.7 279.852 173.507 280.172 173.893 280.172C174.214 280.172 174.986 279.852 175.5 279.531C176.014 279.211 176.143 278.891 175.821 278.891C175.436 278.891 174.729 279.211 174.214 279.531ZM176.529 282.927C176.207 281.838 175.693 281.709 173.121 281.838C170.164 282.03 169.2 282.414 169.843 283.119C170.1 283.311 170.871 283.119 171.707 282.734C172.993 282.03 173.057 282.094 172.736 283.375C172.479 284.336 172.607 284.656 173.186 284.464C174.343 284.016 174.214 286.13 173.057 286.963C172.286 287.539 171.514 287.475 169.971 286.834C168.879 286.386 167.786 286.194 167.529 286.386C167.336 286.642 167.143 286.514 167.143 286.194C167.143 285.809 166.436 285.553 165.536 285.553C164.507 285.553 163.929 285.873 164.057 286.45C164.186 286.898 164.507 287.219 164.829 287.219C165.15 287.155 165.664 287.475 165.921 287.988C166.371 288.628 166.5 288.628 166.564 287.859C166.564 287.219 166.757 287.347 167.143 288.18C168.043 290.23 167.85 290.87 166.436 291.255C165.407 291.511 164.957 291.255 164.7 290.294C164.379 289.013 164.379 289.013 163.414 290.166C162.514 291.319 162.514 291.319 162.836 289.909C163.029 289.141 162.9 288.628 162.579 288.884C162.257 289.077 162 288.82 161.936 288.372C161.871 287.091 160.714 290.358 160.329 292.856C160.136 294.138 159.686 295.739 159.429 296.572C158.979 297.789 159.171 298.109 160.714 298.75C163.093 299.775 163.864 299.198 164.314 296.123C164.571 294.458 165.214 293.305 166.114 292.856C168.493 291.575 179.357 283.375 179.357 282.863C179.357 281.517 178.393 281.517 177.686 282.798C176.979 284.208 176.914 284.208 176.529 282.927ZM127.093 288.884C124.393 289.269 124.2 289.397 123.943 291.511C123.686 293.625 123.75 293.689 125.614 293.433C129.214 292.92 131.014 292.216 131.4 291.319C131.786 290.294 131.657 290.294 128.443 290.998C127.093 291.319 126.129 291.319 126.321 291.063C126.514 290.806 127.607 290.358 128.893 290.166C130.114 289.909 131.271 289.461 131.464 289.141C131.914 288.372 131.079 288.372 127.093 288.884ZM129.6 293.433C129.214 293.817 128.507 294.009 125.036 294.458C124.2 294.522 123.621 295.355 123.236 297.02C122.914 298.366 122.786 299.647 122.979 299.839C123.171 300.031 124.843 299.647 126.643 299.07C129.021 298.302 130.114 297.533 130.564 296.38C131.593 293.689 131.079 292.023 129.6 293.433ZM123.75 300.672L122.464 301.248H123.75C124.457 301.248 125.486 300.992 126 300.672C126.836 300.095 126.836 300.031 126 300.095C125.486 300.095 124.457 300.352 123.75 300.672ZM149.207 311.242C148.436 312.844 147.857 314.317 147.857 314.573C147.921 315.15 151.007 309.577 151.071 308.808C151.136 307.719 150.493 308.552 149.207 311.242ZM122.85 311.627C121.05 312.395 119.636 313.1 119.764 313.228C120.021 313.548 127.929 310.922 127.929 310.538C127.929 309.961 125.936 310.345 122.85 311.627ZM120.086 315.15C117.707 316.111 115.779 317.008 115.907 317.136C116.229 317.456 127.479 313.484 128.186 312.78C129.021 312.011 125.421 313.1 120.086 315.15ZM122.914 316.623C121.243 317.328 119.314 318.033 118.671 318.225C118.029 318.481 117.579 318.802 117.771 318.994C118.093 319.25 126.579 316.367 127.221 315.727C127.864 315.022 125.743 315.47 122.914 316.623ZM124.393 318.609C124.2 318.93 124.264 319.25 124.65 319.25C124.971 319.25 125.486 318.93 125.679 318.609C125.871 318.225 125.807 317.969 125.421 317.969C125.1 317.969 124.586 318.225 124.393 318.609ZM118.607 320.595C116.614 321.364 115.071 322.005 115.2 322.133C115.457 322.389 122.85 320.083 123.3 319.57C124.007 318.866 122.014 319.314 118.607 320.595Z" fill="#0B405A"/>
<path d="M150.429 102.719C151.971 102.911 152.871 103.488 153.321 104.577C153.964 106.05 154.093 106.05 159.943 105.666C163.221 105.409 166.436 104.897 167.079 104.513C168.75 103.488 170.357 104.32 170.357 106.178C170.357 108.228 168.171 108.997 166.564 107.588C165.729 106.819 164.057 106.563 160.264 106.563H155.057L152.421 109.189C151.007 110.663 149.786 111.495 149.786 111.111C149.786 110.727 149.464 110.406 149.014 110.406C148.629 110.406 147.729 109.894 147.086 109.317C146.057 108.356 145.543 108.356 143.164 108.997C138.15 110.47 137.764 110.534 139.5 109.573C140.4 109.061 142.329 108.228 143.807 107.78C145.929 107.203 146.571 106.691 146.571 105.666C146.636 103.359 147.921 102.334 150.429 102.719ZM167.143 106.306C167.143 106.819 167.593 107.203 168.107 107.203C169.071 107.203 169.457 105.858 168.686 105.089C168.043 104.513 167.143 105.217 167.143 106.306ZM149.143 107.844C149.143 108.677 149.85 108.677 151.071 107.844C151.843 107.331 151.779 107.203 150.557 107.203C149.786 107.203 149.143 107.459 149.143 107.844Z" fill="#0B405A"/>
<path d="M137.571 110.662C137.571 111.816 135.836 113.161 135 112.648C134.679 112.456 134.357 111.687 134.357 110.983C134.357 110.086 134.807 109.766 135.964 109.766C136.929 109.766 137.571 110.15 137.571 110.662Z" fill="#0B405A"/>
<path d="M166.821 112.969C167.336 113.737 165.536 114.506 164.571 113.93C164.186 113.737 164.057 113.225 164.25 112.905C164.764 112.136 166.307 112.136 166.821 112.969Z" fill="#0B405A"/>
<path d="M161.55 112.713C162.386 113.545 162 114.25 160.65 114.25C159.943 114.25 159.429 113.93 159.557 113.481C159.879 112.584 160.971 112.136 161.55 112.713Z" fill="#0B405A"/>
<path d="M157.5 113.225C157.5 113.866 156.921 114.25 156.15 114.25C154.607 114.25 154.8 112.777 156.407 112.456C157.05 112.328 157.5 112.648 157.5 113.225Z" fill="#0B405A"/>
<path d="M119.443 113.353C120.214 113.866 120.857 114.698 120.857 115.211C120.857 116.044 118.543 118.094 117.514 118.094C116.743 118.094 115.071 116.108 115.071 115.211C115.071 114.314 116.743 112.328 117.514 112.328C117.771 112.328 118.671 112.777 119.443 113.353ZM116.807 115.211C116.743 115.531 117.193 115.916 117.771 116.044C118.479 116.172 118.929 115.852 118.929 115.211C118.929 114.122 117 114.058 116.807 115.211Z" fill="#0B405A"/>
<path d="M178.007 127.703C178.007 128.216 177.75 129.241 177.429 129.945C177.107 130.778 176.85 130.842 176.85 130.266C176.85 129.753 177.107 128.728 177.429 128.023C177.75 127.191 178.007 127.127 178.007 127.703Z" fill="#0B405A"/>
<path d="M126.707 135.198L128.25 136.992L126.45 135.455C124.843 133.981 124.393 133.469 124.907 133.469C125.036 133.469 125.807 134.238 126.707 135.198Z" fill="#0B405A"/>
<path d="M132.943 136.672C132.943 137.569 132.814 137.889 132.621 137.441C132.493 137.056 132.493 136.288 132.621 135.839C132.814 135.455 132.943 135.775 132.943 136.672Z" fill="#0B405A"/>
<path d="M120.857 141.477C122.079 142.373 122.786 143.078 122.464 143.078C122.079 143.078 120.921 142.373 119.893 141.477C117.386 139.491 117.964 139.491 120.857 141.477Z" fill="#0B405A"/>
<path d="M109.864 144.616C110.893 145.897 110.186 148.011 108.579 148.523C106.843 149.1 105.3 147.691 105.557 145.705C105.686 144.423 106.136 143.975 107.421 143.847C108.321 143.719 109.414 144.103 109.864 144.616ZM106.714 145.897C106.714 147.242 108.064 147.883 108.643 146.858C108.964 146.409 109.029 145.769 108.9 145.513C108.321 144.616 106.714 144.936 106.714 145.897Z" fill="#0B405A"/>
<path d="M120.857 146.602C121.757 147.114 122.143 147.498 121.821 147.498C121.436 147.498 120.471 147.114 119.571 146.602C118.671 146.089 118.221 145.705 118.607 145.705C118.929 145.705 119.957 146.089 120.857 146.602Z" fill="#0B405A"/>
<path d="M120.021 155.058C121.243 155.506 121.05 158.261 119.829 158.709C118.414 159.286 116.871 157.877 117.129 156.275C117.321 154.93 118.543 154.417 120.021 155.058Z" fill="#0B405A"/>
<path d="M109.8 161.656C109.8 162.553 109.671 162.873 109.479 162.425C109.35 162.041 109.35 161.272 109.479 160.823C109.671 160.439 109.8 160.759 109.8 161.656Z" fill="#0B405A"/>
<path d="M97.7143 174.469C97.2 174.789 96.4286 175.109 96.1071 175.109C95.7214 175.109 95.9143 174.789 96.4286 174.469C96.9429 174.148 97.65 173.828 98.0357 173.828C98.3571 173.828 98.2286 174.148 97.7143 174.469Z" fill="#0B405A"/>
<path d="M83.25 178.313C82.6071 179.017 81.9643 179.594 81.7714 179.594C81.5786 179.594 81.9643 179.017 82.6071 178.313C83.25 177.608 83.8928 177.031 84.0857 177.031C84.2786 177.031 83.8928 177.608 83.25 178.313Z" fill="#0B405A"/>
<path d="M129.15 179.722C129.214 181.388 127.8 183.373 125.036 185.359C124.329 185.872 124.843 185.103 126.129 183.758C127.414 182.348 128.571 180.491 128.764 179.594C129.021 177.992 129.021 177.992 129.15 179.722Z" fill="#0B405A"/>
<path d="M129.471 183.566C129.279 184.014 128.379 184.975 127.414 185.616C125.679 186.833 125.679 186.833 127.543 184.847C129.6 182.605 129.986 182.413 129.471 183.566Z" fill="#0B405A"/>
<path d="M143.357 185.68C143.357 186.32 142.907 186.641 142.2 186.513C140.85 186.256 140.979 185.103 142.329 184.847C142.971 184.719 143.357 185.039 143.357 185.68Z" fill="#0B405A"/>
<path d="M124.714 187.538C124.714 187.73 124.136 188.178 123.429 188.563C122.721 188.947 122.143 189.075 122.143 188.947C122.143 188.755 122.721 188.306 123.429 187.922C124.136 187.538 124.714 187.409 124.714 187.538Z" fill="#0B405A"/>
<path d="M134.743 189.139C134.486 189.523 133.714 190.164 132.943 190.548C131.979 191.061 131.786 191.061 132.043 190.548C132.3 190.164 133.071 189.523 133.843 189.139C134.807 188.627 135 188.627 134.743 189.139Z" fill="#0B405A"/>
<path d="M121.243 189.716C120.986 190.1 118.993 191.445 116.743 192.727C112.371 195.161 111.279 196.122 109.736 199.133C109.157 200.158 108.707 200.67 108.643 200.158C108.643 198.748 111.729 195.033 114.3 193.495C120.407 189.716 121.693 189.011 121.243 189.716Z" fill="#0B405A"/>
<path d="M118.286 189.395C118.286 189.588 116.936 190.484 115.2 191.445C113.529 192.406 111.343 193.944 110.314 194.905C108.836 196.25 108.643 196.314 109.286 195.225C109.736 194.456 110.571 193.623 111.15 193.239C115.007 190.869 118.286 189.139 118.286 189.395Z" fill="#0B405A"/>
<path d="M106.971 200.734C106.714 201.952 106.264 203.553 106.007 204.258C105.621 205.155 105.557 204.834 105.814 203.297C106.071 202.08 106.521 200.478 106.779 199.773C107.164 198.877 107.229 199.197 106.971 200.734Z" fill="#0B405A"/>
<path d="M108.579 202.336C108.579 203.041 108.321 204.066 108 204.578C107.421 205.411 107.357 205.411 107.421 204.578C107.421 204.066 107.679 203.041 108 202.336L108.579 201.055V202.336Z" fill="#0B405A"/>
<path d="M107.229 209.703C107.229 210.6 107.1 210.92 106.907 210.472C106.779 210.088 106.779 209.319 106.907 208.87C107.1 208.486 107.229 208.806 107.229 209.703Z" fill="#0B405A"/>
<path d="M107.357 98.4266C107.357 98.6188 106.2 99.7078 104.786 100.797C103.371 101.886 102.214 102.655 102.214 102.527C102.214 102.334 103.371 101.245 104.786 100.156C106.2 99.0672 107.357 98.2984 107.357 98.4266Z" fill="#0B405A"/>
<path d="M207.964 106.562C207.771 106.883 207.257 107.203 206.936 107.203C206.55 107.203 206.486 106.883 206.679 106.562C206.871 106.178 207.386 105.922 207.707 105.922C208.093 105.922 208.157 106.178 207.964 106.562Z" fill="#0B405A"/>
<path d="M183.471 114.827C183.986 115.595 182.121 117.005 181.286 116.492C180.193 115.787 180.579 114.25 181.864 114.25C182.571 114.25 183.279 114.506 183.471 114.827Z" fill="#0B405A"/>
<path d="M209.057 121.745C208.286 121.873 207.129 121.873 206.486 121.745C205.907 121.553 206.55 121.425 207.964 121.489C209.379 121.489 209.893 121.617 209.057 121.745Z" fill="#0B405A"/>
<path d="M155.186 134.494C155.764 135.006 156.214 135.903 156.214 136.352C156.214 137.505 154.479 139.234 153.321 139.234C152.164 139.234 150.429 137.505 150.429 136.352C150.429 135.198 152.164 133.469 153.321 133.469C153.771 133.469 154.671 133.917 155.186 134.494ZM151.457 135.839C151.007 136.992 152.1 138.594 153.386 138.594C154.864 138.594 155.7 136.288 154.607 135.134C153.45 134.045 151.971 134.366 151.457 135.839Z" fill="#0B405A"/>
<path d="M208.286 138.273C208.8 138.85 208.8 139.234 208.414 139.234C208.029 139.234 206.871 140.003 205.779 140.9C204.429 141.989 203.271 142.438 202.436 142.245C201.6 142.053 200.636 142.373 199.8 143.206C198 145 197.614 144.167 199.221 141.861C202.243 137.697 206.421 136.031 208.286 138.273Z" fill="#0B405A"/>
<path d="M203.014 143.847C202.821 144.295 202.05 144.808 201.279 144.872C200.25 145.064 199.864 144.808 200.057 144.231C200.25 143.783 201.021 143.27 201.793 143.206C202.821 143.014 203.207 143.27 203.014 143.847Z" fill="#0B405A"/>
<path d="M222.043 149.805C221.786 150.317 221.336 150.766 221.014 150.766C220.629 150.766 220.693 150.381 221.143 149.805C221.593 149.292 222.043 148.844 222.171 148.844C222.3 148.844 222.236 149.292 222.043 149.805Z" fill="#0B405A"/>
<path d="M223.714 151.983C223.714 154.097 222.171 157.3 220.243 159.03C217.671 161.4 217.607 160.247 220.179 157.428C221.4 156.083 222.429 154.417 222.493 153.777C222.686 151.791 222.75 151.534 223.2 151.022C223.521 150.766 223.714 151.214 223.714 151.983Z" fill="#0B405A"/>
<path d="M176.657 164.988C176.207 165.82 175.757 166.589 175.693 166.717C175.629 166.781 175.243 166.717 174.857 166.461C174.343 166.141 174.471 165.628 175.243 164.795C176.786 163.13 177.621 163.258 176.657 164.988Z" fill="#0B405A"/>
<path d="M184.371 164.539C184.05 164.859 184.5 165.372 185.207 165.756C185.979 166.141 186.557 166.717 186.493 167.038C186.364 167.358 186.621 167.806 187.071 168.063C188.036 168.639 188.229 172.034 187.2 172.355C186.686 172.547 186.429 171.842 186.364 170.177C186.3 168.831 186.3 167.55 186.364 167.23C186.364 166.973 186.171 166.781 185.914 166.781C185.593 166.781 184.886 166.397 184.179 165.948C183.214 165.18 183.15 164.988 183.921 164.539C184.436 164.219 184.629 164.219 184.371 164.539Z" fill="#0B405A"/>
<path d="M187.071 173.7C187.071 174.341 184.5 176.519 184.5 175.878C184.5 175.622 184.179 175.878 183.857 176.391C183.343 177.223 183.214 177.223 183.214 176.327C183.214 175.686 183.921 175.045 184.821 174.853C185.721 174.597 186.3 174.148 186.107 173.828C185.914 173.444 186.043 173.187 186.364 173.187C186.75 173.187 187.071 173.38 187.071 173.7Z" fill="#0B405A"/>
<path d="M177.3 175.75C177.3 176.647 177.171 176.967 176.979 176.519C176.85 176.134 176.85 175.366 176.979 174.917C177.171 174.533 177.3 174.853 177.3 175.75Z" fill="#0B405A"/>
<path d="M182.571 176.839C182.571 177.352 181.929 177.608 180.964 177.544C180.064 177.48 179.357 177.095 179.357 176.711C179.357 176.391 179.036 176.519 178.714 177.031C178.2 177.864 178.071 177.8 178.071 176.839C178.071 175.942 178.521 175.75 180.321 175.878C181.671 175.942 182.571 176.327 182.571 176.839Z" fill="#0B405A"/>
<path d="M144.321 224.438C143.679 225.142 143.036 225.719 142.843 225.719C142.65 225.719 143.036 225.142 143.679 224.438C144.321 223.733 144.964 223.156 145.157 223.156C145.35 223.156 144.964 223.733 144.321 224.438Z" fill="#0B405A"/>
<path d="M142.393 230.075C140.079 232.509 138.086 234.047 137.25 233.983C136.157 233.983 136.157 233.855 137.571 233.342C138.471 232.958 140.786 231.228 142.714 229.37L146.25 226.039L142.393 230.075Z" fill="#0B405A"/>
<path d="M139.05 229.563C137.893 230.78 136.864 231.613 136.736 231.42C136.607 231.292 137.507 230.331 138.793 229.306L141.107 227.384L139.05 229.563Z" fill="#0B405A"/>
<path d="M137.314 228.858C136.864 229.563 134.357 231.1 134.357 230.652C134.357 230.459 135.129 229.883 136.029 229.242C136.993 228.666 137.507 228.473 137.314 228.858Z" fill="#0B405A"/>
<path d="M132.429 228.922C131.914 229.242 131.014 229.498 130.5 229.498C129.857 229.498 129.986 229.306 130.821 228.922C132.557 228.153 133.586 228.153 132.429 228.922Z" fill="#0B405A"/>
<path d="M129.214 232.125C128.7 232.445 127.8 232.702 127.286 232.702C126.643 232.702 126.771 232.509 127.607 232.125C129.343 231.356 130.371 231.356 129.214 232.125Z" fill="#0B405A"/>
<path d="M130.179 233.406C128.443 234.175 127.414 234.175 128.571 233.406C129.086 233.086 129.986 232.83 130.5 232.83C131.143 232.83 131.014 233.022 130.179 233.406Z" fill="#0B405A"/>
<path d="M125.036 233.406C123.3 234.175 122.271 234.175 123.429 233.406C123.943 233.086 124.843 232.83 125.357 232.83C126 232.83 125.871 233.022 125.036 233.406Z" fill="#0B405A"/>
<path d="M117 233.406C116.486 233.727 115.714 234.047 115.393 234.047C115.007 234.047 115.2 233.727 115.714 233.406C116.229 233.086 116.936 232.766 117.321 232.766C117.643 232.766 117.514 233.086 117 233.406Z" fill="#0B405A"/>
<path d="M135.643 234.303C135.643 234.431 135.064 234.688 134.357 234.88C133.65 235.072 133.2 234.944 133.457 234.623C133.779 234.047 135.643 233.791 135.643 234.303Z" fill="#0B405A"/>
<path d="M126.321 234.688C124.586 235.456 123.557 235.456 124.714 234.688C125.229 234.367 126.129 234.111 126.643 234.111C127.286 234.111 127.157 234.303 126.321 234.688Z" fill="#0B405A"/>
<path d="M121.179 234.688C119.443 235.456 118.414 235.456 119.571 234.688C120.086 234.367 120.986 234.111 121.5 234.111C122.143 234.111 122.014 234.303 121.179 234.688Z" fill="#0B405A"/>
<path d="M109.286 237.891C108.771 238.211 108 238.531 107.679 238.531C107.293 238.531 107.486 238.211 108 237.891C108.514 237.57 109.221 237.25 109.607 237.25C109.929 237.25 109.8 237.57 109.286 237.891Z" fill="#0B405A"/>
<path d="M119.25 239.172C117.514 239.941 116.486 239.941 117.643 239.172C118.157 238.852 119.057 238.595 119.571 238.595C120.214 238.595 120.086 238.788 119.25 239.172Z" fill="#0B405A"/>
<path d="M110.571 239.172C110.057 239.492 109.157 239.748 108.643 239.748C108 239.748 108.129 239.556 108.964 239.172C110.7 238.403 111.729 238.403 110.571 239.172Z" fill="#0B405A"/>
<path d="M192.857 208.422C194.593 210.152 194.464 211.945 192.471 213.483C190.35 215.148 189.514 215.148 188.164 213.675C186.75 212.138 186.814 209.511 188.229 208.23C189.836 206.82 191.314 206.884 192.857 208.422ZM189.643 211.305C189.643 211.817 190.093 212.266 190.607 212.266C191.121 212.266 191.571 211.817 191.571 211.305C191.571 210.792 191.121 210.344 190.607 210.344C190.093 210.344 189.643 210.792 189.643 211.305Z" fill="#0B405A"/>
<path d="M186.171 216.558C185.979 217.07 185.786 217.583 185.786 217.775C185.786 217.903 185.336 217.839 184.821 217.647C183.471 217.07 183.6 216.302 185.207 215.917C186.171 215.661 186.429 215.789 186.171 216.558Z" fill="#0B405A"/>
<path d="M170.229 241.734C170.229 242.631 169.971 244.169 169.714 245.258C169.264 246.988 169.2 246.988 169.2 245.578C169.2 244.681 169.457 243.08 169.714 242.055C170.164 240.325 170.229 240.325 170.229 241.734Z" fill="#0B405A"/>
<path d="M169.007 248.589C169.071 249.358 168.686 251.92 168.171 254.355C167.721 256.725 166.629 262.363 165.793 266.847C164.957 271.395 164.057 275.047 163.864 275.047C163.671 275.047 164.186 271.523 164.957 267.167C167.336 254.419 168.943 247.116 169.007 248.589Z" fill="#0B405A"/>
<path d="M182.764 232.638C184.436 234.431 184.179 237.122 182.25 238.019C179.55 239.236 176.979 236.033 178.136 232.894C178.779 231.164 181.286 231.036 182.764 232.638Z" fill="#0B405A"/>
<path d="M183.214 251.344C182.7 251.664 181.929 251.984 181.607 251.984C181.221 251.984 181.414 251.664 181.929 251.344C182.443 251.023 183.15 250.703 183.536 250.703C183.857 250.703 183.729 251.023 183.214 251.344Z" fill="#0B405A"/>
<path d="M183.214 255.828C182.7 256.148 181.929 256.469 181.607 256.469C181.221 256.469 181.414 256.148 181.929 255.828C182.443 255.508 183.15 255.188 183.536 255.188C183.857 255.188 183.729 255.508 183.214 255.828Z" fill="#0B405A"/>
<path d="M186.621 260.056C186.814 261.273 186.493 261.722 184.371 262.555C181.093 263.836 180.386 263.708 183.15 262.363C186.107 260.889 186.686 259.416 183.857 260.377C182.764 260.761 181.671 260.953 181.479 260.697C181.221 260.505 181.479 260.313 181.993 260.313C182.507 260.313 183.664 259.928 184.629 259.416C186.171 258.583 186.3 258.647 186.621 260.056Z" fill="#0B405A"/>
<path d="M132.429 283.375C132.429 283.759 131.979 284.016 131.464 284.016C130.95 284.016 130.5 283.888 130.5 283.759C130.5 283.631 130.95 283.375 131.464 283.119C131.979 282.927 132.429 283.055 132.429 283.375Z" fill="#0B405A"/>
<path d="M129.857 284.272C129.857 284.4 129.407 284.656 128.893 284.913C128.379 285.105 127.929 284.977 127.929 284.656C127.929 284.272 128.379 284.016 128.893 284.016C129.407 284.016 129.857 284.144 129.857 284.272Z" fill="#0B405A"/>
<path d="M162.257 292.664C162.064 293.369 161.55 294.97 161.229 296.188C160.843 297.405 160.393 298.109 160.264 297.661C160.136 297.277 160.586 295.675 161.293 294.138C162.064 292.6 162.45 291.959 162.257 292.664Z" fill="#0B405A"/>
<path d="M129.214 295.995C129.214 296.252 128.893 296.956 128.571 297.469C128.057 298.302 127.929 298.302 127.929 297.341C127.929 296.764 128.186 296.059 128.571 295.867C128.893 295.675 129.214 295.675 129.214 295.995Z" fill="#0B405A"/>
<path d="M239.593 225.527C240.043 225.655 240.429 226.68 240.429 227.641C240.429 229.883 238.5 231.228 236.636 230.267C235.093 229.434 234.707 228.281 235.35 226.488C235.864 225.142 237.664 224.694 239.593 225.527Z" fill="#0B405A"/>
<path d="M163.157 233.727C163.157 234.752 163.029 235.136 162.836 234.495C162.707 233.919 162.707 233.022 162.836 232.573C163.029 232.189 163.157 232.638 163.157 233.727Z" fill="#0B405A"/>
<path d="M162.514 238.211C162.514 238.916 162.257 240.325 162 241.414L161.486 243.336V241.414C161.486 240.325 161.679 238.916 162 238.211L162.579 236.93L162.514 238.211Z" fill="#0B405A"/>
<path d="M164.443 241.414C164.443 242.439 164.314 242.823 164.121 242.183C163.993 241.606 163.993 240.709 164.121 240.261C164.314 239.877 164.443 240.325 164.443 241.414Z" fill="#0B405A"/>
<path d="M161.229 244.938C161.229 245.834 161.036 247.116 160.714 247.82L160.136 249.102L160.2 247.82C160.2 247.116 160.457 245.834 160.714 244.938L161.229 243.336V244.938Z" fill="#0B405A"/>
<path d="M163.8 245.258C163.8 245.963 163.543 247.372 163.286 248.461C162.836 250.191 162.771 250.191 162.771 248.781C162.771 247.884 163.029 246.475 163.286 245.578C163.671 244.297 163.8 244.233 163.8 245.258Z" fill="#0B405A"/>
<path d="M159.943 251.344C159.943 252.241 159.814 252.561 159.621 252.113C159.493 251.728 159.493 250.959 159.621 250.511C159.814 250.127 159.943 250.447 159.943 251.344Z" fill="#0B405A"/>
<path d="M225.836 252.241C226.35 252.753 226.607 253.906 226.414 255.059C226.221 256.597 225.9 256.917 224.486 256.789C221.979 256.597 221.979 256.597 221.593 255.252C221.207 253.778 222.75 251.344 224.036 251.344C224.486 251.344 225.321 251.728 225.836 252.241Z" fill="#0B405A"/>
<path d="M162.643 251.728C162.643 253.138 158.4 272.228 155.829 282.414C153.193 292.92 152.936 293.753 152.55 293.433C152.421 293.241 153.579 287.795 155.186 281.325C156.793 274.855 158.979 265.566 160.071 260.633C161.936 252.561 162.643 249.998 162.643 251.728Z" fill="#0B405A"/>
<path d="M157.693 262.298C157.436 263.131 157.179 263.452 156.986 262.939C156.857 262.491 157.05 261.786 157.371 261.466C157.886 260.953 157.95 261.209 157.693 262.298Z" fill="#0B405A"/>
<path d="M156.729 266.719C156.729 267.616 156.6 267.936 156.407 267.488C156.279 267.103 156.279 266.334 156.407 265.886C156.6 265.502 156.729 265.822 156.729 266.719Z" fill="#0B405A"/>
<path d="M149.079 268.32C149.079 269.025 148.693 271.011 148.179 272.805L147.214 276.008L147.6 272.869C147.793 271.139 148.179 269.153 148.5 268.384C149.014 267.103 149.079 267.103 149.079 268.32Z" fill="#0B405A"/>
<path d="M153.643 268.769C153.643 270.306 148.371 291.127 148.05 290.806C147.857 290.678 148.436 287.539 149.336 283.888C150.236 280.236 151.457 275.175 152.036 272.613C153.064 268.32 153.643 266.911 153.643 268.769Z" fill="#0B405A"/>
<path d="M155.443 271.844C155.443 272.741 155.314 273.061 155.121 272.613C154.993 272.228 154.993 271.459 155.121 271.011C155.314 270.627 155.443 270.947 155.443 271.844Z" fill="#0B405A"/>
<path d="M154.864 274.406C154.864 274.919 154.607 275.944 154.286 276.648C153.964 277.481 153.707 277.545 153.707 276.969C153.707 276.456 153.964 275.431 154.286 274.727C154.607 273.894 154.864 273.83 154.864 274.406Z" fill="#0B405A"/>
<path d="M208.286 277.866C208.286 278.058 205.521 279.019 202.179 280.108C189.321 284.272 178.457 292.6 171.964 303.042C170.614 305.284 169.393 307.078 169.264 307.078C168.75 307.078 171.386 302.658 174.279 298.686C181.221 289.269 189.45 283.567 201.921 279.467C207.836 277.545 208.286 277.417 208.286 277.866Z" fill="#0B405A"/>
<path d="M203.786 282.35C192.793 286.13 187.071 289.653 180.129 297.084C177.943 299.455 175.243 302.978 174.15 304.9C171.45 309.641 171.064 309.32 173.636 304.452C179.1 294.266 191.314 285.105 204.429 281.389C210.857 279.531 210.536 280.044 203.786 282.35Z" fill="#0B405A"/>
<path d="M145.864 281.773C145.8 282.991 144.707 285.041 144.707 284.016C144.707 283.503 144.964 282.606 145.286 282.094C145.607 281.581 145.864 281.389 145.864 281.773Z" fill="#0B405A"/>
<path d="M208.929 283.375C208.029 284.08 203.721 286.578 199.286 288.948C194.85 291.319 189.771 294.138 188.036 295.291C186.236 296.38 183.793 297.789 182.571 298.43L180.321 299.519L182.25 297.469C184.95 294.65 191.25 289.973 194.979 288.052C199.864 285.617 210.857 281.902 208.929 283.375Z" fill="#0B405A"/>
<path d="M211.243 284.272C210.536 284.848 209.7 285.297 209.314 285.297C208.543 285.297 208.864 284.977 210.857 284.08C212.4 283.375 212.4 283.375 211.243 284.272Z" fill="#0B405A"/>
<path d="M144.579 286.258C144.579 286.963 144.321 287.988 144 288.5C143.421 289.333 143.357 289.333 143.421 288.5C143.421 287.988 143.679 286.963 144 286.258L144.579 284.977V286.258Z" fill="#0B405A"/>
<path d="M207.579 286.194C207.45 286.322 206.614 286.77 205.714 287.155C204.171 287.859 204.171 287.859 205.329 286.963C206.357 286.13 208.479 285.425 207.579 286.194Z" fill="#0B405A"/>
<path d="M203.786 288.116C203.786 288.308 202.886 288.884 201.857 289.461C200.764 290.038 199.929 290.294 199.929 290.166C199.929 289.973 200.764 289.397 201.857 288.82C202.886 288.244 203.786 287.988 203.786 288.116Z" fill="#0B405A"/>
<path d="M143.357 291.319C143.357 291.831 143.1 292.408 142.779 292.6C142.457 292.856 142.329 292.408 142.521 291.703C142.907 290.23 143.357 290.038 143.357 291.319Z" fill="#0B405A"/>
<path d="M147.793 292.344C147.857 293.433 140.721 307.847 140.336 307.463C140.143 307.334 141.493 304.388 143.229 300.864C144.964 297.405 146.7 293.881 147.086 292.984C147.471 292.088 147.793 291.831 147.793 292.344Z" fill="#0B405A"/>
<path d="M150.429 292.6C150.429 293.369 148.564 297.469 148.243 297.469C148.05 297.469 148.371 296.38 148.95 295.034C149.979 292.6 150.429 291.831 150.429 292.6Z" fill="#0B405A"/>
<path d="M152.357 294.842C152.357 295.867 148.5 303.427 148.114 303.106C147.986 302.914 148.886 300.864 150.107 298.43C151.329 296.059 152.357 294.458 152.357 294.842Z" fill="#0B405A"/>
<path d="M144.321 305.797C143.421 307.527 142.521 309 142.393 309C142.2 309 142.779 307.527 143.679 305.797C144.579 304.003 145.479 302.594 145.607 302.594C145.8 302.594 145.221 304.003 144.321 305.797Z" fill="#0B405A"/>
<path d="M167.143 303.875C167.143 304.388 166.821 305.284 166.5 305.797C165.921 306.63 165.857 306.63 165.857 305.797C165.857 305.284 166.179 304.388 166.5 303.875C167.079 303.042 167.143 303.042 167.143 303.875Z" fill="#0B405A"/>
<path d="M161.357 307.975C161.357 308.616 158.786 313.484 158.464 313.484C158.336 313.484 158.721 312.331 159.364 310.922C160.521 308.359 161.357 307.078 161.357 307.975Z" fill="#0B405A"/>
<path d="M142.393 314.702C140.4 318.673 138.664 321.813 138.471 321.684C138.214 321.364 144.45 309 145.414 308.039C145.8 307.655 144.45 310.666 142.393 314.702Z" fill="#0B405A"/>
<path d="M140.014 308.872C138.729 311.819 136.029 316.688 135.836 316.431C135.514 316.111 139.371 308.359 139.886 308.359C140.079 308.359 140.143 308.552 140.014 308.872Z" fill="#0B405A"/>
<path d="M133.714 313.548C132.621 315.663 131.464 318.161 131.079 319.058C130.757 319.955 130.307 320.531 130.114 320.339C129.729 320.019 134.807 309.641 135.321 309.641C135.514 309.641 134.743 311.37 133.714 313.548Z" fill="#0B405A"/>
<path d="M139.757 314.83C138.857 316.623 138.021 317.969 137.829 317.841C137.507 317.52 140.721 311.563 141.171 311.563C141.3 311.563 140.721 313.036 139.757 314.83Z" fill="#0B405A"/>
<path d="M135.643 317.905C135.643 318.225 135.321 318.738 135 318.93C134.614 319.122 134.357 319.058 134.357 318.673C134.357 318.353 134.614 317.841 135 317.648C135.321 317.456 135.643 317.52 135.643 317.905Z" fill="#0B405A"/>
<path d="M134.357 320.275C134.357 320.595 133.971 321.428 133.521 322.069C132.814 323.03 132.364 323.094 131.336 322.581C130.629 322.197 129.857 322.069 129.6 322.261C129.407 322.453 129.214 322.325 129.214 321.941C129.214 321.044 131.786 321.236 131.786 322.133C131.786 322.453 132.364 322.069 133.071 321.172C133.779 320.275 134.357 319.891 134.357 320.275Z" fill="#0B405A"/>
<ellipse cx="31.6196" cy="173.544" rx="13.8965" ry="12.9941" fill="#0B405A"/>
</svg>
