<svg width="410" height="418" viewBox="0 0 410 418" fill="none" xmlns="http://www.w3.org/2000/svg">
<path d="M126.819 20.1353C123.182 21.1548 119.987 22.939 117.825 25.2329L115.761 27.3229L113.451 25.2329C111.289 23.3468 110.846 23.1939 108.241 23.1939C104.752 23.1939 103.13 24.2644 101.459 27.5778C100.427 29.5658 100.329 30.2795 100.575 33.8478C100.771 36.4475 101.214 38.5885 101.852 39.9139C102.442 41.0353 102.786 42.0039 102.688 42.1058C102.59 42.2587 101.066 42.0039 99.346 41.5451C92.8587 39.9648 84.4055 40.9844 80.0806 43.839C78.852 44.6546 77.181 46.2858 76.4438 47.4583C75.3134 49.2424 75.0677 50.2109 74.9694 53.2695C74.8711 56.5829 75.0677 57.3475 76.5912 60.7119C77.5742 62.8019 78.5571 65.8095 78.8028 67.4917C79.6875 73.15 82.2922 76.6163 87.4526 79.1651C90.4996 80.6434 91.2368 80.7963 95.316 80.7963L99.8375 80.7453L98.019 81.8668L96.2006 83.0392L98.9037 83.1922L101.607 83.3451L101.705 85.8939C102.393 100.371 107.75 109.801 116.498 111.688C118.218 112.044 121.216 112.146 124.361 111.993C129.03 111.738 129.325 111.738 128.932 112.605C128.686 113.064 126.426 114.542 123.87 115.817C121.364 117.091 118.857 118.62 118.366 119.232C116.99 120.812 116.596 120.557 116.596 118.212C116.596 115.307 115.957 116.071 114.68 120.404C110.699 134.219 108.88 138.807 104.949 145.229C101.902 150.174 102.737 147.574 106.964 138.705C109.323 133.913 111.043 129.988 110.846 129.988C109.863 130.039 104.113 139.775 101.066 146.555C99.9849 148.951 98.3139 151.041 93.3501 156.087C89.8607 159.656 87.1085 162.408 87.2068 162.204C87.3051 162 88.6321 159.859 90.1556 157.464C93.3501 152.366 96.0532 147.268 95.7092 146.912C94.9228 146.045 85.6342 155.425 80.6704 162.102C74.6745 170.157 71.2834 176.579 68.6787 185.041C67.4992 188.712 67.3026 190.292 67.2534 195.237C67.2534 200.334 67.4009 201.456 68.3838 203.8C69.465 206.247 72.2664 209.51 73.3476 209.51C73.8882 209.51 73.9373 229.492 73.3967 238.821L73.1018 244.428L70.3988 245.04C66.5162 245.957 56.2938 248.251 53.689 248.812C52.4604 249.067 51.0351 249.373 50.4454 249.526C49.315 249.78 49.1676 248.863 47.5457 233.264C47.1526 229.696 46.7594 226.638 46.6611 226.485C46.5137 226.383 46.2679 227.198 46.0714 228.371C45.8256 229.9 45.3833 230.614 44.5478 231.021C42.8768 231.837 42.0905 230.919 40.911 226.638C38.7977 219.144 38.3062 217.666 37.9131 217.666C37.6673 217.666 37.4707 217.972 37.4707 218.328C37.4707 219.603 39.9281 239.789 40.6161 244.173C41.4025 249.118 41.9922 255.184 41.6973 254.827C41.5499 254.674 40.911 251.87 40.2229 248.506C39.584 245.142 38.6994 240.758 38.2571 238.821C36.5861 230.614 35.8981 226.638 35.3083 221.438L34.6203 215.882L34.522 226.587C34.4728 232.449 34.3254 236.833 34.1779 236.272C33.7356 233.927 32.4578 230.97 31.8681 230.767C31.4749 230.614 30.6885 230.868 30.0988 231.276C29.1159 231.99 29.0176 232.398 29.2633 235.201L29.509 238.311L28.5753 236.374C27.3957 234.08 26.3637 233.519 25.2825 234.641C24.5944 235.405 24.5944 235.864 25.3316 240.452C25.7739 243.205 26.9043 249.322 27.8381 254.113C28.7718 258.854 30.0005 265.634 30.5903 269.151C32.7527 282.048 35.4066 295.862 36.7336 301.266C37.1267 302.795 37.9131 306.363 38.4537 309.167C38.9943 311.971 39.8789 316.304 40.4195 318.852C41.255 323.134 41.7465 325.938 44.3512 341.893C46.1205 352.853 47.3 361.213 47.3 363.048C47.3 364.679 47.1034 364.934 45.4325 365.648C44.1055 366.209 43.5157 366.26 43.3192 365.801C43.1226 365.495 42.6311 362.386 42.1396 358.868C41.6973 355.351 40.911 349.387 40.4195 345.615C39.9281 341.842 39.0434 334.604 38.4537 329.557C35.1609 300.399 32.9493 287.197 29.7548 277.307C29.0176 274.911 28.6735 274.504 27.6415 274.504C26.5603 274.504 26.4128 274.708 26.462 276.288C26.462 277.256 27.1992 280.825 28.0346 284.189C30.8851 295.658 32.9493 306.108 34.9643 319.362C35.554 322.981 36.2421 327.263 36.4878 328.793C37.0284 331.851 38.7977 343.27 40.4195 354.28C40.9601 358.053 41.6482 362.386 41.9431 363.864C42.2379 365.393 42.3854 366.668 42.2871 366.769C42.2379 366.82 39.2892 368.197 35.8489 369.828C32.3595 371.408 28.821 373.141 27.9855 373.702L26.4128 374.722L27.8872 374.365C29.165 374.11 44.4495 369.522 46.9068 368.707C47.5457 368.503 47.7915 368.707 47.7915 369.471C47.7915 370.236 47.2509 370.593 45.4816 371.102C43.0734 371.714 35.6032 373.906 29.4599 375.792C27.6415 376.353 26.2162 376.965 26.3637 377.067C26.7077 377.423 39.0434 374.977 48.5287 372.632C52.1655 371.714 52.5095 371.714 53.0501 372.479C53.6399 373.294 53.689 373.294 53.689 372.479C53.689 371.357 55.6549 370.491 56.5395 371.255C56.9818 371.612 57.3259 371.561 57.7682 371C58.1122 370.593 60.6678 369.624 63.5183 368.808C77.9182 364.781 91.1385 359.327 93.7433 356.319C94.6279 355.351 94.5788 355.3 93.3993 355.3C92.7112 355.3 89.1235 356.421 85.3393 357.798C72.3155 362.538 58.5545 367.126 58.2596 366.871C57.375 365.903 59.4392 364.883 67.2534 362.233C72.1189 360.601 77.0335 358.97 78.2622 358.562C83.8649 356.625 96.1515 352.7 100.132 351.528C108.389 349.132 117.825 345.717 117.432 345.258C117.284 345.156 115.663 345.513 113.795 346.073C105.686 348.622 95.0703 351.681 93.4976 351.936L91.7775 352.19L93.4976 351.681C100.722 349.387 107.996 346.838 108.684 346.277C109.372 345.717 109.372 345.666 108.487 345.869C105.44 346.583 97.2327 348.775 94.3331 349.642L90.942 350.661L93.1535 348.214C97.1344 343.779 101.312 333.482 103.818 321.911C104.752 317.629 104.949 315.233 104.998 306.873C104.998 296.27 104.408 292.09 101.164 279.448C100.476 276.848 100.034 274.758 100.132 274.758C100.624 274.758 102.835 279.499 103.523 282.099C104.457 285.361 105.882 296.015 106.767 305.497C108.291 322.778 112.37 332.871 117.825 332.871C120.97 332.871 122.346 330.271 121.855 325.581C121.364 321.554 120.725 321.758 120.774 325.938C120.774 330.169 120.184 331.341 118.071 331.341C113.205 331.341 109.962 321.911 108.733 304.426C108.438 300.297 107.996 295.557 107.799 293.874C107.553 292.192 107.209 289.796 107.062 288.522L106.767 286.228L108.241 289.287C109.028 290.969 110.109 293.467 110.65 294.894C112.173 298.972 115.613 305.038 118.71 309.116C124.116 316.202 131.34 321.707 142.841 327.467C146.92 329.506 151.392 331.596 152.719 332.106C154.095 332.616 155.373 333.228 155.619 333.431C156.159 333.89 154.439 334.706 133.798 343.27C111.436 352.598 99.3951 357.39 91.7775 359.939C88.2389 361.162 87.1577 362.029 90.0573 361.366C91.2368 361.06 92.3672 360.754 92.5638 360.652C92.7604 360.499 95.5126 359.633 98.7562 358.664C115.613 353.567 153.948 338.274 157.683 335.165C158.961 334.094 159.01 333.89 158.371 333.228C157.978 332.82 155.422 331.494 152.719 330.322C146.576 327.671 137.582 322.828 133.06 319.719C124.951 314.214 116.695 302.948 112.665 291.988L111.682 289.287L113.009 291.071C114.925 293.568 119.791 298.921 123.526 302.591C125.983 304.987 157.044 329.455 162.745 333.482L163.924 334.349L162.008 335.165C160.926 335.623 159.01 336.439 157.634 336.949C154.586 338.019 144.905 343.066 145.2 343.372C145.544 343.728 156.503 342.658 158.322 342.097C159.255 341.791 160.091 341.638 160.238 341.74C160.337 341.842 159.894 342.097 159.255 342.301C158.616 342.505 155.717 343.678 152.719 344.901C149.77 346.073 143.283 348.724 138.368 350.712C100.87 365.699 91.7775 369.471 92.1706 369.93C92.3181 370.032 94.3331 369.42 96.7412 368.554C99.1494 367.687 106.079 365.24 112.173 363.201C118.267 361.111 123.919 359.174 124.706 358.868C125.541 358.562 127.507 357.849 129.129 357.39C130.751 356.88 132.52 356.319 133.06 356.116C134.436 355.657 129.227 358.257 125.934 359.633C124.46 360.296 119.152 362.589 114.139 364.73C104.457 368.91 94.6279 372.887 87.256 375.69C84.7495 376.659 82.7837 377.525 82.882 377.627C82.9803 377.729 86.7154 376.659 91.1385 375.282C95.5126 373.855 101.705 372.02 104.801 371.102C107.897 370.236 111.78 369.063 113.402 368.554C115.024 367.993 118.513 366.871 121.118 366.056C123.723 365.189 126.327 364.476 126.868 364.476C127.359 364.476 130.112 365.036 132.913 365.699C135.665 366.413 140.285 367.432 143.135 368.044C145.986 368.605 148.738 369.216 149.279 369.42C149.967 369.624 150.114 369.522 149.77 369.114C149.475 368.808 148.247 368.35 147.067 368.095C145.838 367.891 142.202 366.922 138.958 366.005C135.714 365.087 132.471 364.221 131.733 364.119C129.718 363.711 130.062 363.252 132.962 362.233C134.338 361.723 138.27 360.296 141.563 359.072L147.657 356.829L151.883 357.339C155.422 357.798 185.057 363.15 205.06 366.973C207.91 367.534 212.776 368.452 215.872 369.012C218.968 369.624 223.096 370.44 224.964 370.848C226.881 371.255 231.599 372.173 235.531 372.887C239.462 373.6 244.672 374.62 247.08 375.18C252.879 376.455 261.48 378.035 268.164 379.055C274.504 380.023 273.373 380.278 287.871 374.569C304.827 367.891 309.594 366.362 299.568 370.848C296.914 372.02 292.196 374.161 289.1 375.639C277.993 380.89 276.076 381.756 274.749 382.062C274.012 382.266 271.014 381.96 268.115 381.348C265.215 380.788 260.251 379.87 257.155 379.258C254.059 378.698 249.095 377.78 246.097 377.27C239.511 376.047 231.451 374.62 221.032 372.887C216.707 372.173 211.94 371.357 210.466 371.102C204.47 370.032 187.859 368.044 185.352 368.095C181.519 368.146 183.583 368.707 194.1 370.338C198.916 371.102 207.37 372.479 212.923 373.498C218.477 374.467 224.767 375.588 226.93 375.945C232.189 376.812 243.591 378.902 251.995 380.533C255.779 381.298 260.3 382.113 261.971 382.368C263.691 382.623 266.1 383.082 267.377 383.438L269.589 383.999L267.426 384.713C264.822 385.579 262.119 385.376 253.42 383.642C249.93 382.98 241.87 381.45 235.531 380.278C223.785 378.137 219.116 377.27 207.763 374.875C195.525 372.326 189.579 371.051 187.859 370.593C186.925 370.338 185.156 369.981 183.927 369.828C182.698 369.624 180.241 369.165 178.472 368.808C176.702 368.401 171.149 367.381 166.185 366.515C161.221 365.699 155.373 364.628 153.21 364.221C151.048 363.813 148.64 363.507 147.804 363.507C146.576 363.558 146.772 363.66 148.787 364.272C150.163 364.628 153.112 365.291 155.422 365.699C167.217 367.84 191.151 372.479 197.835 373.906C208.009 376.098 220.049 378.698 230.862 381.043C249.291 385.019 252.928 385.783 256.909 386.752C262.364 388.026 266.984 387.873 275.585 385.987C279.664 385.121 287.085 383.846 292.196 383.082C297.258 382.368 303.352 381.298 305.662 380.788C308.021 380.278 310.036 379.87 310.135 379.972C310.38 380.278 292.54 387.771 282.711 391.493C268.262 396.998 257.646 401.637 259.514 401.688C261.283 401.688 268.753 399.241 283.448 393.888C305.417 385.834 349.747 367.585 390.833 349.693C401.105 345.207 402.776 343.83 393.978 347.093C379.628 352.394 335.15 370.44 331.906 372.224C329.941 373.345 329.351 373.498 329.597 372.887C329.744 372.377 329.695 372.173 329.4 372.377C327.631 373.498 307.088 378.086 292.884 380.533C285.217 381.858 281.089 382.062 287.134 380.839C297.062 378.8 316.229 372.938 326.697 368.758C329.941 367.483 333.479 366.158 334.56 365.75C341.195 363.507 388.72 344.289 392.16 342.454C394.077 341.486 392.995 341.384 389.997 342.301C388.425 342.811 386.508 343.27 385.673 343.423C384.886 343.525 382.97 343.932 381.495 344.34C380.021 344.697 377.907 345.156 376.826 345.309C374.369 345.666 361.443 350.1 339.77 358.002C337.755 358.715 336.33 359.174 336.575 358.919C337.263 358.358 348.862 353.261 349.648 353.261C349.992 353.21 351.516 352.802 352.99 352.241C354.956 351.528 355.349 351.222 354.465 351.171L353.236 351.12L354.465 350.763C355.153 350.559 355.841 350.61 355.988 350.865C356.185 351.171 359.183 350.1 363.114 348.418C381.544 340.415 387.442 337.662 387.294 337.306C387.196 337.051 387.688 336.541 388.376 336.184C390.047 335.216 390.882 335.267 389.359 336.235C387.294 337.56 388.916 336.796 393.88 334.196C396.534 332.82 398.598 331.596 398.5 331.494C398.057 331.036 374.271 340.568 354.465 349.183C352.45 350.049 349.108 351.477 347.093 352.292C343.554 353.771 338.099 356.218 323.994 362.488C316.917 365.648 304.581 370.593 303.991 370.593C303.598 370.542 311.609 366.515 312.051 366.515C312.199 366.515 315.098 365.24 318.539 363.66C321.93 362.08 335.445 356.319 348.567 350.916C380.316 337.713 392.848 332.259 392.651 331.647C392.258 330.424 386.115 328.691 374.467 326.55C366.063 324.969 361.591 324.918 356.922 326.244C349.55 328.385 344.39 332.922 342.424 338.886L341.785 340.721L340.949 338.937C338.64 334.196 335.74 332.004 329.449 330.271C324.633 328.997 313.083 327.416 303.107 326.754C298.782 326.448 293.671 326.091 291.705 325.938L288.215 325.581L286.888 321.35C286.2 318.954 285.463 316.66 285.316 316.202C285.119 315.692 286.2 316.202 288.068 317.527C291.754 320.127 296.816 322.676 298.34 322.676C300.993 322.676 298.88 319.974 290.427 312.582C280.647 304.069 271.85 297.698 269.786 297.698C269.294 297.698 268.557 297.392 268.213 296.984C267.033 295.76 244.967 281.691 241.035 279.652C238.725 278.429 238.43 278.378 238.135 279.142C237.349 281.334 239.02 283.118 245.851 287.502C247.326 288.42 250.225 290.306 252.289 291.58C254.354 292.906 256.369 294.129 256.713 294.231C257.106 294.384 256.025 294.639 254.354 294.843C251.503 295.149 246.343 296.066 236.317 297.952L231.943 298.819L223.293 294.996C218.526 292.855 213.808 290.816 212.825 290.357L210.957 289.592V285.514C210.957 282.099 211.105 281.436 211.842 281.232C213.12 280.825 216.953 280.06 223.49 278.837C226.733 278.225 231.402 277.307 233.81 276.798C236.268 276.237 243.345 274.86 249.537 273.739C255.779 272.567 263.593 271.088 266.984 270.426C270.375 269.763 276.175 268.692 279.91 268.081C283.645 267.418 287.085 266.653 287.527 266.297C288.461 265.583 288.953 260.281 289.051 250.29C289.1 247.334 289.346 244.581 289.591 244.173C290.132 243.358 290.329 250.035 290.181 261.913C290.083 268.998 290.427 270.68 292.049 270.68C293.769 270.68 294.211 267.367 294.162 254.623C294.113 244.071 294.015 242.134 292.786 235.507C290.869 224.904 290.771 223.324 292 220.775C293.966 216.85 298.143 215.117 308.365 214.098C311.118 213.843 314.656 213.486 316.131 213.333C324.584 212.466 328.565 211.804 329.793 211.039C330.53 210.529 332.595 207.878 334.364 205.126C337.362 200.283 337.607 200.028 340.114 199.162C341.539 198.703 343.308 197.887 343.996 197.428C345.471 196.409 355.939 184.634 355.939 183.971C355.939 183.716 355.595 183.512 355.202 183.512C354.416 183.512 354.268 182.646 354.858 181.626C355.054 181.32 355.988 180.861 356.922 180.607C359.035 180.046 359.035 179.485 356.873 178.16C355.497 177.344 354.317 177.14 350.287 177.14H345.373L344.291 172.909C343.161 168.372 341.981 165.977 341.048 166.333C340.753 166.435 339.524 169.392 338.345 172.96C336.281 179.077 336.084 179.434 334.855 179.383C334.167 179.332 331.022 179.077 327.926 178.72L322.274 178.16L322.372 176.63C323.06 162.102 323.06 159.707 322.47 157.82C321.979 156.393 321.438 155.781 320.652 155.628C319.767 155.527 319.128 156.138 317.359 158.942C316.18 160.879 314.902 162.714 314.46 163.071C313.87 163.581 313.722 163.479 313.575 162.255C313.427 160.981 313.182 161.236 310.921 165.161L308.464 169.443L305.908 169.29C299.617 168.933 295.145 173.878 291.606 185.092C291.017 186.928 290.23 188.865 289.886 189.374C289.297 190.241 289.198 190.139 288.854 188.202C288.215 184.175 286.888 184.787 286.102 189.527C285.561 192.637 284.677 194.115 283.694 193.452C283.448 193.299 283.202 192.841 283.202 192.433C283.202 190.955 282.023 189.17 280.794 188.712C279.222 188.151 276.764 188.814 275.634 190.037C274.454 191.413 272.882 196.409 272.882 198.754C272.882 200.334 272.636 200.946 271.85 201.354C270.621 202.067 269.441 201.659 269.441 200.589C269.441 200.181 269.245 199.824 268.95 199.824C268.704 199.824 268.459 200.691 268.459 201.812C268.459 203.546 268.311 203.8 267.132 204.055C266.345 204.208 265.117 203.902 264.085 203.342C259.416 200.742 249.832 203.648 245.163 209.051C244.18 210.121 243.394 211.294 243.394 211.549C243.394 211.855 243.05 212.058 242.657 212.058C242.264 212.058 240.74 212.619 239.216 213.282C236.808 214.403 236.513 214.454 236.513 213.69C236.464 209.663 229.78 202.016 218.968 193.707C205.699 183.461 203.88 181.932 202.799 180.25C200.686 177.038 194.936 164.906 193.904 161.44C192.282 156.189 190.119 153.538 184.025 149.409C170.166 140.081 167.315 138.042 165.104 136.003L162.696 133.811L164.956 126.98C166.234 123.208 167.315 120.048 167.365 119.997C167.463 119.895 169.134 120.251 171.149 120.761C175.179 121.832 182.944 122.596 182.207 121.934C181.912 121.679 179.504 120.863 176.801 120.098C172.476 118.875 165.055 115.613 164.465 114.644C164.367 114.44 165.988 115.052 168.102 116.02C175.031 119.079 187.22 120.965 193.51 119.946L195.968 119.538L196.263 114.695C196.852 104.449 197.786 94.5087 198.278 93.2344C198.572 92.3678 200.047 91.0424 202.16 89.6661C204.028 88.4426 205.453 87.1683 205.355 86.8624C205.207 86.5056 203.487 83.8548 201.472 81.0002C196.017 73.099 196.213 74.2714 199.654 68.2053C205.207 58.469 206.731 50.058 203.979 44.6036C202.357 41.3412 199.801 38.8944 195.427 36.2946C192.134 34.3066 183.485 30.4324 179.356 29.0561C178.324 28.6992 177.587 28.3424 177.734 28.1385C178.177 27.7307 184.222 29.5148 189.48 31.6558C192.085 32.7773 194.395 33.6439 194.493 33.6439C194.641 33.6439 194.739 33.1851 194.739 32.6753C194.739 30.3305 187.171 25.6917 179.258 23.1939C168.839 19.9314 154.881 19.0139 144.413 20.9L139.056 21.8175L138.172 20.747C137.434 19.7785 136.796 19.6256 133.208 19.5746C130.996 19.5236 128.097 19.7785 126.819 20.1353ZM135.665 21.2058C137.434 21.7156 136.697 22.5822 133.503 23.7546C129.08 25.3858 125.541 27.3739 121.757 30.3305L118.316 32.9812L117.432 31.8087C116.252 30.1775 116.4 29.3619 118.12 27.2719C121.462 23.3468 131.144 19.9824 135.665 21.2058ZM171.395 23.1429C173.852 23.6017 177.489 24.5702 179.504 25.2839C183.091 26.5073 183.141 26.5583 180.732 26.2524C179.405 26.0995 177.39 25.8446 176.309 25.6917C172.427 25.2329 158.518 24.4683 154.341 24.4683C151.933 24.4683 147.755 24.8251 144.954 25.2329C140.678 25.8956 138.27 26.5583 130.112 29.3109C127.703 30.1266 132.372 27.7817 136.746 25.9975C140.973 24.2134 145.347 23.0409 150.262 22.2253C153.407 21.7666 167.119 22.3273 171.395 23.1429ZM111.977 26.2524C112.616 26.6602 113.5 27.5778 113.893 28.2405C114.581 29.26 114.581 29.6168 113.893 31.6048C113.5 32.7773 113.156 34.6634 113.156 35.7848C113.156 37.0083 112.96 37.6709 112.665 37.467C112.419 37.3141 112.173 36.7024 112.173 36.1417C112.173 35.53 111.927 35.1731 111.583 35.2751C110.65 35.6319 110.256 38.9963 110.551 43.1763C110.699 45.2663 110.65 46.8975 110.404 46.8466C109.814 46.8466 105.194 40.9844 103.917 38.7414C103.376 37.7729 102.688 35.7848 102.393 34.3575C100.968 27.017 106.374 22.4292 111.977 26.2524ZM159.501 26.7622C164.17 27.5778 169.724 29.5658 173.115 31.6048C176.113 33.389 177.784 36.8044 177.734 41.0353C177.636 50.8736 168.2 64.2802 157.879 69.2758C151.638 72.2834 141.808 73.6597 135.026 72.4363C131.733 71.8246 125.443 69.1739 125.443 68.3583C125.443 68.1544 127.949 68.5112 130.996 69.1229C147.853 72.6912 161.025 68.6131 168.839 57.3475C173.999 49.9051 176.309 44.0429 175.965 39.0473C175.818 36.1927 175.572 35.479 174.343 34.1536C172.721 32.3695 168.937 30.7892 164.023 29.8207C162.155 29.4129 159.157 28.8012 157.388 28.3934C152.67 27.2719 150.016 26.9661 150.016 27.4248C150.016 27.6797 151.49 28.2914 153.358 28.7502C163.531 31.4519 169.871 34.7144 171.788 38.1297C172.623 39.608 172.672 40.1687 172.23 42.5136C171.296 47.4073 169.281 50.9246 165.055 55.3085C160.877 59.6414 158.125 61.5275 153.063 63.5156C149.623 64.8409 142.988 65.9114 139.695 65.6566C137.189 65.4526 137.14 65.4526 144.118 63.2097C150.753 61.0687 156.601 58.1122 159.796 55.2066C162.597 52.7087 162.892 51.6383 160.238 53.6773C158.42 55.1046 152.473 58.2651 152.178 58.0102C152.08 57.9083 153.407 56.9397 155.078 55.9202C160.926 52.4029 169.183 45.7251 169.183 44.5526C169.183 44.3997 168.2 45.1644 167.021 46.2858C165.841 47.4073 162.892 49.6502 160.533 51.2814C158.125 52.8617 155.619 54.5948 154.931 55.0536C152.719 56.6339 145.445 59.9983 142.005 61.1197C137.877 62.4451 133.699 63.1587 126.721 63.7195C122.543 64.0763 120.872 64.4841 119.005 65.5036C115.908 67.1348 115.908 66.829 119.005 64.739C120.725 63.6175 122.445 63.0058 124.804 62.649C128.834 62.0883 134.633 60.559 137.975 59.1826C141.17 57.8573 140.334 57.8573 136.009 59.1317C129.768 60.9668 130.013 60.1512 136.353 57.9083C144.806 54.9517 152.326 50.4658 157.732 45.1644C159.993 42.9724 161.958 40.6275 162.106 40.0158C162.253 39.3531 162.843 38.6905 163.433 38.4866L164.514 38.1807L163.433 37.7219C162.794 37.467 162.302 36.9063 162.302 36.4985C162.302 33.7458 155.815 30.1775 150.065 29.8207L146.821 29.5658L151.048 30.7892C153.407 31.4519 156.257 32.5224 157.388 33.1851C159.845 34.6124 161.762 36.9573 161.025 37.6709C160.779 37.9258 157.83 38.4356 154.439 38.7414C146.33 39.5061 142.939 40.0668 139.155 41.2902C134.83 42.7175 130.751 44.5017 129.964 45.2153C129.62 45.5722 129.03 45.878 128.736 45.878C128.047 45.827 128.981 45.0114 133.257 41.8509C136.304 39.557 139.99 35.9887 140.826 34.3575C141.071 33.8987 139.499 35.1222 137.385 37.0083C135.223 38.9453 132.127 41.4431 130.554 42.5646C126.327 45.5212 121.02 49.5992 119.054 51.3834C118.12 52.25 117.235 52.8107 117.088 52.6578C116.744 52.3009 122.985 46.2858 126.426 43.6861C133.65 38.1297 136.157 35.2241 135.518 33.1851C135.223 32.1146 133.257 31.0951 131.537 31.0951C130.849 31.0951 130.406 30.8912 130.554 30.6363C130.898 30.0756 138.122 27.8327 141.907 27.068C143.529 26.7622 145.298 26.4563 145.838 26.3034C148.197 25.8446 155.668 26.0485 159.501 26.7622ZM170.756 33.44C174.098 35.2241 174.786 36.4985 174.491 40.6785C173.852 49.1914 165.595 60.8139 157.24 64.8919C151.736 67.5936 151.097 67.2368 156.405 64.3822C159.993 62.4961 161.565 61.2726 164.317 58.2141C169.38 52.6068 173.606 44.5017 173.606 40.4236C173.606 37.9768 171.345 35.0202 167.709 32.6244C166.382 31.7578 166.283 31.6048 167.217 31.9107C167.905 32.0636 169.478 32.7773 170.756 33.44ZM132.323 34.1027C132.077 34.6634 129.669 36.2946 127.015 37.7219C124.361 39.1492 120.479 41.8509 118.366 43.6351C115.269 46.3368 114.729 46.6936 115.319 45.4702C116.596 42.8705 120.43 38.3846 122.985 36.4475C125.688 34.4085 128.637 33.2361 131.242 33.1851C132.667 33.1341 132.815 33.2361 132.323 34.1027ZM160.386 40.1687C159.599 41.698 155.668 45.2153 152.129 47.6112C144.708 52.5558 139.007 54.8497 124.067 58.9278C118.415 60.457 118.12 60.457 119.594 58.8258C122.101 56.0222 129.866 52.7087 142.152 49.1914C146.871 47.8661 152.129 45.878 151.834 45.5722C151.785 45.4702 150.606 45.7761 149.279 46.1839C145.642 47.3053 135.272 49.5992 133.306 49.7012C132.372 49.7522 130.603 50.2619 129.473 50.9246C126.082 52.7087 126.524 51.7912 130.357 49.0385C135.026 45.5722 141.71 42.1058 145.593 41.0863C148.541 40.2707 154.537 39.5061 159.01 39.3022C160.631 39.2512 160.828 39.3531 160.386 40.1687ZM181.568 45.878C181.617 50.7717 178.373 57.2456 173.311 62.547C170.854 65.0958 160.73 72.3853 159.649 72.3853C159.354 72.3853 160.484 71.4678 162.155 70.3463C172.083 63.6175 179.799 52.5048 180.388 44.1958C180.585 41.1883 180.732 40.7805 181.126 41.8C181.371 42.5136 181.568 44.3487 181.568 45.878ZM91.5317 43.737C91.5317 43.9409 90.1065 45.1134 88.3372 46.2858C84.4546 48.9366 82.1939 51.7402 80.0806 56.5319C78.4588 60.1002 78.4096 60.1512 77.869 58.8768C74.3796 50.9756 78.2622 44.9605 87.6 43.839C89.3693 43.6351 90.942 43.4312 91.1877 43.3802C91.3843 43.3802 91.5317 43.5331 91.5317 43.737ZM200.882 46.3878C201.669 47.968 201.816 53.3205 201.128 55.5634C200.833 56.43 200.735 55.6144 200.686 52.7597C200.637 50.5168 200.44 47.8151 200.194 46.7446C199.654 44.4507 199.85 44.3487 200.882 46.3878ZM183.435 47.4073C183.435 47.6622 183.19 47.917 182.895 47.917C182.649 47.917 182.551 47.6622 182.698 47.4073C182.846 47.1014 183.091 46.8975 183.239 46.8975C183.337 46.8975 183.435 47.1014 183.435 47.4073ZM184.664 54.289C182.256 64.688 176.702 72.3853 168.347 76.8202C162.696 79.8787 161.565 80.0826 164.76 77.4319C176.162 68.1544 182.158 59.8453 184.271 50.4658C185.106 46.8975 185.156 46.7446 185.303 48.6817C185.401 49.8031 185.106 52.3009 184.664 54.289ZM87.8457 52.3519C85.0935 55.3085 83.5209 58.367 82.6854 62.3941C82.0956 65.3507 82.0465 65.4017 81.4076 64.1783C80.0315 61.6295 80.7195 58.7239 83.5209 55.1046C84.9953 53.3205 89.1235 49.9561 89.959 49.9561C90.0573 49.9561 89.1235 51.0266 87.8457 52.3519ZM97.1835 51.2305C96.3972 51.9441 95.1194 53.2185 94.3822 54.1361C93.645 55.0536 93.0061 55.5124 93.0061 55.2066C93.0061 54.289 97.1344 49.9561 97.9699 49.9561C98.3631 50.007 98.019 50.5168 97.1835 51.2305ZM104.801 52.097C105.833 53.2695 106.079 55.9712 105.293 57.8573C104.949 58.6729 104.85 58.469 104.85 56.9397C104.801 55.8692 104.457 54.187 104.064 53.1675C102.983 50.5168 103.13 50.2619 104.801 52.097ZM190.267 59.9983C190.512 61.9353 191.004 65.4017 191.348 67.7975C192.085 73.5068 193.166 76.2595 196.656 82.0707L199.555 86.9134L197.639 89.0544C196.312 90.5836 195.722 91.7051 195.722 92.7246C195.722 93.5912 195.181 95.0695 194.542 96.089C193.117 98.23 192.577 103.073 192.871 110.362C192.97 113.013 192.97 115.205 192.871 115.205C192.233 115.205 185.352 112.401 182.158 110.923C174.294 107.1 165.497 100.065 162.401 94.9675C161.664 93.7441 160.926 92.7756 160.73 92.7756C160.337 92.7756 159.894 95.1205 159.747 98.3829L159.599 100.677L157.978 97.5163C157.093 95.7322 155.963 93.0814 155.471 91.5522L154.537 88.7995L157.634 87.9329C159.354 87.4741 162.745 86.8624 165.104 86.6585C171.984 86.0468 176.063 84.0587 180.339 79.42C183.976 75.3929 186.384 69.9385 188.399 61.1197C188.94 58.6219 189.48 56.5829 189.579 56.5829C189.677 56.5829 189.972 58.1122 190.267 59.9983ZM82.9803 70.958C83.3243 72.4363 83.57 73.6597 83.4717 73.7617C83.1768 74.0675 80.8178 69.0209 80.4738 67.2878L80.1298 65.5036L81.211 66.9309C81.8007 67.6956 82.5871 69.5307 82.9803 70.958ZM134.928 67.1348C134.584 67.2368 133.994 67.2368 133.699 67.1348C133.355 66.9819 133.601 66.88 134.289 66.88C134.977 66.88 135.223 66.9819 134.928 67.1348ZM150.507 67.2878C149.819 67.4917 148.64 67.6956 147.804 67.6956H146.33L147.804 67.2878C148.64 67.0839 149.819 66.88 150.507 66.88H151.736L150.507 67.2878ZM92.6129 71.4678C93.5959 72.4873 95.1194 73.4558 95.9549 73.6597C98.019 74.1185 97.2327 75.138 95.1194 74.7812C92.7112 74.3734 91.1877 73.2009 90.0573 70.8561C88.8287 68.3073 88.7304 66.4212 89.959 68.3073C90.4014 69.0209 91.5809 70.3973 92.6129 71.4678ZM139.892 67.6956C139.99 67.8995 139.253 68.0014 138.172 67.8995C137.14 67.7975 136.255 67.5936 136.255 67.4917C136.255 67.1348 139.646 67.2878 139.892 67.6956ZM144.02 68.1544C143.529 68.2563 142.644 68.2563 142.054 68.1544C141.415 68.0524 141.808 67.9505 142.89 67.9505C143.971 67.8995 144.462 68.0014 144.02 68.1544ZM120.774 72.8951C121.56 73.7107 122.002 74.4244 121.806 74.4244C121.265 74.4244 118.562 72.2324 118.562 71.7736C118.562 70.958 119.398 71.3658 120.774 72.8951ZM164.76 73.6597C164.76 74.1185 158.469 77.4829 155.324 78.7063C151.933 80.0317 146.133 81.5609 144.708 81.51C144.266 81.51 145.986 80.8473 148.541 80.0826C154.144 78.2985 159.108 76.3614 162.204 74.6792C164.809 73.3029 164.76 73.3029 164.76 73.6597ZM179.946 76.2085C177.98 79.0631 173.999 82.2236 170.657 83.6C167.414 84.9253 166.529 84.8744 168.691 83.498C173.115 80.7453 177.096 77.7378 179.012 75.6987C180.192 74.4244 181.273 73.5068 181.371 73.6597C181.47 73.7617 180.831 74.8831 179.946 76.2085ZM114.139 75.9536C114.139 76.2085 113.942 76.4634 113.648 76.4634C113.402 76.4634 113.156 76.2085 113.156 75.9536C113.156 75.6478 113.402 75.4439 113.648 75.4439C113.942 75.4439 114.139 75.6478 114.139 75.9536ZM123.968 82.1726C124.46 82.4785 124.312 82.5295 123.477 82.2746C122.789 82.1217 121.904 81.7139 121.511 81.459C121.02 81.1531 121.167 81.1022 122.002 81.357C122.691 81.51 123.575 81.9178 123.968 82.1726ZM110.797 81.9687C111.141 82.7844 116.007 86.6075 118.71 88.1878C120.282 89.1053 123.182 90.4817 125.099 91.2973C127.065 92.0619 128.293 92.7246 127.9 92.7246C126.475 92.8265 121.314 90.6346 117.972 88.6465C114.631 86.6075 109.028 81.6119 110.06 81.5609C110.355 81.5609 110.699 81.7139 110.797 81.9687ZM162.253 83.2941C162.155 83.3961 161.516 83.7529 160.828 84.0587C159.649 84.6195 159.649 84.6195 160.533 83.9058C161.32 83.2431 162.941 82.6824 162.253 83.2941ZM113.304 93.897C114.581 95.5283 116.99 97.9241 118.562 99.3005C121.806 101.951 121.708 102.614 118.366 100.932C115.564 99.5553 112.616 96.2419 110.748 92.3168C109.077 88.9524 108.782 87.729 110.109 89.717C110.551 90.3797 112.026 92.3168 113.304 93.897ZM154.98 97.2614C156.356 100.473 159.452 104.959 162.991 108.986L164.907 111.127L162.941 110.413C158.371 108.731 156.159 107.202 155.078 104.908C153.456 101.492 152.473 97.4653 152.522 94.3558C152.522 91.858 152.621 91.6541 153.063 92.7756C153.358 93.4892 154.242 95.4773 154.98 97.2614ZM110.06 100.371C113.451 104.653 116.056 106.539 121.02 108.374L124.214 109.547H120.774C117.088 109.598 113.893 108.476 111.78 106.386C109.912 104.602 107.455 99.9122 106.325 96.14C104.998 91.6031 105.047 91.3992 106.767 95.0185C107.553 96.6497 109.028 99.0456 110.06 100.371ZM163.285 98.6378C166.922 103.531 173.704 108.629 181.47 112.248L185.647 114.236L183.19 113.93C179.651 113.472 173.213 111.637 170.903 110.464C167.512 108.731 162.941 105.112 161.811 103.226C160.681 101.339 159.845 95.8341 160.681 95.8341C160.976 95.8341 162.155 97.1085 163.285 98.6378ZM144.61 111.433C144.61 112.095 144.069 114.083 143.43 115.817C142.791 117.601 141.759 120.863 141.12 123.106C139.695 128.255 139.056 129.478 139.4 126.419C139.548 125.145 139.892 119.283 140.236 113.421C140.531 107.508 140.875 102.359 141.022 101.951C141.317 101.034 144.61 109.75 144.61 111.433ZM148.492 111.942C150.212 119.691 151.638 127.898 152.719 136.36C153.161 139.724 153.604 143.038 153.702 143.751C153.898 144.669 153.849 144.822 153.505 144.261C152.916 143.19 152.178 139.52 150.999 131.262C149.721 122.341 148.148 113.166 147.313 109.852C146.379 106.08 145.986 103.582 146.576 104.551C146.821 104.959 147.657 108.323 148.492 111.942ZM154.439 116.122C155.963 122.749 156.503 129.427 156.11 136.869C155.766 143.19 155.717 143.394 155.127 141.406C154.832 140.234 154.39 137.022 154.193 134.27C153.8 128.102 151.687 108.731 151.245 107.304C151.097 106.743 151.539 107.508 152.178 108.986C152.866 110.515 153.898 113.727 154.439 116.122ZM136.992 119.538C138.024 128.051 137.926 136.105 136.746 136.105C136.107 136.105 135.125 125.961 135.419 122.188C135.616 120.149 135.763 117.142 135.813 115.46C135.862 111.433 136.058 112.146 136.992 119.538ZM146.772 119.436C147.509 122.596 148.197 125.859 148.345 126.674C150.311 138.501 152.129 145.229 155.963 155.119C157.584 159.299 158.862 162.765 158.764 162.867C158.469 163.173 152.817 158.534 148.541 154.507C141.415 147.727 140.924 147.218 141.71 147.472C142.3 147.676 142.054 147.014 140.924 145.28C140.039 143.904 138.958 141.814 138.516 140.591L137.68 138.399L141.219 126.929C143.135 120.608 144.856 115.052 144.954 114.542C145.101 114.083 145.298 113.676 145.347 113.676C145.445 113.676 146.084 116.275 146.772 119.436ZM161.418 116.377C162.204 117.04 162.106 117.499 160.484 123.259C159.501 126.725 158.666 129.427 158.616 129.376C158.567 129.274 158.322 125.706 158.125 121.373L157.781 113.523L159.206 114.644C159.943 115.205 160.976 116.02 161.418 116.377ZM131.045 131.415C131.93 134.015 131.684 134.983 130.751 132.74C130.456 131.925 129.817 130.701 129.374 129.988C127.458 126.929 127.31 125.757 128.441 123.055L129.571 120.557L129.915 124.839C130.112 127.184 130.652 130.141 131.045 131.415ZM124.951 139.673C135.321 153.08 137.975 157.209 140.776 164.294C141.956 167.302 142.152 167.608 141.907 165.926C141.12 160.981 138.221 155.476 128.932 141.559C128.047 140.183 127.409 139.01 127.507 138.908C128.244 138.144 144.364 160.93 149.721 170.258C153.112 176.172 156.405 182.238 156.405 182.646C156.405 183.002 152.965 184.175 152.768 183.92C152.67 183.869 151.392 181.83 149.868 179.434C148.394 177.038 146.772 174.693 146.232 174.235C145.494 173.572 143.774 173.317 136.746 173.062C132.028 172.909 127.998 172.603 127.851 172.399C127.458 171.992 124.951 163.53 124.951 162.714C124.951 162.459 125.443 162.102 126.082 161.898C126.868 161.695 127.409 161.949 127.998 162.765C128.441 163.377 128.981 163.683 129.227 163.479C129.718 162.918 127.605 156.699 123.919 147.676C122.297 143.7 120.331 138.552 119.545 136.309C118.808 134.015 117.923 131.619 117.579 130.956C117.039 129.733 117.039 129.733 118.12 131.007C118.71 131.721 121.757 135.595 124.951 139.673ZM167.709 152.723C167.709 152.774 168.839 154.762 170.264 157.107C173.606 162.663 177.538 169.749 177.538 170.157C177.538 170.564 172.623 163.02 170.559 159.35C167.119 153.437 161.32 142.069 161.32 141.355C161.32 141.1 162.745 143.547 164.514 146.759C166.283 149.97 167.709 152.672 167.709 152.723ZM122.936 151.398C124.804 155.73 126.426 159.605 126.524 160.012C126.622 160.522 126.229 160.777 125.492 160.777C124.361 160.828 124.116 160.267 121.708 152.723C117.579 139.775 117.776 139.571 122.936 151.398ZM173.852 145.331C174.392 146.147 173.901 146.3 173.213 145.484C172.869 145.077 172.82 144.771 173.066 144.771C173.311 144.771 173.704 145.026 173.852 145.331ZM114.483 150.225C114.876 151.856 115.22 153.386 115.319 153.691C115.368 153.946 115.81 155.578 116.252 157.26C116.744 158.942 117.284 160.93 117.53 161.695C117.874 162.765 117.776 163.122 117.137 163.377C116.695 163.581 113.795 164.702 110.699 165.926C107.603 167.149 103.179 168.984 100.919 170.004L96.7412 171.839L101.164 167.098C105.637 162.306 108.93 157.056 111.927 149.97C112.665 148.237 113.402 146.912 113.549 147.014C113.648 147.167 114.09 148.594 114.483 150.225ZM178.521 157.464C183.042 163.275 184.713 166.639 185.156 170.768C185.303 172.603 185.352 173.929 185.205 173.776C185.057 173.623 182.452 169.035 179.455 163.632C176.457 158.228 173.262 152.519 172.328 150.939L170.608 148.084L172.869 150.582C174.098 151.958 176.653 155.017 178.521 157.464ZM107.062 155.272C105.637 158.432 102.59 163.122 99.4443 166.792C96.987 169.647 92.5146 173.623 92.5146 172.909C92.5146 172.654 94.3331 170.055 96.5938 167.149C98.8054 164.243 102.295 159.605 104.261 156.852C106.226 154.099 107.947 151.958 108.094 152.111C108.241 152.264 107.75 153.64 107.062 155.272ZM169.429 161.949C170.461 163.581 172.918 167.098 174.835 169.749C178.816 175.254 180.929 178.568 183.976 184.022C186.089 187.794 187.859 190.547 187.859 189.986C187.859 189.833 186.63 187.233 185.106 184.175C182.6 179.077 182.502 178.822 184.025 180.556C184.91 181.626 186.237 182.595 186.925 182.748C188.743 183.206 192.478 189.272 193.953 194.217C194.641 196.409 195.673 201.15 196.312 204.769C197.246 210.478 197.393 212.976 197.344 224.548C197.344 231.837 197.049 240.656 196.754 244.173C196.41 247.69 196.017 253.706 195.869 257.529C195.722 261.403 195.378 264.563 195.132 264.563C194.886 264.563 194.788 262.575 194.936 259.823C195.083 257.274 195.329 251.565 195.476 247.232C195.575 242.899 195.82 235.303 196.017 230.41C196.213 225.21 196.115 219.093 195.771 215.678C195.231 209.612 193.854 203.546 193.216 204.259C193.019 204.463 193.068 206.502 193.314 208.745C193.756 212.568 193.953 241.064 193.56 241.471C193.461 241.573 192.871 238.974 192.282 235.66C190.611 226.434 189.579 222.101 186.925 214.098C183.435 203.291 180.781 196.052 177.194 187.386C173.508 178.466 165.055 156.852 164.563 154.966C164.367 154.252 164.907 154.813 165.841 156.342C166.726 157.82 168.347 160.318 169.429 161.949ZM151.392 163.071C155.373 168.78 156.601 170.768 156.307 170.768C155.864 170.768 148.148 160.012 146.969 157.769C145.691 155.374 148.148 158.279 151.392 163.071ZM189.775 159.146C190.856 161.236 190.856 161.287 189.874 160.063C188.448 158.33 187.76 157.005 188.252 157.005C188.448 157.005 189.186 157.973 189.775 159.146ZM97.6259 160.675C97.4293 161.032 95.9057 163.377 94.2348 165.926C92.5638 168.423 90.7945 171.38 90.3031 172.399C89.6642 173.827 88.6321 174.795 86.0765 176.325L82.7345 178.364L83.0294 176.732C83.226 175.509 85.0935 173.215 90.4996 167.557C94.4314 163.428 97.7242 160.063 97.8225 160.063C97.9207 160.063 97.8225 160.369 97.6259 160.675ZM83.3734 163.479C82.6362 164.855 80.7687 167.761 79.2451 170.004C77.7216 172.247 76.1981 174.54 75.9032 175.152C75.6083 175.764 75.2151 179.536 75.0677 183.563C74.9203 187.59 74.6745 191.923 74.5762 193.198C74.4288 194.472 74.2322 198.244 74.0356 201.608C73.839 204.973 73.6425 207.828 73.5442 207.929C73.151 208.388 71.3817 206.247 70.3496 204.004C69.3667 201.914 69.2193 200.793 69.2193 195.746C69.1701 185.398 71.9715 178.618 82.9311 162.561C84.5038 160.216 84.7987 160.879 83.3734 163.479ZM120.037 171.635C120.97 175.509 122.101 179.026 122.494 179.434C123.182 180.148 123.919 180.199 126.721 179.893C128.588 179.638 131.783 179.485 133.798 179.485L137.484 179.536L133.404 181.473C128.342 183.971 126.229 185.653 124.706 188.355C122.985 191.311 123.084 193.86 124.902 195.797C126.426 197.327 128.195 197.683 129.915 196.766C131.291 195.95 131.095 195.135 129.669 195.797C127.802 196.715 126.032 195.95 125.099 193.962C124.067 191.719 124.804 189.833 127.654 187.182C129.817 185.194 140.973 179.536 141.514 180.148C141.907 180.556 134.731 188.151 132.225 189.986C131.193 190.7 130.357 191.566 130.357 191.872C130.357 192.178 131.881 193.656 133.699 195.135C139.646 199.926 141.907 202.679 143.774 207.471C144.708 209.867 147.706 217.054 150.507 223.528C156.11 236.68 158.616 243.154 162.106 253.706C165.35 263.442 165.939 263.442 164.514 253.604C163.04 243.408 158.42 229.288 152.67 217.462C148.689 209.357 149.574 209.612 155.471 218.278C161.074 226.434 164.907 233.366 166.578 238.311C168.691 244.581 171.296 253.553 172.869 259.976C173.606 262.932 174.638 267.112 175.228 269.253C175.769 271.445 176.113 273.331 175.965 273.535C175.818 273.688 175.031 273.484 174.245 273.025C173.41 272.618 169.969 271.088 166.48 269.661C162.991 268.234 159.747 266.755 159.206 266.348C158.616 265.94 157.584 263.646 156.651 260.638C152.621 247.996 146.674 234.896 142.103 228.88C141.366 227.912 140.137 225.261 139.449 223.018C137.189 216.137 135.223 213.129 131.783 211.243C129.62 210.07 125.934 210.07 124.263 211.243C121.314 213.231 122.101 214.964 128.146 219.705C130.554 221.591 133.798 224.497 135.321 226.128C137.926 228.931 138.172 229.39 138.958 233.213C139.4 235.456 139.892 237.75 140.039 238.311C140.285 239.228 140.187 239.228 139.597 238.566C139.204 238.158 137.484 235.507 135.763 232.704C134.043 229.9 131.881 226.638 130.947 225.414C129.571 223.579 129.178 223.324 128.539 223.885C127.949 224.344 127.9 225.108 128.146 227.096C128.834 232.806 131.881 245.6 133.896 251.463C134.436 253.094 134.781 254.572 134.584 254.725C134.436 254.929 133.503 254.674 132.569 254.215C130.112 252.992 129.866 253.094 129.866 255.133V256.917L125.983 254.929C121.708 252.686 120.872 251.718 115.957 243.154C111.289 234.998 106.325 222.661 103.917 213.078C102.983 209.51 101.508 201.659 100.476 195.237L100.034 192.433L99.9357 194.778C99.8866 197.938 101.115 207.318 102.295 212.568C104.85 223.477 110.256 237.24 115.466 245.804C117.039 248.506 116.891 248.761 115.073 246.416C109.765 239.636 104.261 229.339 100.28 218.685C99.0511 215.474 97.4293 211.141 96.6429 209.051C95.8566 206.961 94.9228 205.177 94.6279 205.024C92.8587 204.463 92.7112 210.223 94.2839 217.921C96.8395 230.104 104.752 246.671 112.861 256.611C115.417 259.721 115.466 259.823 114.041 259.262C111.583 258.344 107.75 253.502 103.229 245.651C95.7092 232.602 92.5638 224.751 90.3031 213.435C88.1406 202.628 88.0915 183.512 90.2539 178.211C90.8437 176.783 91.63 176.121 94.5788 174.693C98.4122 172.807 117.383 164.753 118.071 164.702C118.218 164.651 119.103 167.812 120.037 171.635ZM317.113 169.596C316.769 170.666 315.442 173.674 314.116 176.325C311.511 181.473 311.314 182.289 312.395 183.818C313.034 184.685 313.919 184.838 319.669 185.041L326.206 185.296L326.353 188.355C326.451 190.037 326.402 192.586 326.206 194.013C325.911 196.511 325.763 196.715 323.601 197.938C322.323 198.652 318.44 200.181 314.902 201.354C302.468 205.483 300.649 206.094 299.961 206.349C299.568 206.502 299.372 206.4 299.568 206.094C299.765 205.788 302.615 204.004 305.908 202.067C316.327 196.103 321.094 192.331 323.06 188.508C323.552 187.59 323.306 187.692 321.979 189.018C319.767 191.26 314.165 195.237 309.987 197.479L306.547 199.315L308.513 197.683C311.511 195.084 316.18 190.496 315.934 190.292C315.836 190.19 314.46 191.006 312.887 192.127C311.265 193.198 307.776 195.593 305.073 197.428C293.425 205.228 290.132 209.561 283.202 225.924C281.187 230.614 279.516 234.386 279.418 234.335C278.976 233.825 282.416 225.057 285.561 218.685C292.786 204.106 293.474 202.526 295.489 196.511C298.978 186.214 300.502 183.461 305.023 179.281C307.186 177.242 310.823 173.725 313.133 171.431C315.442 169.137 317.408 167.353 317.507 167.455C317.605 167.557 317.457 168.525 317.113 169.596ZM196.705 180.199C203.88 193.299 208.205 200.691 211.645 205.687L215.135 210.784L215.036 217.768C214.938 221.948 214.643 225.414 214.25 226.383C213.66 227.963 213.66 227.912 212.432 223.426C211.351 219.399 206.583 206.604 206.534 207.675C206.534 207.878 207.173 210.733 207.959 214.047C210.073 222.814 210.859 227.3 211.695 235.507C212.481 243.612 212.628 247.181 212.088 248.608C211.695 249.577 211.744 249.628 208.795 232.194C204.912 208.898 202.504 199.62 197.688 189.629C194.985 184.073 190.316 171.278 190.316 169.443C190.316 168.831 192.577 172.654 196.705 180.199ZM156.307 176.427C158.272 179.077 159.845 181.473 159.845 181.626C159.845 181.83 159.354 181.983 158.764 181.983C157.83 181.983 157.142 180.963 154.783 176.223C153.21 173.113 152.129 170.717 152.326 171.023C152.571 171.278 154.341 173.725 156.307 176.427ZM304.335 173.011C303.352 173.929 302.124 174.846 301.534 175.05C300.502 175.407 297.013 179.026 295.342 181.473C294.506 182.697 294.506 182.697 295.243 180.708C297.553 174.642 300.895 171.278 304.581 171.278H306.056L304.335 173.011ZM320.062 176.885C320.062 177.956 319.866 178.313 319.374 178.109C318.834 177.905 318.834 177.599 319.276 176.579C319.964 174.999 320.062 175.05 320.062 176.885ZM88.4355 178.568C86.6662 183.308 86.7645 203.953 88.5338 213.078C91.1385 226.383 97.5276 241.064 106.079 253.502C107.013 254.827 107.75 256.05 107.75 256.203C107.75 256.356 106.03 254.878 103.966 252.839C100.034 249.118 99.346 247.996 95.6109 239.33C93.8907 235.303 92.3672 231.225 90.4996 225.822C86.7645 214.709 84.0123 197.021 84.2089 185.245L84.3072 180.352L86.0765 179.179C88.0915 177.803 88.7795 177.599 88.4355 178.568ZM341.637 184.073C341.687 186.724 341.392 188.865 340.655 191.006C339.426 194.778 338.099 196.409 338.738 193.35C338.934 192.28 339.524 188.304 340.016 184.532C340.949 177.191 341.539 176.987 341.637 184.073ZM352.745 181.881C352.45 182.136 350.73 183.665 348.911 185.296L345.569 188.253L345.717 185.5L345.864 182.748L348.567 182.187C351.958 181.422 353.334 181.371 352.745 181.881ZM164.121 187.488C167.463 192.127 171.493 198.907 174.589 205.177C178.963 214.098 182.502 230.206 183.927 247.996C185.008 261.454 184.271 259.772 180.978 241.624C178.717 229.135 176.997 222.661 173.655 214.352C171.739 209.612 164.858 195.389 160.582 187.386C159.059 184.583 158.862 183.818 159.403 183.461C160.533 182.748 160.926 183.104 164.121 187.488ZM160.877 191.057C165.251 199.264 170.952 210.835 171.886 213.486C172.279 214.505 173.262 217.054 174.098 219.144C175.67 223.12 178.521 233.519 178.521 235.252C178.472 235.813 178.078 235.099 177.538 233.723C170.461 214.148 163.482 199.824 155.815 188.763C154.783 187.284 153.948 186.01 153.948 185.857C153.948 185.602 156.454 184.073 156.896 184.073C157.044 184.073 158.813 187.182 160.877 191.057ZM328.27 190.139C328.122 191.974 327.778 194.013 327.483 194.727C327.139 195.695 326.992 194.778 326.992 190.7C326.943 185.908 326.992 185.5 327.729 186.112C328.368 186.673 328.466 187.437 328.27 190.139ZM151.097 187.59C150.507 188.202 150.016 189.068 150.016 189.578C150.016 191.108 152.277 194.166 157.584 199.824C160.337 202.781 163.433 206.196 164.416 207.471C165.988 209.561 169.674 216.544 169.674 217.513C169.674 217.666 167.954 216.137 165.89 214.047C163.777 211.906 160.091 208.286 157.732 205.89C153.161 201.405 147.755 194.421 147.264 192.433C146.871 190.751 148.345 188.151 150.163 187.335C152.277 186.367 152.326 186.418 151.097 187.59ZM157.388 193.605C161.172 199.518 164.956 206.247 163.679 204.922C151.49 192.025 149.967 189.884 151.589 188.202C152.768 186.978 153.702 187.896 157.388 193.605ZM208.156 191.617C209.483 193.962 208.844 193.554 207.271 191.006C206.485 189.833 206.19 189.119 206.583 189.476C206.976 189.782 207.665 190.751 208.156 191.617ZM145.888 191.057C145.544 192.535 146.674 194.625 150.016 198.856C150.95 200.028 151.441 200.895 151.195 200.793C150.262 200.436 140.727 192.943 140.678 192.586C140.678 192.178 145.003 189.68 145.74 189.629C145.986 189.629 146.035 190.241 145.888 191.057ZM218.477 196.715C230.321 206.655 233.073 209.765 233.073 213.384C233.073 214.556 232.877 215.729 232.582 215.882C232.336 216.035 232.09 215.729 232.09 215.117C232.09 212.008 228.994 208.337 217.838 198.346C213.218 194.217 208.942 189.629 209.729 189.629C209.876 189.629 213.808 192.79 218.477 196.715ZM280.45 190.445C281.531 191.566 281.482 195.338 280.401 196.358C279.91 196.817 278.583 197.632 277.452 198.244C275.388 199.315 275.339 199.315 275.339 198.346C275.339 195.899 276.519 191.923 277.6 190.802C278.927 189.425 279.418 189.374 280.45 190.445ZM290.771 196.103C289.297 203.24 286.299 211.549 282.023 220.724C278.337 228.575 277.649 228.116 280.991 219.96C284.235 211.906 286.102 206.502 287.331 201.558C288.215 197.887 288.854 196.307 289.69 195.644C291.164 194.472 291.115 194.472 290.771 196.103ZM213.513 199.926C216.904 205.126 220.787 211.498 220.787 211.906C220.787 212.976 212.825 201.099 210.761 196.868C209.336 193.962 210.368 195.135 213.513 199.926ZM222.507 205.687C225.603 209 227.274 211.651 227.52 213.588C227.667 214.709 227.667 215.627 227.52 215.627C226.93 215.627 217.494 202.679 215.626 199.315C215.233 198.601 220.148 203.138 222.507 205.687ZM284.677 200.997C284.677 201.659 283.891 204.922 282.957 208.235C279.566 220.368 279.222 220.928 280.499 212.364C281.63 204.514 282.318 201.354 283.055 200.538C284.087 199.518 284.677 199.671 284.677 200.997ZM325.96 200.742C325.96 200.997 325.173 202.118 324.24 203.24C321.242 206.91 319.276 207.522 305.318 209.255C303.844 209.459 301.632 209.816 300.453 210.07C299.273 210.325 298.241 210.478 298.094 210.376C297.996 210.274 299.47 209.459 301.387 208.541C304.434 207.165 306.694 206.4 315.639 203.902C316.573 203.648 319.03 202.73 321.045 201.914C325.026 200.334 325.96 200.079 325.96 200.742ZM331.169 202.22C330.776 202.985 330.432 203.495 330.383 203.291C330.383 202.679 331.513 200.334 331.71 200.538C331.857 200.64 331.612 201.405 331.169 202.22ZM277.551 206.502C277.354 208.184 277.01 210.223 276.813 210.937C276.42 212.211 276.42 212.16 276.322 210.274C276.273 209.153 276.175 207.42 276.076 206.451C275.929 204.973 276.715 203.495 277.698 203.393C277.796 203.393 277.747 204.769 277.551 206.502ZM263.495 204.616C264.232 205.534 264.379 205.483 255.091 209.408C249.291 211.906 247.473 212.466 246.097 212.211C244.033 211.855 243.984 211.498 245.753 209.765C249.39 206.196 254.698 203.953 259.416 203.902C261.873 203.902 263.102 204.106 263.495 204.616ZM81.211 207.216C81.211 207.471 80.9653 207.369 80.7195 206.961C80.4738 206.553 80.2281 205.941 80.2281 205.687C80.2281 205.381 80.4738 205.534 80.7195 205.941C80.9653 206.349 81.211 206.91 81.211 207.216ZM200.194 212.415C201.718 220.52 201.767 230.002 200.391 255.643C200.342 256.764 200.145 261.913 199.949 267.112C199.506 279.397 199.211 282.915 198.572 282.915C198.179 282.915 198.13 276.899 198.474 261.862C198.72 250.341 198.916 233.111 198.916 223.63C198.916 214.199 198.966 206.451 198.966 206.451C199.015 206.451 199.555 209.153 200.194 212.415ZM97.1835 214.098C99.4443 220.775 102.442 228.014 104.85 232.755C106.865 236.833 111.583 244.428 112.96 245.957C115.073 248.302 115.269 248.914 113.402 247.385C111.043 245.448 106.521 240.605 104.457 237.801C100.968 233.06 98.019 226.383 96.2006 218.94C95.0703 214.505 94.3331 207.573 95.0211 208.337C95.2177 208.592 96.1515 211.141 97.1835 214.098ZM270.179 214.301C271.014 225.567 273.226 240.707 275.29 249.271C278.14 261.301 278.435 262.575 278.14 262.83C277.993 263.034 276.666 263.187 275.241 263.238C272.292 263.289 272.39 263.442 273.619 258.956C274.209 256.968 274.356 254.776 274.209 251.31C273.963 245.397 272.783 242.236 270.179 240.656L268.459 239.636V233.111C268.459 229.543 268.115 223.579 267.721 219.96C266.788 211.345 266.788 211.294 268.115 209.968C269.196 208.898 269.196 208.898 268.115 209.459C266.788 210.172 266.345 210.172 266.738 209.459C266.935 209.153 267.574 208.745 268.164 208.541C269.441 208.031 269.736 208.949 270.179 214.301ZM150.262 210.988C149.967 211.243 149.033 210.478 149.033 209.968C149.033 209.714 149.328 209.765 149.721 210.121C150.114 210.478 150.311 210.886 150.262 210.988ZM263.347 211.753C262.856 212.058 261.529 213.027 260.399 213.894C259.317 214.76 255.533 217.156 251.995 219.195C239.659 226.434 235.727 229.441 229.289 236.425C224.915 241.064 223.932 241.064 227.176 236.374C229.436 233.111 231.058 229.645 231.107 228.065C231.107 227.3 231.795 226.739 233.958 225.822C236.12 224.904 251.306 217.207 262.561 211.345C264.035 210.58 264.674 210.886 263.347 211.753ZM173.115 226.587C175.326 231.327 178.373 240.044 180.192 246.824C180.634 248.455 181.126 250.137 181.322 250.647C181.519 251.259 181.47 251.412 181.076 251.055C180.831 250.749 179.995 248.914 179.258 246.977C176.063 238.464 169.38 225.618 163.187 216.035C161.614 213.537 160.337 211.396 160.337 211.192C160.337 210.988 162.696 213.231 165.546 216.137C170.313 220.979 171.001 221.948 173.115 226.587ZM132.028 213.69C133.945 215.321 135.813 218.838 136.501 222.203L136.845 223.987L134.977 222.356C133.896 221.438 131.242 219.399 129.03 217.87C123.919 214.25 123.428 213.69 124.706 212.772C125.197 212.364 126.622 212.058 127.9 212.058C129.669 212.058 130.505 212.364 132.028 213.69ZM216.265 214.403C216.118 215.78 216.069 215.729 215.823 213.996C215.675 212.874 215.774 212.262 216.019 212.517C216.265 212.772 216.363 213.588 216.265 214.403ZM265.215 221.744C264.478 236.17 260.693 247.283 253.862 254.776L251.356 257.58L248.603 257.325C247.08 257.172 245.704 256.917 245.507 256.713C245.311 256.56 246.834 254.623 248.849 252.431C253.223 247.792 257.745 242.338 258.531 240.758C259.317 239.228 259.317 237.648 258.531 238.464C258.187 238.821 257.597 239.076 257.155 239.076C256.713 239.076 253.272 242.491 249.488 246.671C244.868 251.768 242.46 254.062 242.116 253.757C240.986 252.839 239.413 248.098 238.971 244.275L238.528 240.35L238.676 244.989C238.823 248.659 239.118 250.239 240.101 252.482L241.33 255.337L238.823 257.325C230.124 264.207 224.522 265.787 221.72 262.117C220.836 260.944 220.737 260.332 220.983 257.937C221.18 256.407 221.77 253.604 222.359 251.718L223.391 248.353L224.767 249.424C226.537 250.749 229.141 250.698 231.402 249.271C233.761 247.69 236.71 244.071 237.496 241.675C238.184 239.534 238.381 239.381 241.674 238.821C248.161 237.699 255.681 229.951 255.681 224.446C255.681 223.171 254.354 221.897 252.781 221.642C251.798 221.489 251.995 221.285 254.255 220.011C257.843 218.023 264.232 213.588 264.527 212.874C265.018 211.651 265.411 217.156 265.215 221.744ZM150.802 218.227C154.636 226.179 159.845 239.993 160.533 244.173C160.779 245.549 160.582 245.295 159.796 243.154C159.206 241.624 157.535 237.189 156.061 233.315C154.586 229.441 152.522 224.14 151.392 221.591C148.345 214.403 148.001 213.588 148.296 213.588C148.443 213.588 149.524 215.678 150.802 218.227ZM243.64 214.556C242.755 215.423 236.513 218.125 236.513 217.666C236.513 217.003 241.92 214.148 243.148 214.098C243.689 214.098 243.885 214.301 243.64 214.556ZM220.295 223.579C219.361 227.759 217.543 232.857 217.15 232.398C217.051 232.296 217.297 229.186 217.69 225.567C218.084 221.897 218.28 217.921 218.133 216.697L217.838 214.454L219.558 216.799L221.278 219.144L220.295 223.579ZM82.4396 226.332C84.5038 231.786 87.3051 239.127 88.6321 242.542C89.959 246.008 91.0403 249.067 91.0403 249.322C91.0403 249.628 91.4826 250.749 91.974 251.819C92.5146 252.941 92.7112 253.858 92.4655 253.858C91.9249 253.858 84.0615 237.291 82.6854 233.213C80.8178 227.759 78.2622 217.921 78.2622 216.188C78.2622 215.474 79.0485 217.411 82.4396 226.332ZM254.206 224.598C254.206 228.473 248.309 234.743 242.804 236.68C240.494 237.495 240.445 237.495 240.396 236.374C240.347 235.507 240.298 235.456 240.101 236.119C240.003 236.629 239.561 237.037 239.216 237.037C238.381 237.037 238.725 235.864 240.838 231.378C241.87 229.084 242.804 228.065 245.163 226.383C249.881 223.018 254.206 222.152 254.206 224.598ZM239.855 231.021C239.216 231.939 238.43 233.009 238.086 233.366C237.742 233.774 237.3 234.743 237.152 235.558C236.808 237.393 236.759 237.444 233.565 237.801L231.009 238.107L232.139 236.629C233.614 234.794 236.71 232.143 237.201 232.347C237.398 232.398 238.086 231.786 238.774 230.919C240.445 228.88 241.281 228.931 239.855 231.021ZM226.93 231.786C226.537 232.551 225.013 235.15 223.588 237.546C221.475 241.013 220.688 241.93 219.656 242.032C218.919 242.134 218.329 242.032 218.329 241.828C218.329 241.369 224.915 232.245 226.291 230.818C227.569 229.492 227.913 229.951 226.93 231.786ZM287.675 235.558C287.773 250.035 287.527 264.41 287.134 265.073C286.544 266.093 285.66 265.175 285.217 263.085C284.873 261.148 285.414 248.455 286.102 242.848C286.348 240.605 286.741 237.037 286.938 234.845C287.085 232.653 287.331 230.97 287.429 231.072C287.527 231.174 287.626 233.213 287.675 235.558ZM188.694 232.551C188.547 232.958 188.399 232.806 188.399 232.245C188.35 231.684 188.497 231.378 188.645 231.582C188.792 231.735 188.841 232.194 188.694 232.551ZM265.756 241.471C265.51 243.358 265.264 243.663 264.281 243.663H263.151L264.035 240.656C264.576 239.025 265.117 236.221 265.362 234.437L265.756 231.174L265.903 235.252C266.001 237.495 265.903 240.299 265.756 241.471ZM140.432 252.431L143.578 258.854L140.678 257.478C139.056 256.713 137.434 255.643 137.041 255.133C135.616 252.941 130.8 236.476 130.849 233.825C130.849 233.213 133.65 238.668 140.432 252.431ZM190.021 241.166C190.365 244.938 190.66 251.565 190.66 255.898C190.66 264.207 190.611 264.003 189.824 248.506C189.53 243.154 189.235 237.546 189.087 236.017C188.94 234.488 188.94 233.468 189.087 233.774C189.235 234.08 189.628 237.393 190.021 241.166ZM203.831 255.235C204.028 262.32 203.979 271.955 203.782 276.645L203.34 285.208L203.045 272.465C202.897 265.43 202.75 254.215 202.75 247.487C202.75 232.602 203.291 236.578 203.831 255.235ZM79.4909 246.722C79.9332 254.521 79.2451 273.229 78.7045 268.387C78.5079 266.704 78.3605 258.803 78.3605 250.8C78.3605 236.068 78.852 234.437 79.4909 246.722ZM147.067 245.244C148.541 249.322 148.984 251.361 148.001 249.628C147.165 248.149 144.266 240.452 143.922 238.821C143.627 237.393 143.676 237.393 144.61 239.228C145.15 240.248 146.281 242.95 147.067 245.244ZM236.022 239.84C236.022 240.044 235.678 240.86 235.236 241.777C233.024 246.263 229.436 249.22 227.028 248.557C225.013 248.047 224.915 246.518 226.733 243.408C228.109 241.013 228.65 240.554 230.321 240.146C232.631 239.636 236.022 239.432 236.022 239.84ZM27.5923 243.663C27.5923 244.122 27.3957 244.071 27.15 243.408C26.9043 242.848 26.7077 242.032 26.7077 241.624C26.7077 241.166 26.9043 241.217 27.15 241.879C27.3957 242.44 27.5923 243.256 27.5923 243.663ZM270.375 242.797C270.67 243.205 271.063 244.173 271.211 245.04C271.456 246.365 271.309 246.671 269.736 247.639L268.016 248.71L268.262 246.059C268.704 241.93 269.097 241.268 270.375 242.797ZM173.164 249.729C175.277 255.337 180.585 274.045 180.388 275.115C180.29 275.625 179.995 275.625 179.012 275.115C177.685 274.453 177.046 272.516 175.081 263.289C174.048 258.191 172.82 253.502 171.1 247.283C169.232 240.86 170.215 241.981 173.164 249.729ZM218.526 246.926C216.806 250.851 216.363 256.968 217.543 260.179C218.428 262.575 221.229 265.532 222.654 265.634C223.195 265.634 222.998 265.838 222.163 266.144C220.344 266.857 217.641 265.583 216.413 263.493C214.889 260.944 213.366 253.502 213.857 251.31C215.086 246.212 216.216 244.326 218.28 244.071C218.968 243.969 219.607 243.918 219.705 243.969C219.755 243.969 219.263 245.346 218.526 246.926ZM29.8039 250.188C31.5732 255.541 31.9172 256.815 31.0817 255.388C30.3937 254.113 27.6415 246.11 27.6415 245.244C27.6415 243.969 27.9855 244.734 29.8039 250.188ZM113.353 250.749C114.729 251.819 117.235 253.451 118.857 254.419C120.921 255.592 122.74 257.274 124.656 259.67C126.18 261.607 127.31 263.289 127.212 263.442C126.819 263.799 122.445 262.575 120.676 261.607C118.12 260.179 113.451 255.133 110.256 250.29C108.586 247.792 107.259 245.702 107.259 245.549C107.259 245.448 108.094 246.11 109.077 247.079C110.06 248.047 111.977 249.729 113.353 250.749ZM264.232 248.2C263.937 250.749 263.79 250.902 261.48 252.125C260.104 252.839 258.924 253.298 258.826 253.196C258.678 253.043 259.416 251.718 260.448 250.239C262.659 246.977 264.183 245.142 264.379 245.397C264.478 245.498 264.429 246.773 264.232 248.2ZM222.261 247.487C221.376 249.882 220.295 255.439 220.295 257.58C220.246 259.364 220.197 259.568 219.755 258.752C218.919 257.325 219.46 252.329 220.836 249.118C221.966 246.314 223.195 244.938 222.261 247.487ZM210.662 255.541C210.171 260.791 209.483 258.599 209.532 252.074L209.581 246.467L210.269 249.271C210.712 251.106 210.859 253.247 210.662 255.541ZM272.39 250.239C272.39 255.694 269.245 262.269 266.935 261.658C265.805 261.352 265.805 261.76 266.788 255.898C267.574 251.208 267.672 251.004 269.638 249.424C270.719 248.557 271.801 247.792 272.046 247.792C272.243 247.741 272.39 248.863 272.39 250.239ZM73.0527 249.271C72.7578 249.577 69.9073 250.392 66.6637 251.106C51.0351 254.623 50.2488 254.776 50.2488 254.113C50.2488 253.706 51.2317 253.298 52.6078 253.094C53.8856 252.941 57.375 252.176 60.3238 251.463C70.3988 249.016 71.136 248.863 72.3646 248.812C73.151 248.761 73.3967 248.914 73.0527 249.271ZM72.1189 252.329C71.2834 252.686 64.0589 254.011 59.3409 254.674C58.0139 254.827 58.0139 254.827 59.5866 254.317C61.8965 253.604 70.3496 251.921 71.8732 251.921C73.0036 251.87 73.0036 251.921 72.1189 252.329ZM262.807 255.235C262.659 255.999 262.168 257.376 261.824 258.293L261.136 259.925L258.531 259.16C257.106 258.701 255.73 258.191 255.435 258.038C255.091 257.784 262.07 253.96 263.003 253.858C263.102 253.858 263.003 254.47 262.807 255.235ZM95.4634 266.297C98.0682 271.445 99.8866 277.409 99.8866 280.774C99.8866 281.538 95.0703 271.241 92.3181 264.563C90.6962 260.74 88.5829 254.929 88.5829 254.47C88.6321 253.757 92.6621 260.74 95.4634 266.297ZM72.5121 255.235C72.1681 255.337 71.5783 255.337 71.2834 255.235C70.9394 255.082 71.1851 254.98 71.8732 254.98C72.5612 254.98 72.807 255.082 72.5121 255.235ZM212.432 257.733C212.432 258.191 212.776 259.823 213.218 261.403C214.201 264.818 216.462 267.469 218.87 267.979C220.443 268.285 220.443 268.285 219.263 268.743C218.624 268.998 216.806 269.508 215.233 269.916C212.628 270.528 212.383 270.528 211.94 269.661C211.301 268.387 211.301 256.917 211.94 256.917C212.235 256.917 212.432 257.274 212.432 257.733ZM135.075 258.191C136.009 258.905 136.009 258.905 134.977 258.956C134.436 258.956 133.552 258.599 133.011 258.191C132.077 257.478 132.077 257.478 133.11 257.427C133.65 257.427 134.535 257.784 135.075 258.191ZM246.588 258.905L248.014 259.262L246.294 260.383C244.377 261.607 237.005 265.175 237.005 264.869C237.005 264.767 238.479 263.136 240.347 261.301C242.509 259.109 243.885 258.038 244.377 258.242C244.77 258.446 245.753 258.701 246.588 258.905ZM131.733 261.505C137.09 264.359 143.135 269.406 140.432 268.845C138.221 268.336 132.618 265.124 129.768 262.677C127.458 260.74 125.983 258.956 126.622 258.956C126.77 258.956 129.08 260.078 131.733 261.505ZM114.336 266.042C122.887 274.504 128.686 278.48 136.255 280.978C139.548 282.048 140.826 282.15 148.787 282.15C156.896 282.099 157.928 281.997 161.123 280.825L164.612 279.55L167.463 281.181C171.001 283.22 171.739 283.934 170.264 283.934C167.905 283.934 165.153 286.177 163.58 289.388C162.646 291.326 162.548 296.015 163.384 299.686C163.679 301.113 163.826 302.387 163.679 302.54C163.531 302.693 161.467 301.979 159.059 301.011C156.651 299.991 152.031 298.105 148.787 296.831C143.725 294.843 141.366 293.67 135.223 290.306C133.601 289.439 134.191 289.287 138.122 289.439C140.187 289.49 142.988 289.287 144.315 288.879C146.625 288.267 146.477 288.216 140.383 288.267C134.043 288.267 133.994 288.267 131.586 286.636C128.932 284.852 126.229 282.405 126.573 282.099C126.671 281.997 127.605 282.252 128.588 282.66C133.748 284.903 148.148 286.636 152.719 285.616C154.488 285.208 154.095 285.107 148.787 284.495C141.514 283.679 136.599 282.405 129.669 279.499C123.035 276.696 121.462 275.574 115.613 269.304C108.389 261.556 107.013 259.976 107.652 259.976C107.947 259.976 110.945 262.728 114.336 266.042ZM256.516 260.842C259.366 261.76 259.661 262.32 258.04 263.901C256.27 265.532 255.484 265.838 246.343 268.336C235.776 271.19 234.253 271.649 227.274 273.994C221.72 275.829 219.558 276.186 223.096 274.606C235.481 269.253 248.063 263.034 250.766 260.944C252.289 259.772 253.223 259.772 256.516 260.842ZM108.536 266.857C110.65 269.661 113.402 273.076 114.631 274.453L116.842 277.001L114.532 275.319C111.239 272.872 109.814 271.088 105.096 263.289C102.786 259.517 103.573 260.332 108.536 266.857ZM116.744 263.697C121.216 265.838 131.242 268.539 137.484 269.304C138.319 269.406 136.992 269.559 134.535 269.559C132.127 269.61 128.588 269.304 126.671 268.896C122.985 268.081 116.154 264.92 114.139 263.085C112.714 261.76 112.861 261.811 116.744 263.697ZM33.8831 267.316C38.2571 278.684 42.5328 297.239 46.5628 322.166C47.2509 326.499 48.1355 331.902 48.5287 334.145C50.2488 344.391 51.33 353.312 51.3792 358.002L51.4775 363.099L49.9539 363.762L48.3812 364.425L47.8406 359.225C47.5457 356.37 46.956 351.63 46.5628 348.673C46.2188 345.717 45.7273 342.046 45.5799 340.517C44.8918 333.584 39.584 303.152 36.4878 288.267C35.9472 285.718 35.0626 281.283 34.522 278.327C33.9322 275.37 33.0476 270.935 32.507 268.488C31.4257 263.238 31.3275 261.76 32.1629 263.238C32.4578 263.748 33.2442 265.583 33.8831 267.316ZM72.8561 264.308C72.8561 264.716 72.7087 265.124 72.5121 265.226C72.0206 265.532 54.3279 269.661 53.8365 269.61C53.345 269.559 61.8473 266.5 67.6957 264.563C72.2172 263.136 72.8561 263.085 72.8561 264.308ZM151.048 270.222C152.719 271.088 153.948 271.904 153.8 272.006C153.456 272.363 143.381 267.418 142.939 266.704C142.595 266.093 146.232 267.673 151.048 270.222ZM120.331 269.1C120.577 269.355 122.789 270.069 125.197 270.731C130.996 272.261 143.43 272.516 144.266 271.088C144.757 270.324 145.052 270.375 147.509 271.547C149.033 272.21 151.933 273.484 153.948 274.3C158.961 276.339 161.811 277.868 161.565 278.378C161.025 279.244 155.913 279.856 148.836 279.856C142.496 279.856 140.58 279.652 136.599 278.633C134.043 277.97 131.193 277.001 130.308 276.543C128.441 275.574 119.054 269.151 119.054 268.845C119.054 268.488 119.84 268.641 120.331 269.1ZM72.1189 270.171C72.3646 270.578 72.1681 273.229 71.136 284.444C70.3988 292.243 68.0889 302.846 65.5825 309.83L64.2555 313.551L63.7149 311.869C62.9286 309.371 61.5033 309.626 60.6187 312.378C60.2746 313.602 59.8815 314.468 59.7832 314.367C59.6849 314.265 59.046 310.543 58.3579 306.058C57.6699 301.623 56.2446 292.906 55.1634 286.738C54.0822 280.57 53.1976 274.911 53.1976 274.198C53.1976 272.923 53.3942 272.821 56.7853 272.261C58.702 271.955 62.7811 271.241 65.7299 270.731C68.7278 270.222 71.2834 269.763 71.48 269.712C71.6766 269.661 71.9715 269.865 72.1189 270.171ZM181.027 280.366C190.119 285.107 201.62 290.867 206.583 293.161C211.547 295.455 215.725 297.392 215.823 297.494C215.97 297.647 215.823 297.952 215.528 298.258C215.184 298.615 213.071 297.799 208.697 295.658C205.207 293.925 199.654 291.428 196.361 290.051C189.874 287.298 189.53 287.146 172.869 277.613C154.144 266.857 156.798 267.775 181.027 280.366ZM172.525 279.805C176.407 281.844 179.504 283.577 179.405 283.679C179.16 283.934 175.031 282.864 173.262 282.099C170.805 281.028 165.89 277.664 165.251 276.594C164.956 276.084 164.858 275.727 165.104 275.829C165.3 275.931 168.642 277.715 172.525 279.805ZM123.968 290.408C127.998 294.741 133.257 299.635 140.924 306.261C143.332 308.3 141.808 307.587 136.992 304.426C132.667 301.572 125.197 295.404 121.069 291.377C117.972 288.318 110.699 278.735 110.699 277.715C110.699 277.052 118.169 284.189 123.968 290.408ZM99.4443 288.42C99.9849 290.306 100.526 294.129 100.673 296.933C101.164 305.548 99.1003 313.5 92.2198 329.863C90.6962 333.482 89.3693 336.388 89.271 336.286C88.8778 335.878 92.1706 322.727 94.5788 315.284C99.1494 300.96 99.9357 293.161 97.6259 284.189C96.9378 281.487 98.5596 285.259 99.4443 288.42ZM180.634 287.451L185.303 289.083L188.104 292.855C192.773 299.176 203.045 308.402 205.404 308.402C205.748 308.402 206.043 308.759 206.043 309.167C206.043 309.779 205.404 309.932 203.241 309.932C199.654 309.932 188.94 308.249 185.647 307.179C182.452 306.108 180.585 306.108 182.895 307.179C185.352 308.249 192.921 310.238 197.688 311.002C199.998 311.359 201.521 311.767 201.079 311.818C200.637 311.92 197.049 311.563 193.068 311.002C185.401 309.881 184.123 309.779 185.647 310.39C186.581 310.798 194.739 312.073 200.784 312.735C202.308 312.939 203.585 313.245 203.585 313.449C203.585 313.959 202.357 315.08 202.062 314.825C201.964 314.723 200.342 314.468 198.425 314.316C190.856 313.551 187.269 312.735 180.487 310.187C175.719 308.402 167.659 304.834 166.873 304.222C165.792 303.356 164.268 297.239 164.268 293.874C164.268 291.428 164.514 290.306 165.399 288.981C167.954 285.005 172.23 284.597 180.634 287.451ZM93.1044 292.192C92.957 294.639 76.4438 347.45 76.0015 347.042C75.854 346.838 77.3776 338.886 78.5079 334.145C79.9823 327.926 81.5059 323.287 86.2731 310.085C88.8287 303.05 91.3351 295.658 91.8266 293.67C92.3181 291.682 92.8587 290.051 93.0061 290.051C93.1535 290.051 93.2027 291.02 93.1044 292.192ZM190.955 291.122C200.243 295.047 211.449 301.266 211.449 302.54C211.449 303.356 207.468 308.148 206.927 307.995C206.682 307.944 204.765 306.669 202.701 305.242C199.162 302.846 187.859 291.58 187.859 290.51C187.859 289.847 188.055 289.898 190.955 291.122ZM129.62 292.549C129.768 292.804 129.669 293.161 129.374 293.365C129.129 293.518 128.883 293.314 128.883 292.906C128.883 291.988 129.178 291.835 129.62 292.549ZM126.229 297.239C127.015 297.952 128.342 299.329 129.129 300.246C130.505 301.878 130.456 301.827 128.146 299.889C125.344 297.494 121.413 293.314 123.526 294.945C124.214 295.455 125.394 296.525 126.229 297.239ZM208.598 296.933L214.348 299.278L213.611 300.552C213.169 301.215 212.727 301.776 212.628 301.776C212.53 301.776 211.154 300.756 209.63 299.482C208.058 298.258 205.551 296.525 204.077 295.658C200.931 293.772 201.03 293.823 208.598 296.933ZM46.6611 297.035C46.5137 297.545 46.4154 297.239 46.4154 296.423C46.4154 295.557 46.5137 295.2 46.6611 295.506C46.7594 295.862 46.7594 296.576 46.6611 297.035ZM154.685 305.293C159.01 307.485 163.924 309.881 165.595 310.696C167.463 311.563 169.134 312.786 169.92 313.806L171.198 315.539L169.576 315.182C164.76 314.265 158.567 312.378 156.995 311.359C154.586 309.83 146.526 303.305 143.135 300.144L140.432 297.596L143.627 299.482C145.396 300.501 150.36 303.152 154.685 305.293ZM253.96 299.686C251.061 300.909 236.71 303.662 236.219 303.152C236.071 302.999 237.251 302.693 238.823 302.387C243.64 301.47 251.454 299.686 251.7 299.431C251.798 299.329 252.584 299.227 253.42 299.278C254.698 299.278 254.796 299.38 253.96 299.686ZM267.082 302.846C270.031 304.579 272.341 306.058 272.194 306.21C272.095 306.312 271.112 305.956 270.031 305.395C267.771 304.171 260.988 301.776 260.005 301.776C259.661 301.827 260.693 302.336 262.315 302.999C266.1 304.528 270.572 306.873 270.277 307.179C270.179 307.332 269.54 307.179 268.901 306.924C266.394 305.905 262.463 304.783 262.168 305.038C262.02 305.191 264.085 306.414 266.788 307.689C272.145 310.339 272.341 311.104 267.23 309.473C265.411 308.861 262.02 308.3 259.661 308.148C257.351 308.046 255.877 308.046 256.418 308.198C257.892 308.606 265.411 311.257 268.213 312.378C271.063 313.5 274.11 315.182 272.636 314.825C272.095 314.723 270.67 314.468 269.441 314.265C268.213 314.061 265.264 313.347 262.807 312.684C258.433 311.461 253.911 311.155 251.995 311.92C251.405 312.175 252.486 312.328 254.698 312.328C257.597 312.328 259.022 312.582 261.332 313.653L264.281 314.978L256.172 315.029C251.7 315.029 246.441 315.182 244.475 315.386C240.642 315.692 236.563 315.08 232.09 313.5C230.616 312.99 228.748 312.429 227.962 312.226L226.537 311.92L227.667 311.104C228.552 310.492 229.83 310.288 232.68 310.339C234.842 310.39 236.513 310.238 236.513 309.932C236.513 309.32 232.926 307.383 231.845 307.383C231.451 307.383 231.107 307.128 231.107 306.873C231.107 306.567 231.746 306.363 232.582 306.363C234.695 306.363 247.817 303.56 253.764 301.827C258.777 300.348 260.399 299.889 261.283 299.788C261.529 299.788 264.134 301.164 267.082 302.846ZM162.155 303.968C163.826 304.528 166.136 306.669 165.644 307.179C165.35 307.434 152.473 300.96 152.473 300.552C152.473 300.399 154.292 301.011 156.552 301.878C158.764 302.744 161.32 303.662 162.155 303.968ZM222.752 303.152C222.752 303.662 222.212 304.426 221.524 304.834C220.885 305.242 219.165 306.618 217.74 307.893C215.282 310.085 215.233 310.085 216.314 308.504C217.641 306.567 221.819 302.285 222.359 302.285C222.605 302.285 222.752 302.693 222.752 303.152ZM235.383 303.611C235.236 303.764 234.793 303.815 234.449 303.662C234.056 303.509 234.204 303.356 234.744 303.356C235.285 303.305 235.58 303.458 235.383 303.611ZM179.012 311.563C182.01 312.837 187.072 314.112 192.527 315.029C195.771 315.59 199.113 316.151 199.998 316.304C201.128 316.508 201.472 316.813 201.276 317.323C200.882 318.394 196.951 318.292 192.871 317.119C172.918 311.308 168.2 309.371 168.2 307.077C168.2 306.618 169.92 307.23 173.016 308.708C175.621 309.983 178.324 311.257 179.012 311.563ZM229.289 306.72C228.945 306.822 228.257 306.822 227.815 306.72C227.323 306.567 227.618 306.465 228.404 306.465C229.24 306.465 229.584 306.567 229.289 306.72ZM226.438 307.893C227.52 308.402 228.011 308.861 227.52 308.861C227.077 308.912 225.308 309.524 223.588 310.238C220.197 311.716 217.838 312.531 217.838 312.226C217.838 311.869 223.785 306.873 224.129 306.924C224.325 306.924 225.357 307.383 226.438 307.893ZM203.733 312.328C203.389 312.429 202.799 312.429 202.504 312.328C202.16 312.175 202.406 312.073 203.094 312.073C203.782 312.073 204.028 312.175 203.733 312.328ZM180.487 315.437C182.502 316.049 185.254 316.66 186.581 316.864C188.055 317.068 188.694 317.374 188.301 317.629C187.957 317.833 187.072 317.935 186.384 317.833C185.696 317.731 183.091 317.323 180.634 317.017C176.604 316.457 175.867 316.151 174.245 314.672L172.377 312.99L174.589 313.704C175.818 314.112 178.472 314.876 180.487 315.437ZM55.5075 314.621C55.36 315.029 55.2126 314.876 55.2126 314.316C55.1634 313.755 55.3109 313.449 55.4583 313.653C55.6057 313.806 55.6549 314.265 55.5075 314.621ZM99.4443 320.433C97.4293 331.392 92.1706 343.117 88.4846 345.156C87.5017 345.717 87.4526 345.615 87.7475 344.136C87.944 343.27 90.0082 338.325 92.4164 333.228C94.7754 328.13 97.4784 321.962 98.4122 319.515C99.2968 317.068 100.132 315.131 100.231 315.233C100.329 315.335 99.9849 317.68 99.4443 320.433ZM57.375 326.142C57.7682 329.71 58.0631 333.533 58.0631 334.655L58.0139 336.694L57.5716 334.502C56.8344 330.475 55.6549 320.229 55.704 317.986L55.7532 315.794L56.1955 317.731C56.4412 318.801 56.9818 322.574 57.375 326.142ZM227.667 317.272C229.436 317.527 244.623 319.209 245.753 319.26C246.048 319.26 246.343 319.464 246.343 319.719C246.343 319.923 246.048 320.178 245.753 320.178C237.84 320.891 229.682 320.178 225.996 318.445C222.998 317.017 222.458 316.304 224.62 316.762C225.357 316.864 226.733 317.119 227.667 317.272ZM268.459 317.323C270.621 318.037 273.865 320.789 273.275 321.401C273.177 321.554 270.179 320.637 266.689 319.362C260.497 317.119 260.251 317.068 255.926 317.374C250.717 317.731 250.422 317.731 246.588 317.629C244.524 317.527 243.935 317.374 244.623 317.068C245.163 316.864 250.225 316.66 255.877 316.609C263.986 316.558 266.64 316.711 268.459 317.323ZM170.805 319.872C172.132 320.28 174.245 321.401 175.474 322.37C176.751 323.287 179.897 325.275 182.452 326.805C188.104 330.067 187.76 329.761 186.876 330.373C184.762 331.749 184.123 331.494 176.211 325.938C167.561 319.872 166.627 319.107 167.709 319.107C168.102 319.107 169.527 319.464 170.805 319.872ZM248.161 319.923C248.014 320.076 247.571 320.127 247.227 319.974C246.834 319.821 246.982 319.668 247.522 319.668C248.063 319.617 248.358 319.77 248.161 319.923ZM191.053 322.879C192.134 323.032 193.953 323.236 195.132 323.287C197.59 323.389 197.737 323.746 195.722 324.562C194.493 325.071 193.707 324.969 191.545 324.205C188.596 323.134 186.286 321.911 188.104 322.37C188.645 322.472 189.972 322.727 191.053 322.879ZM175.818 332.412C176.063 332.718 175.916 332.871 175.425 332.871C174.491 332.871 168.741 329.048 166.234 326.754C165.104 325.734 166.382 326.346 169.92 328.589C172.918 330.424 175.523 332.157 175.818 332.412ZM232.189 325.938C235.776 326.346 241.035 326.805 243.885 327.008C246.736 327.212 250.717 327.671 252.732 328.028L256.418 328.691L252.977 328.487C251.11 328.385 244.672 328.181 238.725 328.028C221.376 327.569 216.806 328.385 203.438 334.604C195.575 338.223 194.1 338.784 193.265 338.223C192.527 337.764 208.549 330.118 214.643 328.028C224.178 324.817 223.096 324.969 232.189 325.938ZM67.4009 333.89C66.0248 344.748 64.8453 351.732 63.4692 357.39C63.1251 358.868 62.732 359.327 61.3067 359.735C59.2426 360.398 59.1934 360.143 60.3238 354.892C62.5845 344.748 67.794 325.938 68.2364 326.397C68.2855 326.448 67.9415 329.812 67.4009 333.89ZM85.0935 331.596C83.3243 337.713 81.7025 346.022 81.7025 349.183C81.7025 352.547 80.867 353.312 76.9353 353.975C74.5762 354.331 74.5271 354.484 76.9844 349.387C78.2622 346.685 81.8499 337.764 84.6512 330.424C85.5359 328.13 86.3222 326.295 86.4205 326.346C86.4696 326.448 85.8799 328.793 85.0935 331.596ZM297.701 329.557C302.566 329.965 307.333 330.424 308.267 330.577C309.201 330.679 311.56 330.934 313.427 331.087C318.195 331.494 324.485 332.412 324.485 332.769C324.485 332.871 323.109 332.871 321.438 332.667C315.148 331.953 309.348 331.392 304.09 331.087C298.389 330.73 288.609 329.455 288.215 329.048C287.871 328.691 287.724 328.691 297.701 329.557ZM234.4 329.812C239.413 329.812 239.561 330.169 234.744 330.577C229.24 331.087 222.605 332.463 212.677 335.267C206.288 337.051 200.686 338.223 200.293 337.815C200.145 337.662 200.686 337.357 201.423 337.153C202.209 336.949 204.126 336.133 205.699 335.318C210.318 332.922 215.872 330.985 219.804 330.373C223.785 329.761 228.503 329.404 229.535 329.659C229.928 329.761 232.09 329.812 234.4 329.812ZM247.227 329.659C246.736 329.761 245.95 329.761 245.507 329.659C245.016 329.506 245.409 329.404 246.343 329.404C247.276 329.404 247.67 329.506 247.227 329.659ZM249.636 329.608C249.488 329.761 249.046 329.812 248.702 329.659C248.309 329.506 248.456 329.353 248.997 329.353C249.537 329.302 249.832 329.455 249.636 329.608ZM251.749 329.506C251.749 329.608 251.405 329.812 251.012 330.016C250.618 330.169 250.274 330.067 250.274 329.812C250.274 329.506 250.618 329.302 251.012 329.302C251.405 329.302 251.749 329.404 251.749 329.506ZM253.96 330.22C253.813 330.373 253.42 330.22 253.076 329.863C252.633 329.353 252.683 329.302 253.371 329.608C253.862 329.761 254.108 330.067 253.96 330.22ZM267.426 330.628C267.574 330.832 265.51 330.832 262.807 330.628C260.104 330.475 257.155 330.322 256.319 330.322C255.435 330.322 254.698 330.169 254.698 329.914C254.698 329.455 266.984 330.118 267.426 330.628ZM241.821 330.169C241.33 330.271 240.543 330.271 240.101 330.169C239.61 330.016 240.003 329.914 240.937 329.914C241.87 329.914 242.264 330.016 241.821 330.169ZM282.662 331.545C292.639 332.973 306.006 334.706 310.872 335.216C314.509 335.572 315.492 336.439 313.87 337.713C312.15 339.039 305.613 342.454 302.664 343.525C301.043 344.085 298.389 344.799 296.767 345.105C290.918 346.124 288.117 346.787 288.117 347.144C288.117 347.705 289.542 348.826 291.017 349.489C292.245 349.998 292.245 350.049 288.658 352.649C285.07 355.249 283.448 355.861 283.104 354.739C282.957 354.28 282.662 354.28 281.876 354.739C281.286 355.045 279.811 355.3 278.534 355.3C276.273 355.3 260.399 352.7 248.554 350.406C245.065 349.744 239.855 348.724 237.005 348.214C234.154 347.654 229.977 346.838 227.667 346.43C216.707 344.34 211.645 343.525 198.671 341.944C195.82 341.638 193.854 341.282 194.248 341.18C194.641 341.078 198.179 340.466 202.111 339.752C206.043 339.09 211.449 337.815 214.152 336.949C228.748 332.412 235.186 331.698 259.121 332.055L277.059 332.361L275.093 331.341C274.012 330.781 273.324 330.322 273.57 330.322C273.816 330.322 277.895 330.883 282.662 331.545ZM201.865 331.29C201.718 331.545 200.784 332.055 199.752 332.412C198.769 332.769 193.51 335.267 188.104 338.07C178.963 342.709 176.604 343.779 177.833 342.607C179.209 341.282 194.346 333.788 200.047 331.596C202.308 330.73 202.209 330.73 201.865 331.29ZM270.08 331.188C269.736 331.29 269.147 331.29 268.852 331.188C268.508 331.036 268.753 330.934 269.441 330.934C270.13 330.934 270.375 331.036 270.08 331.188ZM349.697 332.463C348.42 333.941 346.356 337.357 344.291 341.537C342.67 344.748 342.62 344.799 342.915 342.811C343.358 339.65 345.422 335.725 347.83 333.431C350.189 331.188 351.368 330.577 349.697 332.463ZM326.304 333.177C326.156 333.329 325.714 333.38 325.37 333.228C324.977 333.075 325.124 332.922 325.665 332.922C326.206 332.871 326.5 333.024 326.304 333.177ZM315.983 334.196C315.836 334.349 315.393 334.4 315.049 334.247C314.656 334.094 314.804 333.941 315.344 333.941C315.885 333.89 316.18 334.043 315.983 334.196ZM322.176 335.419C323.552 335.419 323.208 335.776 319.079 338.325C316.524 339.854 312.199 342.403 309.496 343.932C305.22 346.379 304.778 346.889 308.12 345.818C308.857 345.615 308.857 345.615 308.267 346.073C307.382 346.634 301.632 348.163 298.29 348.673C295.096 349.132 296.128 348.265 300.895 346.43C310.479 342.76 315.246 340.058 317.703 336.898C318.637 335.725 319.571 335.012 319.964 335.165C320.308 335.318 321.34 335.419 322.176 335.419ZM167.07 336.745C167.266 337.357 165.006 338.325 159.55 339.956C156.405 340.925 152.424 341.435 153.063 340.772C153.505 340.262 165.497 336.031 166.185 336.082C166.578 336.133 166.971 336.439 167.07 336.745ZM386.41 337.458C386.017 337.713 384.542 338.427 383.166 338.937C381.102 339.752 374.959 342.454 366.997 346.124C362.131 348.316 356.775 350.712 356.627 350.712C356.529 350.712 356.431 350.457 356.431 350.202C356.431 349.897 356.676 349.693 356.971 349.693C357.217 349.693 358.396 349.234 359.527 348.724C360.657 348.214 365.129 346.226 369.454 344.34C373.779 342.454 379.333 340.007 381.741 338.937C386.066 337.051 387.884 336.439 386.41 337.458ZM192.282 340.007C192.282 340.466 189.235 341.537 187.859 341.537C186.876 341.537 190.316 339.65 191.446 339.548C191.889 339.548 192.282 339.701 192.282 340.007ZM325.714 339.956C324.829 341.486 312.051 349.642 306.793 352.088C305.318 352.751 303.402 353.669 302.615 354.026C299.617 355.453 293.671 357.798 289.051 359.429L284.382 361.111L278.976 360.347L273.619 359.582L275.093 358.664C275.929 358.206 276.125 357.951 275.585 358.104C272.98 359.021 270.474 358.817 261.824 357.135C256.713 356.116 250.078 354.841 247.08 354.28C238.086 352.547 231.648 351.12 225.947 349.642C222.998 348.826 218.133 347.552 215.135 346.787C207.321 344.748 210.81 344.646 221.131 346.634C225.652 347.501 232.287 348.775 235.776 349.438C239.315 350.1 243.935 351.018 246.097 351.426C251.208 352.445 258.826 353.924 266.247 355.3C269.491 355.912 273.373 356.727 274.848 357.135C276.322 357.543 278.927 357.849 280.647 357.849C283.596 357.849 284.087 357.696 287.331 355.453C289.247 354.178 291.459 352.547 292.196 351.885C293.376 350.916 294.162 350.712 296.865 350.712C302.664 350.712 308.857 348.52 320.062 342.556C326.353 339.192 326.107 339.294 325.714 339.956ZM58.5545 343.321C58.2105 344.901 57.8173 346.277 57.6207 346.379C57.4242 346.481 57.6207 345.105 58.0139 343.321C58.4562 341.486 58.8986 340.109 58.9968 340.211C59.0951 340.364 58.8986 341.74 58.5545 343.321ZM193.461 344.85C194.936 345.818 196.312 346.634 196.459 346.634C197.049 346.634 201.62 348.826 201.472 349.03C201.177 349.285 184.467 346.43 182.502 345.818C181.47 345.462 184.173 344.034 186.63 343.576C190.119 342.913 190.758 343.015 193.461 344.85ZM200.882 344.544C204.568 345.411 208.058 346.481 225.603 352.038C229.486 353.261 233.024 354.28 233.417 354.28C233.86 354.28 234.105 354.433 233.958 354.586C233.565 354.943 221.327 352.751 208.795 350.1C203.88 349.03 195.132 345.666 193.756 344.289C193.166 343.678 193.314 343.576 194.985 343.576C196.066 343.576 198.72 344.034 200.882 344.544ZM294.85 347.654C293.425 348.826 292.442 348.928 290.918 348.061C289.886 347.45 289.985 347.399 292.049 347.093C296.226 346.532 296.226 346.532 294.85 347.654ZM187.367 348.163C195.28 349.336 203.782 350.814 211.203 352.241C220.148 354.026 226.881 355.3 228.896 355.555C229.977 355.708 231.992 356.065 233.319 356.37C237.054 357.186 256.713 360.703 262.807 361.672C265.805 362.131 269.786 362.844 271.751 363.252C273.717 363.66 275.831 363.966 276.519 363.966C277.207 363.966 277.895 364.17 278.042 364.476C278.435 365.138 279.271 365.24 265.018 363.201C258.138 362.182 248.603 360.805 243.885 360.143C236.071 359.021 223.146 357.033 205.797 354.28C196.705 352.853 185.598 351.375 178.963 350.61L173.213 349.998L176.014 348.622C177.538 347.858 179.111 347.195 179.504 347.195C179.897 347.144 183.435 347.603 187.367 348.163ZM57.4733 348.775C57.3259 349.183 57.1784 349.03 57.1784 348.469C57.1293 347.908 57.2767 347.603 57.4242 347.807C57.5716 347.959 57.6207 348.418 57.4733 348.775ZM168.691 348.418C168.347 348.826 167.807 349.183 167.414 349.183C166.627 349.183 164.416 352.139 164.17 353.465C163.973 354.739 165.792 355.402 172.132 356.523C179.946 357.849 208.303 363.048 217.101 364.73C219.263 365.138 224.129 366.056 227.913 366.718C258.924 372.377 259.366 372.428 261.037 373.345C261.726 373.753 262.954 374.212 263.741 374.416C264.478 374.569 265.067 374.824 264.92 374.926C264.625 375.231 248.603 372.377 204.814 364.17C194.542 362.284 186.728 360.856 179.258 359.633C176.85 359.225 169.773 358.002 163.531 356.931L152.277 354.994L159.599 351.783C163.679 350.049 167.414 348.418 167.954 348.163C169.33 347.552 169.38 347.552 168.691 348.418ZM370.683 349.642C369.897 350.1 354.907 356.116 341.441 361.366C334.708 363.966 325.812 367.483 323.158 368.605C321.733 369.165 320.308 369.573 320.013 369.471C319.718 369.369 321.438 368.503 323.797 367.585C330.186 365.138 334.02 363.609 338.738 361.672C342.326 360.194 360.313 353.108 367.98 350.151C370.536 349.183 371.961 348.928 370.683 349.642ZM56.9818 351.834C56.8344 352.19 56.7361 351.936 56.7361 351.222C56.7361 350.508 56.8344 350.253 56.9818 350.559C57.0801 350.916 57.0801 351.528 56.9818 351.834ZM55.2617 353.261C55.1634 354.637 54.9177 355.81 54.7703 355.81C54.5737 355.81 54.5245 354.688 54.5737 353.261C54.672 351.885 54.9177 350.712 55.0651 350.712C55.2617 350.712 55.3109 351.834 55.2617 353.261ZM56.4904 354.892C56.3429 355.249 56.2446 354.994 56.2446 354.28C56.2446 353.567 56.3429 353.312 56.4904 353.618C56.5887 353.975 56.5887 354.586 56.4904 354.892ZM147.559 354.229C147.165 354.484 146.281 354.841 145.593 354.994L144.364 355.351L145.593 354.586C146.281 354.128 147.165 353.822 147.559 353.822C148.197 353.822 148.197 353.873 147.559 354.229ZM193.756 354.28C193.756 354.535 193.56 354.79 193.265 354.79C193.019 354.79 192.773 354.535 192.773 354.28C192.773 353.975 193.019 353.771 193.265 353.771C193.56 353.771 193.756 353.975 193.756 354.28ZM84.6512 354.79C84.2581 355.045 83.57 355.249 83.1768 355.249C82.6854 355.249 82.7837 355.096 83.4226 354.79C84.7495 354.178 85.5359 354.178 84.6512 354.79ZM142.202 356.37C141.022 356.931 139.793 357.288 139.499 357.186C139.204 357.084 139.941 356.625 141.17 356.167C144.217 355.045 144.806 355.147 142.202 356.37ZM79.2451 356.574C78.3114 356.931 77.181 357.237 76.7878 357.237C76.3946 357.237 76.837 356.931 77.7707 356.574C78.7045 356.218 79.8349 355.912 80.2281 355.912C80.6212 355.912 80.1789 356.218 79.2451 356.574ZM54.5245 357.951C54.3771 358.308 54.2788 358.053 54.2788 357.339C54.2788 356.625 54.3771 356.37 54.5245 356.676C54.6228 357.033 54.6228 357.645 54.5245 357.951ZM75.6575 357.645C75.51 357.798 75.0677 357.849 74.7237 357.696C74.3305 357.543 74.4779 357.39 75.0186 357.39C75.5592 357.339 75.854 357.492 75.6575 357.645ZM136.796 358.409C135.616 358.97 134.387 359.327 134.092 359.225C133.798 359.123 134.535 358.664 135.763 358.206C138.811 357.084 139.4 357.186 136.796 358.409ZM72.6104 358.613C71.824 359.021 70.792 359.327 70.3988 359.327C70.0056 359.327 70.3496 358.97 71.136 358.613C71.9715 358.206 72.9544 357.9 73.3476 357.9C73.7407 357.9 73.4459 358.257 72.6104 358.613ZM54.2788 360.754C54.1314 361.57 53.9348 361.876 53.7873 361.519C53.5907 360.856 53.9839 359.378 54.3279 359.378C54.4262 359.378 54.4262 359.99 54.2788 360.754ZM133.306 359.582C133.306 359.939 127.802 361.978 127.556 361.774C127.458 361.672 128.539 361.111 129.964 360.499C132.667 359.378 133.306 359.225 133.306 359.582ZM66.5162 360.652C65.6316 361.06 64.5012 361.417 64.0589 361.366C63.6166 361.366 64.0589 361.009 64.9927 360.652C67.3026 359.735 68.6295 359.735 66.5162 360.652ZM62.0439 362.131C62.0439 362.233 61.3067 362.589 60.4712 362.895C58.9968 363.405 58.9477 363.354 59.7832 362.691C60.6678 361.978 62.0439 361.672 62.0439 362.131ZM305.073 362.895C300.011 365.291 298.389 366.005 294.26 367.687C288.903 369.879 282.564 371.765 281.138 371.51C280.598 371.408 283.546 370.083 287.921 368.452C292.245 366.871 297.848 364.781 300.404 363.813C305.417 361.927 308.316 361.315 305.073 362.895ZM56.1464 366.718C56.1464 367.585 55.8023 367.993 54.9177 368.146C53.9348 368.35 53.689 368.197 53.689 367.432C53.689 366.871 53.8856 366.566 54.1314 366.718C54.3771 366.871 54.8194 366.668 55.1634 366.26C55.9989 365.24 56.1464 365.291 56.1464 366.718ZM52.1164 368.401C51.9198 369.573 48.7744 370.032 48.7744 368.859C48.7744 368.146 49.6099 367.687 51.3792 367.585C51.9689 367.534 52.2146 367.84 52.1164 368.401ZM319.079 369.777C319.079 370.083 314.509 371.663 314.312 371.408C314.214 371.306 315.049 370.848 316.229 370.44C318.539 369.573 319.079 369.471 319.079 369.777ZM279.861 375.282C278.681 375.843 276.961 376.404 276.076 376.557C274.012 376.914 268.95 376.302 268.95 375.69C268.95 375.028 273.668 374.263 278.042 374.263H281.974L279.861 375.282ZM267.132 375.537C266.788 375.639 266.198 375.639 265.903 375.537C265.559 375.384 265.805 375.282 266.493 375.282C267.181 375.282 267.426 375.384 267.132 375.537Z" fill="#0B405A"/>
<path d="M154.881 43.1762C154.242 43.9918 154.292 44.0428 155.078 43.3801C155.52 43.0233 155.913 42.6155 155.913 42.5136C155.913 42.1057 155.52 42.3606 154.881 43.1762Z" fill="#0B405A"/>
<path d="M138.417 45.1644C137.533 45.878 137.533 45.878 138.712 45.3173C140.236 44.6036 140.481 44.3488 139.892 44.3488C139.597 44.3488 138.958 44.7056 138.417 45.1644Z" fill="#0B405A"/>
<path d="M134.584 47.4582C133.306 48.3248 132.323 49.1404 132.471 49.2933C132.815 49.5992 135.911 47.7131 136.746 46.6426C137.582 45.5721 137.336 45.674 134.584 47.4582Z" fill="#0B405A"/>
<path d="M99.4443 188.916C99.4443 189.476 99.5915 189.629 99.7387 189.222C99.8859 188.865 99.8369 188.406 99.6896 188.253C99.5424 188.049 99.3952 188.355 99.4443 188.916Z" fill="#0B405A"/>
<path d="M99.4443 191.464C99.4443 192.025 99.5915 192.178 99.7387 191.77C99.8859 191.413 99.8369 190.954 99.6896 190.802C99.5424 190.598 99.3952 190.904 99.4443 191.464Z" fill="#0B405A"/>
<path d="M69.465 220.469C69.465 221.846 69.8582 225.771 70.3497 229.135C70.8903 232.5 71.4309 236.374 71.6275 237.699C71.8241 239.075 72.0206 240.095 72.1189 239.993C72.3647 239.738 70.5954 223.324 69.9565 220.214L69.5142 217.921L69.465 220.469Z" fill="#0B405A"/>
<path d="M291.951 302.744C292.589 303.305 293.916 303.917 294.899 304.07C295.882 304.222 298.487 304.783 300.649 305.344C306.35 306.72 312.346 308.046 326.206 310.9C332.988 312.328 337.263 313.347 335.789 313.194C329.695 312.532 317.212 310.543 304.09 308.199C294.604 306.465 286.938 305.344 284.726 305.344C283.202 305.395 283.055 305.446 283.792 306.007C284.579 306.669 287.331 307.383 296.718 309.371C303.844 310.9 309.201 311.92 329.302 315.59C332.447 316.151 337.067 317.068 339.475 317.578C341.932 318.139 345.717 318.954 347.977 319.413C350.238 319.923 352.155 320.484 352.302 320.739C352.45 320.993 352.401 321.095 352.155 321.044C351.418 320.841 348.026 321.707 345.864 322.676C343.603 323.695 341.687 326.142 341.687 327.977C341.687 328.691 341.981 328.487 342.817 327.212C344.046 325.275 346.896 324.103 351.418 323.542C354.219 323.185 354.956 323.848 352.401 324.409C351.516 324.613 349.648 325.53 348.223 326.499C346.208 327.875 345.373 328.895 344.144 331.545C343.259 333.381 342.67 335.165 342.817 335.522C342.964 335.878 343.407 335.369 343.849 334.247C345.029 331.443 348.174 328.538 352.401 326.346L356.136 324.46H363.016C367.636 324.511 371.174 324.766 373.632 325.326C381.937 327.263 390.145 327.926 389.752 326.601C388.671 323.287 371.813 318.037 355.742 316.049C353.039 315.743 350.386 315.233 349.845 314.978C349.059 314.622 349.206 314.571 350.533 314.723C351.467 314.876 354.022 315.131 356.185 315.233C361.345 315.59 358.446 314.774 352.745 314.265C350.14 314.061 348.616 313.704 348.715 313.347C348.813 312.786 343.112 311.308 333.577 309.473C319.915 306.822 317.556 306.414 311.953 305.344C308.709 304.732 304.09 303.815 301.632 303.305C299.224 302.795 295.784 302.234 294.015 302.031L290.82 301.725L291.951 302.744ZM340.065 313.806C339.917 313.959 339.475 314.01 339.131 313.857C338.738 313.704 338.885 313.551 339.426 313.551C339.966 313.5 340.261 313.653 340.065 313.806ZM348.223 314.876C347.879 314.978 347.191 314.978 346.749 314.876C346.257 314.723 346.552 314.622 347.338 314.622C348.174 314.622 348.518 314.723 348.223 314.876ZM353.727 318.139C362.476 319.107 370.191 320.484 367.98 320.586C367.439 320.637 365.228 320.331 363.065 319.923C360.903 319.515 357.266 319.056 354.956 318.852C349.943 318.445 341.588 317.17 341.195 316.712C341.048 316.559 341.736 316.559 342.67 316.712C343.603 316.915 348.616 317.527 353.727 318.139ZM371.322 320.993C370.978 321.095 370.388 321.095 370.093 320.993C369.749 320.841 369.995 320.739 370.683 320.739C371.371 320.739 371.617 320.841 371.322 320.993Z" fill="#0B405A"/>
<rect x="3.5" y="3.5" width="403" height="411" stroke="#0B405A" stroke-width="7"/>
</svg>
